<?xml version="1.0" standalone="no"?>
<!DOCTYPE svg PUBLIC "-//W3C//DTD SVG 1.1//EN" "http://www.w3.org/Graphics/SVG/1.1/DTD/svg11.dtd" >
<svg>
<metadata>
Created by FontForge 20090622 at Sat Dec 19 19:26:41 2015
 By deploy user
Copyright (c) 2009 by Eduardo Manso. All rights reserved.
</metadata>
<defs>
<font id="Geogrotesque-Regular" horiz-adv-x="524" >
  <font-face 
    font-family="Geogrotesque Rg"
    font-weight="400"
    font-stretch="normal"
    units-per-em="1000"
    panose-1="2 0 0 0 0 0 0 0 0 0"
    ascent="750"
    descent="-250"
    x-height="494"
    cap-height="680"
    bbox="-59 -222.643 1419 964"
    underline-thickness="50"
    underline-position="-50"
    unicode-range="U+0020-U+FB04"
  />
<missing-glyph horiz-adv-x="859" 
d="M677 94q-104 -102 -249 -102q-144 0 -246 102q-103 101 -103 247q0 144 103 247q102 102 246 102q147 0 249 -102q103 -103 103 -247t-103 -247zM665 106q99 99 99 235t-99 235q-98 98 -237 98q-136 0 -234 -98q-99 -99 -99 -235q0 -138 99 -235q98 -98 234 -98
q139 0 237 98zM547 183l-118 118l-117 -117q-10 -10 -21 1l-20 19q-11 10 0 21l117 117l-117 118q-11 10 0 21l20 20q11 11 21 0l117 -118l119 118q11 11 21 1l20 -20q12 -12 0 -22l-119 -118l118 -118q10 -10 0 -21l-20 -20q-10 -11 -21 0z" />
    <glyph glyph-name="ff" unicode="ff" horiz-adv-x="620" 
d="M101 492h8v82q0 129 187 129h6q15 0 15 -15v-29q0 -15 -15 -15h-6q-64 0 -90.5 -19.5t-26.5 -57.5v-75h224v86q0 128 187 128h6q14 0 14 -14v-30q0 -15 -14 -15h-6q-117 0 -117 -76v-79h108q15 0 15 -14v-28q0 -15 -15 -15h-108v-420q0 -15 -15 -15h-41q-14 0 -14 15v420
h-224v-420q0 -15 -14 -15h-41q-15 0 -15 15v420h-63q-14 0 -14 15v24q0 14 14 15z" />
    <glyph glyph-name="fi" unicode="fi" horiz-adv-x="547" 
d="M468 477v-462q0 -15 -14 -15h-41q-14 0 -14 15v420h-225v-420q0 -15 -14 -15h-41q-14 0 -14 15v420h-63q-14 0 -14 15v24q0 14 14 15l54 3h9v78q0 129 186 129h143q14 0 14 -15v-29q0 -15 -14 -15h-143q-117 0 -117 -77v-71h279q15 0 15 -15z" />
    <glyph glyph-name="fl" unicode="fl" horiz-adv-x="547" 
d="M468 684v-669q0 -15 -14 -15h-41q-14 0 -14 15v625h-108q-117 0 -117 -77v-71h109q15 0 15 -14v-28q0 -15 -15 -15h-109v-420q0 -15 -14 -15h-41q-14 0 -14 15v420h-63q-14 0 -14 15v24q0 14 14 15l54 3h9v78q0 129 186 129h162q15 0 15 -15z" />
    <glyph glyph-name="ffi" unicode="ffi" horiz-adv-x="846" 
d="M101 492h8v82q0 129 187 129h6q15 0 15 -15v-29q0 -15 -15 -15h-6q-64 0 -90.5 -19.5t-26.5 -57.5v-75h224v78q0 129 187 129h142q15 0 15 -15v-29q0 -15 -15 -15h-142q-64 0 -90.5 -19.5t-26.5 -57.5v-71h278q16 0 16 -15v-462q0 -15 -14 -15h-41q-15 0 -15 15v420h-224
v-420q0 -15 -15 -15h-40q-15 0 -15 15v420h-224v-420q0 -15 -14 -15h-41q-15 0 -15 15v420h-63q-14 0 -14 15v24q0 14 14 15z" />
    <glyph glyph-name="ffl" unicode="ffl" horiz-adv-x="846" 
d="M101 492h9v82q0 129 186 129h6q15 0 15 -15v-29q0 -15 -15 -15h-6q-64 0 -90.5 -19.5t-26.5 -57.5v-75h224v78q0 129 188 129h160q16 0 16 -15v-669q0 -15 -14 -15h-40q-15 0 -15 15v625h-107q-64 0 -91 -19.5t-27 -57.5v-71h109q15 0 15 -14v-28q0 -15 -15 -15h-109
v-420q0 -15 -15 -15h-40q-15 0 -15 15v420h-224v-420q0 -15 -14 -15h-41q-14 0 -14 15v420h-63q-15 0 -15 15v24q0 14 15 15z" />
    <glyph glyph-name=".notdef" horiz-adv-x="859" 
d="M677 94q-104 -102 -249 -102q-144 0 -246 102q-103 101 -103 247q0 144 103 247q102 102 246 102q147 0 249 -102q103 -103 103 -247t-103 -247zM665 106q99 99 99 235t-99 235q-98 98 -237 98q-136 0 -234 -98q-99 -99 -99 -235q0 -138 99 -235q98 -98 234 -98
q139 0 237 98zM547 183l-118 118l-117 -117q-10 -10 -21 1l-20 19q-11 10 0 21l117 117l-117 118q-11 10 0 21l20 20q11 11 21 0l117 -118l119 118q11 11 21 1l20 -20q12 -12 0 -22l-119 -118l118 -118q10 -10 0 -21l-20 -20q-10 -11 -21 0z" />
    <glyph glyph-name=".null" horiz-adv-x="0" 
 />
    <glyph glyph-name="nonmarkingreturn" horiz-adv-x="333" 
 />
    <glyph glyph-name="space" unicode=" " horiz-adv-x="224" 
 />
    <glyph glyph-name="exclam" unicode="!" horiz-adv-x="254" 
d="M163 390l-7 -213q0 -15 -14 -15h-30q-14 0 -14 15l-7 213v275q0 15 14 15h44q14 0 14 -15v-275zM162 93v-78q0 -15 -14 -15h-42q-15 0 -15 15v78q0 15 15 15h42q14 0 14 -15z" />
    <glyph glyph-name="quotedbl" unicode="&#x22;" horiz-adv-x="367" 
d="M142 494q0 -15 -14 -15h-28q-15 0 -15 15l-6 171q0 15 15 15h40q14 0 14 -15zM282 494q0 -15 -15 -15h-28q-14 0 -14 15l-7 171q0 15 15 15h40q15 0 15 -15z" />
    <glyph glyph-name="numbersign" unicode="#" horiz-adv-x="653" 
d="M97 270h82l30 109h-70q-15 0 -15 15v23q0 14 15 14h85l27 96q5 15 18 15h30q15 0 11 -15l-27 -96h152l27 96q5 15 18 15h30q15 0 11 -15l-27 -96h61q15 0 15 -14v-23q0 -15 -15 -15h-76l-30 -109h65q14 0 14 -14v-22q0 -15 -14 -15h-80l-26 -94q-5 -16 -17 -16h-31
q-16 0 -11 16l27 94h-153l-26 -94q-5 -16 -18 -16h-30q-16 0 -11 16l26 94h-67q-14 0 -14 15v22q0 14 14 14zM268 379l-31 -109h153l31 109h-153z" />
    <glyph glyph-name="dollar" unicode="$" horiz-adv-x="529" 
d="M374 452v29q0 62 -111 62q-109 0 -109 -62v-26q0 -39 51 -55l154 -50q86 -28 86 -95v-57q0 -43 -35.5 -73.5t-106.5 -37.5v-72q0 -15 -14 -15h-41q-15 0 -15 15v71q-76 5 -113.5 36t-37.5 76v27q0 14 14 14h37q13 0 13 -14v-24q0 -63 117 -63q57 0 87.5 16.5t30.5 46.5
v37q0 37 -59 56l-154 51q-30 10 -53.5 36t-23.5 61v39q0 45 34 76t108 37v71q0 15 15 15h41q14 0 14 -15v-72q69 -7 102 -38t33 -74v-29q0 -13 -14 -13h-37q-13 0 -13 13z" />
    <glyph glyph-name="percent" unicode="%" horiz-adv-x="776" 
d="M83 483v109q0 95 135 95t135 -95v-109q0 -95 -135 -95t-135 95zM295 485v105q0 49 -77 49t-77 -49v-105q0 -49 77 -49t77 49zM635 89v104q0 49 -76 49q-77 0 -77 -49v-104q0 -50 77 -50q76 0 76 50zM423 86v109q0 95 136 95q135 0 135 -95v-109q0 -95 -135 -95
q-136 0 -136 95zM571 665l-303 -650q-7 -15 -21 -15h-36q-6 0 -8 5t1 10l304 650q8 15 21 15h34q15 0 8 -15z" />
    <glyph glyph-name="ampersand" unicode="&#x26;" horiz-adv-x="672" 
d="M294 389h322q15 0 15 -15v-30q0 -14 -15 -14h-75v-193q0 -66 -54 -105.5t-174 -39.5q-227 0 -227 143v110q0 47 20 75t73 41q-48 12 -67 39t-19 72v73q0 67 44 105t154 38q111 0 155 -39t44 -106v-22q0 -14 -15 -14h-41q-14 0 -14 14v13q0 47 -28.5 71t-100.5 24
t-100 -24t-28 -71v-52q0 -48 28 -70.5t103 -22.5zM314 51q158 0 158 95v184h-185q-75 0 -103 -22.5t-28 -70.5v-91q0 -95 158 -95z" />
    <glyph glyph-name="quotesingle" unicode="'" horiz-adv-x="227" 
d="M148 665l-6 -171q0 -15 -14 -15h-28q-15 0 -15 15l-6 171q0 15 15 15h40q14 0 14 -15z" />
    <glyph glyph-name="parenleft" unicode="(" horiz-adv-x="354" 
d="M86 -89v668q0 129 187 129h6q15 0 15 -15v-29q0 -15 -15 -15h-6q-63 0 -89 -19.5t-26 -57.5v-654q0 -38 26 -57.5t89 -19.5h6q15 0 15 -15v-29q0 -15 -15 -15h-6q-187 0 -187 129z" />
    <glyph glyph-name="parenright" unicode=")" horiz-adv-x="354" 
d="M267 579v-668q0 -129 -187 -129h-5q-15 0 -15 15v29q0 15 15 15h5q63 0 89.5 19.5t26.5 57.5v654q0 38 -26.5 57.5t-89.5 19.5h-5q-15 0 -15 15v29q0 15 15 15h5q187 0 187 -129z" />
    <glyph glyph-name="asterisk" unicode="*" horiz-adv-x="510" 
d="M245 350q-14 0 -14 15l4 129l-111 -72q-13 -8 -20 6l-10 18q-7 13 6 20l112 61l-112 63q-12 6 -6 19l10 20q7 13 20 5l112 -72l-5 133q0 15 14 15h22q14 0 14 -15l-6 -133l111 72q15 9 21 -5l9 -20q5 -12 -6 -19l-112 -63l112 -61q12 -7 6 -20l-9 -19q-6 -14 -21 -5
l-110 71l5 -128q0 -15 -14 -15h-22z" />
    <glyph glyph-name="plus" unicode="+" horiz-adv-x="579" 
d="M259 143v166h-165q-15 0 -15 15v30q0 15 15 15h165v165q0 16 14 16h30q14 0 14 -16v-165h168q15 0 15 -15v-30q0 -15 -15 -15h-168v-166q0 -14 -14 -14h-30q-14 0 -14 14z" />
    <glyph glyph-name="comma" unicode="," horiz-adv-x="220" 
d="M75 32v61q0 15 14 15h43q14 0 14 -15v-64q0 -92 -101 -122q-13 -5 -18 9l-10 29q-5 13 9 19q28 12 38.5 27.5t10.5 40.5z" />
    <glyph glyph-name="hyphen" unicode="-" horiz-adv-x="456" 
d="M94 318h268q15 0 15 -14v-29q0 -15 -15 -15h-268q-15 0 -15 15v29q0 14 15 14z" />
    <glyph glyph-name="period" unicode="." horiz-adv-x="221" 
d="M146 93v-78q0 -15 -14 -15h-42q-15 0 -15 15v78q0 15 15 15h42q14 0 14 -15z" />
    <glyph glyph-name="slash" unicode="/" horiz-adv-x="369" 
d="M329 684l-215 -817q-4 -15 -18 -15h-45q-16 0 -11 15l216 817q4 15 17 15h45q16 0 11 -15z" />
    <glyph glyph-name="zero" unicode="0" horiz-adv-x="542" 
d="M65 138v404q0 146 206 146q207 0 207 -146v-404q0 -146 -207 -146q-206 0 -206 146zM406 149v382q0 47 -30 71.5t-105 24.5t-105 -24.5t-30 -71.5v-382q0 -47 30 -71.5t105 -24.5t105 24.5t30 71.5z" />
    <glyph glyph-name="one" unicode="1" horiz-adv-x="542" 
d="M89 631l216 52q14 2 14 -13v-609h158q15 0 15 -14v-32q0 -15 -15 -15h-389q-15 0 -15 15v32q0 14 15 14h160v544l-159 -37q-15 -3 -15 12v34q0 14 15 17z" />
    <glyph glyph-name="two" unicode="2" horiz-adv-x="542" 
d="M154 61h314q15 0 15 -14v-32q0 -15 -15 -15h-371q-14 0 -14 15v193q0 63 82 90l186 62q58 18 58 70v101q0 48 -29.5 72.5t-104.5 24.5q-74 0 -103.5 -24.5t-29.5 -72.5v-46q0 -16 -14 -16h-40q-15 0 -15 16v57q0 68 45 107t157 39q205 0 205 -146v-111q0 -53 -28.5 -83
t-61.5 -40l-170 -54q-66 -19 -66 -66v-127z" />
    <glyph glyph-name="three" unicode="3" horiz-adv-x="542" 
d="M180 389h83q75 0 102.5 22.5t27.5 70.5v52q0 47 -28 71t-100 24t-100.5 -24t-28.5 -71v-13q0 -14 -14 -14h-41q-14 0 -14 14v22q0 67 44 106t155 39q110 0 153.5 -38t43.5 -105v-73q0 -45 -18.5 -72t-67.5 -39q53 -13 73 -41t20 -75v-110q0 -143 -203 -143
q-205 0 -205 145v22q0 14 14 14h41q14 0 14 -14v-13q0 -46 31 -70.5t104 -24.5t103.5 24.5t30.5 70.5v91q0 48 -28 70.5t-103 22.5h-89q-15 0 -15 14v30q0 15 15 15z" />
    <glyph glyph-name="four" unicode="4" horiz-adv-x="542" 
d="M261 665l-140 -389h266v389q0 15 15 15h43q14 0 14 -15v-650q0 -15 -14 -15h-43q-15 0 -15 15v200h-325q-15 0 -15 15v29q0 7 3 16l140 390q6 15 18 15h42q16 0 11 -15z" />
    <glyph glyph-name="five" unicode="5" horiz-adv-x="542" 
d="M105 680h334q15 0 15 -15v-31q0 -15 -15 -15h-277v-204h108q100 0 150.5 -35.5t50.5 -98.5v-145q0 -68 -43.5 -106.5t-155.5 -38.5q-111 0 -154.5 38.5t-43.5 106.5v22q0 15 15 15h40q15 0 15 -15v-12q0 -48 27 -71.5t101 -23.5q73 0 100 23.5t27 71.5v126q0 84 -130 84
h-164q-14 0 -14 15v294q0 15 14 15z" />
    <glyph glyph-name="six" unicode="6" horiz-adv-x="542" 
d="M71 138v409q0 141 200 141q198 0 198 -141v-18q0 -15 -15 -15h-40q-14 0 -14 15v9q0 91 -129 91q-130 0 -130 -91v-183q35 50 140 50q195 0 195 -146v-121q0 -68 -45 -107t-158 -39q-112 0 -157 39t-45 107zM406 147v103q0 47 -29 71.5t-104 24.5q-132 0 -132 -88v-111
q0 -47 29 -71.5t103 -24.5q75 0 104 24.5t29 71.5z" />
    <glyph glyph-name="seven" unicode="7" horiz-adv-x="542" 
d="M68 680h410q14 0 14 -15v-30q0 -4 -3 -13l-256 -607q-6 -15 -18 -15h-49q-17 0 -11 15l256 604h-343q-16 0 -16 15v31q0 15 16 15z" />
    <glyph glyph-name="eight" unicode="8" horiz-adv-x="542" 
d="M77 477v65q0 69 41 107.5t153 38.5t153 -38.5t41 -107.5v-65q0 -46 -20 -74.5t-71 -40.5q99 -24 99 -116v-108q0 -68 -44.5 -107t-157.5 -39t-157.5 39t-44.5 107v108q0 45 22.5 74t75.5 42q-50 12 -70 40.5t-20 74.5zM403 147v89q0 48 -29 72t-103 24q-75 0 -103 -24
t-28 -72v-89q0 -48 28 -72t103 -24q74 0 103 24.5t29 71.5zM396 487v46q0 48 -26 72t-99 24t-98.5 -24t-25.5 -72v-46q0 -49 25.5 -73t98.5 -24t99 24t26 73z" />
    <glyph glyph-name="nine" unicode="9" horiz-adv-x="542" 
d="M471 542v-409q0 -141 -200 -141q-197 0 -197 141v18q0 15 14 15h41q14 0 14 -15v-9q0 -91 128 -91q73 0 101 24t28 67v182q-34 -49 -140 -49q-194 0 -194 146v121q0 68 45 107t158 39t157.5 -39t44.5 -107zM400 533q0 47 -28.5 71.5t-102.5 24.5q-75 0 -104 -24.5
t-29 -71.5v-103q0 -47 29 -71.5t104 -24.5q71 0 101 23t30 68v108z" />
    <glyph glyph-name="colon" unicode=":" horiz-adv-x="221" 
d="M146 93v-78q0 -15 -14 -15h-42q-15 0 -15 15v78q0 15 15 15h42q14 0 14 -15zM146 479v-79q0 -14 -14 -14h-42q-15 0 -15 14v79q0 15 15 15h42q14 0 14 -15z" />
    <glyph glyph-name="semicolon" unicode=";" horiz-adv-x="270" 
d="M195 479v-79q0 -14 -14 -14h-41q-15 0 -15 14v79q0 15 15 15h41q14 0 14 -15zM125 32v61q0 15 15 15h41q14 0 14 -15v-64q0 -90 -100 -122q-14 -5 -19 9l-10 29q-5 13 9 19q29 13 39.5 28.5t10.5 39.5z" />
    <glyph glyph-name="less" unicode="&#x3c;" horiz-adv-x="539" 
d="M445 469l-297 -129l297 -129q15 -7 15 -16v-40q0 -19 -15 -13l-352 159q-14 7 -14 17v45q0 9 14 16l352 159q7 3 11 -1t4 -12v-40q0 -9 -15 -16z" />
    <glyph glyph-name="equal" unicode="=" horiz-adv-x="588" 
d="M94 450h400q15 0 15 -14v-30q0 -15 -15 -15h-400q-15 0 -15 15v30q0 14 15 14zM94 271h400q15 0 15 -14v-30q0 -14 -15 -14h-400q-15 0 -15 14v30q0 14 15 14z" />
    <glyph glyph-name="greater" unicode="&#x3e;" horiz-adv-x="539" 
d="M391 340l-297 128q-15 7 -15 17v41q0 19 15 13l352 -159q14 -7 14 -17v-45q0 -11 -14 -18l-352 -159q-15 -6 -15 13v40q0 11 15 18z" />
    <glyph glyph-name="question" unicode="?" horiz-adv-x="567" 
d="M235 177v78q0 63 66 96l70 36q50 28 50 77v67q0 47 -31.5 72t-106.5 25q-76 0 -107.5 -25t-31.5 -72v-46q0 -16 -14 -16h-40q-15 0 -15 16v57q0 146 208 146q207 0 209 -146v-76q0 -90 -83 -130l-53 -26q-50 -24 -50 -71v-62q0 -15 -14 -15h-43q-14 0 -14 15zM306 93v-78
q0 -15 -14 -15h-43q-14 0 -14 15v78q0 15 14 15h43q14 0 14 -15z" />
    <glyph glyph-name="at" unicode="@" horiz-adv-x="852" 
d="M610 -122h-184q-101 0 -169.5 14t-103 40t-48.5 55.5t-14 67.5v394q0 30 8 54t30 47.5t58.5 39t97 25t141.5 9.5q101 0 169.5 -13.5t103.5 -39.5t49 -55t14 -67v-284q0 -132 -130 -132q-89 0 -112 64q-79 -64 -161 -64q-117 0 -117 106q0 14 1 22l17 169q13 128 135 128
q71 0 142 -56l5 34q3 14 17 14h35q13 0 12 -14l-26 -259q-9 -91 56 -91q58 0 58 87v273q0 59 -58.5 90t-209.5 31q-150 0 -209 -31t-59 -90v-389q0 -38 21.5 -63.5t83 -41.5t163.5 -16h184q15 0 15 -14v-29q0 -15 -15 -15zM326 318l-14 -136q-2 -20 -2 -21q0 -63 75 -63
q55 0 125 47v15l20 185q-60 51 -117 51q-79 0 -87 -78z" />
    <glyph glyph-name="A" unicode="A" horiz-adv-x="526" 
d="M285 680q13 0 18 -15l200 -650q5 -15 -12 -15h-43q-14 0 -18 15l-55 178h-229l-54 -178q-4 -15 -17 -15h-40q-15 0 -11 15l199 650q5 15 19 15h43zM360 250l-73 234q-7 23 -25 121q-10 -73 -25 -119l-74 -236h197z" />
    <glyph glyph-name="B" unicode="B" horiz-adv-x="582" 
d="M304 0h-199q-14 0 -14 15v650q0 15 14 15h172q216 0 216 -140v-66q0 -88 -90 -118q118 -26 118 -123v-89q0 -144 -217 -144zM304 322h-143v-263h143q146 0 146 96v74q0 93 -146 93zM277 621h-116v-243h126q136 0 136 97v54q0 46 -34.5 69t-111.5 23z" />
    <glyph glyph-name="C" unicode="C" horiz-adv-x="552" 
d="M501 202v-64q0 -146 -211 -146t-211 146v404q0 146 211 146t211 -146v-51q0 -16 -14 -16h-40q-15 0 -15 16v40q0 96 -141 96t-141 -96v-382q0 -96 141 -96t141 96v53q0 15 15 15h40q14 0 14 -15z" />
    <glyph glyph-name="D" unicode="D" horiz-adv-x="602" 
d="M306 0h-203q-12 0 -12 15v650q0 15 13 15h202q217 0 217 -146v-388q0 -146 -217 -146zM306 619h-145v-558h145q146 0 146 96v366q0 96 -146 96z" />
    <glyph glyph-name="E" unicode="E" 
d="M458 0h-354q-13 0 -13 15v650q0 15 14 15h341q15 0 15 -15v-31q0 -15 -15 -15h-285v-233h267q15 0 15 -15v-29q0 -15 -15 -15h-267v-266h297q15 0 15 -14v-32q0 -15 -15 -15z" />
    <glyph glyph-name="F" unicode="F" horiz-adv-x="528" 
d="M105 680h367q15 0 15 -15v-31q0 -15 -15 -15h-311v-234h293q14 0 14 -15v-32q0 -15 -14 -15h-293v-308q0 -15 -14 -15h-42q-14 0 -14 15v650q0 15 14 15z" />
    <glyph glyph-name="G" unicode="G" horiz-adv-x="567" 
d="M298 327h188q15 0 15 -14v-175q0 -146 -211 -146t-211 146v404q0 146 211 146t211 -146v-48q0 -14 -14 -14h-40q-15 0 -15 14v37q0 96 -141 96t-141 -96v-382q0 -96 141 -96t141 95v118h-134q-14 0 -14 15v32q0 14 14 14z" />
    <glyph glyph-name="H" unicode="H" horiz-adv-x="614" 
d="M161 665v-275h291v275q0 15 14 15h43q14 0 14 -15v-650q0 -15 -14 -15h-43q-14 0 -14 15v315h-291v-315q0 -15 -14 -15h-42q-14 0 -14 15v650q0 15 14 15h42q14 0 14 -15z" />
    <glyph glyph-name="I" unicode="I" horiz-adv-x="252" 
d="M161 665v-650q0 -15 -14 -15h-42q-14 0 -14 15v650q0 15 14 15h42q14 0 14 -15z" />
    <glyph glyph-name="J" unicode="J" horiz-adv-x="496" 
d="M100 183v-34q0 -47 27 -71.5t94 -24.5t93.5 24.5t26.5 71.5v516q0 15 14 15h42q15 0 15 -15v-527q0 -68 -42.5 -107t-148.5 -39q-191 0 -191 146v45q0 16 15 16h41q14 0 14 -16z" />
    <glyph glyph-name="K" unicode="K" horiz-adv-x="549" 
d="M252 345l277 -330q4 -5 2 -10t-9 -5h-56q-12 0 -23 15l-251 298h-31v-298q0 -15 -14 -15h-42q-15 0 -15 15v650q0 15 15 15h42q14 0 14 -15v-298h31l231 299q11 14 25 14h46q8 0 10 -4t-3 -11z" />
    <glyph glyph-name="L" unicode="L" horiz-adv-x="490" 
d="M162 665v-604h280q14 0 14 -14v-32q0 -15 -14 -15h-339q-12 0 -12 15v650q0 15 14 15h43q14 0 14 -15z" />
    <glyph glyph-name="M" unicode="M" horiz-adv-x="726" 
d="M636 665v-650q0 -15 -15 -15h-40q-15 0 -15 15v516q-8 -35 -20 -62l-145 -350q-6 -15 -20 -15h-37q-13 0 -19 15l-151 359q-7 16 -17 52v-515q0 -15 -14 -15h-38q-15 0 -15 15v650q0 15 15 15h38q10 0 13 -8l189 -442q13 -32 18 -51q8 23 19 50l185 443q3 8 14 8h40
q15 0 15 -15z" />
    <glyph glyph-name="N" unicode="N" horiz-adv-x="613" 
d="M522 665v-650q0 -15 -14 -15h-38q-10 0 -14 7l-265 470q-29 50 -34 65v-527q0 -15 -14 -15h-38q-15 0 -15 15v650q0 15 15 15h38q9 0 12 -6l271 -477l30 -60v528q0 15 14 15h38q14 0 14 -15z" />
    <glyph glyph-name="O" unicode="O" horiz-adv-x="591" 
d="M79 138v404q0 146 216 146q217 0 217 -146v-404q0 -146 -217 -146q-216 0 -216 146zM441 149v382q0 96 -146 96q-145 0 -145 -96v-382q0 -96 145 -96q146 0 146 96z" />
    <glyph glyph-name="P" unicode="P" horiz-adv-x="566" 
d="M302 262h-141v-247q0 -15 -14 -15h-42q-14 0 -14 15v650q0 15 13 15h198q217 0 217 -146v-125q0 -147 -217 -147zM302 619h-141v-296h141q146 0 146 97v103q0 96 -146 96z" />
    <glyph glyph-name="Q" unicode="Q" horiz-adv-x="590" 
d="M512 138q0 -121 -149 -141l134 -123q12 -10 2 -21l-22 -23q-9 -11 -20 -1l-177 163q-201 5 -201 146v404q0 146 216 146q217 0 217 -146v-404zM150 148q0 -97 145 -97q146 0 146 97v384q0 97 -146 97q-145 0 -145 -97v-384z" />
    <glyph glyph-name="R" unicode="R" horiz-adv-x="590" 
d="M302 277h-141v-262q0 -15 -14 -15h-42q-14 0 -14 15v650q0 15 13 15h198q217 0 217 -146v-112q0 -109 -124 -136l130 -271q3 -7 -1 -11t-13 -4h-42q-10 0 -18 15l-124 262h-25zM302 619h-141v-282h141q146 0 146 97v89q0 96 -146 96z" />
    <glyph glyph-name="S" unicode="S" horiz-adv-x="565" 
d="M424 533q0 46 -31.5 70.5t-105.5 24.5q-75 0 -106.5 -24.5t-31.5 -70.5v-30q0 -55 58 -78l188 -71q104 -39 104 -130v-86q0 -146 -214 -146t-214 146v55q0 15 14 15h41q14 0 14 -15v-46q0 -95 144 -95q145 0 145 95v62q0 35 -22.5 54t-60.5 34l-179 69q-35 13 -61 45
t-26 75v56q0 146 206 146q208 0 208 -146v-47q0 -15 -15 -15h-41q-14 0 -14 15v38z" />
    <glyph glyph-name="T" unicode="T" horiz-adv-x="483" 
d="M33 680h416q15 0 15 -15v-31q0 -15 -15 -15h-172v-604q0 -15 -14 -15h-43q-15 0 -15 15v604h-172q-15 0 -15 15v31q0 15 15 15z" />
    <glyph glyph-name="U" unicode="U" horiz-adv-x="602" 
d="M156 665v-516q0 -96 144 -96q147 0 147 96v516q0 15 14 15h42q14 0 14 -15v-527q0 -146 -217 -146q-215 0 -215 146v527q0 15 14 15h43q14 0 14 -15z" />
    <glyph glyph-name="V" unicode="V" horiz-adv-x="526" 
d="M242 0q-14 0 -19 15l-199 650q-4 15 11 15h46q13 0 17 -15l143 -469q4 -15 9.5 -38.5t9.5 -44.5t4 -22q15 74 24 103l144 471q4 15 17 15h42q17 0 12 -15l-200 -650q-5 -15 -18 -15h-43z" />
    <glyph glyph-name="W" unicode="W" horiz-adv-x="801" 
d="M441 665l119 -470q13 -52 16 -79q0 18 16 79l120 470q4 15 18 15h37q15 0 11 -15l-165 -650q-5 -15 -18 -15h-42q-13 0 -18 15l-121 478q-7 25 -13 69q-6 -34 -14 -70l-121 -477q-4 -15 -19 -15h-42q-13 0 -17 15l-165 650q-5 15 12 15h43q12 0 17 -15l119 -470l16 -74
q5 31 16 74l120 470q4 15 18 15h40q12 0 17 -15z" />
    <glyph glyph-name="X" unicode="X" horiz-adv-x="552" 
d="M314 345l195 -330q9 -15 -8 -15h-49q-13 0 -22 15l-159 268l-154 -268q-9 -15 -21 -15h-47q-16 0 -7 17l192 330l-187 317q-10 16 6 16h50q13 0 22 -15l154 -259l147 259q8 15 21 15h46q15 0 7 -15z" />
    <glyph glyph-name="Y" unicode="Y" horiz-adv-x="517" 
d="M97 665l147 -290q4 -8 7.5 -17t5.5 -15l2 -6q0 8 15 38l152 290q8 15 18 15h42q18 0 10 -15l-201 -388v-262q0 -15 -15 -15h-42q-15 0 -15 15v254l-202 396q-7 15 10 15h48q11 0 18 -15z" />
    <glyph glyph-name="Z" unicode="Z" horiz-adv-x="503" 
d="M83 680h349q15 0 15 -15v-31q0 -6 -3 -11l-308 -562h312q15 0 15 -14v-32q0 -15 -15 -15h-383q-14 0 -14 15v32q0 7 2 10l307 562h-277q-15 0 -15 15v31q0 15 15 15z" />
    <glyph glyph-name="bracketleft" unicode="[" horiz-adv-x="366" 
d="M86 -196v880q0 15 15 15h187q14 0 14 -15v-31q0 -15 -14 -15h-130v-788h130q14 0 14 -15v-31q0 -15 -14 -15h-187q-15 0 -15 15z" />
    <glyph glyph-name="backslash" unicode="\" horiz-adv-x="369" 
d="M256 -133l-216 817q-5 15 11 15h45q14 0 18 -15l215 -817q5 -15 -11 -15h-45q-14 0 -17 15z" />
    <glyph glyph-name="bracketright" unicode="]" horiz-adv-x="366" 
d="M279 684v-880q0 -15 -14 -15h-186q-15 0 -15 15v31q0 15 15 15h129v788h-129q-15 0 -15 15v31q0 15 15 15h186q14 0 14 -15z" />
    <glyph glyph-name="asciicircum" unicode="^" horiz-adv-x="557" 
d="M407 314l-130 296l-128 -296q-6 -16 -16 -16h-40q-19 0 -13 16l159 352q7 14 16 14h45q10 0 17 -14l159 -352q6 -16 -12 -16h-41q-10 0 -16 16z" />
    <glyph glyph-name="underscore" unicode="_" horiz-adv-x="433" 
d="M37 -85h359q15 0 15 -14v-30q0 -14 -15 -14h-359q-14 0 -14 14v30q0 14 14 14z" />
    <glyph glyph-name="grave" unicode="`" horiz-adv-x="331" 
d="M173 577l-79 116q-11 15 7 15h44q11 0 20 -14l67 -112q9 -14 -7 -14h-34q-11 0 -18 9z" />
    <glyph glyph-name="a" unicode="a" horiz-adv-x="505" 
d="M72 358v17q0 127 180 127t180 -127v-360q0 -15 -14 -15h-36q-14 0 -15 15l-2 36q-74 -59 -165 -59q-67 0 -102.5 33.5t-35.5 84.5v50q0 51 33.5 84.5t96.5 33.5h172v90q0 37 -25 57t-88 20t-88.5 -19t-25.5 -56v-12q0 -16 -15 -16h-36q-14 0 -14 16zM216 50q76 0 148 56
v117h-159q-76 0 -76 -72v-32q0 -69 87 -69z" />
    <glyph glyph-name="b" unicode="b" 
d="M130 0h-36q-15 0 -15 15v669q0 15 15 15h40q14 0 14 -15v-241q78 59 170 59q69 0 103.5 -34.5t34.5 -93.5v-254q0 -59 -34.5 -93.5t-103.5 -34.5q-98 0 -171 60l-2 -37q-1 -15 -15 -15zM387 130v234q0 75 -88 75q-78 0 -151 -57v-271q76 -56 151 -56q88 0 88 75z" />
    <glyph glyph-name="c" unicode="c" horiz-adv-x="479" 
d="M250 502q182 0 182 -129v-19q0 -15 -15 -15h-37q-15 0 -15 15v15q0 37 -25.5 56.5t-88.5 19.5t-88.5 -19.5t-25.5 -56.5v-243q0 -38 25.5 -57.5t88.5 -19.5t88.5 19.5t25.5 57.5v22q0 15 15 15h37q15 0 15 -15v-27q0 -129 -183 -129q-98 0 -139.5 33.5t-41.5 95.5v252
q0 129 182 129z" />
    <glyph glyph-name="d" unicode="d" 
d="M379 15l-2 37q-76 -60 -170 -60q-70 0 -104.5 34.5t-34.5 93.5v254q0 59 34.5 93.5t104.5 34.5q89 0 169 -59v241q0 15 14 15h40q15 0 15 -15v-669q0 -15 -15 -15h-36q-14 0 -15 15zM137 364v-234q0 -33 21.5 -54t66.5 -21q75 0 151 56v271q-73 57 -151 57
q-45 0 -66.5 -21t-21.5 -54z" />
    <glyph glyph-name="e" unicode="e" horiz-adv-x="492" 
d="M433 373v-123q0 -14 -14 -14h-283v-111q0 -38 25.5 -57.5t90.5 -19.5t90.5 19.5t25.5 57.5v17q0 14 14 14h36q15 0 15 -14v-21q0 -129 -183 -129q-182 0 -182 129v252q0 129 184 129q98 0 139.5 -33.5t41.5 -95.5zM136 369v-80h232v80q0 77 -116 77t-116 -77z" />
    <glyph glyph-name="f" unicode="f" horiz-adv-x="322" 
d="M96 492h8v86q0 128 187 128h6q15 0 15 -14v-30q0 -15 -15 -15h-6q-117 0 -117 -76v-79h109q15 0 15 -14v-28q0 -15 -15 -15h-109v-420q0 -15 -15 -15h-40q-15 0 -15 15v420h-62q-14 0 -14 15v24q0 14 14 15z" />
    <glyph glyph-name="g" unicode="g" 
d="M207 -8q-70 0 -104.5 34.5t-34.5 93.5v254q0 59 34.5 93.5t104.5 34.5q96 0 170 -61l2 38q1 15 15 15h36q15 0 15 -15v-556q0 -129 -187 -129h-136q-15 0 -15 14v30q0 14 15 14h136q118 0 118 77v121q-79 -58 -169 -58zM137 364v-234q0 -33 21.5 -54t66.5 -21
q75 0 151 56v271q-73 57 -151 57q-45 0 -66.5 -21t-21.5 -54z" />
    <glyph glyph-name="h" unicode="h" horiz-adv-x="529" 
d="M148 684v-241q71 59 170 59q67 0 102.5 -34t35.5 -89v-364q0 -15 -14 -15h-40q-15 0 -15 15v349q0 76 -88 76q-79 0 -151 -56v-369q0 -15 -14 -15h-40q-15 0 -15 15v669q0 15 15 15h40q14 0 14 -15z" />
    <glyph glyph-name="i" unicode="i" horiz-adv-x="228" 
d="M148 479v-464q0 -15 -14 -15h-40q-15 0 -15 15v464q0 15 15 15h40q14 0 14 -15zM148 684v-93q0 -15 -14 -15h-40q-15 0 -15 15v93q0 15 15 15h40q14 0 14 -15z" />
    <glyph glyph-name="j" unicode="j" horiz-adv-x="227" 
d="M148 684v-93q0 -15 -14 -15h-41q-14 0 -14 15v93q0 15 14 15h41q14 0 14 -15zM148 479v-556q0 -129 -186 -129h-7q-14 0 -14 14v30q0 14 14 14h7q117 0 117 77v550q0 15 14 15h41q14 0 14 -15z" />
    <glyph glyph-name="k" unicode="k" horiz-adv-x="459" 
d="M238 280l212 -265q5 -5 2.5 -10t-9.5 -5h-45q-12 0 -24 15l-192 236h-34v-236q0 -15 -14 -15h-41q-14 0 -14 15v669q0 15 14 15h41q14 0 14 -15v-380h33l170 175q13 15 24 15h45q8 0 10 -4.5t-3 -10.5z" />
    <glyph glyph-name="l" unicode="l" horiz-adv-x="228" 
d="M148 684v-669q0 -15 -14 -15h-40q-15 0 -15 15v669q0 15 15 15h40q14 0 14 -15z" />
    <glyph glyph-name="m" unicode="m" horiz-adv-x="826" 
d="M94 494h36q15 0 15 -15l1 -37q70 60 166 60q97 0 127 -68q81 68 175 68q68 0 103.5 -34t35.5 -89v-364q0 -15 -15 -15h-40q-15 0 -15 15v349q0 76 -88 76q-85 0 -146 -58q1 -5 1 -18v-349q0 -15 -14 -15h-40q-15 0 -15 15v349q0 76 -88 76q-80 0 -145 -56v-369
q0 -15 -14 -15h-40q-15 0 -15 15v464q0 15 15 15z" />
    <glyph glyph-name="n" unicode="n" horiz-adv-x="529" 
d="M130 494q14 0 15 -15l2 -38q71 61 171 61q67 0 102.5 -34t35.5 -89v-364q0 -15 -14 -15h-40q-15 0 -15 15v349q0 76 -88 76q-79 0 -151 -56v-369q0 -15 -14 -15h-40q-15 0 -15 15v464q0 15 15 15h36z" />
    <glyph glyph-name="o" unicode="o" horiz-adv-x="513" 
d="M68 121v252q0 129 188 129q189 0 189 -129v-252q0 -129 -189 -129q-188 0 -188 129zM376 126v242q0 77 -120 77q-119 0 -119 -77v-242q0 -77 119 -77q120 0 120 77z" />
    <glyph glyph-name="p" unicode="p" 
d="M130 494q14 0 15 -15l2 -38q74 61 171 61q69 0 103.5 -34.5t34.5 -93.5v-254q0 -59 -34.5 -93.5t-103.5 -34.5q-94 0 -170 58v-242q0 -14 -14 -14h-40q-15 0 -15 14v671q0 15 15 15h36zM387 130v234q0 75 -88 75q-78 0 -151 -57v-271q76 -56 151 -56q88 0 88 75z" />
    <glyph glyph-name="q" unicode="q" 
d="M377 441l2 38q1 15 15 15h36q15 0 15 -15v-671q0 -14 -15 -14h-40q-14 0 -14 14v242q-79 -58 -169 -58q-70 0 -104.5 34.5t-34.5 93.5v254q0 59 34.5 93.5t104.5 34.5q93 0 170 -61zM137 364v-234q0 -33 21.5 -54t66.5 -21q75 0 151 56v271q-73 57 -151 57
q-45 0 -66.5 -21t-21.5 -54z" />
    <glyph glyph-name="r" unicode="r" horiz-adv-x="345" 
d="M311 502q16 0 16 -15v-33q0 -15 -16 -15q-87 -3 -163 -67v-357q0 -15 -14 -15h-40q-15 0 -15 15v464q0 15 15 15h36q14 0 15 -15l3 -49q78 72 163 72z" />
    <glyph glyph-name="s" unicode="s" horiz-adv-x="465" 
d="M347 359v29q0 62 -111 62q-109 0 -109 -62v-26q0 -39 51 -55l154 -50q86 -28 86 -95v-57q0 -49 -45.5 -81t-136.5 -32t-136 32t-45 81v27q0 14 14 14h37q13 0 13 -14v-24q0 -63 117 -63q57 0 87.5 16.5t30.5 46.5v37q0 37 -59 56l-154 51q-30 10 -53.5 36t-23.5 61v39
q0 50 41.5 82t131.5 32q89 0 131.5 -32t42.5 -82v-29q0 -13 -14 -13h-37q-13 0 -13 13z" />
    <glyph glyph-name="t" unicode="t" horiz-adv-x="347" 
d="M170 492h112q15 0 15 -14v-28q0 -15 -15 -15h-112v-299q0 -38 26.5 -57.5t89.5 -19.5h17q15 0 15 -15v-29q0 -15 -15 -15h-26q-98 0 -137.5 32t-39.5 97v306h-60q-14 0 -14 15v24q0 14 14 15l52 3h8v106q0 15 15 15h41q14 0 14 -15v-106z" />
    <glyph glyph-name="u" unicode="u" horiz-adv-x="523" 
d="M378 15l-2 36q-69 -59 -164 -59q-68 0 -103.5 33.5t-35.5 88.5v365q0 15 14 15h41q14 0 14 -15v-349q0 -76 89 -76q77 0 144 55v370q0 15 14 15h41q14 0 14 -15v-464q0 -15 -14 -15h-37q-14 0 -15 15z" />
    <glyph glyph-name="v" unicode="v" horiz-adv-x="432" 
d="M237 0h-46q-11 0 -15 14l-158 465q-5 15 13 15h43q12 0 17 -15l112 -331q10 -33 14 -62q9 45 15 61l114 332q5 15 17 15h38q18 0 13 -15l-161 -465q-4 -14 -16 -14z" />
    <glyph glyph-name="w" unicode="w" horiz-adv-x="656" 
d="M637 479l-130 -465q-4 -14 -15 -14h-48q-13 0 -16 14l-88 338q-2 8 -10 47l-12 -48l-96 -337q-5 -14 -16 -14h-46q-12 0 -16 14l-126 465q-5 15 14 15h40q13 0 16 -15l94 -348q2 -7 3.5 -16.5t3 -16t1.5 -7.5q0 4 10 40l96 348q5 15 17 15h43q13 0 16 -15l90 -348l9 -39
q0 6 10 39l93 348q5 15 17 15h34q17 0 12 -15z" />
    <glyph glyph-name="x" unicode="x" horiz-adv-x="464" 
d="M268 249l161 -234q9 -15 -8 -15h-45q-13 0 -22 15l-129 186l-124 -186q-9 -15 -22 -15h-40q-17 0 -8 15l160 236l-155 228q-5 6 -2.5 10.5t9.5 4.5h46q11 0 22 -15l124 -180l119 180q9 15 22 15h40q7 0 9.5 -4.5t-2.5 -10.5z" />
    <glyph glyph-name="y" unicode="y" horiz-adv-x="432" 
d="M89 479l113 -332q4 -12 7 -26.5l5 -23.5t2 -10q10 40 16 58l114 334q5 15 17 15h38q18 0 13 -15l-229 -671q-6 -15 -17 -15h-31q-17 0 -12 15l60 188l-167 483q-5 15 13 15h41q12 0 17 -15z" />
    <glyph glyph-name="z" unicode="z" horiz-adv-x="454" 
d="M75 494h300q15 0 15 -14v-28q0 -8 -3 -12l-255 -382h257q15 0 15 -15v-28q0 -15 -15 -15h-327q-15 0 -15 15v28q0 6 4 12l253 381h-229q-15 0 -15 15v29q0 14 15 14z" />
    <glyph glyph-name="braceleft" unicode="{" horiz-adv-x="448" 
d="M180 355v224q0 129 186 129h7q14 0 14 -15v-29q0 -15 -14 -15h-7q-63 0 -89 -19.5t-26 -57.5v-224q0 -80 -81 -99q81 -21 81 -100v-231q0 -38 26 -57.5t89 -19.5h7q14 0 14 -15v-29q0 -15 -14 -15h-7q-186 0 -186 129v232q0 76 -108 76h-1q-15 0 -15 15v29q0 15 15 15h1
q108 0 108 77z" />
    <glyph glyph-name="bar" unicode="|" horiz-adv-x="252" 
d="M162 684v-880q0 -15 -14 -15h-43q-14 0 -14 15v880q0 15 14 15h43q14 0 14 -15z" />
    <glyph glyph-name="braceright" unicode="}" horiz-adv-x="448" 
d="M268 579v-224q0 -77 108 -77h1q14 0 14 -15v-29q0 -15 -14 -15h-1q-108 0 -108 -76v-232q0 -129 -187 -129h-6q-15 0 -15 15v29q0 15 15 15h6q63 0 89 19.5t26 57.5v231q0 79 82 100q-82 19 -82 99v224q0 38 -26 57.5t-89 19.5h-6q-15 0 -15 15v29q0 15 15 15h6
q187 0 187 -129z" />
    <glyph glyph-name="asciitilde" unicode="~" horiz-adv-x="486" 
d="M158 283q-16 0 -20.5 -8.5t-7.5 -37.5l-1 -9q-1 -13 -16 -13h-21q-15 0 -13 16l2 28q3 44 22.5 65t48.5 21q21 0 49 -14l86 -45q28 -14 42 -14q15 0 21 10.5t6 37.5v8q0 13 16 13h22q14 0 13 -17l-2 -27q-7 -86 -69 -86q-26 0 -55 15l-88 45q-22 12 -35 12z" />
    <glyph glyph-name="exclamdown" unicode="&#xa1;" horiz-adv-x="254" 
d="M91 104l7 213q0 15 14 15h30q14 0 14 -15l7 -213v-275q0 -15 -14 -15h-44q-14 0 -14 15v275zM92 401v78q0 15 14 15h42q15 0 15 -15v-78q0 -15 -15 -15h-42q-14 0 -14 15z" />
    <glyph glyph-name="cent" unicode="&#xa2;" horiz-adv-x="529" 
d="M300 665v-72q147 -11 147 -127v-19q0 -15 -15 -15h-37q-15 0 -15 15v15q0 37 -25.5 56.5t-88.5 19.5t-88.5 -19.5t-25.5 -56.5v-243q0 -38 25.5 -57.5t88.5 -19.5t88.5 19.5t25.5 57.5v22q0 15 15 15h37q15 0 15 -15v-27q0 -116 -147 -128v-71q0 -15 -14 -15h-41
q-15 0 -15 15v71q-79 6 -113 38.5t-34 89.5v252q0 116 147 127v72q0 15 15 15h41q14 0 14 -15z" />
    <glyph glyph-name="sterling" unicode="&#xa3;" horiz-adv-x="662" 
d="M227 370h153q15 0 15 -14v-30q0 -15 -15 -15h-153v-252h201q40 0 62 24t22 86v6q0 16 14 16h38q15 0 15 -16v-6q0 -96 -35 -132.5t-99 -36.5h-348q-14 0 -14 15v30q0 14 14 14h59v252h-59q-14 0 -14 15v30q0 14 14 14h59v178q0 67 42.5 103.5t154.5 36.5t155 -36.5
t43 -103.5v-29q0 -15 -14 -15h-40q-14 0 -14 15v18q0 47 -27.5 68.5t-102.5 21.5q-73 0 -99.5 -21.5t-26.5 -68.5v-167z" />
    <glyph glyph-name="currency" unicode="&#xa4;" horiz-adv-x="554" 
d="M39 302h46v76h-46q-15 0 -15 15v18q0 14 15 14h46v117q0 146 211 146t211 -146v-51q0 -16 -14 -16h-40q-15 0 -15 16v40q0 96 -141 96t-141 -96v-106h156q15 0 15 -14v-18q0 -15 -15 -15h-156v-76h156q15 0 15 -15v-17q0 -15 -15 -15h-156v-106q0 -96 141 -96t141 96v53
q0 15 15 15h40q14 0 14 -15v-64q0 -146 -211 -146t-211 146v117h-46q-15 0 -15 15v17q0 15 15 15z" />
    <glyph glyph-name="yen" unicode="&#xa5;" horiz-adv-x="646" 
d="M512 263h-152v-248q0 -15 -15 -15h-42q-15 0 -15 15v248h-153q-14 0 -14 15v18q0 14 14 14h132l-39 76h-93q-14 0 -14 15v18q0 14 14 14h69l-118 232q-8 15 10 15h48q11 0 18 -15l147 -290q4 -8 7.5 -17t5.5 -15l2 -6q0 8 15 38l152 290q7 15 18 15h42q17 0 10 -15
l-120 -232h71q15 0 15 -14v-18q0 -15 -15 -15h-96l-39 -76h135q15 0 15 -14v-18q0 -15 -15 -15z" />
    <glyph glyph-name="brokenbar" unicode="&#xa6;" horiz-adv-x="228" 
d="M148 665v-336q0 -15 -14 -15h-40q-15 0 -15 15v336q0 15 15 15h40q14 0 14 -15zM148 140v-336q0 -15 -14 -15h-40q-15 0 -15 15v336q0 15 15 15h40q14 0 14 -15z" />
    <glyph glyph-name="section" unicode="&#xa7;" horiz-adv-x="549" 
d="M449 274v-101q0 -15 -14 -15h-36q-14 0 -14 15v95q0 26 -18.5 41.5t-38.5 21.5l-141 42q-96 28 -96 106v80q0 129 184 129t184 -127v-12q0 -15 -15 -15h-36q-14 0 -14 15v15q0 37 -26.5 56t-90.5 19q-118 0 -118 -75v-81q0 -38 67 -59l134 -40q33 -9 61 -37.5t28 -72.5z
M100 203v101q0 15 14 15h37q14 0 14 -15v-95q0 -26 18.5 -41.5t38.5 -21.5l141 -41q37 -11 66.5 -36t29.5 -71v-79q0 -130 -185 -130q-183 0 -183 127v13q0 15 14 15h36q15 0 15 -15v-16q0 -76 117 -76q64 0 90.5 19.5t26.5 57.5v81q0 38 -66 59l-135 39q-33 9 -61 37.5
t-28 72.5z" />
    <glyph glyph-name="dieresis" unicode="&#xa8;" horiz-adv-x="324" 
d="M135 688v-97q0 -14 -14 -14h-25q-15 0 -15 14v97q0 15 15 15h25q14 0 14 -15zM242 688v-97q0 -14 -14 -14h-25q-14 0 -14 14v97q0 15 14 15h25q14 0 14 -15z" />
    <glyph glyph-name="copyright" unicode="&#xa9;" horiz-adv-x="728" 
d="M637 509v-338q0 -30 -5.5 -54t-23 -48.5t-47 -40.5t-79.5 -26t-118 -10t-118 10t-79.5 26t-47 40.5t-23 48.5t-5.5 54v338q0 30 5.5 54t23 48.5t47 40.5t79.5 26t118 10t118 -10t79.5 -26t47 -40.5t23 -48.5t5.5 -54zM585 163v355q0 124 -221 124t-221 -125v-354
q0 -59 50 -91.5t171 -32.5q221 0 221 124zM364 550q82 0 113 -31.5t31 -93.5v-15q0 -15 -14 -15h-33q-15 0 -15 15v14q0 39 -16.5 57.5t-65.5 18.5t-65 -18.5t-16 -57.5v-168q0 -40 16 -58.5t65 -18.5t65.5 19t16.5 58v21q0 16 15 16h33q14 0 14 -16v-23q0 -62 -31 -93.5
t-113 -31.5t-113 31.5t-31 93.5v171q0 62 31 93.5t113 31.5z" />
    <glyph glyph-name="ordfeminine" unicode="&#xaa;" horiz-adv-x="352" 
d="M68 601v10q0 77 112 77q111 0 111 -79v-212q0 -11 -10 -11h-28q-10 0 -11 11l-2 19q-42 -35 -95 -35q-42 0 -63 20t-21 52v29q0 31 21.5 51.5t60.5 20.5h96v55q0 40 -60 40q-61 0 -61 -40v-8q0 -10 -10 -10h-30q-10 0 -10 10zM159 421q46 0 80 31v65h-86q-40 0 -40 -38
v-19q0 -39 46 -39z" />
    <glyph glyph-name="guillemotleft" unicode="&#xab;" horiz-adv-x="581" 
d="M486 351l-142 -106l142 -105q15 -11 15 -23v-43q0 -7 -5.5 -9.5t-9.5 1.5l-185 139q-13 11 -13 20v41q0 8 13 19l185 139q5 5 10 2.5t5 -10.5v-43q0 -11 -15 -22zM278 351l-142 -106l142 -105q15 -11 15 -23v-43q0 -7 -5.5 -9.5t-9.5 1.5l-185 139q-13 11 -13 20v41
q0 8 13 19l185 139q5 5 10 2.5t5 -10.5v-43q0 -11 -15 -22z" />
    <glyph glyph-name="logicalnot" unicode="&#xac;" horiz-adv-x="379" 
d="M76 314q0 47 33 80t79 33q47 0 80 -33t33 -80t-33 -79.5t-80 -32.5q-46 0 -79 33t-33 79z" />
    <glyph glyph-name="uni00AD" unicode="&#xad;" horiz-adv-x="456" 
d="M94 318h268q15 0 15 -14v-29q0 -15 -15 -15h-268q-15 0 -15 15v29q0 14 15 14z" />
    <glyph glyph-name="registered" unicode="&#xae;" horiz-adv-x="622" 
d="M532 550v-179q0 -138 -220 -138q-221 0 -221 138v179q0 138 221 138q220 0 220 -138zM484 366v188q0 90 -172 90q-173 0 -173 -90v-187q0 -91 173 -91q172 0 172 90zM323 421h-60v-86q0 -11 -10 -11h-29q-10 0 -10 11v245q0 11 11 11h98q99 0 99 -74v-23q0 -50 -48 -66
l39 -93q4 -11 -10 -11h-29q-8 0 -11 11l-37 86h-3zM318 553h-55v-95h55q26 0 40 11t14 27v18q0 39 -54 39z" />
    <glyph glyph-name="macron" unicode="&#xaf;" horiz-adv-x="416" 
d="M82 651h252q15 0 15 -14v-25q0 -15 -15 -15h-252q-14 0 -14 15v25q0 14 14 14z" />
    <glyph glyph-name="degree" unicode="&#xb0;" horiz-adv-x="405" 
d="M64 495v97q0 46 31.5 70.5t107.5 24.5q75 0 106.5 -24.5t31.5 -70.5v-97q0 -46 -31.5 -70.5t-106.5 -24.5q-76 0 -107.5 24.5t-31.5 70.5zM282 498v92q0 49 -79 49t-79 -49v-92q0 -50 79 -50t79 50z" />
    <glyph glyph-name="plusminus" unicode="&#xb1;" horiz-adv-x="579" 
d="M259 228v123h-165q-15 0 -15 15v30q0 14 15 14h165v122q0 15 14 15h30q14 0 14 -15v-122h168q15 0 15 -14v-30q0 -15 -15 -15h-168v-123q0 -15 -14 -15h-30q-14 0 -14 15zM94 153h391q15 0 15 -15v-29q0 -15 -15 -15h-391q-15 0 -15 15v29q0 15 15 15z" />
    <glyph glyph-name="twosuperior" unicode="&#xb2;" horiz-adv-x="374" 
d="M120 320h185q11 0 11 -11v-23q0 -11 -11 -11h-229q-10 0 -10 11v113q0 17 9 29t17 16t21 9l114 41q33 11 33 39v57q0 53 -75 53q-72 0 -72 -53v-27q0 -12 -11 -12h-32q-11 0 -11 12v34q0 91 126 91q128 0 128 -91v-61q0 -59 -54 -78l-106 -38q-33 -9 -33 -30v-70z" />
    <glyph glyph-name="threesuperior" unicode="&#xb3;" horiz-adv-x="373" 
d="M137 512h46q41 0 56.5 12.5t15.5 39.5v28q0 26 -15.5 39.5t-53.5 13.5q-39 0 -55 -13.5t-16 -39.5v-7q0 -10 -10 -10h-32q-11 0 -11 10v15q0 89 124 89t124 -89v-43q0 -52 -50 -65q54 -15 54 -70v-63q0 -88 -127 -88q-128 0 -128 89v15q0 10 11 10h32q11 0 11 -10v-7
q0 -53 73 -53q74 0 74 53v48q0 27 -16 39.5t-56 12.5h-51q-12 0 -12 11v22q0 11 12 11z" />
    <glyph glyph-name="acute" unicode="&#xb4;" horiz-adv-x="331" 
d="M236 693l-79 -116q-7 -9 -18 -9h-33q-17 0 -8 14l67 112q9 14 20 14h44q18 0 7 -15z" />
    <glyph glyph-name="uni00B5" unicode="&#xb5;" horiz-adv-x="523" 
d="M378 15l-2 36q-69 -59 -164 -59q-45 0 -74 22l4 -205q0 -15 -14 -15h-41q-14 0 -14 15v670q0 15 14 15h41q14 0 14 -15v-349q0 -76 89 -76q77 0 144 55v370q0 15 14 15h41q14 0 14 -15v-464q0 -15 -14 -15h-37q-14 0 -15 15z" />
    <glyph glyph-name="paragraph" unicode="&#xb6;" horiz-adv-x="645" 
d="M400 666v-857q0 -15 -15 -15h-42q-15 0 -15 15v473h-44q-107 0 -150 34t-43 97v136q0 63 43 97t150 34h102q14 0 14 -14zM555 665v-856q0 -15 -14 -15h-43q-14 0 -14 15v856q0 15 14 15h43q14 0 14 -15z" />
    <glyph glyph-name="periodcentered" unicode="&#xb7;" horiz-adv-x="221" 
d="M146 304v-78q0 -15 -14 -15h-42q-15 0 -15 15v78q0 15 15 15h42q14 0 14 -15z" />
    <glyph glyph-name="cedilla" unicode="&#xb8;" horiz-adv-x="185" 
d="M91 -53h37q35 0 59 -19t24 -59t-24 -60t-59 -20h-116q-15 0 -15 15v15q0 14 15 14h106q42 0 42 35t-42 35h-62q-24 0 -19 19l22 83q4 14 17 13l19 -3q15 -3 10 -18z" />
    <glyph glyph-name="onesuperior" unicode="&#xb9;" horiz-adv-x="375" 
d="M70 657l136 30q4 1 7 -1t3 -9v-355h90q10 0 10 -11v-23q0 -11 -10 -11h-236q-11 0 -11 11v23q0 11 11 11h91v310l-91 -19q-10 -3 -10 8v25q0 9 10 11z" />
    <glyph glyph-name="ordmasculine" unicode="&#xba;" horiz-adv-x="358" 
d="M60 461v147q0 80 119 80t119 -80v-147q0 -80 -119 -80t-119 80zM244 466v137q0 43 -65 43t-65 -43v-137q0 -42 65 -42t65 42z" />
    <glyph glyph-name="guillemotright" unicode="&#xbb;" horiz-adv-x="581" 
d="M303 147l142 106l-142 105q-15 11 -15 23v43q0 7 5 9.5t10 -1.5l185 -139q13 -11 13 -20v-41q0 -8 -13 -19l-185 -139q-5 -5 -10 -2.5t-5 10.5v43q0 11 15 22zM95 147l142 106l-142 105q-15 11 -15 23v43q0 7 5 9.5t10 -1.5l185 -139q13 -11 13 -20v-41q0 -8 -13 -19
l-185 -139q-5 -5 -10 -2.5t-5 10.5v43q0 11 15 22z" />
    <glyph glyph-name="onequarter" unicode="&#xbc;" horiz-adv-x="835" 
d="M655 397l-78 -228h144v228q0 11 11 11h34q11 0 11 -11v-386q0 -11 -11 -11h-34q-11 0 -11 11v113h-191q-12 0 -12 11v22q0 4 2 8l80 232q3 11 13 11h34q12 0 8 -11zM70 657l136 30q4 1 7 -1t3 -9v-355h90q10 0 10 -11v-23q0 -11 -10 -11h-236q-11 0 -11 11v23q0 11 11 11
h91v311l-91 -20q-10 -3 -10 8v25q0 9 10 11zM563 718l-197 -756q-3 -11 -12 -11h-35q-12 0 -9 11l196 756q3 11 14 11h35q11 0 8 -11z" />
    <glyph glyph-name="onehalf" unicode="&#xbd;" horiz-adv-x="851" 
d="M70 657l136 30q4 1 7 -1t3 -9v-355h90q10 0 10 -11v-23q0 -11 -10 -11h-236q-11 0 -11 11v23q0 11 11 11h91v311l-91 -20q-10 -3 -10 8v25q0 9 10 11zM556 718l-197 -756q-3 -11 -12 -11h-35q-12 0 -9 11l197 756q3 11 13 11h35q11 0 8 -11zM597 45h185q10 0 10 -11v-23
q0 -11 -10 -11h-229q-10 0 -10 11v113q0 17 9 29t17 16t21 9l114 41q32 11 32 39v57q0 53 -74 53q-72 0 -72 -53v-27q0 -12 -11 -12h-32q-12 0 -12 12v34q0 91 127 91q128 0 128 -91v-61q0 -59 -54 -78l-106 -38q-33 -12 -33 -30v-70z" />
    <glyph glyph-name="threequarters" unicode="&#xbe;" horiz-adv-x="837" 
d="M137 511h46q41 0 56.5 12.5t15.5 39.5v28q0 26 -15.5 39.5t-53.5 13.5q-39 0 -55 -13.5t-16 -39.5v-7q0 -10 -10 -10h-32q-11 0 -11 10v15q0 89 124 89t124 -89v-43q0 -52 -50 -65q54 -15 54 -70v-63q0 -88 -127 -88q-128 0 -128 89v15q0 10 11 10h32q11 0 11 -10v-7
q0 -53 73 -53q74 0 74 53v48q0 27 -16 39.5t-56 12.5h-51q-12 0 -12 11v22q0 11 12 11zM657 397l-79 -228h145v228q0 11 11 11h33q11 0 11 -11v-386q0 -11 -11 -11h-33q-11 0 -11 11v113h-192q-11 0 -11 11v22q0 6 1 8l80 232q3 11 14 11h34q12 0 8 -11zM565 718l-197 -756
q-3 -11 -11 -11h-36q-11 0 -8 11l197 756q3 11 12 11h36q10 0 7 -11z" />
    <glyph glyph-name="questiondown" unicode="&#xbf;" horiz-adv-x="567" 
d="M332 317v-78q0 -63 -66 -96l-70 -36q-50 -28 -50 -77v-67q0 -47 31.5 -72t106.5 -25q76 0 107.5 25t31.5 72v46q0 16 14 16h40q15 0 15 -16v-57q0 -146 -208 -146q-207 0 -209 146v76q0 90 83 130l53 26q50 24 50 71v62q0 15 14 15h43q14 0 14 -15zM261 401v78
q0 15 14 15h43q14 0 14 -15v-78q0 -15 -14 -15h-43q-14 0 -14 15z" />
    <glyph glyph-name="Agrave" unicode="&#xc0;" horiz-adv-x="526" 
d="M285 680q13 0 18 -15l200 -650q5 -15 -12 -15h-43q-14 0 -18 15l-55 178h-229l-54 -178q-4 -15 -17 -15h-40q-15 0 -11 15l199 650q5 15 19 15h43zM360 250l-73 234q-7 23 -25 121q-10 -73 -25 -119l-74 -236h197zM225 747l-79 116q-11 15 7 15h44q11 0 20 -14l67 -112
q9 -15 -7 -15h-34q-11 0 -18 10z" />
    <glyph glyph-name="Aacute" unicode="&#xc1;" horiz-adv-x="526" 
d="M285 680q13 0 18 -15l200 -650q5 -15 -12 -15h-43q-14 0 -18 15l-55 178h-229l-54 -178q-4 -15 -17 -15h-40q-15 0 -11 15l199 650q5 15 19 15h43zM360 250l-73 234q-7 23 -25 121q-10 -73 -25 -119l-74 -236h197zM378 863l-79 -116q-7 -9 -19 -9h-33q-15 0 -7 14l67 112
q9 14 19 14h44q17 0 8 -15z" />
    <glyph glyph-name="Acircumflex" unicode="&#xc2;" horiz-adv-x="526" 
d="M285 680q13 0 18 -15l200 -650q5 -15 -12 -15h-43q-14 0 -18 15l-55 178h-229l-54 -178q-4 -15 -17 -15h-40q-15 0 -11 15l199 650q5 15 19 15h43zM360 250l-73 234q-7 23 -25 121q-10 -73 -25 -119l-74 -236h197zM263 834l-53 -82q-8 -14 -20 -14h-32q-8 0 -10 4t2 10
l77 111q11 15 23 15h26q12 0 23 -14l77 -112q5 -6 2.5 -10t-10.5 -4h-32q-11 0 -20 14z" />
    <glyph glyph-name="Atilde" unicode="&#xc3;" horiz-adv-x="526" 
d="M285 680q13 0 18 -15l200 -650q5 -15 -12 -15h-43q-14 0 -18 15l-55 178h-229l-54 -178q-4 -15 -17 -15h-40q-15 0 -11 15l199 650q5 15 19 15h43zM360 250l-73 234q-7 23 -25 121q-10 -73 -25 -119l-74 -236h197zM196 819q-17 0 -21.5 -9.5t-5.5 -37.5v-8q0 -14 -15 -14
h-23q-13 0 -13 17l2 27q5 79 72 79q28 0 55 -19l44 -32q24 -18 38 -18q16 0 20.5 9.5t5.5 38.5v8q0 13 16 13h22q13 0 13 -16l-1 -25q-3 -81 -73 -81q-27 0 -54 18l-45 32q-24 18 -37 18z" />
    <glyph glyph-name="Adieresis" unicode="&#xc4;" horiz-adv-x="526" 
d="M285 680q13 0 18 -15l200 -650q5 -15 -12 -15h-43q-14 0 -18 15l-55 178h-229l-54 -178q-4 -15 -17 -15h-40q-15 0 -11 15l199 650q5 15 19 15h43zM360 250l-73 234q-7 23 -25 121q-10 -73 -25 -119l-74 -236h197zM236 856v-97q0 -15 -14 -15h-24q-15 0 -15 15v97
q0 14 15 14h24q14 0 14 -14zM344 856v-97q0 -15 -15 -15h-24q-15 0 -15 15v97q0 14 15 14h24q15 0 15 -14z" />
    <glyph glyph-name="Aring" unicode="&#xc5;" horiz-adv-x="526" 
d="M285 680q13 0 18 -15l200 -650q5 -15 -12 -15h-43q-14 0 -18 15l-55 178h-229l-54 -178q-4 -15 -17 -15h-40q-15 0 -11 15l199 650q5 15 19 15h43zM360 250l-73 234q-7 23 -25 121q-10 -73 -25 -119l-74 -236h197zM358 812v-17q0 -33 -23.5 -54t-71.5 -21t-71.5 21
t-23.5 54v17q0 33 23.5 54t71.5 21t71.5 -21t23.5 -54zM315 800v7q0 42 -52 42q-51 0 -51 -42v-7q0 -42 51 -42q52 0 52 42z" />
    <glyph glyph-name="AE" unicode="&#xc6;" horiz-adv-x="839" 
d="M425 680h336q15 0 15 -14v-30q0 -15 -15 -15h-285v-236h267q15 0 15 -14v-28q0 -15 -15 -15h-267v-269h297q15 0 15 -14v-30q0 -15 -15 -15h-347q-17 0 -17 15v178h-213l-102 -178q-9 -15 -18 -15h-40q-20 0 -11 15l379 650q10 15 21 15zM375 502l-145 -252h179v313
q-19 -37 -34 -61z" />
    <glyph glyph-name="Ccedilla" unicode="&#xc7;" horiz-adv-x="552" 
d="M275 -53h37q35 0 59 -19t24 -59t-24 -60t-59 -20h-116q-15 0 -15 15v15q0 14 15 14h106q42 0 42 35t-42 35h-62q-24 0 -19 19l19 73q-161 15 -161 143v404q0 146 211 146t211 -146v-51q0 -16 -14 -16h-40q-15 0 -15 16v40q0 96 -141 96t-141 -96v-382q0 -96 141 -96
t141 96v53q0 15 15 15h40q14 0 14 -15v-64q0 -146 -211 -146h-3z" />
    <glyph glyph-name="Egrave" unicode="&#xc8;" 
d="M257 747l-79 116q-11 15 7 15h44q11 0 20 -14l67 -112q9 -15 -7 -15h-34q-11 0 -18 10zM458 0h-354q-13 0 -13 15v650q0 15 14 15h341q15 0 15 -15v-31q0 -15 -15 -15h-285v-233h267q15 0 15 -15v-29q0 -15 -15 -15h-267v-266h297q15 0 15 -14v-32q0 -15 -15 -15z" />
    <glyph glyph-name="Eacute" unicode="&#xc9;" 
d="M458 0h-354q-13 0 -13 15v650q0 15 14 15h341q15 0 15 -15v-31q0 -15 -15 -15h-285v-233h267q15 0 15 -15v-29q0 -15 -15 -15h-267v-266h297q15 0 15 -14v-32q0 -15 -15 -15zM379 863l-79 -116q-7 -9 -19 -9h-33q-15 0 -7 14l67 112q9 14 19 14h44q17 0 8 -15z" />
    <glyph glyph-name="Ecircumflex" unicode="&#xca;" 
d="M262 834l-53 -82q-8 -14 -20 -14h-32q-8 0 -10 4t2 10l77 111q11 15 23 15h26q13 0 23 -14l77 -112q5 -6 2.5 -10t-10.5 -4h-32q-11 0 -20 14zM458 0h-354q-13 0 -13 15v650q0 15 14 15h341q15 0 15 -15v-31q0 -15 -15 -15h-285v-233h267q15 0 15 -15v-29q0 -15 -15 -15
h-267v-266h297q15 0 15 -14v-32q0 -15 -15 -15z" />
    <glyph glyph-name="Edieresis" unicode="&#xcb;" 
d="M458 0h-354q-13 0 -13 15v650q0 15 14 15h341q15 0 15 -15v-31q0 -15 -15 -15h-285v-233h267q15 0 15 -15v-29q0 -15 -15 -15h-267v-266h297q15 0 15 -14v-32q0 -15 -15 -15zM249 856v-97q0 -15 -14 -15h-24q-15 0 -15 15v97q0 14 15 14h24q14 0 14 -14zM357 856v-97
q0 -15 -15 -15h-24q-15 0 -15 15v97q0 14 15 14h24q15 0 15 -14z" />
    <glyph glyph-name="Igrave" unicode="&#xcc;" horiz-adv-x="252" 
d="M161 665v-650q0 -15 -14 -15h-42q-14 0 -14 15v650q0 15 14 15h42q14 0 14 -15zM90 747l-79 116q-11 15 7 15h44q11 0 20 -14l67 -112q9 -15 -7 -15h-34q-10 0 -18 10z" />
    <glyph glyph-name="Iacute" unicode="&#xcd;" horiz-adv-x="252" 
d="M161 665v-650q0 -15 -14 -15h-42q-14 0 -14 15v650q0 15 14 15h42q14 0 14 -15zM237 863l-79 -116q-7 -9 -19 -9h-33q-15 0 -7 14l67 112q9 14 19 14h44q17 0 8 -15z" />
    <glyph glyph-name="Icircumflex" unicode="&#xce;" horiz-adv-x="252" 
d="M161 665v-650q0 -15 -14 -15h-42q-14 0 -14 15v650q0 15 14 15h42q14 0 14 -15zM126 834l-53 -82q-8 -14 -20 -14h-32q-8 0 -10 4t2 10l77 111q11 15 23 15h26q13 0 23 -14l77 -112q5 -6 2.5 -10t-10.5 -4h-32q-11 0 -20 14z" />
    <glyph glyph-name="Idieresis" unicode="&#xcf;" horiz-adv-x="252" 
d="M161 665v-650q0 -15 -14 -15h-42q-14 0 -14 15v650q0 15 14 15h42q14 0 14 -15zM99 856v-97q0 -15 -14 -15h-24q-15 0 -15 15v97q0 14 15 14h24q14 0 14 -14zM207 856v-97q0 -15 -15 -15h-24q-15 0 -15 15v97q0 14 15 14h24q15 0 15 -14z" />
    <glyph glyph-name="Eth" unicode="&#xd0;" horiz-adv-x="602" 
d="M306 0h-203q-12 0 -12 15v302h-66q-15 0 -15 14v26q0 14 15 14h66v294q0 15 13 15h202q217 0 217 -146v-388q0 -146 -217 -146zM306 619h-145v-248h132q15 0 15 -14v-26q0 -14 -15 -14h-132v-256h145q146 0 146 96v366q0 96 -146 96z" />
    <glyph glyph-name="Ntilde" unicode="&#xd1;" horiz-adv-x="613" 
d="M522 665v-650q0 -15 -14 -15h-38q-10 0 -14 7l-265 470q-31 52 -34 64v-526q0 -15 -14 -15h-38q-15 0 -15 15v650q0 15 15 15h38q9 0 12 -6l271 -477l30 -60v528q0 15 14 15h38q14 0 14 -15zM240 819q-17 0 -21.5 -9.5t-5.5 -37.5v-8q0 -14 -15 -14h-23q-13 0 -13 17
l2 27q5 79 72 79q28 0 55 -19l44 -32q24 -18 38 -18q16 0 20.5 9.5t5.5 38.5v8q0 13 16 13h22q13 0 13 -16l-1 -25q-3 -81 -73 -81q-27 0 -54 18l-45 32q-24 18 -37 18z" />
    <glyph glyph-name="Ograve" unicode="&#xd2;" horiz-adv-x="591" 
d="M260 747l-79 116q-11 15 7 15h44q11 0 20 -14l67 -112q9 -15 -7 -15h-34q-10 0 -18 10zM79 138v404q0 146 216 146q217 0 217 -146v-404q0 -146 -217 -146q-216 0 -216 146zM441 149v382q0 96 -146 96q-145 0 -145 -96v-382q0 -96 145 -96q146 0 146 96z" />
    <glyph glyph-name="Oacute" unicode="&#xd3;" horiz-adv-x="591" 
d="M399 863l-79 -116q-7 -9 -19 -9h-33q-15 0 -7 14l67 112q9 14 19 14h44q17 0 8 -15zM79 138v404q0 146 216 146q217 0 217 -146v-404q0 -146 -217 -146q-216 0 -216 146zM441 149v382q0 96 -146 96q-145 0 -145 -96v-382q0 -96 145 -96q146 0 146 96z" />
    <glyph glyph-name="Ocircumflex" unicode="&#xd4;" horiz-adv-x="591" 
d="M295 834l-53 -82q-8 -14 -20 -14h-32q-8 0 -10 4t2 10l77 111q11 15 23 15h26q12 0 23 -14l77 -112q10 -14 -8 -14h-32q-11 0 -20 14zM79 138v404q0 146 216 146q217 0 217 -146v-404q0 -146 -217 -146q-216 0 -216 146zM441 149v382q0 96 -146 96q-145 0 -145 -96v-382
q0 -96 145 -96q146 0 146 96z" />
    <glyph glyph-name="Otilde" unicode="&#xd5;" horiz-adv-x="591" 
d="M79 138v404q0 146 216 146q217 0 217 -146v-404q0 -146 -217 -146q-216 0 -216 146zM441 149v382q0 96 -146 96q-145 0 -145 -96v-382q0 -96 145 -96q146 0 146 96zM229 819q-17 0 -21.5 -9.5t-5.5 -37.5v-8q0 -14 -15 -14h-23q-13 0 -13 17l2 27q5 79 72 79q28 0 55 -19
l44 -32q24 -18 38 -18q16 0 20.5 9.5t5.5 38.5v8q0 13 16 13h22q13 0 13 -16l-1 -25q-3 -81 -73 -81q-27 0 -54 18l-45 32q-24 18 -37 18z" />
    <glyph glyph-name="Odieresis" unicode="&#xd6;" horiz-adv-x="591" 
d="M79 138v404q0 146 216 146q217 0 217 -146v-404q0 -146 -217 -146q-216 0 -216 146zM441 149v382q0 96 -146 96q-145 0 -145 -96v-382q0 -96 145 -96q146 0 146 96zM268 856v-97q0 -15 -14 -15h-24q-15 0 -15 15v97q0 14 15 14h24q14 0 14 -14zM376 856v-97
q0 -15 -15 -15h-24q-15 0 -15 15v97q0 14 15 14h24q15 0 15 -14z" />
    <glyph glyph-name="multiply" unicode="&#xd7;" horiz-adv-x="544" 
d="M344 155l-83 143l-144 -83q-13 -8 -21 6l-13 26q-7 13 5 20l144 82l-84 145q-7 13 5 20l25 15q12 7 20 -6l84 -144l145 83q11 6 19 -5l15 -25q7 -13 -6 -21l-144 -84l83 -143q6 -12 -6 -20l-25 -15q-12 -7 -19 6z" />
    <glyph glyph-name="Oslash" unicode="&#xd8;" horiz-adv-x="591" 
d="M79 137v403q0 146 216 146q86 0 141 -25l12 24q11 22 25 22h13q15 0 4 -22l-22 -44q44 -36 44 -101v-403q0 -147 -217 -147q-89 0 -143 26l-12 -23q-12 -22 -24 -22h-13q-16 0 -5 22l22 44q-41 37 -41 100zM441 148v381q0 23 -9 41l-249 -492q37 -27 112 -27
q146 0 146 97zM150 148q0 -23 7 -38l248 491q-36 25 -110 25q-145 0 -145 -97v-381z" />
    <glyph glyph-name="Ugrave" unicode="&#xd9;" horiz-adv-x="602" 
d="M270 747l-79 116q-11 15 7 15h44q11 0 20 -14l67 -112q9 -15 -7 -15h-34q-10 0 -18 10zM156 665v-516q0 -96 144 -96q147 0 147 96v516q0 15 14 15h42q14 0 14 -15v-527q0 -146 -217 -146q-215 0 -215 146v527q0 15 14 15h43q14 0 14 -15z" />
    <glyph glyph-name="Uacute" unicode="&#xda;" horiz-adv-x="602" 
d="M156 665v-516q0 -96 144 -96q147 0 147 96v516q0 15 14 15h42q14 0 14 -15v-527q0 -146 -217 -146q-215 0 -215 146v527q0 15 14 15h43q14 0 14 -15zM411 863l-79 -116q-7 -9 -19 -9h-33q-15 0 -7 14l67 112q9 14 19 14h44q17 0 8 -15z" />
    <glyph glyph-name="Ucircumflex" unicode="&#xdb;" horiz-adv-x="602" 
d="M301 834l-53 -82q-8 -14 -20 -14h-32q-8 0 -10 4t2 10l77 111q11 15 23 15h26q12 0 23 -14l77 -112q10 -14 -8 -14h-32q-11 0 -20 14zM156 665v-516q0 -96 144 -96q147 0 147 96v516q0 15 14 15h42q14 0 14 -15v-527q0 -146 -217 -146q-215 0 -215 146v527q0 15 14 15h43
q14 0 14 -15z" />
    <glyph glyph-name="Udieresis" unicode="&#xdc;" horiz-adv-x="602" 
d="M156 665v-516q0 -96 144 -96q147 0 147 96v516q0 15 14 15h42q14 0 14 -15v-527q0 -146 -217 -146q-215 0 -215 146v527q0 15 14 15h43q14 0 14 -15zM274 856v-97q0 -15 -14 -15h-24q-15 0 -15 15v97q0 14 15 14h24q14 0 14 -14zM382 856v-97q0 -15 -15 -15h-24
q-15 0 -15 15v97q0 14 15 14h24q15 0 15 -14z" />
    <glyph glyph-name="Yacute" unicode="&#xdd;" horiz-adv-x="517" 
d="M97 665l147 -290q4 -8 7.5 -17t5.5 -15l2 -6q0 8 15 38l152 290q8 15 18 15h42q18 0 10 -15l-201 -388v-262q0 -15 -15 -15h-42q-15 0 -15 15v254l-202 396q-7 15 10 15h48q11 0 18 -15zM377 863l-79 -116q-7 -9 -19 -9h-33q-15 0 -7 14l67 112q9 14 19 14h44q17 0 8 -15
z" />
    <glyph glyph-name="Thorn" unicode="&#xde;" horiz-adv-x="566" 
d="M161 665v-171h141q217 0 217 -146v-102q0 -145 -217 -145h-141v-86q0 -15 -14 -15h-42q-15 0 -15 15v650q0 15 15 15h42q14 0 14 -15zM302 434h-141v-274h141q146 0 146 97v80q0 97 -146 97z" />
    <glyph glyph-name="germandbls" unicode="&#xdf;" horiz-adv-x="603" 
d="M174 574v-559q0 -15 -15 -15h-40q-15 0 -15 15v420h-62q-14 0 -14 15v24q0 14 14 15l54 3h8v87q0 129 195 129q194 0 194 -129v-37q0 -62 -76 -87l-63 -20q-17 -5 -25 -8t-17.5 -13t-9.5 -23v-5q0 -34 54 -56l119 -46q92 -35 92 -101v-64q0 -61 -37 -94t-130 -33
q-92 0 -126 31t-34 94v10q0 16 14 16h29q14 0 14 -16v-12q0 -37 22.5 -56t80.5 -19t80.5 19.5t22.5 55.5v56q0 8 -2 15t-7 12.5t-8.5 9t-11.5 7.5t-11 6t-12 5.5t-10 3.5l-114 45q-84 33 -84 102v16q0 60 75 84l55 17q56 16 56 58v22q0 79 -127 79q-128 0 -128 -79z" />
    <glyph glyph-name="agrave" unicode="&#xe0;" horiz-adv-x="505" 
d="M72 358v17q0 127 180 127t180 -127v-360q0 -15 -14 -15h-36q-14 0 -15 15l-2 36q-74 -59 -165 -59q-67 0 -102.5 33.5t-35.5 84.5v50q0 51 33.5 84.5t96.5 33.5h172v90q0 37 -25 57t-88 20t-88.5 -19t-25.5 -56v-12q0 -16 -15 -16h-36q-14 0 -14 16zM216 50q76 0 148 56
v117h-159q-76 0 -76 -72v-32q0 -69 87 -69zM239 577l-79 116q-11 15 7 15h44q11 0 20 -14l67 -112q9 -14 -7 -14h-34q-11 0 -18 9z" />
    <glyph glyph-name="aacute" unicode="&#xe1;" horiz-adv-x="505" 
d="M72 358v17q0 127 180 127t180 -127v-360q0 -15 -14 -15h-36q-14 0 -15 15l-2 36q-74 -59 -165 -59q-67 0 -102.5 33.5t-35.5 84.5v50q0 51 33.5 84.5t96.5 33.5h172v90q0 37 -25 57t-88 20t-88.5 -19t-25.5 -56v-12q0 -16 -15 -16h-36q-14 0 -14 16zM216 50q76 0 148 56
v117h-159q-76 0 -76 -72v-32q0 -69 87 -69zM343 693l-79 -116q-7 -9 -18 -9h-33q-17 0 -8 14l67 112q9 14 20 14h44q18 0 7 -15z" />
    <glyph glyph-name="acircumflex" unicode="&#xe2;" horiz-adv-x="505" 
d="M72 358v17q0 127 180 127t180 -127v-360q0 -15 -14 -15h-36q-14 0 -15 15l-2 36q-74 -59 -165 -59q-67 0 -102.5 33.5t-35.5 84.5v50q0 51 33.5 84.5t96.5 33.5h172v90q0 37 -25 57t-88 20t-88.5 -19t-25.5 -56v-12q0 -16 -15 -16h-36q-14 0 -14 16zM216 50q76 0 148 56
v117h-159q-76 0 -76 -72v-32q0 -69 87 -69zM253 664l-53 -82q-8 -14 -20 -14h-32q-18 0 -8 14l76 111q11 15 23 15h26q13 0 23 -14l78 -112q9 -14 -8 -14h-32q-11 0 -20 14z" />
    <glyph glyph-name="atilde" unicode="&#xe3;" horiz-adv-x="505" 
d="M72 358v17q0 127 180 127t180 -127v-360q0 -15 -14 -15h-36q-14 0 -15 15l-2 36q-74 -59 -165 -59q-67 0 -102.5 33.5t-35.5 84.5v50q0 51 33.5 84.5t96.5 33.5h172v90q0 37 -25 57t-88 20t-88.5 -19t-25.5 -56v-12q0 -16 -15 -16h-36q-14 0 -14 16zM216 50q76 0 148 56
v117h-159q-76 0 -76 -72v-32q0 -69 87 -69zM187 643q-17 0 -21.5 -9.5t-5.5 -37.5v-8q0 -14 -15 -14h-23q-13 0 -13 17l2 27q5 79 72 79q28 0 55 -19l44 -32q24 -18 38 -18q16 0 20.5 9.5t5.5 38.5v8q0 13 16 13h22q13 0 13 -16l-1 -25q-3 -81 -73 -81q-27 0 -54 18l-45 32
q-24 18 -37 18z" />
    <glyph glyph-name="adieresis" unicode="&#xe4;" horiz-adv-x="505" 
d="M72 358v17q0 127 180 127t180 -127v-360q0 -15 -14 -15h-36q-14 0 -15 15l-2 36q-74 -59 -165 -59q-67 0 -102.5 33.5t-35.5 84.5v50q0 51 33.5 84.5t96.5 33.5h172v90q0 37 -25 57t-88 20t-88.5 -19t-25.5 -56v-12q0 -16 -15 -16h-36q-14 0 -14 16zM216 50q76 0 148 56
v117h-159q-76 0 -76 -72v-32q0 -69 87 -69zM225 688v-97q0 -14 -14 -14h-25q-15 0 -15 14v97q0 15 15 15h25q14 0 14 -15zM332 688v-97q0 -14 -14 -14h-25q-14 0 -14 14v97q0 15 14 15h25q14 0 14 -15z" />
    <glyph glyph-name="aring" unicode="&#xe5;" horiz-adv-x="505" 
d="M72 358v17q0 127 180 127t180 -127v-360q0 -15 -14 -15h-36q-14 0 -15 15l-2 36q-74 -59 -165 -59q-67 0 -102.5 33.5t-35.5 84.5v50q0 51 33.5 84.5t96.5 33.5h172v90q0 37 -25 57t-88 20t-88.5 -19t-25.5 -56v-12q0 -16 -15 -16h-36q-14 0 -14 16zM216 50q76 0 148 56
v117h-159q-76 0 -76 -72v-32q0 -69 87 -69zM347 649v-25q0 -70 -93 -70q-46 0 -69 19t-23 51v25q0 32 23 51.5t69 19.5q47 0 70 -19.5t23 -51.5zM306 631v11q0 41 -52 41t-52 -41v-11q0 -41 52 -41t52 41z" />
    <glyph glyph-name="ae" unicode="&#xe6;" horiz-adv-x="788" 
d="M729 373v-120q0 -14 -14 -14h-284v-119q0 -37 26 -56t90 -19q117 0 117 78v18q0 15 14 15h35q14 0 14 -15v-21q0 -61 -41.5 -94.5t-138.5 -33.5q-137 0 -169 69q-86 -69 -178 -69q-69 0 -104 33t-35 85v42q0 51 34.5 84.5t96.5 33.5h171v107q0 73 -113 73
q-63 0 -88.5 -19.5t-25.5 -57.5v-15q0 -15 -14 -15h-36q-15 0 -15 15v17q0 127 181 127q113 0 145 -57q38 57 150 57q182 0 182 -129zM216 47q70 0 147 64v110h-160q-37 0 -55.5 -20t-18.5 -52v-31q0 -33 22.5 -52t64.5 -19zM431 371v-83h233v83q0 78 -117 78
q-116 0 -116 -78z" />
    <glyph glyph-name="ccedilla" unicode="&#xe7;" horiz-adv-x="479" 
d="M233 -53h37q35 0 59 -19t24 -59t-24 -60t-59 -20h-116q-15 0 -15 15v15q0 14 15 14h106q42 0 42 35t-42 35h-62q-24 0 -19 19l19 73q-130 15 -130 126v252q0 129 182 129t182 -129v-19q0 -15 -15 -15h-37q-15 0 -15 15v15q0 37 -25.5 56.5t-88.5 19.5t-88.5 -19.5
t-25.5 -56.5v-243q0 -38 25.5 -57.5t88.5 -19.5t88.5 19.5t25.5 57.5v22q0 15 15 15h37q15 0 15 -15v-27q0 -129 -183 -129h-4z" />
    <glyph glyph-name="egrave" unicode="&#xe8;" horiz-adv-x="492" 
d="M433 373v-123q0 -14 -14 -14h-283v-111q0 -38 25.5 -57.5t90.5 -19.5t90.5 19.5t25.5 57.5v17q0 14 14 14h36q15 0 15 -14v-21q0 -129 -183 -129q-182 0 -182 129v252q0 129 184 129q98 0 139.5 -33.5t41.5 -95.5zM136 369v-80h232v80q0 77 -116 77t-116 -77zM224 577
l-79 116q-11 15 7 15h44q11 0 20 -14l67 -112q9 -14 -7 -14h-34q-11 0 -18 9z" />
    <glyph glyph-name="eacute" unicode="&#xe9;" horiz-adv-x="492" 
d="M350 693l-79 -116q-7 -9 -18 -9h-33q-17 0 -8 14l67 112q9 14 20 14h44q18 0 7 -15zM433 373v-123q0 -14 -14 -14h-283v-111q0 -38 25.5 -57.5t90.5 -19.5t90.5 19.5t25.5 57.5v17q0 14 14 14h36q15 0 15 -14v-21q0 -129 -183 -129q-182 0 -182 129v252q0 129 184 129
q98 0 139.5 -33.5t41.5 -95.5zM136 369v-80h232v80q0 77 -116 77t-116 -77z" />
    <glyph glyph-name="ecircumflex" unicode="&#xea;" horiz-adv-x="492" 
d="M252 664l-53 -82q-8 -14 -20 -14h-32q-8 0 -10.5 4t2.5 10l76 111q11 15 23 15h26q12 0 23 -14l78 -112q9 -14 -8 -14h-32q-11 0 -20 14zM433 373v-123q0 -14 -14 -14h-283v-111q0 -38 25.5 -57.5t90.5 -19.5t90.5 19.5t25.5 57.5v17q0 14 14 14h36q15 0 15 -14v-21
q0 -129 -183 -129q-182 0 -182 129v252q0 129 184 129q98 0 139.5 -33.5t41.5 -95.5zM136 369v-80h232v80q0 77 -116 77t-116 -77z" />
    <glyph glyph-name="edieresis" unicode="&#xeb;" horiz-adv-x="492" 
d="M224 688v-97q0 -14 -14 -14h-25q-15 0 -15 14v97q0 15 15 15h25q14 0 14 -15zM331 688v-97q0 -14 -14 -14h-25q-14 0 -14 14v97q0 15 14 15h25q14 0 14 -15zM433 373v-123q0 -14 -14 -14h-283v-111q0 -38 25.5 -57.5t90.5 -19.5t90.5 19.5t25.5 57.5v17q0 14 14 14h36
q15 0 15 -14v-21q0 -129 -183 -129q-182 0 -182 129v252q0 129 184 129q98 0 139.5 -33.5t41.5 -95.5zM136 369v-80h232v80q0 77 -116 77t-116 -77z" />
    <glyph glyph-name="igrave" unicode="&#xec;" horiz-adv-x="227" 
d="M148 479v-464q0 -15 -14 -15h-41q-14 0 -14 15v464q0 15 14 15h41q14 0 14 -15zM79 577l-79 116q-11 15 7 15h44q11 0 20 -14l67 -112q9 -14 -7 -14h-34q-11 0 -18 9z" />
    <glyph glyph-name="iacute" unicode="&#xed;" horiz-adv-x="227" 
d="M224 693l-79 -116q-7 -9 -18 -9h-33q-17 0 -8 14l67 112q9 14 20 14h44q18 0 7 -15zM148 479v-464q0 -15 -14 -15h-41q-14 0 -14 15v464q0 15 14 15h41q14 0 14 -15z" />
    <glyph glyph-name="icircumflex" unicode="&#xee;" horiz-adv-x="227" 
d="M115 664l-53 -82q-8 -14 -20 -14h-32q-18 0 -8 14l76 111q11 15 23 15h26q13 0 23 -14l78 -112q9 -14 -8 -14h-32q-11 0 -20 14zM148 479v-464q0 -15 -14 -15h-41q-14 0 -14 15v464q0 15 14 15h41q14 0 14 -15z" />
    <glyph glyph-name="idieresis" unicode="&#xef;" horiz-adv-x="227" 
d="M88 688v-97q0 -14 -14 -14h-25q-15 0 -15 14v97q0 15 15 15h25q14 0 14 -15zM195 688v-97q0 -14 -14 -14h-25q-14 0 -14 14v97q0 15 14 15h25q14 0 14 -15zM148 479v-464q0 -15 -14 -15h-41q-14 0 -14 15v464q0 15 14 15h41q14 0 14 -15z" />
    <glyph glyph-name="eth" unicode="&#xf0;" horiz-adv-x="555" 
d="M277 601l75 33q-27 24 -94 24h-89q-15 0 -15 15v20q0 15 15 15h89q107 0 150 -43l52 24q13 5 19 -5l6 -10q7 -13 -7 -19l-47 -22q10 -21 10 -53v-460q0 -128 -185 -128q-188 0 -188 128v254q0 59 34.5 93.5t104.5 34.5q91 0 169 -60v125q0 18 -8 32l-72 -31q-13 -6 -20 5
l-5 9q-7 12 6 19zM376 125v259q-71 58 -150 58q-46 0 -67.5 -21.5t-21.5 -55.5v-240q0 -77 119 -77q120 0 120 77z" />
    <glyph glyph-name="ntilde" unicode="&#xf1;" horiz-adv-x="530" 
d="M130 494q14 0 15 -15l2 -38q71 61 171 61q67 0 102.5 -34t35.5 -89v-364q0 -15 -14 -15h-40q-15 0 -15 15v349q0 76 -88 76q-79 0 -151 -56v-369q0 -15 -14 -15h-40q-15 0 -15 15v464q0 15 15 15h36zM196 647q-17 0 -21.5 -9.5t-5.5 -37.5v-8q0 -14 -15 -14h-23
q-13 0 -13 17l2 27q5 79 72 79q28 0 55 -19l44 -32q24 -18 38 -18q16 0 20.5 9.5t5.5 38.5v8q0 13 16 13h22q13 0 13 -16l-1 -25q-3 -81 -73 -81q-27 0 -54 18l-45 32q-24 18 -37 18z" />
    <glyph glyph-name="ograve" unicode="&#xf2;" horiz-adv-x="513" 
d="M68 121v252q0 129 188 129q189 0 189 -129v-252q0 -129 -189 -129q-188 0 -188 129zM376 126v242q0 77 -120 77q-119 0 -119 -77v-242q0 -77 119 -77q120 0 120 77zM227 577l-79 116q-11 15 7 15h44q11 0 20 -14l67 -112q9 -14 -7 -14h-34q-11 0 -18 9z" />
    <glyph glyph-name="oacute" unicode="&#xf3;" horiz-adv-x="513" 
d="M363 693l-79 -116q-7 -9 -18 -9h-33q-17 0 -8 14l67 112q9 14 20 14h44q18 0 7 -15zM68 121v252q0 129 188 129q189 0 189 -129v-252q0 -129 -189 -129q-188 0 -188 129zM376 126v242q0 77 -120 77q-119 0 -119 -77v-242q0 -77 119 -77q120 0 120 77z" />
    <glyph glyph-name="ocircumflex" unicode="&#xf4;" horiz-adv-x="513" 
d="M257 664l-53 -82q-8 -14 -20 -14h-32q-18 0 -8 14l76 111q11 15 23 15h26q13 0 23 -14l78 -112q9 -14 -8 -14h-32q-11 0 -20 14zM68 121v252q0 129 188 129q189 0 189 -129v-252q0 -129 -189 -129q-188 0 -188 129zM376 126v242q0 77 -120 77q-119 0 -119 -77v-242
q0 -77 119 -77q120 0 120 77z" />
    <glyph glyph-name="otilde" unicode="&#xf5;" horiz-adv-x="513" 
d="M68 121v252q0 129 188 129q189 0 189 -129v-252q0 -129 -189 -129q-188 0 -188 129zM376 126v242q0 77 -120 77q-119 0 -119 -77v-242q0 -77 119 -77q120 0 120 77zM191 643q-17 0 -21.5 -9.5t-5.5 -37.5v-8q0 -14 -15 -14h-23q-13 0 -13 17l2 27q5 79 72 79q28 0 55 -19
l44 -32q24 -18 38 -18q16 0 20.5 9.5t5.5 38.5v8q0 13 16 13h22q13 0 13 -16l-1 -25q-3 -81 -73 -81q-27 0 -54 18l-45 32q-24 18 -37 18z" />
    <glyph glyph-name="odieresis" unicode="&#xf6;" horiz-adv-x="513" 
d="M230 688v-97q0 -14 -14 -14h-25q-15 0 -15 14v97q0 15 15 15h25q14 0 14 -15zM337 688v-97q0 -14 -14 -14h-25q-14 0 -14 14v97q0 15 14 15h25q14 0 14 -15zM68 121v252q0 129 188 129q189 0 189 -129v-252q0 -129 -189 -129q-188 0 -188 129zM376 126v242q0 77 -120 77
q-119 0 -119 -77v-242q0 -77 119 -77q120 0 120 77z" />
    <glyph glyph-name="divide" unicode="&#xf7;" horiz-adv-x="588" 
d="M93 349h401q15 0 15 -14v-30q0 -15 -15 -15h-400q-15 0 -15 15v30q0 14 14 14zM330 193v-78q0 -15 -14 -15h-42q-15 0 -15 15v78q0 15 15 15h42q14 0 14 -15zM330 528v-78q0 -15 -14 -15h-42q-15 0 -15 15v78q0 15 15 15h42q14 0 14 -15z" />
    <glyph glyph-name="oslash" unicode="&#xf8;" horiz-adv-x="513" 
d="M68 121v252q0 129 188 129q66 0 112 -18l10 18q1 1 2.5 4.5t2.5 4.5t2.5 4t3 4t3.5 2.5t4.5 2t5.5 0.5h15q16 0 3 -22l-20 -35q45 -32 45 -94v-252q0 -129 -189 -129q-67 0 -113 18l-9 -16q-5 -9 -7.5 -13t-7 -6.5t-10.5 -2.5h-13q-16 0 -4 22l18 33q-42 32 -42 94z
M376 126v242q0 22 -10 38l-193 -342q29 -15 83 -15q120 0 120 77zM137 126q0 -22 8 -37l193 342q-30 14 -82 14q-119 0 -119 -77v-242z" />
    <glyph glyph-name="ugrave" unicode="&#xf9;" 
d="M378 15l-2 36q-69 -59 -164 -59q-68 0 -103.5 33.5t-35.5 88.5v365q0 15 14 15h41q14 0 14 -15v-349q0 -76 89 -76q77 0 144 55v370q0 15 14 15h41q14 0 14 -15v-464q0 -15 -14 -15h-37q-14 0 -15 15zM237 577l-79 116q-11 15 7 15h44q11 0 20 -14l67 -112q9 -14 -7 -14
h-34q-11 0 -18 9z" />
    <glyph glyph-name="uacute" unicode="&#xfa;" 
d="M364 693l-79 -116q-7 -9 -18 -9h-33q-17 0 -8 14l67 112q9 14 20 14h44q18 0 7 -15zM378 15l-2 36q-69 -59 -164 -59q-68 0 -103.5 33.5t-35.5 88.5v365q0 15 14 15h41q14 0 14 -15v-349q0 -76 89 -76q77 0 144 55v370q0 15 14 15h41q14 0 14 -15v-464q0 -15 -14 -15h-37
q-14 0 -15 15z" />
    <glyph glyph-name="ucircumflex" unicode="&#xfb;" 
d="M257 664l-53 -82q-8 -14 -20 -14h-32q-18 0 -8 14l76 111q11 15 23 15h26q13 0 23 -14l78 -112q9 -14 -8 -14h-32q-11 0 -20 14zM378 15l-2 36q-69 -59 -164 -59q-68 0 -103.5 33.5t-35.5 88.5v365q0 15 14 15h41q14 0 14 -15v-349q0 -76 89 -76q77 0 144 55v370
q0 15 14 15h41q14 0 14 -15v-464q0 -15 -14 -15h-37q-14 0 -15 15z" />
    <glyph glyph-name="udieresis" unicode="&#xfc;" 
d="M234 688v-97q0 -14 -14 -14h-25q-15 0 -15 14v97q0 15 15 15h25q14 0 14 -15zM341 688v-97q0 -14 -14 -14h-25q-14 0 -14 14v97q0 15 14 15h25q14 0 14 -15zM378 15l-2 36q-69 -59 -164 -59q-68 0 -103.5 33.5t-35.5 88.5v365q0 15 14 15h41q14 0 14 -15v-349
q0 -76 89 -76q77 0 144 55v370q0 15 14 15h41q14 0 14 -15v-464q0 -15 -14 -15h-37q-14 0 -15 15z" />
    <glyph glyph-name="yacute" unicode="&#xfd;" horiz-adv-x="432" 
d="M89 479l113 -332q4 -12 7 -26.5l5 -23.5t2 -10q10 40 16 58l114 334q5 15 17 15h38q18 0 13 -15l-229 -671q-6 -15 -17 -15h-31q-17 0 -12 15l60 188l-167 483q-5 15 13 15h41q12 0 17 -15zM328 693l-79 -116q-7 -9 -18 -9h-33q-17 0 -8 14l67 112q9 14 20 14h44
q18 0 7 -15z" />
    <glyph glyph-name="thorn" unicode="&#xfe;" 
d="M148 684v-242q76 60 169 60q70 0 104.5 -34.5t34.5 -93.5v-254q0 -60 -34.5 -94t-104.5 -34q-95 0 -169 59v-243q0 -15 -14 -15h-41q-14 0 -14 15v876q0 15 14 15h41q14 0 14 -15zM387 129v236q0 34 -21.5 55.5t-67.5 21.5q-79 0 -150 -58v-275q70 -57 150 -57
q46 0 67.5 21.5t21.5 55.5z" />
    <glyph glyph-name="ydieresis" unicode="&#xff;" horiz-adv-x="432" 
d="M89 479l113 -332q4 -12 7 -26.5l5 -23.5t2 -10q10 40 16 58l114 334q5 15 17 15h38q18 0 13 -15l-229 -671q-6 -15 -17 -15h-31q-17 0 -12 15l60 188l-167 483q-5 15 13 15h41q12 0 17 -15zM193 688v-97q0 -14 -14 -14h-25q-15 0 -15 14v97q0 15 15 15h25q14 0 14 -15z
M300 688v-97q0 -14 -14 -14h-25q-14 0 -14 14v97q0 15 14 15h25q14 0 14 -15z" />
    <glyph glyph-name="Amacron" unicode="&#x100;" horiz-adv-x="526" 
d="M285 680q13 0 18 -15l200 -650q5 -15 -12 -15h-43q-14 0 -18 15l-55 178h-229l-54 -178q-4 -15 -17 -15h-40q-15 0 -11 15l199 650q5 15 19 15h43zM360 250l-73 234q-7 23 -25 121q-10 -73 -25 -119l-74 -236h197zM137 827h251q15 0 15 -15v-25q0 -14 -15 -14h-251
q-15 0 -15 14v25q0 15 15 15z" />
    <glyph glyph-name="amacron" unicode="&#x101;" horiz-adv-x="505" 
d="M72 358v17q0 127 180 127t180 -127v-360q0 -15 -14 -15h-36q-14 0 -15 15l-2 36q-74 -59 -165 -59q-67 0 -102.5 33.5t-35.5 84.5v50q0 51 33.5 84.5t96.5 33.5h172v90q0 37 -25 57t-88 20t-88.5 -19t-25.5 -56v-12q0 -16 -15 -16h-36q-14 0 -14 16zM216 50q76 0 148 56
v117h-159q-76 0 -76 -72v-32q0 -69 87 -69zM126 651h252q15 0 15 -14v-25q0 -15 -15 -15h-252q-14 0 -14 15v25q0 14 14 14z" />
    <glyph glyph-name="Abreve" unicode="&#x102;" horiz-adv-x="526" 
d="M285 680q13 0 18 -15l200 -650q5 -15 -12 -15h-43q-14 0 -18 15l-55 178h-229l-54 -178q-4 -15 -17 -15h-40q-15 0 -11 15l199 650q5 15 19 15h43zM360 250l-73 234q-7 23 -25 121q-10 -73 -25 -119l-74 -236h197zM196 866v-17q0 -32 14 -49.5t53 -17.5t53 17t14 50v17
q0 13 14 13h25q13 0 13 -13v-16q0 -112 -120 -112q-64 0 -91 28.5t-27 83.5v16q0 13 13 13h26q13 0 13 -13z" />
    <glyph glyph-name="abreve" unicode="&#x103;" horiz-adv-x="505" 
d="M72 358v17q0 127 180 127t180 -127v-360q0 -15 -14 -15h-36q-14 0 -15 15l-2 36q-74 -59 -165 -59q-67 0 -102.5 33.5t-35.5 84.5v50q0 51 33.5 84.5t96.5 33.5h172v90q0 37 -25 57t-88 20t-88.5 -19t-25.5 -56v-12q0 -16 -15 -16h-36q-14 0 -14 16zM216 50q76 0 148 56
v117h-159q-76 0 -76 -72v-32q0 -69 87 -69zM190 683v-17q0 -32 14 -49.5t53 -17.5t53 17t14 50v17q0 13 14 13h25q13 0 13 -13v-16q0 -112 -120 -112q-64 0 -91 28.5t-27 83.5v16q0 13 14 13h25q13 0 13 -13z" />
    <glyph glyph-name="Aogonek" unicode="&#x104;" horiz-adv-x="527" 
d="M285 680q15 0 19 -15l199 -650q5 -15 -11 -15h-14q-33 -3 -48 -21t-15 -42q0 -42 54 -42h25q14 0 14 -14v-20q0 -15 -19 -15h-36q-40 0 -66.5 19.5t-26.5 60.5q0 23 16 52.5t50 48.5l-51 166h-229l-54 -178q-4 -15 -17 -15h-40q-15 0 -11 15l199 650q5 15 19 15h43z
M287 484q-21 73 -25 123q-15 -85 -26 -121l-73 -236h197z" />
    <glyph glyph-name="aogonek" unicode="&#x105;" horiz-adv-x="505" 
d="M72 358v17q0 127 180 127t180 -127v-360q0 -15 -14 -15h-6q-30 -5 -45 -23t-15 -41q0 -41 54 -41h15q15 0 15 -14v-20q0 -15 -19 -15h-30q-38 0 -64 20.5t-26 59.5q0 58 70 98l-2 27q-74 -59 -165 -59q-67 0 -102.5 33.5t-35.5 84.5v50q0 51 33.5 84.5t96.5 33.5h172v90
q0 37 -25 57t-88 20t-88.5 -19t-25.5 -56v-12q0 -16 -15 -16h-36q-14 0 -14 16zM216 50q76 0 148 56v117h-159q-76 0 -76 -72v-32q0 -69 87 -69z" />
    <glyph glyph-name="Cacute" unicode="&#x106;" horiz-adv-x="552" 
d="M501 202v-64q0 -146 -211 -146t-211 146v404q0 146 211 146t211 -146v-51q0 -16 -14 -16h-40q-15 0 -15 16v40q0 96 -141 96t-141 -96v-382q0 -96 141 -96t141 96v53q0 15 15 15h40q14 0 14 -15zM389 863l-79 -116q-7 -9 -19 -9h-33q-15 0 -7 14l67 112q9 14 19 14h44
q17 0 8 -15z" />
    <glyph glyph-name="cacute" unicode="&#x107;" horiz-adv-x="479" 
d="M355 693l-79 -116q-7 -9 -18 -9h-33q-17 0 -8 14l67 112q9 14 20 14h44q18 0 7 -15zM250 502q182 0 182 -129v-19q0 -15 -15 -15h-37q-15 0 -15 15v15q0 37 -25.5 56.5t-88.5 19.5t-88.5 -19.5t-25.5 -56.5v-243q0 -38 25.5 -57.5t88.5 -19.5t88.5 19.5t25.5 57.5v22
q0 15 15 15h37q15 0 15 -15v-27q0 -129 -183 -129q-98 0 -139.5 33.5t-41.5 95.5v252q0 129 182 129z" />
    <glyph glyph-name="Ccircumflex" unicode="&#x108;" horiz-adv-x="552" 
d="M501 202v-64q0 -146 -211 -146t-211 146v404q0 146 211 146t211 -146v-51q0 -16 -14 -16h-40q-15 0 -15 16v40q0 96 -141 96t-141 -96v-382q0 -96 141 -96t141 96v53q0 15 15 15h40q14 0 14 -15zM278 834l-53 -82q-8 -14 -20 -14h-32q-8 0 -10 4t2 10l77 111q11 15 23 15
h26q13 0 23 -14l77 -112q5 -6 2.5 -10t-10.5 -4h-32q-11 0 -20 14z" />
    <glyph glyph-name="ccircumflex" unicode="&#x109;" horiz-adv-x="479" 
d="M240 664l-53 -82q-8 -14 -20 -14h-32q-18 0 -8 14l76 111q11 15 23 15h26q12 0 23 -14l78 -112q9 -14 -8 -14h-32q-11 0 -20 14zM250 502q182 0 182 -129v-19q0 -15 -15 -15h-37q-15 0 -15 15v15q0 37 -25.5 56.5t-88.5 19.5t-88.5 -19.5t-25.5 -56.5v-243
q0 -38 25.5 -57.5t88.5 -19.5t88.5 19.5t25.5 57.5v22q0 15 15 15h37q15 0 15 -15v-27q0 -129 -183 -129q-98 0 -139.5 33.5t-41.5 95.5v252q0 129 182 129z" />
    <glyph glyph-name="Cdotaccent" unicode="&#x10a;" horiz-adv-x="552" 
d="M310 839v-79q0 -14 -14 -14h-42q-14 0 -14 14v79q0 14 14 14h42q14 0 14 -14zM501 202v-64q0 -146 -211 -146t-211 146v404q0 146 211 146t211 -146v-51q0 -16 -14 -16h-40q-15 0 -15 16v40q0 96 -141 96t-141 -96v-382q0 -96 141 -96t141 96v53q0 15 15 15h40
q14 0 14 -15z" />
    <glyph glyph-name="cdotaccent" unicode="&#x10b;" horiz-adv-x="479" 
d="M250 502q182 0 182 -129v-19q0 -15 -15 -15h-37q-15 0 -15 15v15q0 37 -25.5 56.5t-88.5 19.5t-88.5 -19.5t-25.5 -56.5v-243q0 -38 25.5 -57.5t88.5 -19.5t88.5 19.5t25.5 57.5v22q0 15 15 15h37q15 0 15 -15v-27q0 -129 -183 -129q-98 0 -139.5 33.5t-41.5 95.5v252
q0 129 182 129zM274 675v-77q0 -15 -14 -15h-42q-14 0 -14 15v77q0 15 14 15h42q14 0 14 -15z" />
    <glyph glyph-name="Ccaron" unicode="&#x10c;" horiz-adv-x="552" 
d="M501 202v-64q0 -146 -211 -146t-211 146v404q0 146 211 146t211 -146v-51q0 -16 -14 -16h-40q-15 0 -15 16v40q0 96 -141 96t-141 -96v-382q0 -96 141 -96t141 96v53q0 15 15 15h40q14 0 14 -15zM222 863l53 -82l53 82q9 15 20 15h32q8 0 10.5 -4.5t-2.5 -10.5l-77 -111
q-11 -14 -23 -14h-26q-13 0 -23 15l-77 110q-4 6 -2 10.5t10 4.5h32q11 0 20 -15z" />
    <glyph glyph-name="ccaron" unicode="&#x10d;" horiz-adv-x="479" 
d="M187 693l53 -82l53 82q9 15 20 15h32q17 0 8 -15l-78 -111q-11 -14 -23 -14h-26q-13 0 -23 15l-76 110q-5 6 -2.5 10.5t10.5 4.5h32q11 0 20 -15zM250 502q182 0 182 -129v-19q0 -15 -15 -15h-37q-15 0 -15 15v15q0 37 -25.5 56.5t-88.5 19.5t-88.5 -19.5t-25.5 -56.5
v-243q0 -38 25.5 -57.5t88.5 -19.5t88.5 19.5t25.5 57.5v22q0 15 15 15h37q15 0 15 -15v-27q0 -129 -183 -129q-98 0 -139.5 33.5t-41.5 95.5v252q0 129 182 129z" />
    <glyph glyph-name="Dcaron" unicode="&#x10e;" horiz-adv-x="602" 
d="M306 0h-203q-12 0 -12 15v650q0 15 13 15h202q217 0 217 -146v-388q0 -146 -217 -146zM306 619h-145v-558h145q146 0 146 96v366q0 96 -146 96zM245 863l53 -82l53 82q9 15 20 15h32q8 0 10.5 -4.5t-2.5 -10.5l-77 -111q-10 -14 -23 -14h-26q-13 0 -23 15l-77 110
q-4 6 -2 10.5t10 4.5h32q11 0 20 -15z" />
    <glyph glyph-name="dcaron" unicode="&#x10f;" horiz-adv-x="577" 
d="M525 676v28q0 15 15 15h30q15 0 15 -15v-31q0 -52 -39 -118q-6 -11 -19 -8l-24 6q-14 3 -7 20q3 8 9.5 21t9 19t5.5 16t4 21t1 26zM379 15l-2 37q-76 -60 -170 -60q-70 0 -104.5 34.5t-34.5 93.5v254q0 59 34.5 93.5t104.5 34.5q89 0 169 -59v241q0 15 14 15h40
q15 0 15 -15v-669q0 -15 -15 -15h-36q-14 0 -15 15zM137 364v-234q0 -33 21.5 -54t66.5 -21q75 0 151 56v271q-73 57 -151 57q-45 0 -66.5 -21t-21.5 -54z" />
    <glyph glyph-name="Dcroat" unicode="&#x110;" horiz-adv-x="602" 
d="M306 0h-203q-12 0 -12 15v302h-66q-15 0 -15 14v26q0 14 15 14h66v294q0 15 13 15h202q217 0 217 -146v-388q0 -146 -217 -146zM306 619h-145v-248h132q15 0 15 -14v-26q0 -14 -15 -14h-132v-256h145q146 0 146 96v366q0 96 -146 96z" />
    <glyph glyph-name="dcroat" unicode="&#x111;" 
d="M379 15l-2 37q-76 -60 -170 -60q-70 0 -104.5 34.5t-34.5 93.5v254q0 59 34.5 93.5t104.5 34.5q89 0 169 -59v116h-152q-15 0 -15 15v21q0 14 15 14h152v75q0 15 14 15h40q15 0 15 -15v-75h40q15 0 15 -14v-21q0 -15 -15 -15h-40v-544q0 -15 -15 -15h-36q-14 0 -15 15z
M137 364v-234q0 -33 21.5 -54t66.5 -21q75 0 151 56v271q-73 57 -151 57q-45 0 -66.5 -21t-21.5 -54z" />
    <glyph glyph-name="Emacron" unicode="&#x112;" 
d="M458 0h-354q-13 0 -13 15v650q0 15 14 15h341q15 0 15 -15v-31q0 -15 -15 -15h-285v-233h267q15 0 15 -15v-29q0 -15 -15 -15h-267v-266h297q15 0 15 -14v-32q0 -15 -15 -15zM144 827h251q15 0 15 -15v-25q0 -14 -15 -14h-251q-15 0 -15 14v25q0 15 15 15z" />
    <glyph glyph-name="emacron" unicode="&#x113;" horiz-adv-x="492" 
d="M433 373v-123q0 -14 -14 -14h-283v-111q0 -38 25.5 -57.5t90.5 -19.5t90.5 19.5t25.5 57.5v17q0 14 14 14h36q15 0 15 -14v-21q0 -129 -183 -129q-182 0 -182 129v252q0 129 184 129q98 0 139.5 -33.5t41.5 -95.5zM136 369v-80h232v80q0 77 -116 77t-116 -77zM120 651
h252q15 0 15 -14v-25q0 -15 -15 -15h-252q-14 0 -14 15v25q0 14 14 14z" />
    <glyph glyph-name="Ebreve" unicode="&#x114;" 
d="M458 0h-354q-13 0 -13 15v650q0 15 14 15h341q15 0 15 -15v-31q0 -15 -15 -15h-285v-233h267q15 0 15 -15v-29q0 -15 -15 -15h-267v-266h297q15 0 15 -14v-32q0 -15 -15 -15zM205 866v-17q0 -32 14 -49.5t53 -17.5t53 17t14 50v17q0 13 14 13h25q13 0 13 -13v-16
q0 -112 -120 -112q-64 0 -91 28.5t-27 83.5v16q0 13 13 13h26q13 0 13 -13z" />
    <glyph glyph-name="ebreve" unicode="&#x115;" horiz-adv-x="492" 
d="M433 373v-123q0 -14 -14 -14h-283v-111q0 -38 25.5 -57.5t90.5 -19.5t90.5 19.5t25.5 57.5v17q0 14 14 14h36q15 0 15 -14v-21q0 -129 -183 -129q-182 0 -182 129v252q0 129 184 129q98 0 139.5 -33.5t41.5 -95.5zM136 369v-80h232v80q0 77 -116 77t-116 -77zM179 683
v-17q0 -32 14 -49.5t53 -17.5t53 17t14 50v17q0 13 14 13h25q13 0 13 -13v-16q0 -112 -120 -112q-64 0 -91 28.5t-27 83.5v16q0 13 14 13h25q13 0 13 -13z" />
    <glyph glyph-name="Edotaccent" unicode="&#x116;" 
d="M308 839v-79q0 -14 -14 -14h-42q-14 0 -14 14v79q0 14 14 14h42q14 0 14 -14zM458 0h-354q-13 0 -13 15v650q0 15 14 15h341q15 0 15 -15v-31q0 -15 -15 -15h-285v-233h267q15 0 15 -15v-29q0 -15 -15 -15h-267v-266h297q15 0 15 -14v-32q0 -15 -15 -15z" />
    <glyph glyph-name="edotaccent" unicode="&#x117;" horiz-adv-x="492" 
d="M433 373v-123q0 -14 -14 -14h-283v-111q0 -38 25.5 -57.5t90.5 -19.5t90.5 19.5t25.5 57.5v17q0 14 14 14h36q15 0 15 -14v-21q0 -129 -183 -129q-182 0 -182 129v252q0 129 184 129q98 0 139.5 -33.5t41.5 -95.5zM136 369v-80h232v80q0 77 -116 77t-116 -77z" />
    <glyph glyph-name="Eogonek" unicode="&#x118;" 
d="M458 0h-29q-32 0 -48.5 -18t-16.5 -43q0 -44 54 -44h28q15 0 15 -14v-20q0 -15 -19 -15h-40q-39 0 -66 20.5t-27 61.5q0 40 32 72h-237q-13 0 -13 15v650q0 15 14 15h341q15 0 15 -15v-31q0 -15 -15 -15h-285v-233h267q15 0 15 -15v-29q0 -15 -15 -15h-267v-266h297
q15 0 15 -14v-32q0 -15 -15 -15z" />
    <glyph glyph-name="eogonek" unicode="&#x119;" horiz-adv-x="492" 
d="M433 373v-123q0 -14 -14 -14h-283v-111q0 -38 25.5 -57.5t90.5 -19.5t90.5 19.5t25.5 57.5v17q0 14 14 14h36q15 0 15 -14v-21q0 -60 -37 -91l-17.5 -14t-18 -15.5t-13.5 -15t-11 -20.5t-3 -25q0 -45 55 -45h29q15 0 15 -14v-20q0 -15 -18 -15h-44q-39 0 -64.5 19.5
t-25.5 59.5t23 71q-30 -4 -53 -4q-182 0 -182 129v252q0 129 184 129q98 0 139.5 -33.5t41.5 -95.5zM136 369v-80h232v80q0 77 -116 77t-116 -77z" />
    <glyph glyph-name="Ecaron" unicode="&#x11a;" 
d="M458 0h-354q-13 0 -13 15v650q0 15 14 15h341q15 0 15 -15v-31q0 -15 -15 -15h-285v-233h267q15 0 15 -15v-29q0 -15 -15 -15h-267v-266h297q15 0 15 -14v-32q0 -15 -15 -15zM209 863l53 -82l53 82q9 15 20 15h32q8 0 10.5 -4.5t-2.5 -10.5l-77 -111q-10 -14 -23 -14h-26
q-13 0 -23 15l-77 110q-4 6 -2 10.5t10 4.5h32q11 0 20 -15z" />
    <glyph glyph-name="ecaron" unicode="&#x11b;" horiz-adv-x="492" 
d="M193 693l53 -82l53 82q9 15 20 15h32q17 0 8 -15l-78 -111q-11 -14 -23 -14h-26q-13 0 -23 15l-76 110q-5 6 -2.5 10.5t10.5 4.5h32q11 0 20 -15zM433 373v-123q0 -14 -14 -14h-283v-111q0 -38 25.5 -57.5t90.5 -19.5t90.5 19.5t25.5 57.5v17q0 14 14 14h36q15 0 15 -14
v-21q0 -129 -183 -129q-182 0 -182 129v252q0 129 184 129q98 0 139.5 -33.5t41.5 -95.5zM136 369v-80h232v80q0 77 -116 77t-116 -77z" />
    <glyph glyph-name="Gcircumflex" unicode="&#x11c;" horiz-adv-x="567" 
d="M283 834l-53 -82q-8 -14 -20 -14h-32q-8 0 -10 4t2 10l77 111q11 15 23 15h26q12 0 23 -14l77 -112q10 -14 -8 -14h-32q-11 0 -20 14zM298 327h188q15 0 15 -14v-175q0 -146 -211 -146t-211 146v404q0 146 211 146t211 -146v-48q0 -14 -14 -14h-40q-15 0 -15 14v37
q0 96 -141 96t-141 -96v-382q0 -96 141 -96t141 95v118h-134q-14 0 -14 15v32q0 14 14 14z" />
    <glyph glyph-name="gcircumflex" unicode="&#x11d;" 
d="M262 664l-53 -82q-8 -14 -20 -14h-32q-18 0 -8 14l76 111q11 15 23 15h26q12 0 23 -14l78 -112q9 -14 -8 -14h-32q-11 0 -20 14zM207 -8q-70 0 -104.5 34.5t-34.5 93.5v254q0 59 34.5 93.5t104.5 34.5q96 0 170 -61l2 38q1 15 15 15h36q15 0 15 -15v-556
q0 -129 -187 -129h-136q-15 0 -15 14v30q0 14 15 14h136q118 0 118 77v121q-79 -58 -169 -58zM137 364v-234q0 -33 21.5 -54t66.5 -21q75 0 151 56v271q-73 57 -151 57q-45 0 -66.5 -21t-21.5 -54z" />
    <glyph glyph-name="Gbreve" unicode="&#x11e;" horiz-adv-x="567" 
d="M298 327h188q15 0 15 -14v-175q0 -146 -211 -146t-211 146v404q0 146 211 146t211 -146v-48q0 -14 -14 -14h-40q-15 0 -15 14v37q0 96 -141 96t-141 -96v-382q0 -96 141 -96t141 95v118h-134q-14 0 -14 15v32q0 14 14 14zM216 866v-17q0 -32 14 -49.5t53 -17.5t53 17
t14 50v17q0 13 14 13h25q13 0 13 -13v-16q0 -112 -120 -112q-64 0 -91 28.5t-27 83.5v16q0 13 13 13h26q13 0 13 -13z" />
    <glyph glyph-name="gbreve" unicode="&#x11f;" 
d="M207 -8q-70 0 -104.5 34.5t-34.5 93.5v254q0 59 34.5 93.5t104.5 34.5q96 0 170 -61l2 38q1 15 15 15h36q15 0 15 -15v-556q0 -129 -187 -129h-136q-15 0 -15 14v30q0 14 15 14h136q118 0 118 77v121q-79 -58 -169 -58zM137 364v-234q0 -33 21.5 -54t66.5 -21
q75 0 151 56v271q-73 57 -151 57q-45 0 -66.5 -21t-21.5 -54zM193 683v-17q0 -32 14 -49.5t53 -17.5t53 17t14 50v17q0 13 14 13h25q13 0 13 -13v-16q0 -112 -120 -112q-64 0 -91 28.5t-27 83.5v16q0 13 14 13h25q13 0 13 -13z" />
    <glyph glyph-name="Gdotaccent" unicode="&#x120;" horiz-adv-x="567" 
d="M318 836v-79q0 -14 -14 -14h-42q-14 0 -14 14v79q0 14 14 14h42q14 0 14 -14zM298 324h188q15 0 15 -14v-175q0 -146 -211 -146t-211 146v404q0 146 211 146t211 -146v-48q0 -14 -14 -14h-40q-15 0 -15 14v37q0 96 -141 96t-141 -96v-382q0 -96 141 -96t141 95v118h-134
q-14 0 -14 15v32q0 14 14 14z" />
    <glyph glyph-name="gdotaccent" unicode="&#x121;" 
d="M207 -8q-70 0 -104.5 34.5t-34.5 93.5v254q0 59 34.5 93.5t104.5 34.5q96 0 170 -61l2 38q1 15 15 15h36q15 0 15 -15v-556q0 -129 -187 -129h-136q-15 0 -15 14v30q0 14 15 14h136q118 0 118 77v121q-79 -58 -169 -58zM137 364v-234q0 -33 21.5 -54t66.5 -21
q75 0 151 56v271q-73 57 -151 57q-45 0 -66.5 -21t-21.5 -54zM289 675v-77q0 -15 -14 -15h-42q-14 0 -14 15v77q0 15 14 15h42q14 0 14 -15z" />
    <glyph glyph-name="Gcommaaccent" unicode="&#x122;" horiz-adv-x="567" 
d="M261 -92v28q0 15 15 15h30q15 0 15 -15v-31q0 -52 -39 -118q-6 -11 -19 -8l-24 6q-14 3 -7 20q3 8 9.5 21t9 19t5.5 16t4 21t1 26zM298 327h188q15 0 15 -14v-175q0 -146 -211 -146t-211 146v404q0 146 211 146t211 -146v-48q0 -14 -14 -14h-40q-15 0 -15 14v37
q0 96 -141 96t-141 -96v-382q0 -96 141 -96t141 95v118h-134q-14 0 -14 15v32q0 14 14 14z" />
    <glyph glyph-name="gcommaaccent" unicode="&#x123;" 
d="M276 615v-28q0 -15 -15 -15h-30q-15 0 -15 15v31q0 52 39 118q6 11 19 8l24 -6q14 -3 7 -20q-3 -8 -9.5 -21t-9 -19t-5.5 -16t-4 -21t-1 -26zM207 -8q-70 0 -104.5 34.5t-34.5 93.5v254q0 59 34.5 93.5t104.5 34.5q96 0 170 -61l2 38q1 15 15 15h36q15 0 15 -15v-556
q0 -129 -187 -129h-136q-15 0 -15 14v30q0 14 15 14h136q118 0 118 77v121q-79 -58 -169 -58zM137 364v-234q0 -33 21.5 -54t66.5 -21q75 0 151 56v271q-73 57 -151 57q-45 0 -66.5 -21t-21.5 -54z" />
    <glyph glyph-name="Hcircumflex" unicode="&#x124;" horiz-adv-x="613" 
d="M161 665v-275h291v275q0 15 14 15h43q14 0 14 -15v-650q0 -15 -14 -15h-43q-14 0 -14 15v315h-291v-315q0 -15 -14 -15h-42q-14 0 -14 15v650q0 15 14 15h42q14 0 14 -15zM306 834l-53 -82q-8 -14 -20 -14h-32q-8 0 -10 4t2 10l77 111q11 15 23 15h26q13 0 23 -14
l77 -112q5 -6 2.5 -10t-10.5 -4h-32q-11 0 -20 14z" />
    <glyph glyph-name="hcircumflex" unicode="&#x125;" horiz-adv-x="530" 
d="M148 684v-241q71 59 170 59q67 0 102.5 -34t35.5 -89v-364q0 -15 -14 -15h-40q-15 0 -15 15v349q0 76 -88 76q-79 0 -151 -56v-369q0 -15 -14 -15h-40q-15 0 -15 15v669q0 15 15 15h40q14 0 14 -15zM114 834l-53 -82q-8 -14 -20 -14h-32q-8 0 -10 4t2 10l77 111
q11 15 23 15h26q13 0 23 -14l77 -112q5 -6 2.5 -10t-10.5 -4h-32q-11 0 -20 14z" />
    <glyph glyph-name="Hbar" unicode="&#x126;" horiz-adv-x="613" 
d="M161 665v-120h291v120q0 15 14 15h43q14 0 14 -15v-120h37q15 0 15 -14v-21q0 -15 -15 -15h-37v-480q0 -15 -14 -15h-43q-14 0 -14 15v315h-291v-315q0 -15 -14 -15h-42q-14 0 -14 15v480h-37q-15 0 -15 15v21q0 14 15 14h37v120q0 15 14 15h42q14 0 14 -15zM161 390h291
v105h-291v-105z" />
    <glyph glyph-name="hbar" unicode="&#x127;" horiz-adv-x="530" 
d="M148 684v-75h142q15 0 15 -14v-21q0 -15 -15 -15h-142v-116q71 59 170 59q67 0 102.5 -34t35.5 -89v-364q0 -15 -14 -15h-40q-15 0 -15 15v349q0 76 -88 76q-79 0 -151 -56v-369q0 -15 -14 -15h-40q-15 0 -15 15v544h-50q-15 0 -15 15v21q0 14 15 14h50v75q0 15 15 15h40
q14 0 14 -15z" />
    <glyph glyph-name="Itilde" unicode="&#x128;" horiz-adv-x="252" 
d="M161 665v-650q0 -15 -14 -15h-42q-14 0 -14 15v650q0 15 14 15h42q14 0 14 -15zM60 819q-17 0 -21.5 -9.5t-5.5 -37.5v-8q0 -14 -15 -14h-23q-13 0 -13 17l2 27q5 79 72 79q28 0 55 -19l44 -32q24 -18 38 -18q16 0 20.5 9.5t5.5 38.5v8q0 13 16 13h22q13 0 13 -16l-1 -25
q-3 -81 -73 -81q-27 0 -54 18l-45 32q-24 18 -37 18z" />
    <glyph glyph-name="itilde" unicode="&#x129;" horiz-adv-x="227" 
d="M148 479v-464q0 -15 -14 -15h-41q-14 0 -14 15v464q0 15 14 15h41q14 0 14 -15zM47 643q-17 0 -21.5 -9.5t-5.5 -37.5v-8q0 -14 -15 -14h-23q-13 0 -13 17l2 27q5 79 72 79q28 0 55 -19l44 -32q24 -18 38 -18q16 0 20.5 9.5t5.5 38.5v8q0 13 16 13h22q13 0 13 -16l-1 -25
q-3 -81 -73 -81q-27 0 -54 18l-45 32q-24 18 -37 18z" />
    <glyph glyph-name="Imacron" unicode="&#x12a;" horiz-adv-x="252" 
d="M161 665v-650q0 -15 -14 -15h-42q-14 0 -14 15v650q0 15 14 15h42q14 0 14 -15zM1 827h251q15 0 15 -15v-25q0 -14 -15 -14h-251q-15 0 -15 14v25q0 15 15 15z" />
    <glyph glyph-name="imacron" unicode="&#x12b;" horiz-adv-x="227" 
d="M148 479v-464q0 -15 -14 -15h-41q-14 0 -14 15v464q0 15 14 15h41q14 0 14 -15zM-12 651h252q15 0 15 -14v-25q0 -15 -15 -15h-252q-14 0 -14 15v25q0 14 14 14z" />
    <glyph glyph-name="Ibreve" unicode="&#x12c;" horiz-adv-x="252" 
d="M161 665v-650q0 -15 -14 -15h-42q-14 0 -14 15v650q0 15 14 15h42q14 0 14 -15zM59 866v-17q0 -32 14 -49.5t53 -17.5t53 17t14 50v17q0 13 14 13h25q13 0 13 -13v-16q0 -112 -120 -112q-64 0 -91 28.5t-27 83.5v16q0 13 13 13h26q13 0 13 -13z" />
    <glyph glyph-name="ibreve" unicode="&#x12d;" horiz-adv-x="227" 
d="M148 479v-464q0 -15 -14 -15h-41q-14 0 -14 15v464q0 15 14 15h41q14 0 14 -15zM46 683v-17q0 -32 14 -49.5t53 -17.5t53 17t14 50v17q0 13 14 13h25q13 0 13 -13v-16q0 -112 -120 -112q-64 0 -91 28.5t-27 83.5v16q0 13 14 13h25q13 0 13 -13z" />
    <glyph glyph-name="Iogonek" unicode="&#x12e;" horiz-adv-x="252" 
d="M161 665v-650q0 -15 -14 -15h-14q-29 -3 -44 -21.5t-15 -41.5q0 -42 54 -42h25q14 0 14 -14v-20q0 -15 -18 -15h-37q-40 0 -66.5 19.5t-26.5 60.5q0 26 19 55.5t53 46.5v637q0 15 14 15h42q14 0 14 -15z" />
    <glyph glyph-name="iogonek" unicode="&#x12f;" horiz-adv-x="228" 
d="M137 -154h-37q-40 0 -66.5 19.5t-26.5 60.5q0 26 19 56t53 46v451q0 15 15 15h40q14 0 14 -15v-464q0 -15 -14 -15h-12q-60 -10 -60 -63q0 -42 55 -42h24q15 0 15 -14v-20q0 -15 -19 -15zM148 684v-93q0 -15 -14 -15h-40q-15 0 -15 15v93q0 15 15 15h40q14 0 14 -15z" />
    <glyph glyph-name="Idotaccent" unicode="&#x130;" horiz-adv-x="252" 
d="M161 665v-650q0 -15 -14 -15h-42q-14 0 -14 15v650q0 15 14 15h42q14 0 14 -15zM161 839v-79q0 -14 -14 -14h-42q-14 0 -14 14v79q0 14 14 14h42q14 0 14 -14z" />
    <glyph glyph-name="dotlessi" unicode="&#x131;" horiz-adv-x="227" 
d="M148 479v-464q0 -15 -14 -15h-41q-14 0 -14 15v464q0 15 14 15h41q14 0 14 -15z" />
    <glyph glyph-name="IJ" unicode="&#x132;" horiz-adv-x="748" 
d="M161 665v-650q0 -15 -14 -15h-42q-14 0 -14 15v650q0 15 14 15h42q14 0 14 -15zM352 183v-34q0 -47 27 -71.5t94 -24.5t93.5 24.5t26.5 71.5v516q0 15 14 15h42q15 0 15 -15v-527q0 -68 -42.5 -107t-148.5 -39q-191 0 -191 146v45q0 16 15 16h41q14 0 14 -16z" />
    <glyph glyph-name="ij" unicode="&#x133;" horiz-adv-x="454" 
d="M148 479v-464q0 -15 -14 -15h-40q-15 0 -15 15v464q0 15 15 15h40q14 0 14 -15zM148 684v-93q0 -15 -14 -15h-40q-15 0 -15 15v93q0 15 15 15h40q14 0 14 -15zM375 684v-93q0 -15 -14 -15h-41q-14 0 -14 15v93q0 15 14 15h41q14 0 14 -15zM375 479v-556q0 -129 -186 -129
h-7q-14 0 -14 14v30q0 14 14 14h7q117 0 117 77v550q0 15 14 15h41q14 0 14 -15z" />
    <glyph glyph-name="Jcircumflex" unicode="&#x134;" horiz-adv-x="497" 
d="M100 183v-34q0 -47 27 -71.5t94 -24.5t93.5 24.5t26.5 71.5v516q0 15 14 15h42q15 0 15 -15v-527q0 -68 -42.5 -107t-148.5 -39q-191 0 -191 146v45q0 16 15 16h41q14 0 14 -16zM374 834l-53 -82q-8 -14 -20 -14h-32q-8 0 -10 4t2 10l77 111q11 15 23 15h26q13 0 23 -14
l77 -112q5 -6 2.5 -10t-10.5 -4h-32q-11 0 -20 14z" />
    <glyph glyph-name="jcircumflex" unicode="&#x135;" horiz-adv-x="227" 
d="M148 479v-557q0 -129 -186 -129h-6q-15 0 -15 15v28q0 15 15 15h6q117 0 117 77v551q0 15 14 15h41q14 0 14 -15zM115 664l-53 -82q-8 -14 -20 -14h-32q-18 0 -8 14l76 111q11 15 23 15h26q13 0 23 -14l78 -112q9 -14 -8 -14h-32q-11 0 -20 14z" />
    <glyph glyph-name="Kcommaaccent" unicode="&#x136;" horiz-adv-x="549" 
d="M246 -92v28q0 15 15 15h30q15 0 15 -15v-31q0 -52 -39 -118q-6 -11 -19 -8l-24 6q-14 3 -7 20q3 8 9.5 21t9 19t5.5 16t4 21t1 26zM252 345l277 -330q4 -5 2 -10t-9 -5h-56q-12 0 -23 15l-251 298h-31v-298q0 -15 -14 -15h-42q-15 0 -15 15v650q0 15 15 15h42
q14 0 14 -15v-298h31l231 299q11 14 25 14h46q8 0 10 -4t-3 -11z" />
    <glyph glyph-name="kcommaaccent" unicode="&#x137;" horiz-adv-x="459" 
d="M208 -92v28q0 15 15 15h30q15 0 15 -15v-31q0 -52 -39 -118q-6 -11 -19 -8l-24 6q-14 3 -7 20q3 8 9.5 21t9 19t5.5 16t4 21t1 26zM238 280l212 -265q5 -5 2.5 -10t-9.5 -5h-45q-12 0 -24 15l-192 236h-34v-236q0 -15 -14 -15h-41q-14 0 -14 15v669q0 15 14 15h41
q14 0 14 -15v-380h33l170 175q13 15 24 15h45q8 0 10 -4.5t-3 -10.5z" />
    <glyph glyph-name="kgreenlandic" unicode="&#x138;" horiz-adv-x="459" 
d="M238 276l212 -261q5 -5 2.5 -10t-9.5 -5h-45q-12 0 -24 15l-192 232h-34v-232q0 -15 -14 -15h-41q-14 0 -14 15v464q0 15 14 15h41q14 0 14 -15v-178h33l170 178q15 15 24 15h45q8 0 10 -4.5t-3 -10.5z" />
    <glyph glyph-name="Lacute" unicode="&#x139;" horiz-adv-x="490" 
d="M237 863l-79 -116q-7 -9 -19 -9h-33q-15 0 -7 14l67 112q9 14 19 14h44q17 0 8 -15zM162 665v-604h280q14 0 14 -14v-32q0 -15 -14 -15h-339q-12 0 -12 15v650q0 15 14 15h43q14 0 14 -15z" />
    <glyph glyph-name="lacute" unicode="&#x13a;" horiz-adv-x="227" 
d="M226 863l-79 -116q-7 -9 -19 -9h-33q-15 0 -7 14l67 112q9 14 19 14h44q17 0 8 -15zM148 684v-669q0 -15 -14 -15h-40q-15 0 -15 15v669q0 15 15 15h40q14 0 14 -15z" />
    <glyph glyph-name="Lcommaaccent" unicode="&#x13b;" horiz-adv-x="490" 
d="M233 -92v28q0 15 15 15h30q15 0 15 -15v-31q0 -52 -39 -118q-6 -11 -19 -8l-24 6q-14 3 -7 20q3 8 9.5 21t9 19t5.5 16t4 21t1 26zM162 665v-604h280q14 0 14 -14v-32q0 -15 -14 -15h-339q-12 0 -12 15v650q0 15 14 15h43q14 0 14 -15z" />
    <glyph glyph-name="lcommaaccent" unicode="&#x13c;" horiz-adv-x="227" 
d="M84 -93v28q0 15 15 15h30q15 0 15 -15v-31q0 -52 -39 -118q-6 -11 -19 -8l-24 6q-14 3 -7 20q3 8 9.5 21t9 19t5.5 16t4 21t1 26zM148 684v-669q0 -15 -14 -15h-40q-15 0 -15 15v669q0 15 15 15h40q14 0 14 -15z" />
    <glyph glyph-name="Lcaron" unicode="&#x13d;" horiz-adv-x="490" 
d="M326 664v28q0 15 15 15h30q15 0 15 -15v-31q0 -52 -39 -118q-6 -11 -19 -8l-24 6q-14 3 -7 20q3 8 9.5 21t9 19t5.5 16t4 21t1 26zM162 665v-604h280q14 0 14 -14v-32q0 -15 -14 -15h-339q-12 0 -12 15v650q0 15 14 15h43q14 0 14 -15z" />
    <glyph glyph-name="lcaron" unicode="&#x13e;" horiz-adv-x="281" 
d="M228 676v28q0 15 15 15h30q15 0 15 -15v-31q0 -52 -39 -118q-6 -11 -19 -8l-24 6q-14 3 -7 20q3 8 9.5 21t9 19t5.5 16t4 21t1 26zM148 684v-669q0 -15 -14 -15h-40q-15 0 -15 15v669q0 15 15 15h40q14 0 14 -15z" />
    <glyph glyph-name="Ldot" unicode="&#x13f;" horiz-adv-x="490" 
d="M162 665v-604h280q14 0 14 -14v-32q0 -15 -14 -15h-339q-12 0 -12 15v650q0 15 14 15h43q14 0 14 -15zM407 393v-78q0 -15 -14 -15h-42q-15 0 -15 15v78q0 15 15 15h42q14 0 14 -15z" />
    <glyph glyph-name="ldot" unicode="&#x140;" horiz-adv-x="308" 
d="M148 684v-669q0 -15 -14 -15h-40q-15 0 -15 15v669q0 15 15 15h40q14 0 14 -15zM293 393v-78q0 -15 -14 -15h-42q-15 0 -15 15v78q0 15 15 15h42q14 0 14 -15z" />
    <glyph glyph-name="Lslash" unicode="&#x141;" horiz-adv-x="490" 
d="M162 665v-287l62 26q13 5 19 -8l7 -15q6 -12 -9 -19l-79 -32v-269h280q14 0 14 -14v-32q0 -15 -14 -15h-339q-12 0 -12 15v286l-51 -21q-13 -6 -19 8l-6 15q-5 12 8 18l68 28v316q0 15 14 15h43q14 0 14 -15z" />
    <glyph glyph-name="lslash" unicode="&#x142;" horiz-adv-x="246" 
d="M157 684v-304l58 24q12 5 18 -8l7 -15q6 -12 -9 -19l-74 -31v-316q0 -15 -14 -15h-40q-15 0 -15 15v288l-57 -23q-12 -5 -19 8l-7 15q-6 11 9 18l74 30v333q0 15 15 15h40q14 0 14 -15z" />
    <glyph glyph-name="Nacute" unicode="&#x143;" horiz-adv-x="613" 
d="M522 665v-650q0 -15 -14 -15h-38q-10 0 -14 7l-265 470q-31 52 -34 64v-526q0 -15 -14 -15h-38q-15 0 -15 15v650q0 15 15 15h38q9 0 12 -6l271 -477l30 -60v528q0 15 14 15h38q14 0 14 -15zM419 863l-79 -116q-7 -9 -19 -9h-33q-15 0 -7 14l67 112q9 14 19 14h44
q17 0 8 -15z" />
    <glyph glyph-name="nacute" unicode="&#x144;" horiz-adv-x="530" 
d="M379 693l-79 -116q-7 -9 -18 -9h-33q-17 0 -8 14l67 112q9 14 20 14h44q18 0 7 -15zM130 494q14 0 15 -15l2 -38q71 61 171 61q67 0 102.5 -34t35.5 -89v-364q0 -15 -14 -15h-40q-15 0 -15 15v349q0 76 -88 76q-79 0 -151 -56v-369q0 -15 -14 -15h-40q-15 0 -15 15v464
q0 15 15 15h36z" />
    <glyph glyph-name="Ncommaaccent" unicode="&#x145;" horiz-adv-x="613" 
d="M522 665v-650q0 -15 -14 -15h-38q-10 0 -14 7l-265 470q-31 52 -34 64v-526q0 -15 -14 -15h-38q-15 0 -15 15v650q0 15 15 15h38q9 0 12 -6l271 -477l30 -60v528q0 15 14 15h38q14 0 14 -15zM280 -93v28q0 15 15 15h30q15 0 15 -15v-31q0 -52 -39 -118q-6 -11 -19 -8
l-24 6q-14 3 -7 20q3 8 9.5 21t9 19t5.5 16t4 21t1 26z" />
    <glyph glyph-name="ncommaaccent" unicode="&#x146;" horiz-adv-x="530" 
d="M237 -92v28q0 15 15 15h30q15 0 15 -15v-31q0 -52 -39 -118q-6 -11 -19 -8l-24 6q-14 3 -7 20q3 8 9.5 21t9 19t5.5 16t4 21t1 26zM130 494q14 0 15 -15l2 -38q71 61 171 61q67 0 102.5 -34t35.5 -89v-364q0 -15 -14 -15h-40q-15 0 -15 15v349q0 76 -88 76
q-79 0 -151 -56v-369q0 -15 -14 -15h-40q-15 0 -15 15v464q0 15 15 15h36z" />
    <glyph glyph-name="Ncaron" unicode="&#x147;" horiz-adv-x="613" 
d="M522 665v-650q0 -15 -14 -15h-38q-10 0 -14 7l-265 470q-31 52 -34 64v-526q0 -15 -14 -15h-38q-15 0 -15 15v650q0 15 15 15h38q9 0 12 -6l271 -477l30 -60v528q0 15 14 15h38q14 0 14 -15zM253 863l53 -82l53 82q9 15 20 15h32q8 0 10.5 -4.5t-2.5 -10.5l-77 -111
q-10 -14 -23 -14h-26q-13 0 -23 15l-77 110q-4 6 -2 10.5t10 4.5h32q11 0 20 -15z" />
    <glyph glyph-name="ncaron" unicode="&#x148;" horiz-adv-x="530" 
d="M212 693l53 -82l53 82q9 15 20 15h32q17 0 8 -15l-78 -111q-10 -14 -23 -14h-26q-13 0 -23 15l-76 110q-5 6 -2.5 10.5t10.5 4.5h32q11 0 20 -15zM130 494q14 0 15 -15l2 -38q71 61 171 61q67 0 102.5 -34t35.5 -89v-364q0 -15 -14 -15h-40q-15 0 -15 15v349q0 76 -88 76
q-79 0 -151 -56v-369q0 -15 -14 -15h-40q-15 0 -15 15v464q0 15 15 15h36z" />
    <glyph glyph-name="napostrophe" unicode="&#x149;" horiz-adv-x="530" 
d="M76 676v28q0 15 15 15h30q15 0 15 -15v-31q0 -52 -39 -118q-6 -11 -19 -8l-24 6q-14 3 -7 20q3 8 9.5 21t9 19t5.5 16t4 21t1 26zM130 494q14 0 15 -15l2 -38q71 61 171 61q67 0 102.5 -34t35.5 -89v-364q0 -15 -14 -15h-40q-15 0 -15 15v349q0 76 -88 76q-79 0 -151 -56
v-369q0 -15 -14 -15h-40q-15 0 -15 15v464q0 15 15 15h36z" />
    <glyph glyph-name="Eng" unicode="&#x14a;" horiz-adv-x="613" 
d="M522 665v-743q0 -129 -184 -129h-6q-15 0 -15 15v28q0 15 15 15h6q118 0 118 77v80l-265 469q-19 33 -34 66v-528q0 -15 -14 -15h-38q-15 0 -15 15v650q0 15 15 15h38q9 0 12 -6l271 -477l30 -60v528q0 15 14 15h38q14 0 14 -15z" />
    <glyph glyph-name="eng" unicode="&#x14b;" horiz-adv-x="530" 
d="M130 494q15 0 15 -15l1 -38q74 61 172 61q67 0 102.5 -33.5t35.5 -88.5v-458q0 -129 -186 -129h-6q-15 0 -15 15v28q0 15 15 15h6q117 0 117 77v437q0 77 -88 77q-81 0 -151 -57v-370q0 -15 -14 -15h-41q-14 0 -14 15v464q0 15 14 15h37z" />
    <glyph glyph-name="Omacron" unicode="&#x14c;" horiz-adv-x="591" 
d="M79 138v404q0 146 216 146q217 0 217 -146v-404q0 -146 -217 -146q-216 0 -216 146zM441 149v382q0 96 -146 96q-145 0 -145 -96v-382q0 -96 145 -96q146 0 146 96zM170 827h251q15 0 15 -15v-25q0 -14 -15 -14h-251q-15 0 -15 14v25q0 15 15 15z" />
    <glyph glyph-name="omacron" unicode="&#x14d;" horiz-adv-x="513" 
d="M130 651h252q15 0 15 -14v-25q0 -15 -15 -15h-252q-14 0 -14 15v25q0 14 14 14zM68 121v252q0 129 188 129q189 0 189 -129v-252q0 -129 -189 -129q-188 0 -188 129zM376 126v242q0 77 -120 77q-119 0 -119 -77v-242q0 -77 119 -77q120 0 120 77z" />
    <glyph glyph-name="Obreve" unicode="&#x14e;" horiz-adv-x="591" 
d="M79 138v404q0 146 216 146q217 0 217 -146v-404q0 -146 -217 -146q-216 0 -216 146zM441 149v382q0 96 -146 96q-145 0 -145 -96v-382q0 -96 145 -96q146 0 146 96zM228 866v-17q0 -32 14 -49.5t53 -17.5t53 17t14 50v17q0 13 14 13h25q13 0 13 -13v-16q0 -112 -120 -112
q-64 0 -91 28.5t-27 83.5v16q0 13 13 13h26q13 0 13 -13z" />
    <glyph glyph-name="obreve" unicode="&#x14f;" horiz-adv-x="513" 
d="M68 121v252q0 129 188 129q189 0 189 -129v-252q0 -129 -189 -129q-188 0 -188 129zM376 126v242q0 77 -120 77q-119 0 -119 -77v-242q0 -77 119 -77q120 0 120 77zM185 683v-17q0 -32 14 -49.5t53 -17.5t53 17t14 50v17q0 13 14 13h25q13 0 13 -13v-16q0 -112 -120 -112
q-64 0 -91 28.5t-27 83.5v16q0 13 14 13h25q13 0 13 -13z" />
    <glyph glyph-name="Ohungarumlaut" unicode="&#x150;" horiz-adv-x="591" 
d="M448 863l-77 -112q-9 -13 -21 -13h-31q-16 0 -7 14l69 111q10 15 23 15h37q18 0 7 -15zM333 863l-62 -111q-8 -14 -20 -14h-31q-16 0 -9 14l55 111q7 15 21 15h36q8 0 11 -4.5t-1 -10.5zM79 138v404q0 146 216 146q217 0 217 -146v-404q0 -146 -217 -146q-216 0 -216 146
zM441 149v382q0 96 -146 96q-145 0 -145 -96v-382q0 -96 145 -96q146 0 146 96z" />
    <glyph glyph-name="ohungarumlaut" unicode="&#x151;" horiz-adv-x="513" 
d="M413 693l-77 -112q-9 -13 -21 -13h-31q-16 0 -7 14l70 111q8 15 23 15h36q18 0 7 -15zM298 693l-62 -111q-8 -14 -20 -14h-31q-16 0 -9 14l55 111q7 15 21 15h36q8 0 11 -4.5t-1 -10.5zM68 121v252q0 129 188 129q189 0 189 -129v-252q0 -129 -189 -129q-188 0 -188 129z
M376 126v242q0 77 -120 77q-119 0 -119 -77v-242q0 -77 119 -77q120 0 120 77z" />
    <glyph glyph-name="OE" unicode="&#x152;" horiz-adv-x="874" 
d="M79 138v404q0 146 216 146q92 0 146 -39v16q0 15 14 15h342q14 0 14 -14v-31q0 -14 -14 -14h-285v-236h267q15 0 15 -14v-29q0 -14 -15 -14h-267v-269h297q14 0 14 -14v-30q0 -15 -14 -15h-354q-14 0 -14 15v16q-52 -39 -146 -39q-216 0 -216 146zM441 144v391
q-3 94 -146 94q-145 0 -145 -98v-382q0 -98 145 -98q143 0 146 93z" />
    <glyph glyph-name="oe" unicode="&#x153;" horiz-adv-x="800" 
d="M68 120v253q0 129 188 129q110 0 150 -46q43 46 154 46q98 0 139.5 -33.5t41.5 -95.5v-120q0 -14 -13 -14h-284v-116q0 -78 116 -78t116 78v18q0 15 15 15h34q14 0 14 -15v-21q0 -61 -41 -94.5t-138 -33.5q-111 0 -154 45q-40 -45 -150 -45q-188 0 -188 128zM376 125v244
q0 77 -120 77q-119 0 -119 -77v-244q0 -77 119 -77q120 0 120 77zM444 371v-83h232v83q0 78 -116 78t-116 -78z" />
    <glyph glyph-name="Racute" unicode="&#x154;" horiz-adv-x="590" 
d="M161 277v-262q0 -15 -14 -15h-42q-14 0 -14 15v650q0 15 13 15h198q217 0 217 -146v-112q0 -109 -124 -136l130 -271q3 -7 -1 -11t-13 -4h-42q-10 0 -18 15l-124 262h-166zM302 619h-141v-282h141q146 0 146 97v89q0 96 -146 96zM379 863l-79 -116q-7 -9 -19 -9h-33
q-15 0 -7 14l67 112q9 14 19 14h44q17 0 8 -15z" />
    <glyph glyph-name="racute" unicode="&#x155;" horiz-adv-x="345" 
d="M244 693l-79 -116q-7 -9 -18 -9h-33q-17 0 -8 14l67 112q9 14 20 14h44q18 0 7 -15zM311 502q16 0 16 -15v-33q0 -15 -16 -15q-87 -3 -163 -67v-357q0 -15 -14 -15h-40q-15 0 -15 15v464q0 15 15 15h36q14 0 15 -15l3 -49q78 72 163 72z" />
    <glyph glyph-name="Rcommaaccent" unicode="&#x156;" horiz-adv-x="590" 
d="M161 277v-262q0 -15 -14 -15h-42q-14 0 -14 15v650q0 15 13 15h198q217 0 217 -146v-112q0 -109 -124 -136l130 -271q3 -7 -1 -11t-13 -4h-42q-10 0 -18 15l-124 262h-166zM302 619h-141v-282h141q146 0 146 97v89q0 96 -146 96zM263 -92v28q0 15 15 15h30q15 0 15 -15
v-31q0 -52 -39 -118q-6 -11 -19 -8l-24 6q-14 3 -7 20q3 8 9.5 21t9 19t5.5 16t4 21t1 26z" />
    <glyph glyph-name="rcommaaccent" unicode="&#x157;" horiz-adv-x="345" 
d="M84 -92v28q0 15 15 15h30q15 0 15 -15v-31q0 -52 -39 -118q-6 -11 -19 -8l-24 6q-14 3 -7 20q3 8 9.5 21t9 19t5.5 16t4 21t1 26zM311 502q16 0 16 -15v-33q0 -15 -16 -15q-87 -3 -163 -67v-357q0 -15 -14 -15h-40q-15 0 -15 15v464q0 15 15 15h36q14 0 15 -15l3 -49
q78 72 163 72z" />
    <glyph glyph-name="Rcaron" unicode="&#x158;" horiz-adv-x="590" 
d="M161 277v-262q0 -15 -14 -15h-42q-14 0 -14 15v650q0 15 13 15h198q217 0 217 -146v-112q0 -109 -124 -136l130 -271q3 -7 -1 -11t-13 -4h-42q-10 0 -18 15l-124 262h-166zM302 619h-141v-282h141q146 0 146 97v89q0 96 -146 96zM232 863l53 -82l53 82q9 15 20 15h32
q8 0 10.5 -4.5t-2.5 -10.5l-77 -111q-11 -14 -23 -14h-26q-13 0 -23 15l-77 110q-4 6 -2 10.5t10 4.5h32q11 0 20 -15z" />
    <glyph glyph-name="rcaron" unicode="&#x159;" horiz-adv-x="345" 
d="M119 693l53 -82l53 82q9 15 20 15h32q17 0 8 -15l-78 -111q-11 -14 -23 -14h-26q-13 0 -23 15l-76 110q-5 6 -2.5 10.5t10.5 4.5h32q11 0 20 -15zM311 502q16 0 16 -15v-33q0 -15 -16 -15q-87 -3 -163 -67v-357q0 -15 -14 -15h-40q-15 0 -15 15v464q0 15 15 15h36
q14 0 15 -15l3 -49q78 72 163 72z" />
    <glyph glyph-name="Sacute" unicode="&#x15a;" horiz-adv-x="565" 
d="M424 533q0 46 -31.5 70.5t-105.5 24.5q-75 0 -106.5 -24.5t-31.5 -70.5v-30q0 -55 58 -78l188 -71q104 -39 104 -130v-86q0 -146 -214 -146t-214 146v55q0 15 14 15h41q14 0 14 -15v-46q0 -95 144 -95q145 0 145 95v62q0 35 -22.5 54t-60.5 34l-179 69q-35 13 -61 45
t-26 75v56q0 146 206 146q208 0 208 -146v-47q0 -15 -15 -15h-41q-14 0 -14 15v38zM396 863l-79 -116q-7 -9 -19 -9h-33q-15 0 -7 14l67 112q9 14 19 14h44q17 0 8 -15z" />
    <glyph glyph-name="sacute" unicode="&#x15b;" horiz-adv-x="466" 
d="M348 693l-79 -116q-7 -9 -18 -9h-33q-17 0 -8 14l67 112q9 14 20 14h44q18 0 7 -15zM347 359v29q0 62 -111 62q-109 0 -109 -62v-26q0 -39 51 -55l154 -50q86 -28 86 -95v-57q0 -49 -45.5 -81t-136.5 -32t-136 32t-45 81v27q0 14 14 14h37q13 0 13 -14v-24q0 -63 117 -63
q57 0 87.5 16.5t30.5 46.5v37q0 37 -59 56l-154 51q-30 10 -53.5 36t-23.5 61v39q0 50 41.5 82t131.5 32q89 0 131.5 -32t42.5 -82v-29q0 -13 -14 -13h-37q-13 0 -13 13z" />
    <glyph glyph-name="Scircumflex" unicode="&#x15c;" horiz-adv-x="565" 
d="M424 533q0 46 -31.5 70.5t-105.5 24.5q-75 0 -106.5 -24.5t-31.5 -70.5v-30q0 -55 58 -78l188 -71q104 -39 104 -130v-86q0 -146 -214 -146t-214 146v55q0 15 14 15h41q14 0 14 -15v-46q0 -95 144 -95q145 0 145 95v62q0 35 -22.5 54t-60.5 34l-179 69q-35 13 -61 45
t-26 75v56q0 146 206 146q208 0 208 -146v-47q0 -15 -15 -15h-41q-14 0 -14 15v38zM282 834l-53 -82q-8 -14 -20 -14h-32q-8 0 -10 4t2 10l77 111q11 15 23 15h26q13 0 23 -14l77 -112q5 -6 2.5 -10t-10.5 -4h-32q-11 0 -20 14z" />
    <glyph glyph-name="scircumflex" unicode="&#x15d;" horiz-adv-x="466" 
d="M233 664l-53 -82q-8 -14 -20 -14h-32q-18 0 -8 14l76 111q11 15 23 15h26q13 0 23 -14l78 -112q9 -14 -8 -14h-32q-11 0 -20 14zM347 359v29q0 62 -111 62q-109 0 -109 -62v-26q0 -39 51 -55l154 -50q86 -28 86 -95v-57q0 -49 -45.5 -81t-136.5 -32t-136 32t-45 81v27
q0 14 14 14h37q13 0 13 -14v-24q0 -63 117 -63q57 0 87.5 16.5t30.5 46.5v37q0 37 -59 56l-154 51q-30 10 -53.5 36t-23.5 61v39q0 50 41.5 82t131.5 32q89 0 131.5 -32t42.5 -82v-29q0 -13 -14 -13h-37q-13 0 -13 13z" />
    <glyph glyph-name="Scedilla" unicode="&#x15e;" horiz-adv-x="565" 
d="M283 -53h37q35 0 59 -19t24 -59t-24 -60t-59 -20h-116q-15 0 -15 15v15q0 14 15 14h106q42 0 42 35t-42 35h-62q-24 0 -19 19l19 71q-177 12 -177 145v55q0 15 14 15h41q14 0 14 -15v-46q0 -95 144 -95q145 0 145 95v62q0 35 -22.5 54t-60.5 34l-179 69q-35 13 -61 45
t-26 75v56q0 146 206 146q208 0 208 -146v-47q0 -15 -15 -15h-41q-14 0 -14 15v38q0 46 -31.5 70.5t-105.5 24.5q-75 0 -106.5 -24.5t-31.5 -70.5v-30q0 -55 58 -78l188 -71q104 -39 104 -130v-86q0 -142 -204 -146z" />
    <glyph glyph-name="scedilla" unicode="&#x15f;" horiz-adv-x="466" 
d="M226 -53h37q35 0 59 -19t24 -59t-24 -60t-59 -20h-116q-15 0 -15 15v15q0 14 15 14h106q42 0 42 35t-42 35h-62q-24 0 -19 19l19 73q-69 7 -102.5 37t-33.5 73v27q0 14 14 14h37q13 0 13 -14v-24q0 -63 117 -63q57 0 87.5 16.5t30.5 46.5v37q0 37 -59 56l-154 51
q-30 10 -53.5 36t-23.5 61v39q0 50 41.5 82t131.5 32q89 0 131.5 -32t42.5 -82v-29q0 -13 -14 -13h-37q-13 0 -13 13v29q0 62 -111 62q-109 0 -109 -62v-26q0 -39 51 -55l154 -50q86 -28 86 -95v-57q0 -48 -45 -80t-135 -33z" />
    <glyph glyph-name="Scaron" unicode="&#x160;" horiz-adv-x="565" 
d="M424 533q0 46 -31.5 70.5t-105.5 24.5q-75 0 -106.5 -24.5t-31.5 -70.5v-30q0 -55 58 -78l188 -71q104 -39 104 -130v-86q0 -146 -214 -146t-214 146v55q0 15 14 15h41q14 0 14 -15v-46q0 -95 144 -95q145 0 145 95v62q0 35 -22.5 54t-60.5 34l-179 69q-35 13 -61 45
t-26 75v56q0 146 206 146q208 0 208 -146v-47q0 -15 -15 -15h-41q-14 0 -14 15v38zM233 863l53 -82l53 82q9 15 20 15h32q8 0 10.5 -4.5t-2.5 -10.5l-77 -111q-10 -14 -23 -14h-26q-13 0 -23 15l-77 110q-4 6 -2 10.5t10 4.5h32q11 0 20 -15z" />
    <glyph glyph-name="scaron" unicode="&#x161;" horiz-adv-x="466" 
d="M185 693l53 -82l53 82q9 15 20 15h32q17 0 8 -15l-78 -111q-11 -14 -23 -14h-26q-13 0 -23 15l-76 110q-5 6 -2.5 10.5t10.5 4.5h32q11 0 20 -15zM347 359v29q0 62 -111 62q-109 0 -109 -62v-26q0 -39 51 -55l154 -50q86 -28 86 -95v-57q0 -49 -45.5 -81t-136.5 -32
t-136 32t-45 81v27q0 14 14 14h37q13 0 13 -14v-24q0 -63 117 -63q57 0 87.5 16.5t30.5 46.5v37q0 37 -59 56l-154 51q-30 10 -53.5 36t-23.5 61v39q0 50 41.5 82t131.5 32q89 0 131.5 -32t42.5 -82v-29q0 -13 -14 -13h-37q-13 0 -13 13z" />
    <glyph glyph-name="Tcommaaccent" unicode="&#x162;" horiz-adv-x="483" 
d="M211 -92v28q0 15 15 15h30q15 0 15 -15v-31q0 -52 -39 -118q-6 -11 -19 -8l-24 6q-14 3 -7 20q3 8 9.5 21t9 19t5.5 16t4 21t1 26zM33 680h416q15 0 15 -15v-31q0 -15 -15 -15h-172v-604q0 -15 -14 -15h-43q-15 0 -15 15v604h-172q-15 0 -15 15v31q0 15 15 15z" />
    <glyph glyph-name="tcommaaccent" unicode="&#x163;" horiz-adv-x="347" 
d="M112 -93v28q0 15 15 15h30q15 0 15 -15v-31q0 -52 -39 -118q-6 -11 -19 -8l-24 6q-14 3 -7 20q3 8 9.5 21t9 19t5.5 16t4 21t1 26zM170 492h112q15 0 15 -14v-28q0 -15 -15 -15h-112v-299q0 -38 26.5 -57.5t89.5 -19.5h17q15 0 15 -15v-29q0 -15 -15 -15h-26
q-98 0 -137.5 32t-39.5 97v306h-60q-14 0 -14 15v24q0 14 14 15l52 3h8v106q0 15 15 15h41q14 0 14 -15v-106z" />
    <glyph glyph-name="Tcaron" unicode="&#x164;" horiz-adv-x="483" 
d="M33 680h416q15 0 15 -15v-31q0 -15 -15 -15h-172v-604q0 -15 -14 -15h-43q-15 0 -15 15v604h-172q-15 0 -15 15v31q0 15 15 15zM188 863l53 -82l53 82q9 15 20 15h32q8 0 10.5 -4.5t-2.5 -10.5l-77 -111q-11 -14 -23 -14h-26q-13 0 -23 15l-77 110q-4 6 -2 10.5t10 4.5
h32q11 0 20 -15z" />
    <glyph glyph-name="tcaron" unicode="&#x165;" horiz-adv-x="365" 
d="M250 669v28q0 15 15 15h30q15 0 15 -15v-31q0 -52 -39 -118q-6 -11 -19 -8l-24 6q-14 3 -7 20q3 8 9.5 21t9 19t5.5 16t4 21t1 26zM170 492h112q15 0 15 -14v-28q0 -15 -15 -15h-112v-299q0 -38 26.5 -57.5t89.5 -19.5h17q15 0 15 -15v-29q0 -15 -15 -15h-26
q-98 0 -137.5 32t-39.5 97v306h-60q-14 0 -14 15v24q0 14 14 15l52 3h8v106q0 15 15 15h41q14 0 14 -15v-106z" />
    <glyph glyph-name="Tbar" unicode="&#x166;" horiz-adv-x="483" 
d="M33 680h416q15 0 15 -15v-31q0 -15 -15 -15h-172v-172h145q14 0 14 -14v-21q0 -15 -14 -15h-145v-382q0 -15 -14 -15h-43q-15 0 -15 15v382h-141q-15 0 -15 15v21q0 14 15 14h141v172h-172q-15 0 -15 15v31q0 15 15 15z" />
    <glyph glyph-name="tbar" unicode="&#x167;" horiz-adv-x="347" 
d="M170 492h112q15 0 15 -14v-28q0 -15 -15 -15h-112v-103h112q15 0 15 -14v-22q0 -14 -15 -14h-112v-146q0 -38 26.5 -57.5t89.5 -19.5h17q15 0 15 -15v-29q0 -15 -15 -15h-26q-98 0 -137.5 32t-39.5 97v153h-59q-15 0 -15 14v22q0 14 15 14h59v103h-60q-14 0 -14 15v24
q0 14 14 15l52 3h8v106q0 15 15 15h41q14 0 14 -15v-106z" />
    <glyph glyph-name="Utilde" unicode="&#x168;" horiz-adv-x="602" 
d="M156 665v-516q0 -96 144 -96q147 0 147 96v516q0 15 14 15h42q14 0 14 -15v-527q0 -146 -217 -146q-215 0 -215 146v527q0 15 14 15h43q14 0 14 -15zM235 819q-17 0 -21.5 -9.5t-5.5 -37.5v-8q0 -14 -15 -14h-23q-13 0 -13 17l2 27q5 79 72 79q28 0 55 -19l44 -32
q24 -18 38 -18q16 0 20.5 9.5t5.5 38.5v8q0 13 16 13h22q13 0 13 -16l-1 -25q-3 -81 -73 -81q-27 0 -54 18l-45 32q-24 18 -37 18z" />
    <glyph glyph-name="utilde" unicode="&#x169;" 
d="M378 15l-2 36q-69 -59 -164 -59q-68 0 -103.5 33.5t-35.5 88.5v365q0 15 14 15h41q14 0 14 -15v-349q0 -76 89 -76q77 0 144 55v370q0 15 14 15h41q14 0 14 -15v-464q0 -15 -14 -15h-37q-14 0 -15 15zM195 643q-17 0 -21.5 -9.5t-5.5 -37.5v-8q0 -14 -15 -14h-23
q-13 0 -13 17l2 27q5 79 72 79q28 0 55 -19l44 -32q24 -18 38 -18q16 0 20.5 9.5t5.5 38.5v8q0 13 16 13h22q13 0 13 -16l-1 -25q-3 -81 -73 -81q-27 0 -54 18l-45 32q-24 18 -37 18z" />
    <glyph glyph-name="Umacron" unicode="&#x16a;" horiz-adv-x="602" 
d="M156 665v-516q0 -96 144 -96q147 0 147 96v516q0 15 14 15h42q14 0 14 -15v-527q0 -146 -217 -146q-215 0 -215 146v527q0 15 14 15h43q14 0 14 -15zM176 827h251q15 0 15 -15v-25q0 -14 -15 -14h-251q-15 0 -15 14v25q0 15 15 15z" />
    <glyph glyph-name="umacron" unicode="&#x16b;" 
d="M378 15l-2 36q-69 -59 -164 -59q-68 0 -103.5 33.5t-35.5 88.5v365q0 15 14 15h41q14 0 14 -15v-349q0 -76 89 -76q77 0 144 55v370q0 15 14 15h41q14 0 14 -15v-464q0 -15 -14 -15h-37q-14 0 -15 15zM135 651h252q15 0 15 -14v-25q0 -15 -15 -15h-252q-14 0 -14 15v25
q0 14 14 14z" />
    <glyph glyph-name="Ubreve" unicode="&#x16c;" horiz-adv-x="602" 
d="M156 665v-516q0 -96 144 -96q147 0 147 96v516q0 15 14 15h42q14 0 14 -15v-527q0 -146 -217 -146q-215 0 -215 146v527q0 15 14 15h43q14 0 14 -15zM234 866v-17q0 -32 14 -49.5t53 -17.5t53 17t14 50v17q0 13 14 13h25q13 0 13 -13v-16q0 -112 -120 -112
q-64 0 -91 28.5t-27 83.5v16q0 13 13 13h26q13 0 13 -13z" />
    <glyph glyph-name="ubreve" unicode="&#x16d;" 
d="M378 15l-2 36q-69 -59 -164 -59q-68 0 -103.5 33.5t-35.5 88.5v365q0 15 14 15h41q14 0 14 -15v-349q0 -76 89 -76q77 0 144 55v370q0 15 14 15h41q14 0 14 -15v-464q0 -15 -14 -15h-37q-14 0 -15 15zM189 683v-17q0 -32 14 -49.5t53 -17.5t53 17t14 50v17q0 13 14 13h25
q13 0 13 -13v-16q0 -112 -120 -112q-64 0 -91 28.5t-27 83.5v16q0 13 14 13h25q13 0 13 -13z" />
    <glyph glyph-name="Uring" unicode="&#x16e;" horiz-adv-x="602" 
d="M396 812v-17q0 -33 -23.5 -54t-71.5 -21t-71.5 21t-23.5 54v17q0 33 23.5 54t71.5 21t71.5 -21t23.5 -54zM353 800v7q0 42 -52 42q-51 0 -51 -42v-7q0 -42 51 -42q52 0 52 42zM156 665v-516q0 -96 144 -96q147 0 147 96v516q0 15 14 15h42q14 0 14 -15v-527
q0 -146 -217 -146q-215 0 -215 146v527q0 15 14 15h43q14 0 14 -15z" />
    <glyph glyph-name="uring" unicode="&#x16f;" 
d="M352 649v-25q0 -70 -93 -70q-46 0 -69 19t-23 51v25q0 32 23 51.5t69 19.5q47 0 70 -19.5t23 -51.5zM311 631v11q0 41 -52 41t-52 -41v-11q0 -41 52 -41t52 41zM378 15l-2 36q-69 -59 -164 -59q-68 0 -103.5 33.5t-35.5 88.5v365q0 15 14 15h41q14 0 14 -15v-349
q0 -76 89 -76q77 0 144 55v370q0 15 14 15h41q14 0 14 -15v-464q0 -15 -14 -15h-37q-14 0 -15 15z" />
    <glyph glyph-name="Uhungarumlaut" unicode="&#x170;" horiz-adv-x="602" 
d="M460 863l-77 -112q-9 -13 -21 -13h-31q-16 0 -7 14l69 111q10 15 23 15h37q18 0 7 -15zM345 863l-62 -111q-8 -14 -20 -14h-31q-16 0 -9 14l55 111q7 15 21 15h36q8 0 11 -4.5t-1 -10.5zM156 665v-516q0 -96 144 -96q147 0 147 96v516q0 15 14 15h42q14 0 14 -15v-527
q0 -146 -217 -146q-215 0 -215 146v527q0 15 14 15h43q14 0 14 -15z" />
    <glyph glyph-name="uhungarumlaut" unicode="&#x171;" 
d="M378 15l-2 36q-69 -59 -164 -59q-68 0 -103.5 33.5t-35.5 88.5v365q0 15 14 15h41q14 0 14 -15v-349q0 -76 89 -76q77 0 144 55v370q0 15 14 15h41q14 0 14 -15v-464q0 -15 -14 -15h-37q-14 0 -15 15zM416 693l-77 -112q-9 -13 -21 -13h-31q-16 0 -7 14l70 111
q8 15 23 15h36q18 0 7 -15zM301 693l-62 -111q-8 -14 -20 -14h-31q-16 0 -9 14l55 111q7 15 21 15h36q8 0 11 -4.5t-1 -10.5z" />
    <glyph glyph-name="Uogonek" unicode="&#x172;" horiz-adv-x="602" 
d="M156 665v-516q0 -96 144 -96q147 0 147 96v516q0 15 14 15h42q14 0 14 -15v-527q0 -61 -37 -95q-5 -5 -23 -20t-26 -23.5t-16.5 -25t-8.5 -35.5q0 -44 54 -44h32q16 0 16 -14v-20q0 -15 -19 -15h-47q-38 0 -64 20.5t-26 60.5q0 37 25 71q-33 -6 -77 -6q-215 0 -215 146
v527q0 15 14 15h43q14 0 14 -15z" />
    <glyph glyph-name="uogonek" unicode="&#x173;" horiz-adv-x="523" 
d="M430 -154h-30q-38 0 -64 20.5t-26 59.5q0 58 68 96l-2 29q-69 -59 -164 -59q-68 0 -103.5 33.5t-35.5 88.5v365q0 15 14 15h41q14 0 14 -15v-349q0 -76 89 -76q77 0 144 55v370q0 15 14 15h41q14 0 14 -15v-464q0 -15 -14 -15h-4q-29 -4 -45 -24.5t-16 -40.5
q0 -40 54 -40h15q15 0 15 -14v-20q0 -15 -19 -15z" />
    <glyph glyph-name="Wcircumflex" unicode="&#x174;" horiz-adv-x="801" 
d="M402 834l-53 -82q-8 -14 -20 -14h-32q-8 0 -10 4t2 10l77 111q11 15 23 15h26q13 0 23 -14l77 -112q5 -6 2.5 -10t-10.5 -4h-32q-11 0 -20 14zM441 665l119 -470q13 -52 16 -79q0 18 16 79l120 470q4 15 18 15h37q15 0 11 -15l-165 -650q-5 -15 -18 -15h-42q-13 0 -18 15
l-121 478q-7 25 -13 69q-6 -34 -14 -70l-121 -477q-4 -15 -19 -15h-42q-13 0 -17 15l-165 650q-5 15 12 15h43q12 0 17 -15l119 -470l16 -74q5 31 16 74l120 470q4 15 18 15h40q12 0 17 -15z" />
    <glyph glyph-name="wcircumflex" unicode="&#x175;" horiz-adv-x="656" 
d="M329 664l-53 -82q-8 -14 -20 -14h-32q-18 0 -8 14l76 111q11 15 23 15h26q13 0 23 -14l78 -112q9 -14 -8 -14h-32q-11 0 -20 14zM637 479l-130 -465q-4 -14 -15 -14h-48q-13 0 -16 14l-88 338q-2 8 -10 47l-12 -48l-96 -337q-5 -14 -16 -14h-46q-12 0 -16 14l-126 465
q-5 15 14 15h40q13 0 16 -15l94 -348q2 -7 3.5 -16.5t3 -16t1.5 -7.5q0 4 10 40l96 348q5 15 17 15h43q13 0 16 -15l90 -348l9 -39q0 6 10 39l93 348q5 15 17 15h34q17 0 12 -15z" />
    <glyph glyph-name="Ycircumflex" unicode="&#x176;" horiz-adv-x="517" 
d="M97 665l147 -290q4 -8 7.5 -17t5.5 -15l2 -6q0 8 15 38l152 290q8 15 18 15h42q18 0 10 -15l-201 -388v-262q0 -15 -15 -15h-42q-15 0 -15 15v254l-202 396q-7 15 10 15h48q11 0 18 -15zM258 834l-53 -82q-8 -14 -20 -14h-32q-8 0 -10 4t2 10l77 111q11 15 23 15h26
q13 0 23 -14l77 -112q5 -6 2.5 -10t-10.5 -4h-32q-11 0 -20 14z" />
    <glyph glyph-name="ycircumflex" unicode="&#x177;" horiz-adv-x="432" 
d="M89 479l113 -332q4 -12 7 -26.5l5 -23.5t2 -10q10 40 16 58l114 334q5 15 17 15h38q18 0 13 -15l-229 -671q-6 -15 -17 -15h-31q-17 0 -12 15l60 188l-167 483q-5 15 13 15h41q12 0 17 -15zM216 664l-53 -82q-8 -14 -20 -14h-32q-18 0 -8 14l76 111q11 15 23 15h26
q13 0 23 -14l78 -112q9 -14 -8 -14h-32q-11 0 -20 14z" />
    <glyph glyph-name="Ydieresis" unicode="&#x178;" horiz-adv-x="517" 
d="M97 665l147 -290q4 -8 7.5 -17t5.5 -15l2 -6q0 8 15 38l152 290q8 15 18 15h42q18 0 10 -15l-201 -388v-262q0 -15 -15 -15h-42q-15 0 -15 15v254l-202 396q-7 15 10 15h48q11 0 18 -15zM231 856v-97q0 -15 -14 -15h-24q-15 0 -15 15v97q0 14 15 14h24q14 0 14 -14z
M339 856v-97q0 -15 -15 -15h-24q-15 0 -15 15v97q0 14 15 14h24q15 0 15 -14z" />
    <glyph glyph-name="Zacute" unicode="&#x179;" horiz-adv-x="503" 
d="M83 680h349q15 0 15 -15v-31q0 -6 -3 -11l-308 -562h312q15 0 15 -14v-32q0 -15 -15 -15h-383q-14 0 -14 15v32q0 7 2 10l307 562h-277q-15 0 -15 15v31q0 15 15 15zM370 863l-79 -116q-7 -9 -19 -9h-33q-15 0 -7 14l67 112q9 14 19 14h44q17 0 8 -15z" />
    <glyph glyph-name="zacute" unicode="&#x17a;" horiz-adv-x="454" 
d="M329 693l-79 -116q-7 -9 -18 -9h-33q-17 0 -8 14l67 112q9 14 20 14h44q18 0 7 -15zM75 494h300q15 0 15 -14v-28q0 -8 -3 -12l-255 -382h257q15 0 15 -15v-28q0 -15 -15 -15h-327q-15 0 -15 15v28q0 6 4 12l253 381h-229q-15 0 -15 15v29q0 14 15 14z" />
    <glyph glyph-name="Zdotaccent" unicode="&#x17b;" horiz-adv-x="503" 
d="M286 839v-79q0 -14 -14 -14h-42q-14 0 -14 14v79q0 14 14 14h42q14 0 14 -14zM83 680h349q15 0 15 -15v-31q0 -6 -3 -11l-308 -562h312q15 0 15 -14v-32q0 -15 -15 -15h-383q-14 0 -14 15v32q0 7 2 10l307 562h-277q-15 0 -15 15v31q0 15 15 15z" />
    <glyph glyph-name="zdotaccent" unicode="&#x17c;" horiz-adv-x="454" 
d="M75 494h300q15 0 15 -14v-28q0 -8 -3 -12l-255 -382h257q15 0 15 -15v-28q0 -15 -15 -15h-327q-15 0 -15 15v28q0 6 4 12l253 381h-229q-15 0 -15 15v29q0 14 15 14zM262 675v-77q0 -15 -14 -15h-42q-14 0 -14 15v77q0 15 14 15h42q14 0 14 -15z" />
    <glyph glyph-name="Zcaron" unicode="&#x17d;" horiz-adv-x="503" 
d="M201 876l53 -82l53 82q9 15 20 15h32q17 0 8 -15l-78 -111q-11 -14 -23 -14h-26q-13 0 -23 15l-76 110q-5 6 -2.5 10.5t10.5 4.5h32q11 0 20 -15zM83 680h349q15 0 15 -15v-31q0 -6 -3 -11l-308 -562h312q15 0 15 -14v-32q0 -15 -15 -15h-383q-14 0 -14 15v32q0 7 2 10
l307 562h-277q-15 0 -15 15v31q0 15 15 15z" />
    <glyph glyph-name="zcaron" unicode="&#x17e;" horiz-adv-x="454" 
d="M177 693l53 -82l53 82q9 15 20 15h32q17 0 8 -15l-78 -111q-11 -14 -23 -14h-26q-13 0 -23 15l-76 110q-5 6 -2.5 10.5t10.5 4.5h32q11 0 20 -15zM75 494h300q15 0 15 -14v-28q0 -8 -3 -12l-255 -382h257q15 0 15 -15v-28q0 -15 -15 -15h-327q-15 0 -15 15v28q0 6 4 12
l253 381h-229q-15 0 -15 15v29q0 14 15 14z" />
    <glyph glyph-name="longs" unicode="&#x17f;" horiz-adv-x="322" 
d="M96 492h9v83q0 128 186 128h6q15 0 15 -15v-28q0 -14 -15 -14h-6q-117 0 -117 -78v-553q0 -15 -14 -15h-41q-14 0 -14 15v421h-63q-14 0 -14 15v23q0 14 14 15z" />
    <glyph glyph-name="florin" unicode="&#x192;" horiz-adv-x="552" 
d="M484 649h-12q-63 0 -92 -19.5t-34 -57.5l-20 -156h97q15 0 15 -15v-27q0 -15 -15 -15h-102l-52 -445q-15 -129 -201 -129h-6q-15 0 -15 15v29q0 15 15 15h12q116 0 126 77l51 438h-89q-15 0 -15 15v27q0 15 15 15h95l19 163q15 129 201 129h7q14 0 14 -15v-29
q0 -15 -14 -15z" />
    <glyph glyph-name="Aringacute" unicode="&#x1fa;" horiz-adv-x="527" 
d="M285 680q13 0 18 -15l200 -650q5 -15 -12 -15h-43q-14 0 -18 15l-55 178h-229l-54 -178q-4 -15 -17 -15h-40q-15 0 -11 15l199 650q5 15 19 15h43zM357 812v-17q0 -33 -23.5 -54t-71.5 -21t-71.5 21t-23.5 54v17q0 30 19.5 50t59.5 24l38 65q6 13 19 13h44q16 0 8 -15
l-49 -69q51 -17 51 -68zM360 250l-73 234q-7 23 -25 121q-10 -73 -25 -119l-74 -236h197zM314 800v7q0 42 -52 42q-51 0 -51 -42v-7q0 -42 51 -42q52 0 52 42z" />
    <glyph glyph-name="aringacute" unicode="&#x1fb;" horiz-adv-x="505" 
d="M72 358v17q0 127 180 127t180 -127v-360q0 -15 -14 -15h-36q-14 0 -15 15l-2 36q-74 -59 -165 -59q-67 0 -102.5 33.5t-35.5 84.5v50q0 51 33.5 84.5t96.5 33.5h172v90q0 37 -25 57t-88 20t-88.5 -19t-25.5 -56v-12q0 -16 -15 -16h-36q-14 0 -14 16zM216 50q76 0 148 56
v117h-159q-76 0 -76 -72v-32q0 -69 87 -69zM345 649v-25q0 -70 -93 -70q-46 0 -69 19t-23 51v25q0 29 18.5 47.5t55.5 22.5l55 91q9 14 20 14h44q18 0 7 -15l-65 -95q50 -16 50 -65zM304 631v11q0 41 -52 41t-52 -41v-11q0 -41 52 -41t52 41z" />
    <glyph glyph-name="AEacute" unicode="&#x1fc;" horiz-adv-x="839" 
d="M425 680h336q15 0 15 -14v-30q0 -15 -15 -15h-285v-236h267q15 0 15 -14v-28q0 -15 -15 -15h-267v-269h297q15 0 15 -14v-30q0 -15 -15 -15h-347q-17 0 -17 15v178h-213l-102 -178q-9 -15 -18 -15h-40q-20 0 -11 15l379 650q10 15 21 15zM375 502l-145 -252h179v313
q-19 -37 -34 -61zM581 863l-79 -116q-7 -9 -19 -9h-33q-15 0 -7 14l67 112q9 14 19 14h44q17 0 8 -15z" />
    <glyph glyph-name="aeacute" unicode="&#x1fd;" horiz-adv-x="788" 
d="M510 693l-79 -116q-7 -9 -18 -9h-33q-17 0 -8 14l67 112q9 14 20 14h44q18 0 7 -15zM729 373v-120q0 -14 -14 -14h-284v-119q0 -37 26 -56t90 -19q117 0 117 78v18q0 15 14 15h35q14 0 14 -15v-21q0 -61 -41.5 -94.5t-138.5 -33.5q-137 0 -169 69q-86 -69 -178 -69
q-69 0 -104 33t-35 85v42q0 51 34.5 84.5t96.5 33.5h171v107q0 73 -113 73q-63 0 -88.5 -19.5t-25.5 -57.5v-15q0 -15 -14 -15h-36q-15 0 -15 15v17q0 127 181 127q113 0 145 -57q38 57 150 57q182 0 182 -129zM216 47q70 0 147 64v110h-160q-37 0 -55.5 -20t-18.5 -52v-31
q0 -33 22.5 -52t64.5 -19zM431 371v-83h233v83q0 78 -117 78q-116 0 -116 -78z" />
    <glyph glyph-name="Oslashacute" unicode="&#x1fe;" horiz-adv-x="591" 
d="M79 137v403q0 146 216 146q86 0 141 -25l12 24q11 22 25 22h13q15 0 4 -22l-22 -44q44 -36 44 -101v-403q0 -147 -217 -147q-89 0 -143 26l-12 -23q-12 -22 -24 -22h-13q-16 0 -5 22l22 44q-41 37 -41 100zM441 148v381q0 23 -9 41l-249 -492q37 -27 112 -27
q146 0 146 97zM150 148q0 -23 7 -38l248 491q-36 25 -110 25q-145 0 -145 -97v-381zM402 863l-79 -116q-7 -9 -19 -9h-33q-15 0 -7 14l67 112q9 14 19 14h44q17 0 8 -15z" />
    <glyph glyph-name="oslashacute" unicode="&#x1ff;" horiz-adv-x="513" 
d="M68 121v252q0 129 188 129q66 0 112 -18l10 18q1 1 2.5 4.5t2.5 4.5t2.5 4t3 4t3.5 2.5t4.5 2t5.5 0.5h15q16 0 3 -22l-20 -35q45 -32 45 -94v-252q0 -129 -189 -129q-67 0 -113 18l-9 -16q-5 -9 -7.5 -13t-7 -6.5t-10.5 -2.5h-13q-16 0 -4 22l18 33q-42 32 -42 94z
M376 126v242q0 22 -10 38l-193 -342q29 -15 83 -15q120 0 120 77zM137 126q0 -22 8 -37l193 342q-30 14 -82 14q-119 0 -119 -77v-242zM368 693l-79 -116q-7 -9 -18 -9h-33q-17 0 -8 14l67 112q9 14 20 14h44q18 0 7 -15z" />
    <glyph glyph-name="Scommaaccent" unicode="&#x218;" horiz-adv-x="565" 
d="M260 -93v28q0 15 15 15h30q15 0 15 -15v-31q0 -52 -39 -118q-6 -11 -19 -8l-24 6q-14 3 -7 20q3 8 9.5 21t9 19t5.5 16t4 21t1 26zM424 533q0 46 -31.5 70.5t-105.5 24.5q-75 0 -106.5 -24.5t-31.5 -70.5v-30q0 -55 58 -78l188 -71q104 -39 104 -130v-86
q0 -146 -214 -146t-214 146v55q0 15 14 15h41q14 0 14 -15v-46q0 -95 144 -95q145 0 145 95v62q0 35 -22.5 54t-60.5 34l-179 69q-35 13 -61 45t-26 75v56q0 146 206 146q208 0 208 -146v-47q0 -15 -15 -15h-41q-14 0 -14 15v38z" />
    <glyph glyph-name="scommaaccent" unicode="&#x219;" horiz-adv-x="465" 
d="M215 -93v28q0 15 15 15h30q15 0 15 -15v-31q0 -52 -39 -118q-6 -11 -19 -8l-24 6q-14 3 -7 20q3 8 9.5 21t9 19t5.5 16t4 21t1 26zM347 359v29q0 62 -111 62q-109 0 -109 -62v-26q0 -39 51 -55l154 -50q86 -28 86 -95v-57q0 -49 -45.5 -81t-136.5 -32t-136 32t-45 81v27
q0 14 14 14h37q13 0 13 -14v-24q0 -63 117 -63q57 0 87.5 16.5t30.5 46.5v37q0 37 -59 56l-154 51q-30 10 -53.5 36t-23.5 61v39q0 50 41.5 82t131.5 32q89 0 131.5 -32t42.5 -82v-29q0 -13 -14 -13h-37q-13 0 -13 13z" />
    <glyph glyph-name="dotlessj" unicode="&#x237;" horiz-adv-x="227" 
d="M148 479v-557q0 -129 -186 -129h-6q-15 0 -15 15v28q0 15 15 15h6q117 0 117 77v551q0 15 14 15h41q14 0 14 -15z" />
    <glyph glyph-name="circumflex" unicode="&#x2c6;" horiz-adv-x="347" 
d="M173 664l-53 -82q-8 -14 -20 -14h-32q-18 0 -8 14l76 111q11 15 23 15h26q13 0 23 -14l78 -112q9 -14 -8 -14h-32q-11 0 -20 14z" />
    <glyph glyph-name="caron" unicode="&#x2c7;" horiz-adv-x="347" 
d="M120 693l53 -82l53 82q9 15 20 15h32q17 0 8 -15l-78 -111q-10 -14 -23 -14h-26q-13 0 -23 15l-76 110q-5 6 -2.5 10.5t10.5 4.5h32q11 0 20 -15z" />
    <glyph glyph-name="breve" unicode="&#x2d8;" horiz-adv-x="399" 
d="M132 683v-17q0 -32 14 -49.5t53 -17.5t53 17t14 50v17q0 13 14 13h25q13 0 13 -13v-16q0 -112 -120 -112q-64 0 -91 28.5t-27 83.5v16q0 13 14 13h25q13 0 13 -13z" />
    <glyph glyph-name="dotaccent" unicode="&#x2d9;" horiz-adv-x="240" 
d="M155 675v-77q0 -15 -14 -15h-42q-14 0 -14 15v77q0 15 14 15h42q14 0 14 -15z" />
    <glyph glyph-name="ring" unicode="&#x2da;" horiz-adv-x="373" 
d="M279 649v-25q0 -70 -93 -70q-46 0 -69 19t-23 51v25q0 32 23 51.5t69 19.5q47 0 70 -19.5t23 -51.5zM238 631v11q0 41 -52 41t-52 -41v-11q0 -41 52 -41t52 41z" />
    <glyph glyph-name="ogonek" unicode="&#x2db;" horiz-adv-x="226" 
d="M167 -154h-37q-44 0 -71 20.5t-27 58.5q0 57 65 98q15 11 30 6l18 -6q7 -2 8 -7.5t-6 -9.5q-60 -31 -60 -70q0 -41 61 -41h19q15 0 15 -14v-20q0 -15 -15 -15z" />
    <glyph glyph-name="tilde" unicode="&#x2dc;" horiz-adv-x="422" 
d="M144 643q-17 0 -21.5 -9.5t-5.5 -37.5v-8q0 -14 -15 -14h-23q-13 0 -13 17l2 27q5 79 72 79q28 0 55 -19l44 -32q24 -18 38 -18q16 0 20.5 9.5t5.5 38.5v8q0 13 16 13h22q13 0 13 -16l-1 -25q-3 -81 -73 -81q-27 0 -54 18l-45 32q-24 18 -37 18z" />
    <glyph glyph-name="hungarumlaut" unicode="&#x2dd;" horiz-adv-x="367" 
d="M301 693l-77 -112q-9 -13 -21 -13h-31q-16 0 -7 14l70 111q8 15 23 15h36q18 0 7 -15zM186 693l-62 -111q-8 -14 -20 -14h-31q-16 0 -9 14l55 111q7 15 21 15h36q8 0 11 -4.5t-1 -10.5z" />
    <glyph glyph-name="Delta" unicode="&#x394;" horiz-adv-x="379" 
d="M108 419h162q23 0 23 -23v-162q0 -22 -23 -22h-162q-22 0 -22 22v162q0 23 22 23z" />
    <glyph glyph-name="Omega" unicode="&#x3a9;" horiz-adv-x="379" 
d="M67 314q0 50 35.5 86t85.5 36t86 -36t36 -86t-36 -85.5t-86 -35.5t-85.5 35.5t-35.5 85.5zM85 314q0 -44 29.5 -73.5t73.5 -29.5t74.5 30t30.5 73q0 44 -30.5 74.5t-74.5 30.5q-43 0 -73 -30.5t-30 -74.5z" />
    <glyph glyph-name="mu" unicode="&#x3bc;" horiz-adv-x="523" 
d="M378 15l-2 36q-69 -59 -164 -59q-45 0 -74 22l4 -205q0 -15 -14 -15h-41q-14 0 -14 15v670q0 15 14 15h41q14 0 14 -15v-349q0 -76 89 -76q77 0 144 55v370q0 15 14 15h41q14 0 14 -15v-464q0 -15 -14 -15h-37q-14 0 -15 15z" />
    <glyph glyph-name="pi" unicode="&#x3c0;" horiz-adv-x="379" 
d="M65 432h246q11 0 13 -10.5t-5 -20.5l-115 -186q-6 -9 -15.5 -9t-15.5 9l-114 186q-4 7 -5.5 14t1.5 12t10 5z" />
    <glyph glyph-name="Wgrave" unicode="&#x1e80;" horiz-adv-x="802" 
d="M441 665l119 -470q13 -52 16 -79q0 18 16 79l120 470q4 15 18 15h37q15 0 11 -15l-165 -650q-5 -15 -18 -15h-42q-13 0 -18 15l-121 478q-7 25 -13 69q-6 -34 -14 -70l-121 -477q-4 -15 -19 -15h-42q-13 0 -17 15l-165 650q-5 15 12 15h43q12 0 17 -15l119 -470l16 -74
q0 13 16 74l120 470q4 15 18 15h40q12 0 17 -15zM364 747l-79 116q-11 15 7 15h44q11 0 20 -14l67 -112q9 -15 -7 -15h-34q-10 0 -18 10z" />
    <glyph glyph-name="wgrave" unicode="&#x1e81;" horiz-adv-x="656" 
d="M637 479l-130 -465q-4 -14 -15 -14h-48q-13 0 -16 14l-88 338q-2 8 -10 47l-12 -48l-96 -337q-5 -14 -16 -14h-46q-12 0 -16 14l-126 465q-5 15 14 15h40q13 0 16 -15l94 -348q2 -7 3.5 -16.5t3 -16t1.5 -7.5q0 4 10 40l96 348q5 15 17 15h43q13 0 16 -15l90 -348l9 -39
q0 6 10 39l93 348q5 15 17 15h34q17 0 12 -15zM297 577l-79 116q-11 15 7 15h44q11 0 20 -14l67 -112q9 -14 -7 -14h-34q-11 0 -18 9z" />
    <glyph glyph-name="Wacute" unicode="&#x1e82;" horiz-adv-x="802" 
d="M517 863l-79 -116q-7 -9 -19 -9h-33q-15 0 -7 14l67 112q9 14 19 14h44q17 0 8 -15zM441 665l119 -470q13 -52 16 -79q0 18 16 79l120 470q4 15 18 15h37q15 0 11 -15l-165 -650q-5 -15 -18 -15h-42q-13 0 -18 15l-121 478q-7 25 -13 69q-6 -34 -14 -70l-121 -477
q-4 -15 -19 -15h-42q-13 0 -17 15l-165 650q-5 15 12 15h43q12 0 17 -15l119 -470l16 -74q5 31 16 74l120 470q4 15 18 15h40q12 0 17 -15z" />
    <glyph glyph-name="wacute" unicode="&#x1e83;" horiz-adv-x="656" 
d="M447 693l-79 -116q-7 -9 -18 -9h-33q-17 0 -8 14l67 112q9 14 20 14h44q18 0 7 -15zM637 479l-130 -465q-4 -14 -15 -14h-48q-13 0 -16 14l-88 338q-2 8 -10 47l-12 -48l-96 -337q-5 -14 -16 -14h-46q-12 0 -16 14l-126 465q-5 15 14 15h40q13 0 16 -15l94 -348
q2 -7 3.5 -16.5t3 -16t1.5 -7.5q0 4 10 40l96 348q5 15 17 15h43q13 0 16 -15l90 -348l9 -39q0 6 10 39l93 348q5 15 17 15h34q17 0 12 -15z" />
    <glyph glyph-name="Wdieresis" unicode="&#x1e84;" horiz-adv-x="802" 
d="M441 665l119 -470l16 -78q0 21 16 78l120 470q4 15 18 15h37q15 0 11 -15l-165 -650q-5 -15 -18 -15h-42q-13 0 -18 15l-121 478q-7 25 -13 69q-6 -34 -14 -70l-121 -477q-4 -15 -19 -15h-42q-13 0 -17 15l-165 650q-5 15 12 15h43q12 0 17 -15l119 -470l16 -74
q5 31 16 74l120 470q4 15 18 15h40q12 0 17 -15zM481 856v-97q0 -15 -15 -15h-24q-15 0 -15 15v97q0 14 15 14h24q15 0 15 -14zM373 856v-97q0 -15 -14 -15h-24q-15 0 -15 15v97q0 14 15 14h24q14 0 14 -14z" />
    <glyph glyph-name="wdieresis" unicode="&#x1e85;" horiz-adv-x="656" 
d="M301 688v-97q0 -14 -14 -14h-25q-15 0 -15 14v97q0 15 15 15h25q14 0 14 -15zM408 688v-97q0 -14 -14 -14h-25q-14 0 -14 14v97q0 15 14 15h25q14 0 14 -15zM637 479l-130 -465q-4 -14 -15 -14h-48q-13 0 -16 14l-88 338q-2 8 -10 47l-12 -48l-96 -337q-5 -14 -16 -14
h-46q-12 0 -16 14l-126 465q-5 15 14 15h40q13 0 16 -15l94 -348q2 -7 3.5 -16.5t3 -16t1.5 -7.5q0 4 10 40l96 348q5 15 17 15h43q13 0 16 -15l90 -348l9 -39q0 6 10 39l93 348q5 15 17 15h34q17 0 12 -15z" />
    <glyph glyph-name="Ygrave" unicode="&#x1ef2;" horiz-adv-x="517" 
d="M97 665l147 -290q4 -8 7.5 -17t5.5 -15l2 -6q0 8 15 38l152 290q8 15 18 15h42q18 0 10 -15l-201 -388v-262q0 -15 -15 -15h-42q-15 0 -15 15v254l-202 396q-7 15 10 15h48q11 0 18 -15zM223 747l-79 116q-11 15 7 15h44q11 0 20 -14l67 -112q9 -15 -7 -15h-34
q-11 0 -18 10z" />
    <glyph glyph-name="ygrave" unicode="&#x1ef3;" horiz-adv-x="432" 
d="M89 479l113 -332q4 -12 7 -26.5l5 -23.5t2 -10q10 40 16 58l114 334q5 15 17 15h38q18 0 13 -15l-229 -671q-6 -15 -17 -15h-31q-17 0 -12 15l60 188l-167 483q-5 15 13 15h41q12 0 17 -15zM183 577l-79 116q-11 15 7 15h44q11 0 20 -14l67 -112q9 -14 -7 -14h-34
q-11 0 -18 9z" />
    <glyph glyph-name="endash" unicode="&#x2013;" horiz-adv-x="546" 
d="M94 318h358q15 0 15 -14v-29q0 -15 -15 -15h-358q-15 0 -15 15v29q0 14 15 14z" />
    <glyph glyph-name="emdash" unicode="&#x2014;" horiz-adv-x="855" 
d="M94 318h667q15 0 15 -14v-29q0 -15 -15 -15h-667q-15 0 -15 15v29q0 14 15 14z" />
    <glyph glyph-name="quoteleft" unicode="&#x2018;" horiz-adv-x="221" 
d="M139 604v-61q0 -15 -14 -15h-43q-14 0 -14 15v64q0 92 101 122q13 5 18 -9l10 -29q5 -13 -9 -19q-28 -12 -38.5 -27.5t-10.5 -40.5z" />
    <glyph glyph-name="quoteright" unicode="&#x2019;" horiz-adv-x="220" 
d="M81 653v61q0 15 14 15h43q14 0 14 -15v-64q0 -92 -101 -122q-13 -4 -18 9l-10 29q-5 13 9 19q28 12 38.5 27.5t10.5 40.5z" />
    <glyph glyph-name="quotesinglbase" unicode="&#x201a;" horiz-adv-x="220" 
d="M81 32v61q0 15 14 15h43q14 0 14 -15v-64q0 -92 -101 -122q-13 -5 -18 9l-10 29q-5 13 9 19q28 12 38.5 27.5t10.5 40.5z" />
    <glyph glyph-name="quotedblleft" unicode="&#x201c;" horiz-adv-x="378" 
d="M297 604v-61q0 -15 -14 -15h-43q-14 0 -14 15v64q0 92 101 122q13 5 18 -9l10 -29q5 -13 -9 -19q-28 -12 -38.5 -27.5t-10.5 -40.5zM139 604v-61q0 -15 -14 -15h-43q-14 0 -14 15v64q0 92 101 122q13 5 18 -9l10 -29q5 -13 -9 -19q-28 -12 -38.5 -27.5t-10.5 -40.5z" />
    <glyph glyph-name="quotedblright" unicode="&#x201d;" horiz-adv-x="378" 
d="M239 653v61q0 15 14 15h43q14 0 14 -15v-64q0 -92 -101 -122q-13 -4 -18 9l-10 29q-5 13 9 19q28 12 38.5 27.5t10.5 40.5zM81 653v61q0 15 14 15h43q14 0 14 -15v-64q0 -92 -101 -122q-13 -4 -18 9l-10 29q-5 13 9 19q28 12 38.5 27.5t10.5 40.5z" />
    <glyph glyph-name="quotedblbase" unicode="&#x201e;" horiz-adv-x="378" 
d="M239 32v61q0 15 14 15h43q14 0 14 -15v-64q0 -92 -101 -122q-13 -5 -18 9l-10 29q-5 13 9 19q28 12 38.5 27.5t10.5 40.5zM81 32v61q0 15 14 15h43q14 0 14 -15v-64q0 -92 -101 -122q-13 -5 -18 9l-10 29q-5 13 9 19q28 12 38.5 27.5t10.5 40.5z" />
    <glyph glyph-name="dagger" unicode="&#x2020;" horiz-adv-x="580" 
d="M325 684v-669q0 -15 -14 -15h-41q-14 0 -14 15v669q0 15 14 15h41q14 0 14 -15zM105 501h115q15 0 15 -14v-30q0 -14 -15 -14h-115q-14 0 -14 14v30q0 14 14 14zM361 501h115q14 0 14 -14v-30q0 -14 -14 -14h-115q-15 0 -15 14v30q0 14 15 14z" />
    <glyph glyph-name="daggerdbl" unicode="&#x2021;" horiz-adv-x="580" 
d="M325 684v-669q0 -15 -14 -15h-41q-14 0 -14 15v669q0 15 14 15h41q14 0 14 -15zM105 501h115q15 0 15 -14v-30q0 -14 -15 -14h-115q-14 0 -14 14v30q0 14 14 14zM361 501h115q14 0 14 -14v-30q0 -14 -14 -14h-115q-15 0 -15 14v30q0 14 15 14zM105 256h115q15 0 15 -14
v-30q0 -15 -15 -15h-115q-14 0 -14 15v30q0 14 14 14zM361 256h115q14 0 14 -14v-30q0 -15 -14 -15h-115q-15 0 -15 15v30q0 14 15 14z" />
    <glyph glyph-name="bullet" unicode="&#x2022;" horiz-adv-x="251" 
d="M161 327v-129q0 -15 -14 -15h-42q-14 0 -14 15v129q0 15 14 15h42q14 0 14 -15z" />
    <glyph glyph-name="ellipsis" unicode="&#x2026;" horiz-adv-x="716" 
d="M146 93v-78q0 -15 -14 -15h-42q-15 0 -15 15v78q0 15 15 15h42q14 0 14 -15zM641 93v-78q0 -15 -14 -15h-42q-15 0 -15 15v78q0 15 15 15h42q14 0 14 -15zM394 93v-78q0 -15 -14 -15h-42q-15 0 -15 15v78q0 15 15 15h42q14 0 14 -15z" />
    <glyph glyph-name="perthousand" unicode="&#x2030;" horiz-adv-x="1102" 
d="M83 483v109q0 95 135 95t135 -95v-109q0 -95 -135 -95t-135 95zM295 485v105q0 49 -77 49t-77 -49v-105q0 -49 77 -49t77 49zM635 89v104q0 49 -76 49q-77 0 -77 -49v-104q0 -50 77 -50q76 0 76 50zM423 86v109q0 95 136 95q135 0 135 -95v-109q0 -95 -135 -95
q-136 0 -136 95zM961 89v104q0 49 -77 49t-77 -49v-104q0 -50 77 -50t77 50zM748 86v109q0 95 137 95q134 0 134 -95v-109q0 -95 -134 -95q-137 0 -137 95zM571 665l-303 -650q-7 -15 -21 -15h-36q-6 0 -8 5t1 10l304 650q8 15 21 15h34q15 0 8 -15z" />
    <glyph glyph-name="guilsinglleft" unicode="&#x2039;" horiz-adv-x="373" 
d="M278 351l-142 -106l142 -105q15 -11 15 -23v-43q0 -7 -5.5 -9.5t-9.5 1.5l-185 139q-13 11 -13 20v41q0 8 13 19l185 139q5 5 10 2.5t5 -10.5v-43q0 -11 -15 -22z" />
    <glyph glyph-name="guilsinglright" unicode="&#x203a;" horiz-adv-x="373" 
d="M237 245l-142 106q-15 11 -15 22v43q0 8 5 10.5t10 -2.5l185 -139q13 -11 13 -19v-41q0 -9 -13 -20l-185 -139q-5 -4 -10 -1.5t-5 9.5v43q0 12 15 23z" />
    <glyph glyph-name="fraction" unicode="&#x2044;" horiz-adv-x="439" 
d="M402 665l-303 -650q-7 -15 -21 -15h-36q-14 0 -7 15l304 650q7 15 21 15h34q16 0 8 -15z" />
    <glyph glyph-name="Euro" unicode="&#x20ac;" horiz-adv-x="649" 
d="M98 302h46v76h-46q-15 0 -15 15v18q0 14 15 14h46v117q0 146 211 146t211 -146v-51q0 -16 -14 -16h-40q-15 0 -15 16v40q0 96 -141 96t-141 -96v-106h156q14 0 14 -14v-18q0 -15 -14 -15h-156v-76h156q14 0 14 -15v-17q0 -15 -14 -15h-156v-106q0 -96 141 -96t141 96v53
q0 15 15 15h40q14 0 14 -15v-64q0 -146 -211 -146t-211 146v117h-46q-15 0 -15 15v17q0 15 15 15z" />
    <glyph glyph-name="afii61289" unicode="&#x2113;" horiz-adv-x="525" 
d="M136 127v100q-67 -36 -97 -43q-14 -5 -19 6l-13 31q-6 14 7 20l8 3q8 3 20.5 8.5l28 12t33 15t32.5 16.5v241q0 146 163 146q157 0 157 -146q0 -44 -21.5 -85.5t-60 -76t-78.5 -61t-91 -53.5v-119q0 -41 26 -62.5t88 -21.5h97q15 0 15 -15v-28q0 -15 -14 -15h-98
q-183 0 -183 127zM205 529v-198q185 101 185 202q0 44 -20.5 68t-71.5 24t-72 -24.5t-21 -71.5z" />
    <glyph glyph-name="trademark" unicode="&#x2122;" horiz-adv-x="894" 
d="M804 668v-384q0 -12 -12 -12h-34q-12 0 -12 12v282q-3 -13 -9 -26l-89 -194q-5 -12 -16 -12h-26q-11 0 -16 12l-91 196q-3 5 -9 27v-285q0 -12 -11 -12h-33q-11 0 -11 12v384q0 12 11 12h33q8 0 11 -6l118 -247q5 -10 11 -28q10 25 11 27l117 248q3 6 11 6h34
q12 0 12 -12zM103 680h271q13 0 13 -12v-26q0 -12 -13 -12h-106v-346q0 -12 -11 -12h-37q-12 0 -12 12v346h-105q-13 0 -13 12v26q0 12 13 12z" />
    <glyph glyph-name="uni2126" unicode="&#x2126;" horiz-adv-x="379" 
d="M67 314q0 50 35.5 86t85.5 36t86.5 -36t36.5 -86q0 -49 -36.5 -85t-86.5 -36t-85.5 35.5t-35.5 85.5zM85 314q0 -44 29.5 -73.5t73.5 -29.5t74.5 30t30.5 73t-30.5 73.5t-74.5 30.5q-43 0 -73 -30t-30 -74z" />
    <glyph glyph-name="estimated" unicode="&#x212e;" horiz-adv-x="833" 
d="M754 340q0 -16 -17 -16h-576v-188q43 -56 107 -88t139 -32q142 0 245 112q5 5 10 5q10 0 10 -11q0 -6 -7 -15q-46 -53 -114 -84t-144 -31q-145 0 -246.5 100.5t-101.5 247.5q0 144 102 246t246 102q143 0 245 -102t102 -246zM407 663q-74 0 -138 -32.5t-108 -88.5v-196
h492v194q-44 57 -108 90t-138 33z" />
    <glyph glyph-name="partialdiff" unicode="&#x2202;" horiz-adv-x="379" 
d="M87 194v246q0 11 10.5 13t20.5 -5l186 -115q9 -6 9 -15.5t-9 -15.5l-186 -114q-10 -7 -20.5 -6t-10.5 12z" />
    <glyph glyph-name="uni2206" unicode="&#x2206;" horiz-adv-x="379" 
d="M108 418h162q23 0 23 -22v-162q0 -22 -23 -22h-162q-22 0 -22 22v162q0 22 22 22z" />
    <glyph glyph-name="product" unicode="&#x220f;" horiz-adv-x="379" 
d="M312 203h-245q-11 0 -13 10.5t5 20.5l115 186q6 9 15.5 9t15.5 -9l114 -186q7 -10 5.5 -20.5t-12.5 -10.5z" />
    <glyph glyph-name="summation" unicode="&#x2211;" horiz-adv-x="379" 
d="M292 440v-246q0 -11 -11 -12t-21 6l-185 114q-9 6 -9 15.5t9 15.5l185 115q10 7 21 5t11 -13z" />
    <glyph glyph-name="minus" unicode="&#x2212;" horiz-adv-x="588" 
d="M94 363h400q15 0 15 -15v-29q0 -15 -15 -15h-400q-15 0 -15 15v29q0 15 15 15z" />
    <glyph glyph-name="radical" unicode="&#x221a;" horiz-adv-x="379" 
d="M108 427h162q17 0 24 -7t7 -24v-162q0 -17 -7 -24t-24 -7h-162q-31 0 -31 31v162q0 17 7 24t24 7zM270 409h-162q-13 0 -13 -13v-162q0 -13 13 -13h162q14 0 14 13v162q0 13 -14 13z" />
    <glyph glyph-name="infinity" unicode="&#x221e;" horiz-adv-x="379" 
d="M53 337l114 115q11 11 22 11t22 -11l115 -115q11 -11 11 -22t-11 -22l-115 -115q-12 -12 -22 -12q-11 0 -22 12l-114 115q-13 13 -13 22t13 22zM180 439l-115 -115q-5 -5 -5 -9t5 -9l115 -115q5 -5 9 -5t9 5l116 115q4 4 4 9q0 4 -5 9l-115 115q-5 5 -9 5t-9 -5z" />
    <glyph glyph-name="integral" unicode="&#x222b;" horiz-adv-x="379" 
d="M29 314q0 67 46 114t113 47t114 -47t47 -114t-47 -113t-114 -46t-113 46t-46 113z" />
    <glyph glyph-name="approxequal" unicode="&#x2248;" horiz-adv-x="486" 
d="M158 398q-16 0 -20.5 -8.5t-7.5 -37.5l-1 -9q-1 -13 -16 -13h-21q-15 0 -13 16l2 28q3 44 22.5 65t48.5 21q21 0 49 -14l86 -45q28 -14 42 -14q15 0 21 10.5t6 37.5v8q0 13 16 13h22q14 0 13 -17l-2 -27q-7 -86 -69 -86q-26 0 -55 15l-88 45q-22 12 -35 12zM158 238
q-16 0 -20.5 -8.5t-7.5 -37.5l-1 -9q-1 -13 -16 -13h-21q-15 0 -13 16l2 28q3 44 22.5 65t48.5 21q21 0 49 -14l86 -45q28 -14 42 -14q15 0 21 10.5t6 37.5v8q0 13 16 13h22q14 0 13 -17l-2 -27q-7 -86 -69 -86q-26 0 -55 15l-88 45q-22 12 -35 12z" />
    <glyph glyph-name="notequal" unicode="&#x2260;" horiz-adv-x="588" 
d="M94 450h212l26 68q6 16 19 16h38q16 0 10 -16l-26 -68h121q15 0 15 -14v-30q0 -15 -15 -15h-144l-46 -120h190q15 0 15 -14v-30q0 -14 -15 -14h-213l-26 -69q-6 -15 -20 -15h-38q-14 0 -9 15l26 69h-120q-15 0 -15 14v30q0 14 15 14h143l46 120h-189q-15 0 -15 15v30
q0 14 15 14z" />
    <glyph glyph-name="lessequal" unicode="&#x2264;" horiz-adv-x="539" 
d="M445 515l-297 -109l297 -108q15 -5 15 -17v-40q0 -8 -4 -12t-11 -1l-352 140q-14 5 -14 16v45q0 11 14 16l352 139q7 3 11 -0.5t4 -11.5v-40q0 -12 -15 -17zM94 169h351q15 0 15 -14v-29q0 -14 -15 -14h-351q-14 0 -14 14v29q0 14 14 14z" />
    <glyph glyph-name="greaterequal" unicode="&#x2265;" horiz-adv-x="539" 
d="M391 406l-297 109q-15 5 -15 17v41q0 19 15 13l352 -139q14 -5 14 -17v-46q0 -12 -14 -17l-352 -139q-15 -6 -15 13v41q0 12 15 17zM94 170h351q14 0 14 -15v-30q0 -15 -14 -15h-351q-15 0 -15 15v30q0 15 15 15z" />
    <glyph glyph-name="lozenge" unicode="&#x25ca;" horiz-adv-x="379" 
d="M59 331l115 115q7 7 15 7t16 -7l115 -115q7 -8 7 -16t-7 -15l-115 -115q-9 -9 -16 -9t-15 9l-115 115q-8 8 -8 15q0 6 8 16z" />
    <glyph glyph-name="CR" horiz-adv-x="0" 
 />
    <glyph glyph-name="commaaccent" horiz-adv-x="270" 
d="M105 65v28q0 15 15 15h30q15 0 15 -15v-31q0 -52 -39 -118q-6 -11 -19 -8l-24 6q-14 3 -7 20q3 8 9.5 21t9 19t5.5 16t4 21t1 26z" />
    <glyph glyph-name="acute.case" horiz-adv-x="224" 
d="M208 863l-79 -116q-7 -9 -19 -9h-33q-15 0 -7 14l67 112q9 14 19 14h44q17 0 8 -15z" />
    <glyph glyph-name="macron.case" horiz-adv-x="224" 
d="M-13 827h251q15 0 15 -15v-25q0 -14 -15 -14h-251q-15 0 -15 14v25q0 15 15 15z" />
    <glyph glyph-name="breve.case" horiz-adv-x="224" 
d="M45 866v-17q0 -32 14 -49.5t53 -17.5t53 17t14 50v17q0 13 14 13h25q13 0 13 -13v-16q0 -112 -120 -112q-64 0 -91 28.5t-27 83.5v16q0 13 13 13h26q13 0 13 -13z" />
    <glyph glyph-name="caron.case" horiz-adv-x="224" 
d="M59 863l53 -82l53 82q9 15 20 15h32q8 0 10.5 -4.5t-2.5 -10.5l-77 -111q-10 -14 -23 -14h-26q-13 0 -23 15l-77 110q-4 6 -2 10.5t10 4.5h32q11 0 20 -15z" />
    <glyph glyph-name="ring.case" horiz-adv-x="224" 
d="M207 812v-17q0 -33 -23.5 -54t-71.5 -21t-71.5 21t-23.5 54v17q0 33 23.5 54t71.5 21t71.5 -21t23.5 -54zM164 800v7q0 42 -52 42q-51 0 -51 -42v-7q0 -42 51 -42q52 0 52 42z" />
    <glyph glyph-name="circumflex.case" horiz-adv-x="224" 
d="M112 834l-53 -82q-8 -14 -20 -14h-32q-8 0 -10 4t2 10l77 111q11 15 23 15h26q13 0 23 -14l77 -112q5 -6 2.5 -10t-10.5 -4h-32q-11 0 -20 14z" />
    <glyph glyph-name="tilde.case" horiz-adv-x="224" 
d="M46 819q-17 0 -21.5 -9.5t-5.5 -37.5v-8q0 -14 -15 -14h-23q-13 0 -13 17l2 27q5 79 72 79q28 0 55 -19l44 -32q24 -18 38 -18q16 0 20.5 9.5t5.5 38.5v8q0 13 16 13h22q13 0 13 -16l-1 -25q-3 -81 -73 -81q-27 0 -54 18l-45 32q-24 18 -37 18z" />
    <glyph glyph-name="dieresis.case" horiz-adv-x="224" 
d="M85 856v-97q0 -15 -14 -15h-24q-15 0 -15 15v97q0 14 15 14h24q14 0 14 -14zM193 856v-97q0 -15 -15 -15h-24q-15 0 -15 15v97q0 14 15 14h24q15 0 15 -14z" />
    <glyph glyph-name="dotaccent.case" horiz-adv-x="224" 
d="M147 839v-79q0 -14 -14 -14h-42q-14 0 -14 14v79q0 14 14 14h42q14 0 14 -14z" />
    <glyph glyph-name="grave.case" horiz-adv-x="224" 
d="M123 747l-79 116q-11 15 7 15h44q11 0 20 -14l67 -112q9 -15 -7 -15h-34q-11 0 -18 10z" />
    <glyph glyph-name="hungarumlaut.case" horiz-adv-x="224" 
d="M230 863l-77 -112q-9 -13 -21 -13h-31q-16 0 -7 14l69 111q10 15 23 15h37q18 0 7 -15zM115 863l-62 -111q-8 -14 -20 -14h-31q-16 0 -9 14l55 111q7 15 21 15h36q8 0 11 -4.5t-1 -10.5z" />
    <glyph glyph-name="apple" horiz-adv-x="1486" 
d="M714 320q17 0 28.5 -13.5t11.5 -37.5q0 -68 -87 -68v-40l3 -32q-24 -8 -32 -8q-11 0 -11 8v75l-25 -3v-3q0 -79 -68 -79q-21 0 -31 10.5t-10 23.5q0 36 70 53v42q-17 -48 -46 -48q-28 0 -28 31v3q-19 -33 -53 -33q-29 0 -29 30v101l-29 -2v4q0 20 12 20h17l-3 30
q24 8 32 8q11 0 11 -8v-29h47v-3q0 -21 -12 -21h-35v-86q0 -16 13 -16q9 0 19 8t10 18v25l-3 33q24 8 32 8q11 0 11 -9v-66q0 -15 7 -15t16.5 17.5t9.5 30.5l-2 34q24 8 31 8q11 0 11 -9v-99l25 3v61l-3 36q24 8 32 8q11 0 11 -9v-40q17 48 47 48zM383 289v-49l3 -32
q-24 -8 -31 -8q-11 0 -11 8v66q0 16 -8 16q-7 0 -17 -17.5t-9 -30.5l2 -34q-24 -8 -31 -8q-11 0 -11 8v66q0 16 -8 16q-7 0 -16.5 -17.5t-9.5 -30.5l3 -34q-24 -8 -32 -8q-11 0 -11 8v69l-3 36q24 8 32 8q11 0 11 -9v-40q3 9 7.5 19t15 20t22.5 10q29 0 29 -32v-17
q14 49 45 49q28 0 28 -32zM1216 332l-29 -2v4q0 20 12 20h17l-3 30q24 8 32 8q11 0 11 -8v-29h47v-3q0 -21 -12 -21h-35v-90q0 -15 16 -15q11 0 38.5 5.5t46.5 5.5q17 0 39.5 -6t22.5 -18q0 -14 -9.5 -21t-17.5 -7q-2 0 -26.5 12t-44.5 12q-7 0 -32 -4t-44 -4q-20 0 -24 16
q-2 8 -5 108v7zM72 529v8h1338v-8h-1338zM72 0v8h1338v-8h-1338zM1074 289v-49l2 -32q-24 -8 -31 -8q-11 0 -11 8v67q0 15 -8 15q-7 0 -16.5 -17.5t-9.5 -30.5l3 -34q-24 -8 -32 -8q-11 0 -11 8v69l-3 36q24 8 32 8q11 0 11 -9v-40q18 49 45 49q29 0 29 -32zM153 258
q-16 -6 -44 -6q2 -22 26 -22q17 0 32 9q8 -5 8 -16q0 -4 -2.5 -8.5t-14 -9.5t-30.5 -5q-28 0 -44 14.5t-16 38.5q0 27 18.5 47.5t50.5 20.5q19 0 30 -9.5t11 -21.5q0 -24 -25 -32zM852 258q-16 -6 -44 -6q2 -22 26 -22q17 0 32 9q8 -5 8 -16q0 -4 -2.5 -8.5t-14 -9.5
t-30.5 -5q-28 0 -44 14.5t-16 38.5q0 27 18.5 47.5t50.5 20.5q19 0 30 -9.5t11 -21.5q0 -24 -25 -32zM1175 258q-16 -6 -44 -6q2 -22 26 -22q17 0 32 9q8 -5 8 -16q0 -4 -2.5 -8.5t-14 -9.5t-30.5 -5q-28 0 -44 14.5t-16 38.5q0 27 18.5 47.5t50.5 20.5q19 0 30 -9.5
t11 -21.5q0 -24 -25 -32zM667 219q45 6 45 51q0 20 -13 20t-22.5 -18.5t-9.5 -29.5v-23zM917 250q11 0 18.5 -7t7.5 -17t-7.5 -16.5t-18.5 -6.5t-18 6.5t-7 16.5t7 17t18 7zM562 194q-41 -9 -41 -32q0 -14 14 -14q25 0 27 46zM108 264q37 0 37 21q0 13 -13 13q-20 0 -24 -34
zM1130 264q37 0 37 21q0 13 -13 13q-20 0 -24 -34zM807 264q37 0 37 21q0 13 -13 13q-20 0 -24 -34z" />
    </font>
</defs>
</svg>
