<?xml version="1.0" standalone="no"?>
<!DOCTYPE svg PUBLIC "-//W3C//DTD SVG 1.1//EN" "http://www.w3.org/Graphics/SVG/1.1/DTD/svg11.dtd" >
<svg>
<metadata>
Created by FontForge 20090622 at Sat Dec 19 19:27:16 2015
 By deploy user
Copyright (c) 2009 by Eduardo Manso. All rights reserved.
</metadata>
<defs>
<font id="Geogrotesque-SemiBold" horiz-adv-x="540" >
  <font-face 
    font-family="Geogrotesque SmBd"
    font-weight="600"
    font-stretch="normal"
    units-per-em="1000"
    panose-1="2 0 0 0 0 0 0 0 0 0"
    ascent="750"
    descent="-250"
    x-height="498"
    cap-height="680"
    bbox="-73.3333 -261.087 1413 964"
    underline-thickness="50"
    underline-position="-50"
    unicode-range="U+0020-U+FB04"
  />
<missing-glyph horiz-adv-x="847" 
d="M671 94q-104 -102 -249 -102q-144 0 -246 102q-103 101 -103 247q0 144 103 247q102 102 246 102q147 0 249 -102q103 -103 103 -247t-103 -247zM659 106q99 99 99 235t-99 235q-98 98 -237 98q-136 0 -234 -98q-99 -99 -99 -235q0 -138 99 -235q98 -98 234 -98
q139 0 237 98zM523 167l-100 101l-100 -100q-19 -19 -35 0l-42 42q-17 17 1 33l100 100l-100 101q-18 18 -1 34l41 42q18 18 36 -1l100 -100l100 100q19 19 35 2l42 -41q17 -20 -1 -36l-100 -101l100 -100q19 -17 0 -35l-42 -41q-16 -18 -34 0z" />
    <glyph glyph-name="ff" unicode="ff" horiz-adv-x="659" 
d="M97 496h3v59q0 70 54 109t161 39h9q25 0 25 -25v-58q0 -25 -25 -25h-9q-83 0 -83 -54v-45h175v62q0 69 54 108t161 39h9q25 0 25 -24v-58q0 -26 -25 -26h-9q-83 0 -83 -54v-47h83q25 0 25 -23v-56q0 -25 -25 -25h-83v-366q0 -26 -24 -26h-83q-25 0 -25 26v366h-175v-366
q0 -26 -24 -26h-83q-25 0 -25 26v366h-54q-24 0 -24 25v50q0 12 5.5 17t18.5 7z" />
    <glyph glyph-name="fi" unicode="fi" horiz-adv-x="595" 
d="M535 472v-446q0 -26 -23 -26h-83q-25 0 -25 26v366h-175v-366q0 -26 -24 -26h-83q-24 0 -24 26v366h-54q-25 0 -25 25v50q0 12 5.5 17t19.5 7l50 5h4v55q0 70 53.5 109t160.5 39h192q25 0 25 -25v-58q0 -25 -25 -25h-192q-83 0 -83 -54v-41h281q25 0 25 -24z" />
    <glyph glyph-name="fl" unicode="fl" horiz-adv-x="595" 
d="M535 674v-648q0 -26 -23 -26h-83q-25 0 -25 26v565h-92q-83 0 -83 -54v-41h83q25 0 25 -23v-56q0 -25 -25 -25h-83v-366q0 -26 -24 -26h-83q-24 0 -24 26v366h-54q-25 0 -25 25v50q0 12 5.5 17t19.5 7l50 5h4v55q0 70 53.5 109t160.5 39h198q25 0 25 -25z" />
    <glyph glyph-name="ffi" unicode="ffi" horiz-adv-x="905" 
d="M97 496h3v59q0 70 54 109t161 39h9q25 0 25 -25v-58q0 -25 -25 -25h-9q-83 0 -83 -54v-45h175v55q0 70 54 109t161 39h192q26 0 26 -25v-58q0 -25 -26 -25h-192q-83 0 -83 -54v-41h281q26 0 26 -24v-446q0 -26 -24 -26h-83q-25 0 -25 26v366h-175v-366q0 -26 -24 -26h-83
q-25 0 -25 26v366h-175v-366q0 -26 -24 -26h-83q-25 0 -25 26v366h-54q-24 0 -24 25v50q0 12 5.5 17t18.5 7z" />
    <glyph glyph-name="ffl" unicode="ffl" horiz-adv-x="905" 
d="M97 496h4v59q0 70 53.5 109t160.5 39h9q26 0 26 -25v-58q0 -25 -26 -25h-9q-83 0 -83 -54v-45h175v55q0 70 54 109t161 39h198q26 0 26 -25v-648q0 -26 -24 -26h-83q-24 0 -24 26v565h-93q-83 0 -83 -54v-41h83q25 0 25 -23v-56q0 -25 -25 -25h-83v-366q0 -26 -24 -26
h-83q-25 0 -25 26v366h-175v-366q0 -26 -24 -26h-83q-24 0 -24 26v366h-54q-25 0 -25 25v50q0 12 5.5 17t19.5 7z" />
    <glyph glyph-name=".notdef" horiz-adv-x="847" 
d="M671 94q-104 -102 -249 -102q-144 0 -246 102q-103 101 -103 247q0 144 103 247q102 102 246 102q147 0 249 -102q103 -103 103 -247t-103 -247zM659 106q99 99 99 235t-99 235q-98 98 -237 98q-136 0 -234 -98q-99 -99 -99 -235q0 -138 99 -235q98 -98 234 -98
q139 0 237 98zM523 167l-100 101l-100 -100q-19 -19 -35 0l-42 42q-17 17 1 33l100 100l-100 101q-18 18 -1 34l41 42q18 18 36 -1l100 -100l100 100q19 19 35 2l42 -41q17 -20 -1 -36l-100 -101l100 -100q19 -17 0 -35l-42 -41q-16 -18 -34 0z" />
    <glyph glyph-name=".null" horiz-adv-x="0" 
 />
    <glyph glyph-name="nonmarkingreturn" horiz-adv-x="333" 
 />
    <glyph glyph-name="space" unicode=" " horiz-adv-x="194" 
 />
    <glyph glyph-name="exclam" unicode="!" horiz-adv-x="277" 
d="M207 390l-13 -183q-1 -14 -6 -19.5t-18 -5.5h-62q-13 0 -18 5.5t-6 19.5l-14 183v264q0 26 25 26h88q24 0 24 -26v-264zM205 106v-81q0 -25 -24 -25h-87q-24 0 -24 25v81q0 25 24 25h87q24 0 24 -25z" />
    <glyph glyph-name="quotedbl" unicode="&#x22;" horiz-adv-x="427" 
d="M178 491q0 -25 -24 -25h-59q-13 0 -18 5.5t-6 19.5l-11 163q-1 26 24 26h81q24 0 23 -26zM356 491q0 -25 -24 -25h-58q-24 0 -25 25l-10 163q-1 26 24 26h80q25 0 24 -26z" />
    <glyph glyph-name="numbersign" unicode="#" horiz-adv-x="678" 
d="M92 272h69l21 75h-42q-26 0 -26 24v44q0 23 26 23h69l22 78q7 26 31 26h59q25 0 18 -26l-23 -78h123l22 78q8 26 31 26h59q25 0 18 -26l-22 -78h39q25 0 25 -23v-44q0 -24 -25 -24h-66l-21 -75h39q26 0 26 -23v-44q0 -25 -26 -25h-66l-22 -78q-7 -25 -30 -25h-59
q-25 0 -18 25l22 78h-123l-22 -78q-7 -25 -30 -25h-60q-24 0 -17 25l22 78h-43q-25 0 -25 25v44q0 23 25 23zM290 347l-22 -75h123l22 75h-123z" />
    <glyph glyph-name="dollar" unicode="$" horiz-adv-x="536" 
d="M343 445v19q0 41 -73 41q-72 0 -72 -41v-11q0 -24 31 -35l144 -51q96 -34 96 -104v-51q0 -42 -32.5 -76t-97.5 -47v-63q0 -26 -23 -26h-84q-24 0 -24 26v61q-72 11 -106.5 45.5t-34.5 79.5v23q0 23 23 23h74q23 0 23 -23v-17q0 -42 80 -42q81 0 81 42v17q0 12 -10 20.5
t-35 17.5l-145 53q-31 12 -55 41.5t-24 64.5v32q0 45 31 80.5t98 47.5v62q0 26 24 26h84q23 0 23 -26v-63q64 -13 93.5 -48t29.5 -79v-19q0 -13 -5 -18t-18 -5h-74q-22 0 -22 23z" />
    <glyph glyph-name="percent" unicode="%" horiz-adv-x="869" 
d="M67 478v98q0 112 156 112t156 -112v-98q0 -112 -156 -112t-156 112zM272 482v90q0 30 -49 30t-49 -30v-90q0 -31 49 -31t49 31zM694 107v90q0 30 -48 30q-49 0 -49 -30v-90q0 -31 49 -31q48 0 48 31zM490 102v98q0 112 156 112t156 -112v-98q0 -112 -156 -112t-156 112z
M655 654l-320 -628q-13 -26 -36 -26h-70q-10 0 -13.5 9t1.5 17l321 628q13 26 36 26h69q12 0 15 -8t-3 -18z" />
    <glyph glyph-name="ampersand" unicode="&#x26;" horiz-adv-x="696" 
d="M301 404h337q25 0 25 -24v-59q0 -25 -25 -25h-59v-141q0 -72 -59.5 -117.5t-200.5 -45.5q-257 0 -257 159v89q0 83 84 114q-75 25 -75 104v71q0 159 223 159q225 0 225 -163v-32q0 -25 -23 -25h-84q-24 0 -24 25v13q0 74 -93 74q-92 0 -92 -74v-28q0 -74 98 -74zM321 100
q127 0 127 74v122h-156q-98 0 -98 -73v-49q0 -74 127 -74z" />
    <glyph glyph-name="quotesingle" unicode="'" horiz-adv-x="248" 
d="M188 654l-10 -163q-1 -25 -24 -25h-59q-13 0 -18 5.5t-6 19.5l-11 163q-1 26 24 26h81q24 0 23 -26z" />
    <glyph glyph-name="parenleft" unicode="(" horiz-adv-x="357" 
d="M62 -70v630q0 70 53.5 109t160.5 39h9q25 0 25 -25v-58q0 -25 -25 -25h-9q-79 0 -79 -54v-602q0 -54 79 -54h9q25 0 25 -25v-58q0 -25 -25 -25h-9q-107 0 -160.5 39t-53.5 109z" />
    <glyph glyph-name="parenright" unicode=")" horiz-adv-x="357" 
d="M295 560v-630q0 -70 -53.5 -109t-160.5 -39h-10q-25 0 -25 25v58q0 25 25 25h10q42 0 60 13t18 41v602q0 28 -18 41t-60 13h-10q-25 0 -25 25v58q0 25 25 25h10q107 0 160.5 -39t53.5 -109z" />
    <glyph glyph-name="asterisk" unicode="*" horiz-adv-x="541" 
d="M250 286q-24 0 -23 26l8 121l-106 -69q-22 -15 -34 9l-20 39q-11 23 11 33l104 48l-104 49q-23 11 -11 33l20 38q13 23 34 9l107 -69l-9 130q-1 14 4.5 19.5t19.5 5.5h43q25 0 24 -25l-10 -127l104 66q22 14 34 -8l20 -39q12 -22 -11 -33l-104 -49l104 -48q23 -10 11 -33
l-20 -40q-12 -23 -34 -8l-103 65l9 -117q1 -26 -24 -26h-44z" />
    <glyph glyph-name="plus" unicode="+" horiz-adv-x="560" 
d="M226 143v141h-142q-25 0 -25 25v59q0 24 25 24h142v142q0 26 23 26h59q25 0 25 -26v-142h142q26 0 26 -24v-59q0 -25 -26 -25h-142v-141q0 -25 -25 -25h-59q-23 0 -23 25z" />
    <glyph glyph-name="comma" unicode="," horiz-adv-x="266" 
d="M75 39v67q0 25 24 25h86q23 0 23 -25v-74q0 -114 -144 -148q-23 -6 -31 16l-20 56q-8 23 16 31q46 15 46 52z" />
    <glyph glyph-name="hyphen" unicode="-" horiz-adv-x="436" 
d="M84 342h268q25 0 25 -24v-59q0 -24 -25 -24h-268q-25 0 -25 24v59q0 24 25 24z" />
    <glyph glyph-name="period" unicode="." horiz-adv-x="250" 
d="M192 106v-81q0 -25 -24 -25h-85q-25 0 -25 25v81q0 25 25 25h85q24 0 24 -25z" />
    <glyph glyph-name="slash" unicode="/" horiz-adv-x="366" 
d="M352 673l-198 -795q-7 -26 -29 -26h-92q-25 0 -19 26l199 795q6 26 29 26h91q25 0 19 -26z" />
    <glyph glyph-name="zero" unicode="0" horiz-adv-x="562" 
d="M48 155v370q0 71 55.5 117t177.5 46q121 0 177 -46t56 -117v-370q0 -71 -56 -117t-177 -46q-122 0 -177.5 46t-55.5 117zM379 179v322q0 75 -98 75t-98 -75v-322q0 -75 98 -75t98 75z" />
    <glyph glyph-name="one" unicode="1" horiz-adv-x="562" 
d="M91 642l246 45q10 2 17 -3t7 -21v-551h131q25 0 25 -24v-63q0 -25 -25 -25h-402q-25 0 -25 25v63q0 24 25 24h136v440l-135 -24q-26 -5 -26 21v66q0 22 26 27z" />
    <glyph glyph-name="two" unicode="2" horiz-adv-x="562" 
d="M200 112h290q25 0 25 -24v-63q0 -25 -25 -25h-400q-26 0 -26 25v184q0 26 11 45t24 27t33 17l205 86q40 16 40 58v61q0 75 -98 75q-97 0 -97 -75v-39q0 -25 -23 -25h-83q-25 0 -25 25v61q0 71 53.5 117t174.5 46t176.5 -46t55.5 -117v-79q0 -113 -95 -152l-169 -70
q-25 -10 -36 -21.5t-11 -34.5v-56z" />
    <glyph glyph-name="three" unicode="3" horiz-adv-x="562" 
d="M201 404h68q98 0 98 74v28q0 74 -91 74q-93 0 -93 -74v-13q0 -25 -25 -25h-83q-23 0 -23 25v32q0 163 225 163q223 0 223 -159v-71q0 -79 -75 -104q84 -31 84 -114v-89q0 -70 -53 -114.5t-177 -44.5t-178 46t-54 117v32q0 25 24 25h83q24 0 24 -25v-13q0 -74 100 -74
q98 0 98 74v49q0 73 -98 73h-77q-25 0 -25 25v59q0 24 25 24z" />
    <glyph glyph-name="four" unicode="4" horiz-adv-x="562" 
d="M285 654l-113 -357h191v357q0 26 24 26h87q24 0 24 -26v-628q0 -26 -24 -26h-87q-24 0 -24 26v159h-305q-25 0 -25 24v61q0 7 4 23l113 361q8 26 30 26h87q26 0 18 -26z" />
    <glyph glyph-name="five" unicode="5" horiz-adv-x="562" 
d="M100 680h366q26 0 26 -24v-63q0 -25 -26 -25h-254v-131h68q120 0 176 -44.5t56 -114.5v-124q0 -72 -53.5 -117.5t-177.5 -45.5t-177.5 45.5t-53.5 117.5v32q0 25 24 25h83q25 0 25 -25v-12q0 -75 97 -75q98 0 98 75v85q0 70 -98 70h-179q-23 0 -23 26v299q0 26 23 26z
" />
    <glyph glyph-name="six" unicode="6" horiz-adv-x="562" 
d="M55 155v371q0 70 52.5 116t172.5 46t171 -46t51 -116v-26q0 -25 -25 -25h-83q-13 0 -18 5.5t-5 19.5v7q0 73 -91 73q-92 0 -92 -73v-122q45 31 112 31q107 0 158 -47t51 -117v-97q0 -71 -53 -117t-175 -46q-121 0 -173.5 46t-52.5 117zM375 175v58q0 74 -94 74
q-93 0 -93 -68v-64q0 -75 93 -75q94 0 94 75z" />
    <glyph glyph-name="seven" unicode="7" horiz-adv-x="562" 
d="M67 680h435q25 0 25 -24v-61q0 -8 -5 -20l-242 -549q-11 -26 -32 -26h-98q-29 0 -17 26l241 542h-307q-25 0 -25 25v63q0 24 25 24z" />
    <glyph glyph-name="eight" unicode="8" horiz-adv-x="562" 
d="M65 459v66q0 163 216 163q215 0 215 -163v-66q0 -76 -75 -106q86 -31 86 -107v-91q0 -71 -52.5 -117t-173.5 -46t-173.5 45.5t-52.5 117.5v91q0 76 85 107q-75 30 -75 106zM374 175v50q0 38 -22 55.5t-71 17.5t-71 -17.5t-22 -55.5v-50q0 -75 93 -75t93 75zM365 480v25
q0 39 -19 57t-65 18q-47 0 -65.5 -18t-18.5 -57v-25q0 -39 18.5 -57t65.5 -18q46 0 65 18t19 57z" />
    <glyph glyph-name="nine" unicode="9" horiz-adv-x="562" 
d="M507 525v-371q0 -70 -52.5 -116t-172.5 -46t-171 46t-51 116v26q0 25 25 25h83q23 0 23 -25v-7q0 -73 91 -73t91 73v121q-42 -30 -111 -30q-106 0 -157.5 47t-51.5 117v97q0 71 53 117t175 46q121 0 173.5 -46t52.5 -117zM373 446v60q0 74 -92 74q-95 0 -95 -75v-58
q0 -74 95 -74q92 0 92 73z" />
    <glyph glyph-name="colon" unicode=":" horiz-adv-x="250" 
d="M192 106v-81q0 -25 -24 -25h-85q-25 0 -25 25v81q0 25 25 25h85q24 0 24 -25zM192 473v-82q0 -25 -24 -25h-85q-25 0 -25 25v82q0 25 25 25h85q24 0 24 -25z" />
    <glyph glyph-name="semicolon" unicode=";" horiz-adv-x="290" 
d="M232 473v-82q0 -25 -23 -25h-86q-25 0 -25 25v82q0 25 25 25h86q23 0 23 -25zM98 39v67q0 25 25 25h86q23 0 23 -25v-74q0 -114 -144 -148q-24 -6 -32 16l-19 56q-8 23 16 31q26 9 35.5 21t9.5 31z" />
    <glyph glyph-name="less" unicode="&#x3c;" horiz-adv-x="523" 
d="M438 435l-251 -96l251 -96q14 -5 19.5 -10.5t5.5 -17.5v-79q0 -15 -6.5 -22t-18.5 -2l-356 154q-8 4 -12 6.5t-7.5 8t-3.5 14.5v88q0 9 3.5 14.5t7.5 8t12 6.5l356 154q12 5 18.5 -2t6.5 -22v-79q0 -12 -5.5 -17.5t-19.5 -10.5z" />
    <glyph glyph-name="equal" unicode="=" horiz-adv-x="581" 
d="M84 478h412q25 0 25 -24v-60q0 -24 -25 -24h-412q-25 0 -25 24v60q0 24 25 24zM84 273h412q25 0 25 -23v-60q0 -25 -25 -25h-412q-25 0 -25 25v60q0 23 25 23z" />
    <glyph glyph-name="greater" unicode="&#x3e;" horiz-adv-x="523" 
d="M336 338l-252 96q-25 10 -25 28v80q0 14 7 22t18 3l357 -154q22 -9 22 -27v-94q0 -18 -22 -27l-357 -154q-11 -5 -18 2.5t-7 21.5v81q0 9 3.5 14.5t8 7.5l13.5 6z" />
    <glyph glyph-name="question" unicode="?" horiz-adv-x="565" 
d="M187 206v69q0 38 16.5 57t46.5 33l92 47q38 21 38 61v30q0 75 -99 75t-99 -75v-39q0 -25 -23 -25h-83q-25 0 -25 25v61q0 71 54.5 117t175.5 46t176.5 -46t56.5 -117v-47q0 -114 -93 -155l-57 -26q-23 -11 -32.5 -22t-9.5 -34v-35q0 -13 -5 -18.5t-18 -5.5h-88
q-24 0 -24 24zM322 106v-81q0 -25 -23 -25h-88q-24 0 -24 25v81q0 25 24 25h88q23 0 23 -25z" />
    <glyph glyph-name="at" unicode="@" horiz-adv-x="954" 
d="M652 -150h-175q-102 0 -177 13.5t-118.5 34t-69.5 51.5t-34 60.5t-8 66.5v351q0 37 8 66.5t34 60.5t69.5 51.5t118.5 33.5t177 13q126 0 211 -18.5t126 -53t56 -70.5t15 -83v-234q0 -160 -186 -160q-109 0 -148 62q-70 -62 -158 -62q-124 0 -124 121q0 16 1 25l12 133
q13 146 141 146q65 0 135 -49l3 16q4 25 27 25h73q24 0 21 -25l-21 -206q-2 -25 -1 -45.5t12.5 -33t34.5 -12.5q30 0 40.5 21.5t10.5 61.5v210q0 42 -21 67.5t-84.5 41.5t-175.5 16t-175 -16t-84 -41.5t-21 -67.5v-339q0 -42 21 -68t84 -42t175 -16h175q26 0 26 -25v-56
q0 -25 -26 -25zM407 286l-8 -85q-2 -22 9.5 -35t40.5 -13q34 0 82 24v6l13 127q-46 33 -80 33q-51 0 -57 -57z" />
    <glyph glyph-name="A" unicode="A" horiz-adv-x="553" 
d="M233 680h87q25 0 32 -25l186 -630q8 -25 -18 -25h-90q-21 0 -29 25l-35 122h-186l-35 -122q-8 -25 -30 -25h-81q-27 0 -19 25l187 630q7 25 31 25zM336 254l-33 111q-8 26 -17.5 93t-11.5 89q-24 -157 -31 -181l-34 -112h127z" />
    <glyph glyph-name="B" unicode="B" horiz-adv-x="594" 
d="M308 0h-214q-24 0 -24 26v628q0 26 24 26h183q128 0 185 -41t57 -110v-59q0 -77 -75 -112q106 -37 106 -121v-79q0 -70 -57.5 -114t-184.5 -44zM308 296h-103v-188h103q109 0 109 74v45q0 32 -29.5 50.5t-79.5 18.5zM277 572h-72v-174h75q105 0 105 75v35q0 36 -27 50
t-81 14z" />
    <glyph glyph-name="C" unicode="C" horiz-adv-x="569" 
d="M529 217v-62q0 -71 -54.5 -117t-180.5 -46t-180.5 46t-54.5 117v370q0 71 54.5 117t180.5 46t180.5 -46t54.5 -117v-48q0 -25 -23 -25h-83q-25 0 -25 25v24q0 75 -102 75q-101 0 -101 -75v-322q0 -75 101 -75q102 0 102 75v38q0 25 25 25h83q23 0 23 -25z" />
    <glyph glyph-name="D" unicode="D" horiz-adv-x="615" 
d="M312 0h-221q-21 0 -21 26v628q0 26 24 26h218q126 0 185 -46.5t59 -116.5v-354q0 -70 -59 -116.5t-185 -46.5zM312 568h-107v-456h107q109 0 109 75v306q0 75 -109 75z" />
    <glyph glyph-name="E" unicode="E" horiz-adv-x="512" 
d="M446 0h-352q-24 0 -24 26v628q0 26 24 26h342q25 0 25 -24v-63q0 -25 -25 -25h-231v-162h214q26 0 26 -24v-60q0 -24 -26 -24h-214v-186h241q25 0 25 -24v-63q0 -25 -25 -25z" />
    <glyph glyph-name="F" unicode="F" horiz-adv-x="518" 
d="M94 680h366q25 0 25 -24v-63q0 -25 -25 -25h-255v-162h238q25 0 25 -24v-64q0 -25 -25 -25h-238v-267q0 -26 -24 -26h-87q-24 0 -24 26v628q0 26 24 26z" />
    <glyph glyph-name="G" unicode="G" horiz-adv-x="581" 
d="M300 357h204q25 0 25 -24v-178q0 -71 -54.5 -117t-180.5 -46t-180.5 46t-54.5 117v370q0 71 54.5 117t180.5 46t180.5 -46t54.5 -117v-40q0 -25 -23 -25h-83q-25 0 -25 25v16q0 75 -102 75q-101 0 -101 -75v-322q0 -75 101 -75q102 0 102 74v67h-98q-26 0 -26 24v64
q0 24 26 24z" />
    <glyph glyph-name="H" unicode="H" horiz-adv-x="626" 
d="M205 654v-249h216v249q0 26 24 26h87q24 0 24 -26v-628q0 -26 -24 -26h-87q-24 0 -24 26v267h-216v-267q0 -26 -24 -26h-87q-24 0 -24 26v628q0 26 24 26h87q24 0 24 -26z" />
    <glyph glyph-name="I" unicode="I" horiz-adv-x="274" 
d="M205 654v-628q0 -26 -24 -26h-87q-24 0 -24 26v628q0 26 24 26h87q24 0 24 -26z" />
    <glyph glyph-name="J" unicode="J" horiz-adv-x="515" 
d="M149 215v-36q0 -75 86 -75q43 0 61.5 18t18.5 57v475q0 26 24 26h87q24 0 24 -26v-499q0 -163 -215 -163q-117 0 -168 46t-51 117v60q0 25 25 25h84q24 0 24 -25z" />
    <glyph glyph-name="K" unicode="K" horiz-adv-x="584" 
d="M335 346l235 -321q7 -9 3.5 -17t-16.5 -8h-111q-17 0 -36 25l-188 262h-17v-262q0 -25 -24 -25h-87q-24 0 -24 25v630q0 25 24 25h87q24 0 24 -25v-269h16l178 269q16 25 40 25h93q13 0 16 -7.5t-4 -17.5z" />
    <glyph glyph-name="L" unicode="L" horiz-adv-x="477" 
d="M205 654v-542h223q25 0 25 -24v-63q0 -25 -25 -25h-337q-21 0 -21 26v628q0 26 24 26h87q24 0 24 -26z" />
    <glyph glyph-name="M" unicode="M" horiz-adv-x="746" 
d="M677 655v-630q0 -25 -24 -25h-83q-24 0 -24 25v380l-4 -11q-3 -12 -7 -25.5t-9.5 -29.5l-8.5 -25l-76 -186q-11 -25 -33 -25h-71q-22 0 -32 25l-85 201q-18 37 -23 74v-378q0 -25 -24 -25h-79q-24 0 -24 25v630q0 25 24 25h79q16 0 22 -14l153 -349l25 -70q13 39 26 69
l148 352q5 12 23 12h83q24 0 24 -25z" />
    <glyph glyph-name="N" unicode="N" horiz-adv-x="625" 
d="M556 655v-630q0 -25 -24 -25h-79q-16 0 -23 12l-193 331q-29 49 -40 81v-399q0 -25 -24 -25h-79q-24 0 -24 25v630q0 25 24 25h79q15 0 21 -10l201 -345l34 -70v400q0 25 24 25h79q24 0 24 -25z" />
    <glyph glyph-name="O" unicode="O" horiz-adv-x="605" 
d="M59 155v370q0 70 58.5 116.5t184.5 46.5t184.5 -46.5t58.5 -116.5v-370q0 -70 -58.5 -116.5t-184.5 -46.5t-184.5 46.5t-58.5 116.5zM410 179v322q0 75 -108 75q-107 0 -107 -75v-322q0 -75 107 -75q108 0 108 75z" />
    <glyph glyph-name="P" unicode="P" horiz-adv-x="580" 
d="M304 241h-99v-215q0 -26 -24 -26h-87q-24 0 -24 26v628q0 26 24 26h210q126 0 184 -46t58 -117v-113q0 -71 -58 -117t-184 -46zM304 568h-99v-215h99q51 0 79.5 19t28.5 55v66q0 75 -108 75z" />
    <glyph glyph-name="Q" unicode="Q" horiz-adv-x="604" 
d="M545 525v-370q0 -54 -33.5 -94.5t-105.5 -57.5l107 -95q20 -18 3 -35l-44 -47q-17 -19 -34 -2l-184 171q-101 8 -148 52.5t-47 107.5v370q0 70 58.5 116.5t184.5 46.5t184.5 -46.5t58.5 -116.5zM195 504v-328q0 -75 107 -75q108 0 108 75v328q0 75 -108 75
q-107 0 -107 -75z" />
    <glyph glyph-name="R" unicode="R" horiz-adv-x="600" 
d="M304 259h-99v-233q0 -26 -24 -26h-87q-24 0 -24 26v628q0 26 24 26h210q126 0 184 -46t58 -117v-95q0 -104 -110 -144l108 -252q5 -12 -2 -19t-21 -7h-88q-5 0 -8.5 1.5t-6.5 6t-4.5 7.5l-5.5 11l-98 233h-6zM304 568h-99v-197h99q108 0 108 75v47q0 75 -108 75z" />
    <glyph glyph-name="S" unicode="S" horiz-adv-x="572" 
d="M389 484v23q0 72 -97 72q-98 0 -98 -72v-15q0 -39 41 -54l174 -62q118 -42 118 -144v-77q0 -71 -56.5 -117t-181.5 -46q-124 0 -181.5 46.5t-57.5 116.5v63q0 26 24 26h84q24 0 24 -26v-45q0 -72 106 -72t106 72v32q0 19 -13.5 34t-28 22t-43.5 18l-155 58
q-38 14 -64.5 50t-26.5 79v59q0 71 53 117t174 46q122 0 176.5 -46t54.5 -117v-41q0 -25 -25 -25h-84q-23 0 -23 25z" />
    <glyph glyph-name="T" unicode="T" horiz-adv-x="493" 
d="M36 680h420q25 0 25 -24v-63q0 -25 -25 -25h-142v-542q0 -26 -24 -26h-87q-25 0 -25 26v542h-142q-25 0 -25 25v63q0 24 25 24z" />
    <glyph glyph-name="U" unicode="U" horiz-adv-x="615" 
d="M200 654v-475q0 -75 107 -75q51 0 80 19t29 56v475q0 26 24 26h87q23 0 23 -26v-499q0 -70 -58.5 -116.5t-184.5 -46.5t-184.5 46.5t-58.5 116.5v499q0 26 25 26h87q24 0 24 -26z" />
    <glyph glyph-name="V" unicode="V" horiz-adv-x="553" 
d="M320 0h-87q-24 0 -31 25l-187 630q-8 25 19 25h95q21 0 29 -25l97 -340q7 -24 13 -60.5t8 -60.5l3 -24q12 91 27 144l97 341q8 25 30 25h87q26 0 18 -25l-186 -630q-7 -25 -32 -25z" />
    <glyph glyph-name="W" unicode="W" horiz-adv-x="838" 
d="M496 655l84 -340q9 -40 16 -99q9 61 18 98l86 341q6 25 29 25h76q25 0 19 -25l-159 -630q-6 -25 -31 -25h-85q-22 0 -28 25l-88 348q-9 32 -14 91q-6 -58 -14 -91l-88 -348q-6 -25 -31 -25h-85q-22 0 -28 25l-159 630q-6 25 19 25h89q23 0 29 -25l84 -341l16 -84
q5 33 18 84l86 341q6 25 30 25h81q24 0 30 -25z" />
    <glyph glyph-name="X" unicode="X" horiz-adv-x="574" 
d="M358 349l188 -324q6 -9 3 -17t-16 -8h-100q-21 0 -36 25l-120 206l-109 -206q-13 -25 -36 -25h-94q-12 0 -14 9.5t4 19.5l181 322l-174 301q-17 28 10 28h100q22 0 37 -25l111 -192l104 192q13 25 36 25h93q26 0 12 -25z" />
    <glyph glyph-name="Y" unicode="Y" horiz-adv-x="545" 
d="M161 655l95 -228q11 -30 17 -53q9 34 18 53l106 228q11 25 29 25h86q13 0 18.5 -6.5t-0.5 -18.5l-189 -395v-235q0 -25 -24 -25h-87q-25 0 -25 25v219l-190 411q-5 11 -0.5 18t17.5 7h99q20 0 30 -25z" />
    <glyph glyph-name="Z" unicode="Z" horiz-adv-x="497" 
d="M75 680h356q26 0 26 -24v-62q0 -10 -6 -20l-256 -462h254q25 0 25 -24v-63q0 -25 -25 -25h-391q-25 0 -25 25v63q0 9 4 17l257 463h-219q-25 0 -25 25v63q0 24 25 24z" />
    <glyph glyph-name="bracketleft" unicode="[" horiz-adv-x="394" 
d="M62 -185v858q0 26 24 26h229q25 0 25 -24v-63q0 -25 -25 -25h-118v-686h118q25 0 25 -25v-63q0 -24 -25 -24h-229q-24 0 -24 26z" />
    <glyph glyph-name="backslash" unicode="\" horiz-adv-x="366" 
d="M213 -122l-199 795q-6 26 19 26h92q23 0 29 -26l198 -795q6 -26 -19 -26h-91q-23 0 -29 26z" />
    <glyph glyph-name="bracketright" unicode="]" horiz-adv-x="394" 
d="M332 673v-858q0 -26 -24 -26h-228q-26 0 -26 24v63q0 25 26 25h117v686h-117q-26 0 -26 25v63q0 24 26 24h228q24 0 24 -26z" />
    <glyph glyph-name="asciicircum" unicode="^" horiz-adv-x="577" 
d="M384 301l-97 250l-95 -250q-5 -14 -10.5 -20t-17.5 -6h-79q-14 0 -21.5 7t-2.5 19l153 356q4 8 6.5 12t7.5 7.5t13 3.5h93q8 0 13 -3.5t7.5 -7.5t6.5 -12l154 -356q5 -12 -2.5 -19t-21.5 -7h-80q-12 0 -17 6t-10 20z" />
    <glyph glyph-name="underscore" unicode="_" horiz-adv-x="456" 
d="M46 -74h364q25 0 25 -23v-60q0 -25 -25 -25h-364q-25 0 -25 25v60q0 23 25 23z" />
    <glyph glyph-name="grave" unicode="`" horiz-adv-x="314" 
d="M132 577l-72 106q-8 11 -4.5 18t16.5 7h87q23 0 35 -25l48 -98q11 -25 -13 -25h-65q-20 0 -32 17z" />
    <glyph glyph-name="a" unicode="a" horiz-adv-x="517" 
d="M60 349v13q0 144 202 144q201 0 201 -144v-336q0 -26 -24 -26h-75q-13 0 -17.5 6t-6.5 20l-2 21q-66 -55 -148 -55q-70 0 -107 36t-37 89v45q0 53 39.5 89.5t110.5 36.5h138v64q0 28 -16.5 42t-58.5 14t-59.5 -12.5t-17.5 -39.5v-7q0 -25 -24 -25h-74q-24 0 -24 25z
M224 96q52 0 110 43v57h-112q-27 0 -37.5 -11.5t-10.5 -33.5v-16q0 -39 50 -39z" />
    <glyph glyph-name="b" unicode="b" 
d="M161 0h-77q-25 0 -25 26v647q0 26 25 26h83q23 0 23 -26v-221q71 54 157 54q72 0 108.5 -38.5t36.5 -107.5v-222q0 -69 -36.5 -107.5t-108.5 -38.5q-89 0 -160 56l-2 -22q-2 -14 -6.5 -20t-17.5 -6zM360 159v181q0 52 -54 52q-56 0 -116 -46v-194q60 -46 116 -46
q54 0 54 53z" />
    <glyph glyph-name="c" unicode="c" horiz-adv-x="492" 
d="M255 506q205 0 205 -147v-17q0 -24 -24 -24h-77q-25 0 -25 24v7q0 28 -17.5 40.5t-59.5 12.5t-59.5 -12.5t-17.5 -40.5v-199q0 -28 17.5 -41t59.5 -13t59.5 13t17.5 41v15q0 25 25 25h77q24 0 24 -25v-25q0 -148 -206 -148q-205 0 -205 148v219q0 147 206 147z" />
    <glyph glyph-name="d" unicode="d" 
d="M355 26l-2 22q-71 -56 -159 -56q-72 0 -108.5 38.5t-36.5 107.5v222q0 69 36.5 107.5t108.5 38.5q85 0 156 -54v221q0 26 24 26h83q24 0 24 -26v-647q0 -26 -24 -26h-77q-13 0 -18 6t-7 20zM180 340v-181q0 -24 11.5 -38.5t43.5 -14.5q55 0 115 46v194q-60 46 -115 46
t-55 -52z" />
    <glyph glyph-name="e" unicode="e" horiz-adv-x="499" 
d="M455 359v-116q0 -23 -22 -23h-256v-74q0 -28 17.5 -41.5t60.5 -13.5t60.5 13.5t17.5 41.5v5q0 25 25 25h70q25 0 25 -25v-11q0 -148 -199 -148q-205 0 -205 148v219q0 147 206 147q200 0 200 -147zM177 352v-44h156v44q0 55 -78 55t-78 -55z" />
    <glyph glyph-name="f" unicode="f" horiz-adv-x="349" 
d="M94 496h3v62q0 69 54 108t161 39h9q25 0 25 -24v-58q0 -26 -25 -26h-9q-83 0 -83 -54v-47h83q25 0 25 -23v-56q0 -25 -25 -25h-83v-366q0 -26 -24 -26h-83q-25 0 -25 26v366h-54q-24 0 -24 25v50q0 12 5.5 17t18.5 7z" />
    <glyph glyph-name="g" unicode="g" 
d="M194 -8q-72 0 -108.5 38.5t-36.5 107.5v222q0 69 36.5 107.5t108.5 38.5q89 0 160 -58l2 25q2 14 6.5 19.5t17.5 5.5h77q24 0 24 -25v-527q0 -69 -53.5 -108t-160.5 -39h-141q-25 0 -25 24v58q0 26 25 26h141q83 0 83 54v84q-73 -53 -156 -53zM180 340v-181
q0 -24 11.5 -38.5t43.5 -14.5q55 0 115 46v194q-60 46 -115 46t-55 -52z" />
    <glyph glyph-name="h" unicode="h" horiz-adv-x="545" 
d="M190 673v-219q69 52 157 52q68 0 106.5 -37t38.5 -97v-346q0 -26 -25 -26h-81q-26 0 -26 26v313q0 28 -11.5 40.5t-42.5 12.5q-57 0 -116 -45v-321q0 -26 -23 -26h-83q-25 0 -25 26v647q0 26 25 26h83q23 0 23 -26z" />
    <glyph glyph-name="i" unicode="i" horiz-adv-x="250" 
d="M190 473v-447q0 -26 -23 -26h-83q-25 0 -25 26v447q0 25 25 25h83q23 0 23 -25zM190 673v-86q0 -24 -23 -24h-83q-25 0 -25 24v86q0 26 25 26h83q23 0 23 -26z" />
    <glyph glyph-name="j" unicode="j" horiz-adv-x="249" 
d="M190 673v-86q0 -24 -23 -24h-84q-24 0 -24 24v86q0 26 24 26h84q23 0 23 -26zM190 473v-527q0 -69 -53.5 -108t-160.5 -39h-9q-25 0 -25 24v58q0 26 25 26h9q83 0 83 54v512q0 25 24 25h83q24 0 24 -25z" />
    <glyph glyph-name="k" unicode="k" horiz-adv-x="495" 
d="M316 283l175 -258q7 -9 3.5 -17t-15.5 -8h-91q-19 0 -36 25l-140 204h-22v-204q0 -25 -23 -25h-83q-25 0 -25 25v649q0 25 25 25h83q23 0 23 -25v-346h22l124 145q23 25 40 25h90q13 0 16.5 -8t-4.5 -17z" />
    <glyph glyph-name="l" unicode="l" horiz-adv-x="250" 
d="M190 673v-647q0 -26 -23 -26h-83q-25 0 -25 26v647q0 26 25 26h83q23 0 23 -26z" />
    <glyph glyph-name="m" unicode="m" horiz-adv-x="835" 
d="M84 498h77q13 0 18 -5.5t6 -18.5l1 -24q66 56 155 56q94 0 128 -67q73 67 167 67q68 0 106.5 -37t38.5 -97v-346q0 -26 -24 -26h-82q-25 0 -25 26v313q0 28 -12 40.5t-42 12.5q-59 0 -110 -44v-322q0 -26 -25 -26h-81q-26 0 -26 26v313q0 28 -11.5 40.5t-42.5 12.5
q-60 0 -110 -45v-321q0 -26 -23 -26h-83q-25 0 -25 26v448q0 24 25 24z" />
    <glyph glyph-name="n" unicode="n" horiz-adv-x="545" 
d="M84 498h77q13 0 18 -5.5t6 -18.5l2 -24q68 56 160 56q68 0 106.5 -37t38.5 -97v-346q0 -26 -25 -26h-81q-26 0 -26 26v313q0 28 -11.5 40.5t-42.5 12.5q-57 0 -116 -45v-321q0 -26 -23 -26h-83q-25 0 -25 26v448q0 24 25 24z" />
    <glyph glyph-name="o" unicode="o" horiz-adv-x="530" 
d="M49 140v219q0 69 54.5 108t161.5 39t161.5 -39t54.5 -108v-219q0 -70 -54.5 -109t-161.5 -39t-161.5 39t-54.5 109zM350 151v197q0 54 -85 54t-85 -54v-197q0 -55 85 -55t85 55z" />
    <glyph glyph-name="p" unicode="p" 
d="M84 498h77q13 0 18 -5.5t6 -19.5l2 -24q73 57 160 57q72 0 108.5 -38.5t36.5 -107.5v-222q0 -69 -36.5 -107.5t-108.5 -38.5q-84 0 -157 53v-221q0 -25 -23 -25h-83q-25 0 -25 25v649q0 25 25 25zM360 159v181q0 52 -54 52q-56 0 -116 -46v-194q60 -46 116 -46
q54 0 54 53z" />
    <glyph glyph-name="q" unicode="q" 
d="M353 449l2 24q2 14 7 19.5t18 5.5h77q24 0 24 -25v-649q0 -25 -24 -25h-83q-24 0 -24 25v221q-73 -53 -156 -53q-72 0 -108.5 38.5t-36.5 107.5v222q0 69 36.5 107.5t108.5 38.5q86 0 159 -57zM180 340v-181q0 -24 11.5 -38.5t43.5 -14.5q55 0 115 46v194q-60 46 -115 46
t-55 -52z" />
    <glyph glyph-name="r" unicode="r" horiz-adv-x="371" 
d="M334 506q26 0 26 -24v-64q0 -25 -26 -26q-86 -6 -144 -59v-307q0 -26 -23 -26h-83q-25 0 -25 26v448q0 24 25 24h77q13 0 18 -5.5t6 -18.5l3 -35q62 67 146 67z" />
    <glyph glyph-name="s" unicode="s" horiz-adv-x="472" 
d="M314 354v19q0 41 -73 41q-72 0 -72 -41v-11q0 -24 31 -35l144 -51q96 -34 96 -104v-51q0 -54 -50.5 -91.5t-151.5 -37.5t-150.5 37.5t-49.5 91.5v23q0 23 23 23h74q23 0 23 -23v-17q0 -42 80 -42q81 0 81 42v17q0 12 -10 20.5t-35 17.5l-145 53q-31 12 -55 41.5t-24 64.5
v32q0 55 46 94t146 39q99 0 145 -39t46 -94v-19q0 -13 -5 -18t-18 -5h-74q-22 0 -22 23z" />
    <glyph glyph-name="t" unicode="t" horiz-adv-x="363" 
d="M220 496h91q25 0 25 -23v-56q0 -25 -25 -25h-91v-230q0 -54 80 -54h22q25 0 25 -25v-58q0 -25 -25 -25h-42q-107 0 -149.5 35.5t-42.5 112.5v244h-49q-24 0 -24 25v50q0 12 5.5 17t18.5 7l46 5h3v96q0 25 25 25h83q24 0 24 -25v-96z" />
    <glyph glyph-name="u" unicode="u" horiz-adv-x="539" 
d="M354 25l-2 22q-62 -55 -154 -55q-67 0 -105.5 37t-38.5 97v347q0 25 24 25h82q25 0 25 -25v-314q0 -28 12 -40.5t42 -12.5q55 0 110 44v323q0 25 24 25h83q24 0 24 -25v-448q0 -25 -24 -25h-77q-13 0 -18 5.5t-7 19.5z" />
    <glyph glyph-name="v" unicode="v" horiz-adv-x="474" 
d="M281 0h-95q-13 0 -17 4.5t-9 18.5l-149 450q-4 12 2.5 18.5t20.5 6.5h86q20 0 28 -25l73 -227q10 -32 16 -92q6 51 20 91l79 228q8 25 28 25h76q14 0 21 -6.5t3 -18.5l-158 -450q-5 -14 -9 -18.5t-16 -4.5z" />
    <glyph glyph-name="w" unicode="w" horiz-adv-x="716" 
d="M705 473l-128 -450q-4 -14 -8.5 -18.5t-16.5 -4.5h-99q-13 0 -18 5t-8 18l-56 237q-9 36 -9 53l-2 -9l-5 -20l-6 -24l-69 -237q-3 -13 -8 -18t-17 -5h-97q-13 0 -18 5t-8 18l-121 450q-7 25 24 25h79q21 0 28 -25l69 -262q2 -9 4 -20.5t3 -19t1 -8.5q0 7 12 48l73 262
q7 25 27 25h80q23 0 28 -25l61 -262l4 -21t3.5 -18t1.5 -8q0 5 11 47l68 262q7 25 28 25h66q30 0 23 -25z" />
    <glyph glyph-name="x" unicode="x" horiz-adv-x="475" 
d="M306 250l150 -225q7 -9 3.5 -17t-16.5 -8h-90q-18 0 -35 25l-92 136l-88 -136q-17 -25 -35 -25h-80q-12 0 -15.5 8t3.5 17l153 229l-146 219q-7 10 -4 17.5t16 7.5h90q19 0 37 -25l87 -130l82 130q16 25 36 25h80q12 0 15.5 -7.5t-3.5 -17.5z" />
    <glyph glyph-name="y" unicode="y" horiz-adv-x="474" 
d="M145 473l75 -229q1 -2 17 -84q18 70 21 80l79 233q4 13 9.5 19t17.5 6h76q14 0 21 -6.5t3 -18.5l-221 -649q-8 -25 -28 -25h-60q-31 0 -24 25l49 163l-169 486q-4 12 3 18.5t20 6.5h83q20 0 28 -25z" />
    <glyph glyph-name="z" unicode="z" horiz-adv-x="446" 
d="M74 498h303q25 0 25 -24v-58q0 -11 -8 -22l-202 -287h203q25 0 25 -24v-59q0 -24 -25 -24h-338q-25 0 -25 24v59q0 11 8 22l200 286h-166q-26 0 -26 24v59q0 24 26 24z" />
    <glyph glyph-name="braceleft" unicode="{" horiz-adv-x="450" 
d="M155 357v203q0 70 53.5 109t160.5 39h9q25 0 25 -25v-58q0 -25 -25 -25h-9q-79 0 -79 -54v-203q0 -70 -62 -94q62 -26 62 -95v-210q0 -54 79 -54h9q25 0 25 -25v-58q0 -25 -25 -25h-9q-107 0 -160.5 39t-53.5 109v211q0 54 -77 54h-1q-25 0 -25 25v57q0 26 25 26h1
q77 0 77 54z" />
    <glyph glyph-name="bar" unicode="|" horiz-adv-x="274" 
d="M205 673v-858q0 -26 -24 -26h-87q-24 0 -24 26v858q0 26 24 26h87q24 0 24 -26z" />
    <glyph glyph-name="braceright" unicode="}" horiz-adv-x="450" 
d="M295 560v-203q0 -54 77 -54h1q25 0 25 -26v-57q0 -25 -25 -25h-1q-77 0 -77 -54v-211q0 -70 -53.5 -109t-160.5 -39h-10q-25 0 -25 25v58q0 25 25 25h10q79 0 79 54v210q0 69 61 95q-61 24 -61 94v203q0 54 -79 54h-10q-25 0 -25 25v58q0 25 25 25h10q107 0 160.5 -39
t53.5 -109z" />
    <glyph glyph-name="asciitilde" unicode="~" horiz-adv-x="504" 
d="M173 261q-8 0 -12.5 -5t-6 -10t-3.5 -16l-1 -6q-2 -13 -8 -17.5t-19 -4.5h-43q-23 0 -20 28l4 48q3 44 27.5 66t56.5 22q28 0 54 -11l90 -41q28 -13 40 -13q7 0 11 4.5t5 9.5t4 17l1 5q4 22 27 22h43q24 0 21 -29l-5 -41q-6 -47 -29 -70.5t-53 -23.5q-29 0 -61 14l-91 42
q-20 10 -32 10z" />
    <glyph glyph-name="exclamdown" unicode="&#xa1;" horiz-adv-x="277" 
d="M69 108l13 183q1 14 6 19.5t18 5.5h62q13 0 18 -5.5t6 -19.5l14 -183v-264q0 -26 -25 -26h-88q-24 0 -24 26v264zM71 392v81q0 25 24 25h87q24 0 24 -25v-81q0 -25 -24 -25h-87q-24 0 -24 25z" />
    <glyph glyph-name="cent" unicode="&#xa2;" horiz-adv-x="545" 
d="M341 654v-62q137 -23 137 -142v-17q0 -24 -24 -24h-77q-25 0 -25 24v7q0 28 -17.5 40.5t-59.5 12.5t-59.5 -12.5t-17.5 -40.5v-199q0 -28 17.5 -41t59.5 -13t59.5 13t17.5 41v15q0 25 25 25h77q24 0 24 -25v-25q0 -120 -137 -143v-62q0 -26 -24 -26h-83q-24 0 -24 26v61
q-143 20 -143 144v219q0 122 143 143v61q0 26 24 26h83q24 0 24 -26z" />
    <glyph glyph-name="sterling" unicode="&#xa3;" horiz-adv-x="687" 
d="M283 389h109q25 0 25 -24v-60q0 -24 -25 -24h-109v-173h152q57 0 57 81v9q0 25 25 25h78q25 0 25 -25v-9q0 -104 -38.5 -146.5t-110.5 -42.5h-379q-25 0 -25 25v59q0 24 25 24h56v173h-56q-25 0 -25 24v60q0 24 25 24h56v138q0 71 52 116t171 45t171.5 -45t52.5 -116v-34
q0 -26 -24 -26h-81q-24 0 -24 26v10q0 73 -94 73q-46 0 -67.5 -17.5t-21.5 -55.5v-114z" />
    <glyph glyph-name="currency" unicode="&#xa4;" horiz-adv-x="630" 
d="M92 311h31v55h-31q-25 0 -25 24v35q0 24 25 24h31v76q0 71 54.5 117t180.5 46t180.5 -46t54.5 -117v-48q0 -25 -23 -25h-83q-25 0 -25 25v24q0 75 -102 75q-101 0 -101 -75v-52h98q25 0 25 -24v-35q0 -24 -25 -24h-98v-55h98q25 0 25 -23v-35q0 -25 -25 -25h-98v-49
q0 -75 101 -75q102 0 102 75v38q0 25 25 25h83q23 0 23 -25v-62q0 -71 -54.5 -117t-180.5 -46t-180.5 46t-54.5 117v73h-31q-25 0 -25 25v35q0 23 25 23z" />
    <glyph glyph-name="yen" unicode="&#xa5;" horiz-adv-x="657" 
d="M533 231h-136v-206q0 -25 -24 -25h-87q-25 0 -25 25v206h-135q-26 0 -26 24v35q0 24 26 24h102l-25 54h-77q-26 0 -26 25v35q0 23 26 23h39l-94 204q-5 11 -0.5 18t17.5 7h99q20 0 30 -25l95 -228q11 -30 17 -53q9 34 18 53l106 228q11 25 29 25h86q13 0 18.5 -6.5
t-0.5 -18.5l-98 -204h45q25 0 25 -23v-35q0 -25 -25 -25h-84l-26 -54h110q25 0 25 -24v-35q0 -24 -25 -24z" />
    <glyph glyph-name="brokenbar" unicode="&#xa6;" horiz-adv-x="250" 
d="M190 654v-314q0 -26 -23 -26h-83q-25 0 -25 26v314q0 26 25 26h83q23 0 23 -26zM190 129v-314q0 -26 -23 -26h-83q-25 0 -25 26v314q0 26 25 26h83q23 0 23 -26z" />
    <glyph glyph-name="section" unicode="&#xa7;" horiz-adv-x="552" 
d="M468 281v-78q0 -24 -25 -24h-73q-24 0 -24 24v65q0 31 -38 43l-140 44q-98 31 -98 123v61q0 68 51 108.5t156 40.5q205 0 205 -143v-9q0 -25 -24 -25h-73q-24 0 -24 25v15q0 27 -19 39t-61 12q-43 0 -62.5 -12t-19.5 -40v-64q0 -26 48 -41l126 -39q40 -13 67.5 -46
t27.5 -79zM85 205v77q0 14 5.5 19t18.5 5h73q24 0 24 -24v-65q0 -31 38 -43l140 -44q98 -31 98 -123v-60q0 -68 -50.5 -109t-155.5 -41q-206 0 -206 144v9q0 24 24 24h73q25 0 25 -24v-16q0 -28 18.5 -39.5t61.5 -11.5t62 12t19 40v65q0 25 -48 40l-126 39q-39 12 -66.5 46
t-27.5 80z" />
    <glyph glyph-name="dieresis" unicode="&#xa8;" horiz-adv-x="381" 
d="M168 681v-93q0 -25 -23 -25h-49q-24 0 -24 25v93q0 25 24 25h49q23 0 23 -25zM308 681v-93q0 -25 -23 -25h-49q-25 0 -25 25v93q0 25 25 25h49q23 0 23 -25z" />
    <glyph glyph-name="copyright" unicode="&#xa9;" horiz-adv-x="778" 
d="M709 456v-231q0 -38 -6 -67.5t-25.5 -62t-53 -54t-93.5 -35.5t-142 -14q-81 0 -141 14t-93.5 35.5t-53 54t-25.5 62t-6 67.5v231q0 38 6 67.5t25.5 62t53 53.5t93.5 35t141 14q82 0 142 -14t93.5 -35t53 -53.5t25.5 -62t6 -67.5zM614 206v269q0 133 -225 133
q-224 0 -224 -134v-267q0 -134 224 -134q225 0 225 133zM391 546q92 0 130.5 -34.5t38.5 -104.5v-9q0 -24 -25 -24h-67q-24 0 -24 24v6q0 28 -12.5 41t-40.5 13t-40.5 -12.5t-12.5 -41.5v-128q0 -28 12.5 -41t40.5 -13q53 0 53 54v13q0 25 24 25h67q25 0 25 -25v-17
q0 -70 -38.5 -104.5t-131.5 -34.5q-92 0 -130.5 34.5t-38.5 104.5v135q0 70 39 104.5t131 34.5z" />
    <glyph glyph-name="ordfeminine" unicode="&#xaa;" horiz-adv-x="359" 
d="M56 594v7q0 41 33 64t96 23q127 0 127 -91v-197q0 -17 -18 -17h-56q-10 0 -13 3t-5 14l-2 9q-38 -31 -83 -31q-44 0 -66 22t-22 55v25q0 32 26.5 54.5t71.5 22.5h70v40q0 22 -33 22t-33 -21v-4q0 -17 -17 -17h-57q-19 0 -19 17zM167 447q26 0 48 22v29h-50q-21 0 -21 -20
v-11q0 -20 23 -20z" />
    <glyph glyph-name="guillemotleft" unicode="&#xab;" horiz-adv-x="603" 
d="M513 319l-106 -74l106 -73q26 -18 26 -35v-83q0 -12 -8.5 -17t-17.5 1l-186 133q-23 17 -23 34v81q0 16 23 33l186 134q10 7 18 2t8 -18v-83q0 -16 -26 -35zM273 319l-106 -74l106 -73q26 -18 26 -35v-83q0 -12 -8.5 -17t-17.5 1l-186 133q-23 17 -23 34v81q0 16 23 33
l186 134q10 7 18 2t8 -18v-83q0 -16 -26 -35z" />
    <glyph glyph-name="logicalnot" unicode="&#xac;" horiz-adv-x="400" 
d="M74 320q0 53 36.5 89.5t88.5 36.5q53 0 89.5 -37t36.5 -89t-37 -88.5t-89 -36.5t-88.5 36.5t-36.5 88.5z" />
    <glyph glyph-name="uni00AD" unicode="&#xad;" horiz-adv-x="436" 
d="M84 342h268q25 0 25 -24v-59q0 -24 -25 -24h-268q-25 0 -25 24v59q0 24 25 24z" />
    <glyph glyph-name="registered" unicode="&#xae;" horiz-adv-x="646" 
d="M577 523v-185q0 -24 -4.5 -44t-20 -43.5t-41.5 -39.5t-74 -27t-113 -11t-113 11t-74.5 27t-42 39.5t-20 43.5t-4.5 44v185q0 24 4.5 44t20 43.5t42 39.5t74.5 27t113 11t113 -11t74 -27t41.5 -39.5t20 -43.5t4.5 -44zM490 329v202q0 38 -36.5 59.5t-129.5 21.5
q-168 0 -168 -81v-201q0 -82 168 -82q166 0 166 81zM449 466q0 -49 -38 -69l34 -85q3 -8 -1.5 -13t-15.5 -5h-53q-10 0 -15 14q-1 3 -2 4l-28 70h-34v-70q0 -18 -16 -18h-54q-17 0 -17 18v237q0 17 17 17h113q110 0 110 -83v-17zM330 503h-34v-57h34q10 0 20 6t10 16v12
q0 23 -30 23z" />
    <glyph glyph-name="macron" unicode="&#xaf;" horiz-adv-x="406" 
d="M88 671h230q25 0 25 -24v-51q0 -24 -25 -24h-230q-26 0 -26 24v51q0 24 26 24z" />
    <glyph glyph-name="degree" unicode="&#xb0;" horiz-adv-x="435" 
d="M54 481v95q0 55 37.5 83.5t126.5 28.5t126 -29t37 -83v-95q0 -54 -37 -82.5t-126 -28.5t-126.5 28.5t-37.5 82.5zM270 486v86q0 30 -53 30q-52 0 -52 -30v-86q0 -31 52 -31q53 0 53 31z" />
    <glyph glyph-name="plusminus" unicode="&#xb1;" horiz-adv-x="560" 
d="M226 234v94h-142q-25 0 -25 24v60q0 23 25 23h142v94q0 25 23 25h59q25 0 25 -25v-94h142q26 0 26 -23v-60q0 -24 -26 -24h-142v-94q0 -25 -25 -25h-59q-23 0 -23 25zM84 153h391q26 0 26 -24v-59q0 -25 -26 -25h-391q-25 0 -25 25v59q0 24 25 24z" />
    <glyph glyph-name="twosuperior" unicode="&#xb2;" horiz-adv-x="388" 
d="M158 356h166q19 0 19 -17v-46q0 -18 -19 -18h-250q-18 0 -18 18v107q0 23 8.5 34t27.5 19l128 57q19 9 19 32v28q0 19 -13.5 29t-34.5 10q-46 0 -46 -39v-21q0 -19 -17 -19h-64q-18 0 -18 19v36q0 43 35 73t110 30t111.5 -30t36.5 -73v-38q0 -74 -58 -100l-109 -50
q-14 -6 -14 -15v-26z" />
    <glyph glyph-name="threesuperior" unicode="&#xb3;" horiz-adv-x="387" 
d="M151 523h35q48 0 48 38v11q0 39 -43 39t-43 -39v-5q0 -17 -18 -17h-64q-18 0 -18 17v20q0 44 33.5 73t111.5 29q142 0 142 -101v-42q0 -44 -42 -59q48 -21 48 -69v-47q0 -44 -34.5 -72t-112.5 -28t-113 29.5t-35 72.5v20q0 17 18 17h63q19 0 19 -17v-5q0 -39 47 -39
q48 0 48 39v18q0 39 -49 39h-41q-19 0 -19 17v43q0 18 19 18z" />
    <glyph glyph-name="acute" unicode="&#xb4;" horiz-adv-x="314" 
d="M253 683l-72 -106q-12 -17 -32 -17h-65q-24 0 -13 25l48 98q12 25 35 25h87q13 0 16.5 -7t-4.5 -18z" />
    <glyph glyph-name="uni00B5" unicode="&#xb5;" horiz-adv-x="539" 
d="M354 25l-2 22q-62 -55 -150 -55q-14 0 -24 3l7 -171q1 -25 -24 -25h-83q-24 0 -24 25v649q0 25 24 25h82q25 0 25 -25v-314q0 -28 12 -40.5t42 -12.5q55 0 110 44v323q0 25 24 25h83q24 0 24 -25v-448q0 -25 -24 -25h-77q-13 0 -18 5.5t-7 19.5z" />
    <glyph glyph-name="paragraph" unicode="&#xb6;" horiz-adv-x="693" 
d="M422 655v-831q0 -25 -24 -25h-87q-24 0 -24 25v458h-24q-107 0 -150 34t-43 97v136q0 63 43 97t150 34h135q24 0 24 -25zM624 654v-830q0 -25 -24 -25h-87q-24 0 -24 25v830q0 26 24 26h87q24 0 24 -26z" />
    <glyph glyph-name="periodcentered" unicode="&#xb7;" horiz-adv-x="250" 
d="M192 317v-81q0 -25 -24 -25h-85q-25 0 -25 25v81q0 25 25 25h85q24 0 24 -25z" />
    <glyph glyph-name="cedilla" unicode="&#xb8;" horiz-adv-x="261" 
d="M131 -45h30q41 0 64.5 -20.5t23.5 -61.5q0 -42 -23.5 -63t-64.5 -21h-119q-25 0 -25 25v20q0 24 25 24h98q19 0 19 15q0 16 -19 16h-75q-41 0 -31 33l26 91q7 23 29 22l37 -3q26 -2 18 -30z" />
    <glyph glyph-name="onesuperior" unicode="&#xb9;" horiz-adv-x="374" 
d="M65 662l158 25h8t6.5 -4.5t2.5 -12.5v-315h71q10 0 13.5 -3.5t3.5 -13.5v-46q0 -18 -17 -18h-246q-19 0 -19 18v46q0 10 4 13.5t15 3.5h73v237l-73 -9q-19 -3 -19 15v46q0 15 19 18z" />
    <glyph glyph-name="ordmasculine" unicode="&#xba;" horiz-adv-x="372" 
d="M46 471v123q0 44 36 69t104 25q67 0 103 -25t36 -69v-123q0 -43 -36 -68t-103 -25q-68 0 -104 24.5t-36 68.5zM225 480v106q0 26 -39 26q-40 0 -40 -26v-106q0 -27 40 -27q39 0 39 27z" />
    <glyph glyph-name="guillemotright" unicode="&#xbb;" horiz-adv-x="603" 
d="M330 179l106 74l-106 73q-26 18 -26 35v83q0 12 8.5 17t17.5 -1l186 -133q23 -17 23 -34v-81q0 -16 -23 -33l-186 -134q-10 -7 -18 -2t-8 18v83q0 16 26 35zM90 179l106 74l-106 73q-26 18 -26 35v83q0 12 8.5 17t17.5 -1l186 -133q23 -17 23 -34v-81q0 -16 -23 -33
l-186 -134q-10 -7 -18 -2t-8 18v83q0 16 26 35z" />
    <glyph glyph-name="onequarter" unicode="&#xbc;" horiz-adv-x="895" 
d="M717 390l-59 -207h89v207q0 18 18 18h66q18 0 18 -18v-372q0 -18 -18 -18h-66q-18 0 -18 18v85h-176q-20 0 -20 18v37q0 10 3 19l60 213q5 18 22 18h67q19 0 14 -18zM65 662l158 25h8t6.5 -4.5t2.5 -12.5v-315h71q10 0 13.5 -3.5t3.5 -13.5v-46q0 -18 -17 -18h-246
q-19 0 -19 18v46q0 10 4 13.5t15 3.5h73v240l-73 -12q-19 -3 -19 15v46q0 15 19 18zM601 711l-180 -742q-2 -10 -6 -14t-14 -4h-70q-19 0 -14 18l179 742q4 18 22 18h69q19 0 14 -18z" />
    <glyph glyph-name="onehalf" unicode="&#xbd;" horiz-adv-x="899" 
d="M65 662l158 25h8t6.5 -4.5t2.5 -12.5v-315h71q10 0 13.5 -3.5t3.5 -13.5v-46q0 -18 -17 -18h-246q-19 0 -19 18v46q0 10 4 13.5t15 3.5h73v238l-73 -10q-19 -3 -19 15v46q0 15 19 18zM592 711l-180 -742q-4 -18 -20 -18h-70q-18 0 -14 18l180 742q4 18 21 18h69
q19 0 14 -18zM668 81h167q18 0 18 -17v-46q0 -18 -18 -18h-251q-18 0 -18 18v107q0 23 8.5 34t27.5 19l128 57q19 9 19 32v28q0 39 -47 39t-47 -39v-21q0 -19 -17 -19h-64q-18 0 -18 19v36q0 43 35 73t111 30q75 0 111 -30t36 -73v-38q0 -72 -58 -100l-108 -50
q-15 -6 -15 -14v-27z" />
    <glyph glyph-name="threequarters" unicode="&#xbe;" horiz-adv-x="906" 
d="M151 522h35q48 0 48 38v11q0 39 -43 39t-43 -39v-5q0 -17 -18 -17h-64q-18 0 -18 17v20q0 44 33.5 73t111.5 29q142 0 142 -101v-42q0 -44 -42 -59q48 -21 48 -69v-47q0 -44 -34.5 -72t-112.5 -28t-113 29.5t-35 72.5v20q0 17 18 17h63q19 0 19 -17v-5q0 -39 47 -39
q48 0 48 39v18q0 39 -49 39h-41q-19 0 -19 17v43q0 18 19 18zM612 711l-180 -742q-4 -18 -20 -18h-70q-18 0 -14 18l180 742q4 18 21 18h69q19 0 14 -18zM728 390l-59 -207h89v207q0 18 18 18h66q18 0 18 -18v-372q0 -18 -18 -18h-66q-18 0 -18 18v85h-176q-20 0 -20 18v37
q0 10 3 19l60 213q5 18 22 18h67q19 0 14 -18z" />
    <glyph glyph-name="questiondown" unicode="&#xbf;" horiz-adv-x="565" 
d="M378 292v-69q0 -38 -16.5 -57t-46.5 -33l-92 -47q-38 -21 -38 -61v-30q0 -75 99 -75t99 75v39q0 25 23 25h83q25 0 25 -25v-61q0 -71 -54.5 -117t-175.5 -46t-176.5 46t-56.5 117v47q0 114 93 155l57 26q23 11 32.5 22t9.5 34v35q0 13 5 18.5t18 5.5h88q24 0 24 -24z
M243 392v81q0 25 23 25h88q24 0 24 -25v-81q0 -25 -24 -25h-88q-23 0 -23 25z" />
    <glyph glyph-name="Agrave" unicode="&#xc0;" horiz-adv-x="553" 
d="M233 680h87q25 0 32 -25l186 -630q8 -25 -18 -25h-90q-21 0 -29 25l-35 122h-186l-35 -122q-8 -25 -30 -25h-81q-27 0 -19 25l187 630q7 25 31 25zM336 254l-33 111q-8 26 -17.5 93t-11.5 89q-24 -157 -31 -181l-34 -112h127zM204 747l-72 105q-8 11 -4 18.5t17 7.5h87
q22 0 34 -25l48 -98q11 -25 -12 -25h-65q-20 0 -33 17z" />
    <glyph glyph-name="Aacute" unicode="&#xc1;" horiz-adv-x="553" 
d="M233 680h87q25 0 32 -25l186 -630q8 -25 -18 -25h-90q-21 0 -29 25l-35 122h-186l-35 -122q-8 -25 -30 -25h-81q-27 0 -19 25l187 630q7 25 31 25zM336 254l-33 111q-8 26 -17.5 93t-11.5 89q-24 -157 -31 -181l-34 -112h127zM414 853l-73 -106q-12 -17 -32 -17h-65
q-26 0 -13 25l49 98q12 25 34 25h87q13 0 17 -7t-4 -18z" />
    <glyph glyph-name="Acircumflex" unicode="&#xc2;" horiz-adv-x="553" 
d="M233 680h87q25 0 32 -25l186 -630q8 -25 -18 -25h-90q-21 0 -29 25l-35 122h-186l-35 -122q-8 -25 -30 -25h-81q-27 0 -19 25l187 630q7 25 31 25zM336 254l-33 111q-8 26 -17.5 93t-11.5 89q-24 -157 -31 -181l-34 -112h127zM277 800l-25 -45q-14 -25 -34 -25h-64
q-13 0 -16.5 7t3.5 18l73 98q18 25 39 25h48q19 0 39 -25l73 -98q7 -11 3.5 -18t-16.5 -7h-64q-21 0 -34 25z" />
    <glyph glyph-name="Atilde" unicode="&#xc3;" horiz-adv-x="553" 
d="M233 680h87q25 0 32 -25l186 -630q8 -25 -18 -25h-90q-21 0 -29 25l-35 122h-186l-35 -122q-8 -25 -30 -25h-81q-27 0 -19 25l187 630q7 25 31 25zM336 254l-33 111q-8 26 -17.5 93t-11.5 89q-24 -157 -31 -181l-34 -112h127zM216 786q-19 0 -19 -25v-5q0 -22 -27 -22
h-43q-24 0 -21 29l4 41q4 37 28.5 57.5t59.5 20.5q30 0 58 -13l43 -21q30 -15 37 -15q9 0 13 5t6 19l1 6q4 22 27 22h43q23 0 21 -29l-3 -39q-3 -38 -26.5 -58t-56.5 -20t-64 13l-43 19q-32 15 -38 15z" />
    <glyph glyph-name="Adieresis" unicode="&#xc4;" horiz-adv-x="553" 
d="M233 680h87q25 0 32 -25l186 -630q8 -25 -18 -25h-90q-21 0 -29 25l-35 122h-186l-35 -122q-8 -25 -30 -25h-81q-27 0 -19 25l187 630q7 25 31 25zM336 254l-33 111q-8 26 -17.5 93t-11.5 89q-24 -157 -31 -181l-34 -112h127zM256 850v-93q0 -25 -24 -25h-49
q-24 0 -24 25v93q0 26 24 26h49q24 0 24 -26zM395 850v-93q0 -25 -23 -25h-49q-24 0 -24 25v93q0 26 24 26h49q23 0 23 -26z" />
    <glyph glyph-name="Aring" unicode="&#xc5;" horiz-adv-x="553" 
d="M233 680h87q25 0 32 -25l186 -630q8 -25 -18 -25h-90q-21 0 -29 25l-35 122h-186l-35 -122q-8 -25 -30 -25h-81q-27 0 -19 25l187 630q7 25 31 25zM336 254l-33 111q-8 26 -17.5 93t-11.5 89q-24 -157 -31 -181l-34 -112h127zM389 821v-29q0 -33 -28.5 -55.5t-83.5 -22.5
t-83.5 22.5t-28.5 55.5v29q0 33 28.5 55.5t83.5 22.5t83.5 -22.5t28.5 -55.5zM317 801v12q0 30 -40 30t-40 -30v-12q0 -31 40 -31t40 31z" />
    <glyph glyph-name="AE" unicode="&#xc6;" horiz-adv-x="835" 
d="M427 680h332q25 0 25 -24v-61q0 -24 -25 -24h-231v-166h214q26 0 26 -24v-57q0 -25 -26 -25h-214v-190h242q25 0 25 -23v-62q0 -24 -25 -24h-345q-25 0 -25 25v122h-183l-71 -122q-15 -25 -29 -25h-82q-13 0 -18.5 7t0.5 18l375 631q15 24 35 24zM366 400l-85 -146h119
v211q-19 -39 -34 -65z" />
    <glyph glyph-name="Ccedilla" unicode="&#xc7;" horiz-adv-x="569" 
d="M294 -45h30q41 0 64.5 -20.5t23.5 -61.5q0 -42 -23.5 -63t-64.5 -21h-119q-25 0 -25 25v20q0 24 25 24h98q19 0 19 15q0 16 -19 16h-75q-41 0 -31 33l21 76q-85 13 -122 55.5t-37 101.5v370q0 71 54.5 117t180.5 46t180.5 -46t54.5 -117v-48q0 -25 -23 -25h-83
q-25 0 -25 25v24q0 75 -102 75q-101 0 -101 -75v-322q0 -75 101 -75q102 0 102 75v38q0 25 25 25h83q23 0 23 -25v-62q0 -70 -52.5 -115.5t-172.5 -47.5z" />
    <glyph glyph-name="Egrave" unicode="&#xc8;" horiz-adv-x="512" 
d="M205 747l-72 105q-8 11 -4 18.5t17 7.5h87q22 0 34 -25l48 -98q11 -25 -12 -25h-65q-20 0 -33 17zM446 0h-352q-24 0 -24 26v628q0 26 24 26h342q25 0 25 -24v-63q0 -25 -25 -25h-231v-162h214q26 0 26 -24v-60q0 -24 -26 -24h-214v-186h241q25 0 25 -24v-63
q0 -25 -25 -25z" />
    <glyph glyph-name="Eacute" unicode="&#xc9;" horiz-adv-x="512" 
d="M446 0h-352q-24 0 -24 26v628q0 26 24 26h342q25 0 25 -24v-63q0 -25 -25 -25h-231v-162h214q26 0 26 -24v-60q0 -24 -26 -24h-214v-186h241q25 0 25 -24v-63q0 -25 -25 -25zM388 853l-73 -106q-12 -17 -32 -17h-65q-26 0 -13 25l49 98q12 25 34 25h87q13 0 17 -7t-4 -18
z" />
    <glyph glyph-name="Ecircumflex" unicode="&#xca;" horiz-adv-x="512" 
d="M256 800l-25 -45q-14 -25 -34 -25h-64q-13 0 -16.5 7t3.5 18l73 98q18 25 39 25h48q19 0 39 -25l73 -98q7 -11 3.5 -18t-16.5 -7h-64q-21 0 -34 25zM446 0h-352q-24 0 -24 26v628q0 26 24 26h342q25 0 25 -24v-63q0 -25 -25 -25h-231v-162h214q26 0 26 -24v-60
q0 -24 -26 -24h-214v-186h241q25 0 25 -24v-63q0 -25 -25 -25z" />
    <glyph glyph-name="Edieresis" unicode="&#xcb;" horiz-adv-x="512" 
d="M446 0h-352q-24 0 -24 26v628q0 26 24 26h342q25 0 25 -24v-63q0 -25 -25 -25h-231v-162h214q26 0 26 -24v-60q0 -24 -26 -24h-214v-186h241q25 0 25 -24v-63q0 -25 -25 -25zM242 850v-93q0 -25 -24 -25h-49q-24 0 -24 25v93q0 26 24 26h49q24 0 24 -26zM381 850v-93
q0 -25 -23 -25h-49q-24 0 -24 25v93q0 26 24 26h49q23 0 23 -26z" />
    <glyph glyph-name="Igrave" unicode="&#xcc;" horiz-adv-x="274" 
d="M205 654v-628q0 -26 -24 -26h-87q-24 0 -24 26v628q0 26 24 26h87q24 0 24 -26zM71 747l-72 105q-8 11 -4 18.5t17 7.5h87q22 0 34 -25l48 -98q11 -25 -12 -25h-65q-20 0 -33 17z" />
    <glyph glyph-name="Iacute" unicode="&#xcd;" horiz-adv-x="274" 
d="M205 654v-628q0 -26 -24 -26h-87q-24 0 -24 26v628q0 26 24 26h87q24 0 24 -26zM269 853l-73 -106q-12 -17 -32 -17h-65q-26 0 -13 25l49 98q12 25 34 25h87q13 0 17 -7t-4 -18z" />
    <glyph glyph-name="Icircumflex" unicode="&#xce;" horiz-adv-x="274" 
d="M205 654v-628q0 -26 -24 -26h-87q-24 0 -24 26v628q0 26 24 26h87q24 0 24 -26zM137 800l-25 -45q-14 -25 -34 -25h-64q-13 0 -16.5 7t3.5 18l73 98q18 25 39 25h48q19 0 39 -25l73 -98q7 -11 3.5 -18t-16.5 -7h-64q-21 0 -34 25z" />
    <glyph glyph-name="Idieresis" unicode="&#xcf;" horiz-adv-x="274" 
d="M205 654v-628q0 -26 -24 -26h-87q-24 0 -24 26v628q0 26 24 26h87q24 0 24 -26zM116 850v-93q0 -25 -24 -25h-49q-24 0 -24 25v93q0 26 24 26h49q24 0 24 -26zM255 850v-93q0 -25 -23 -25h-49q-24 0 -24 25v93q0 26 24 26h49q23 0 23 -26z" />
    <glyph glyph-name="Eth" unicode="&#xd0;" horiz-adv-x="615" 
d="M312 0h-221q-21 0 -21 26v266h-42q-26 0 -26 25v51q0 23 26 23h42v263q0 26 24 26h218q126 0 185 -46.5t59 -116.5v-354q0 -70 -59 -116.5t-185 -46.5zM312 568h-107v-177h90q25 0 25 -23v-51q0 -25 -25 -25h-90v-180h107q109 0 109 75v306q0 75 -109 75z" />
    <glyph glyph-name="Ntilde" unicode="&#xd1;" horiz-adv-x="625" 
d="M556 655v-630q0 -25 -24 -25h-79q-16 0 -23 12l-193 331q-34 55 -40 80v-398q0 -25 -24 -25h-79q-24 0 -24 25v630q0 25 24 25h79q15 0 21 -10l201 -345l34 -70v400q0 25 24 25h79q24 0 24 -25zM252 786q-19 0 -19 -25v-5q0 -22 -27 -22h-43q-24 0 -21 29l4 41
q4 37 28.5 57.5t59.5 20.5q30 0 58 -13l43 -21q30 -15 37 -15q9 0 13 5t6 19l1 6q4 22 27 22h43q23 0 21 -29l-3 -39q-3 -38 -26.5 -58t-56.5 -20t-64 13l-43 19q-32 15 -38 15z" />
    <glyph glyph-name="Ograve" unicode="&#xd2;" horiz-adv-x="605" 
d="M236 747l-72 105q-8 11 -4 18.5t17 7.5h87q22 0 34 -25l48 -98q11 -25 -12 -25h-65q-20 0 -33 17zM59 155v370q0 70 58.5 116.5t184.5 46.5t184.5 -46.5t58.5 -116.5v-370q0 -70 -58.5 -116.5t-184.5 -46.5t-184.5 46.5t-58.5 116.5zM410 179v322q0 75 -108 75
q-107 0 -107 -75v-322q0 -75 107 -75q108 0 108 75z" />
    <glyph glyph-name="Oacute" unicode="&#xd3;" horiz-adv-x="605" 
d="M425 853l-73 -106q-12 -17 -32 -17h-65q-26 0 -13 25l49 98q12 25 34 25h87q13 0 17 -7t-4 -18zM59 155v370q0 70 58.5 116.5t184.5 46.5t184.5 -46.5t58.5 -116.5v-370q0 -70 -58.5 -116.5t-184.5 -46.5t-184.5 46.5t-58.5 116.5zM410 179v322q0 75 -108 75
q-107 0 -107 -75v-322q0 -75 107 -75q108 0 108 75z" />
    <glyph glyph-name="Ocircumflex" unicode="&#xd4;" horiz-adv-x="605" 
d="M302 800l-25 -45q-14 -25 -34 -25h-64q-13 0 -16.5 7t3.5 18l73 98q18 25 39 25h48q19 0 39 -25l73 -98q7 -11 3.5 -18t-16.5 -7h-64q-21 0 -34 25zM59 155v370q0 70 58.5 116.5t184.5 46.5t184.5 -46.5t58.5 -116.5v-370q0 -70 -58.5 -116.5t-184.5 -46.5t-184.5 46.5
t-58.5 116.5zM410 179v322q0 75 -108 75q-107 0 -107 -75v-322q0 -75 107 -75q108 0 108 75z" />
    <glyph glyph-name="Otilde" unicode="&#xd5;" horiz-adv-x="605" 
d="M59 155v370q0 70 58.5 116.5t184.5 46.5t184.5 -46.5t58.5 -116.5v-370q0 -70 -58.5 -116.5t-184.5 -46.5t-184.5 46.5t-58.5 116.5zM410 179v322q0 75 -108 75q-107 0 -107 -75v-322q0 -75 107 -75q108 0 108 75zM242 786q-19 0 -19 -25v-5q0 -22 -27 -22h-43
q-24 0 -21 29l4 41q4 37 28.5 57.5t59.5 20.5q30 0 58 -13l43 -21q30 -15 37 -15q9 0 13 5t6 19l1 6q4 22 27 22h43q23 0 21 -29l-3 -39q-3 -38 -26.5 -58t-56.5 -20t-64 13l-43 19q-32 15 -38 15z" />
    <glyph glyph-name="Odieresis" unicode="&#xd6;" horiz-adv-x="605" 
d="M59 155v370q0 70 58.5 116.5t184.5 46.5t184.5 -46.5t58.5 -116.5v-370q0 -70 -58.5 -116.5t-184.5 -46.5t-184.5 46.5t-58.5 116.5zM410 179v322q0 75 -108 75q-107 0 -107 -75v-322q0 -75 107 -75q108 0 108 75zM281 850v-93q0 -25 -24 -25h-49q-24 0 -24 25v93
q0 26 24 26h49q24 0 24 -26zM420 850v-93q0 -25 -23 -25h-49q-24 0 -24 25v93q0 26 24 26h49q23 0 23 -26z" />
    <glyph glyph-name="multiply" unicode="&#xd7;" horiz-adv-x="541" 
d="M321 142l-71 122l-122 -70q-22 -12 -34 9l-29 51q-12 22 10 34l122 70l-71 123q-12 22 8 34l51 30q21 13 34 -10l71 -123l123 71q22 12 34 -8l29 -51q13 -23 -9 -35l-124 -71l71 -122q12 -22 -9 -34l-51 -29q-21 -12 -33 9z" />
    <glyph glyph-name="Oslash" unicode="&#xd8;" horiz-adv-x="605" 
d="M59 154v370q0 70 58.5 116.5t184.5 46.5q76 0 133 -20l9 17q15 30 34 30h28q22 0 7 -30l-24 -46q56 -42 56 -114v-370q0 -70 -58.5 -116.5t-184.5 -46.5q-77 0 -135 20l-8 -16q-15 -30 -36 -30h-26q-23 0 -8 30l23 46q-53 42 -53 113zM410 178v305l-186 -362
q27 -18 78 -18q108 0 108 75zM195 500v-299l184 357q-29 17 -77 17q-107 0 -107 -75z" />
    <glyph glyph-name="Ugrave" unicode="&#xd9;" horiz-adv-x="615" 
d="M249 747l-72 105q-8 11 -4 18.5t17 7.5h87q22 0 34 -25l48 -98q11 -25 -12 -25h-65q-20 0 -33 17zM200 654v-475q0 -75 107 -75q51 0 80 19t29 56v475q0 26 24 26h87q23 0 23 -26v-499q0 -70 -58.5 -116.5t-184.5 -46.5t-184.5 46.5t-58.5 116.5v499q0 26 25 26h87
q24 0 24 -26z" />
    <glyph glyph-name="Uacute" unicode="&#xda;" horiz-adv-x="615" 
d="M200 654v-475q0 -75 107 -75q51 0 80 19t29 56v475q0 26 24 26h87q23 0 23 -26v-499q0 -70 -58.5 -116.5t-184.5 -46.5t-184.5 46.5t-58.5 116.5v499q0 26 25 26h87q24 0 24 -26zM441 853l-73 -106q-12 -17 -32 -17h-65q-26 0 -13 25l49 98q12 25 34 25h87q13 0 17 -7
t-4 -18z" />
    <glyph glyph-name="Ucircumflex" unicode="&#xdb;" horiz-adv-x="615" 
d="M307 800l-25 -45q-14 -25 -34 -25h-64q-13 0 -16.5 7t3.5 18l73 98q18 25 39 25h48q19 0 39 -25l73 -98q7 -11 3.5 -18t-16.5 -7h-64q-21 0 -34 25zM200 654v-475q0 -75 107 -75q51 0 80 19t29 56v475q0 26 24 26h87q23 0 23 -26v-499q0 -70 -58.5 -116.5t-184.5 -46.5
t-184.5 46.5t-58.5 116.5v499q0 26 25 26h87q24 0 24 -26z" />
    <glyph glyph-name="Udieresis" unicode="&#xdc;" horiz-adv-x="615" 
d="M200 654v-475q0 -75 107 -75q51 0 80 19t29 56v475q0 26 24 26h87q23 0 23 -26v-499q0 -70 -58.5 -116.5t-184.5 -46.5t-184.5 46.5t-58.5 116.5v499q0 26 25 26h87q24 0 24 -26zM286 850v-93q0 -25 -24 -25h-49q-24 0 -24 25v93q0 26 24 26h49q24 0 24 -26zM425 850v-93
q0 -25 -23 -25h-49q-24 0 -24 25v93q0 26 24 26h49q23 0 23 -26z" />
    <glyph glyph-name="Yacute" unicode="&#xdd;" horiz-adv-x="545" 
d="M161 655l95 -228l17 -52q4 27 18 52l106 228q11 25 29 25h86q13 0 18.5 -6.5t-0.5 -18.5l-189 -395v-235q0 -25 -24 -25h-87q-25 0 -25 25v219l-190 411q-5 11 -0.5 18t17.5 7h99q20 0 30 -25zM414 853l-73 -106q-12 -17 -32 -17h-65q-26 0 -13 25l49 98q12 25 34 25h87
q13 0 17 -7t-4 -18z" />
    <glyph glyph-name="Thorn" unicode="&#xde;" horiz-adv-x="580" 
d="M205 655v-157h99q126 0 184 -46t58 -117v-85q0 -71 -58 -117t-184 -46h-99v-62q0 -25 -24 -25h-87q-24 0 -24 25v630q0 25 24 25h87q24 0 24 -25zM304 387h-99v-189h99q51 0 80 19t29 56v39q0 37 -29 56t-80 19z" />
    <glyph glyph-name="germandbls" unicode="&#xdf;" horiz-adv-x="641" 
d="M229 553v-527q0 -26 -24 -26h-83q-25 0 -25 26v366h-54q-24 0 -24 25v50q0 23 24 24l51 5h3v64q0 69 57.5 108.5t170.5 39.5q221 0 221 -148v-35q0 -62 -69 -92l-67 -29l-5 -2.5t-4.5 -2t-4.5 -2t-4.5 -2.5t-3.5 -3t-3 -4t-1.5 -4.5t-0.5 -5.5v-2q0 -19 32 -32l116 -53
q35 -16 62 -44.5t27 -65.5v-45q0 -144 -179 -144q-95 0 -132 34.5t-37 104.5v5q0 25 24 25h57q25 0 25 -25v-10q0 -51 61 -51q62 0 62 51v32q0 24 -38 40l-107 47q-82 36 -82 115v20q0 60 65 88l46 20q39 17 39 48v17q0 61 -98 61q-97 0 -97 -61z" />
    <glyph glyph-name="agrave" unicode="&#xe0;" horiz-adv-x="517" 
d="M60 349v13q0 144 202 144q201 0 201 -144v-336q0 -26 -24 -26h-75q-13 0 -17.5 6t-6.5 20l-2 21q-66 -55 -148 -55q-70 0 -107 36t-37 89v45q0 53 39.5 89.5t110.5 36.5h138v64q0 28 -16.5 42t-58.5 14t-59.5 -12.5t-17.5 -39.5v-7q0 -25 -24 -25h-74q-24 0 -24 25z
M224 96q52 0 110 43v57h-112q-27 0 -37.5 -11.5t-10.5 -33.5v-16q0 -39 50 -39zM214 577l-72 106q-8 11 -4.5 18t16.5 7h87q23 0 35 -25l48 -98q11 -25 -13 -25h-65q-20 0 -32 17z" />
    <glyph glyph-name="aacute" unicode="&#xe1;" horiz-adv-x="517" 
d="M60 349v13q0 144 202 144q201 0 201 -144v-336q0 -26 -24 -26h-75q-13 0 -17.5 6t-6.5 20l-2 21q-66 -55 -148 -55q-70 0 -107 36t-37 89v45q0 53 39.5 89.5t110.5 36.5h138v64q0 28 -16.5 42t-58.5 14t-59.5 -12.5t-17.5 -39.5v-7q0 -25 -24 -25h-74q-24 0 -24 25z
M224 96q52 0 110 43v57h-112q-27 0 -37.5 -11.5t-10.5 -33.5v-16q0 -39 50 -39zM377 683l-72 -106q-12 -17 -32 -17h-65q-24 0 -13 25l48 98q12 25 35 25h87q13 0 16.5 -7t-4.5 -18z" />
    <glyph glyph-name="acircumflex" unicode="&#xe2;" horiz-adv-x="517" 
d="M60 349v13q0 144 202 144q201 0 201 -144v-336q0 -26 -24 -26h-75q-13 0 -17.5 6t-6.5 20l-2 21q-66 -55 -148 -55q-70 0 -107 36t-37 89v45q0 53 39.5 89.5t110.5 36.5h138v64q0 28 -16.5 42t-58.5 14t-59.5 -12.5t-17.5 -39.5v-7q0 -25 -24 -25h-74q-24 0 -24 25z
M224 96q52 0 110 43v57h-112q-27 0 -37.5 -11.5t-10.5 -33.5v-16q0 -39 50 -39zM261 630l-25 -45q-14 -25 -34 -25h-64q-13 0 -16.5 7t3.5 18l73 98q18 25 39 25h48q19 0 39 -25l73 -98q7 -11 3.5 -18t-16.5 -7h-64q-21 0 -34 25z" />
    <glyph glyph-name="atilde" unicode="&#xe3;" horiz-adv-x="517" 
d="M60 349v13q0 144 202 144q201 0 201 -144v-336q0 -26 -24 -26h-75q-13 0 -17.5 6t-6.5 20l-2 21q-66 -55 -148 -55q-70 0 -107 36t-37 89v45q0 53 39.5 89.5t110.5 36.5h138v64q0 28 -16.5 42t-58.5 14t-59.5 -12.5t-17.5 -39.5v-7q0 -25 -24 -25h-74q-24 0 -24 25z
M224 96q52 0 110 43v57h-112q-27 0 -37.5 -11.5t-10.5 -33.5v-16q0 -39 50 -39zM204 607q-9 0 -13 -5t-6 -19l-1 -6q-4 -22 -26 -22h-44q-23 0 -20 29l4 42q4 37 28 57t59 20q33 0 59 -13l42 -20q32 -15 38 -15q19 0 19 24v5q0 22 27 22h43q23 0 21 -29l-3 -39
q-3 -38 -26 -58t-56 -20q-35 0 -64 13l-43 19q-34 15 -38 15z" />
    <glyph glyph-name="adieresis" unicode="&#xe4;" horiz-adv-x="517" 
d="M60 349v13q0 144 202 144q201 0 201 -144v-336q0 -26 -24 -26h-75q-13 0 -17.5 6t-6.5 20l-2 21q-66 -55 -148 -55q-70 0 -107 36t-37 89v45q0 53 39.5 89.5t110.5 36.5h138v64q0 28 -16.5 42t-58.5 14t-59.5 -12.5t-17.5 -39.5v-7q0 -25 -24 -25h-74q-24 0 -24 25z
M224 96q52 0 110 43v57h-112q-27 0 -37.5 -11.5t-10.5 -33.5v-16q0 -39 50 -39zM239 681v-93q0 -25 -23 -25h-49q-24 0 -24 25v93q0 25 24 25h49q23 0 23 -25zM379 681v-93q0 -25 -23 -25h-49q-25 0 -25 25v93q0 25 25 25h49q23 0 23 -25z" />
    <glyph glyph-name="aring" unicode="&#xe5;" horiz-adv-x="517" 
d="M60 349v13q0 144 202 144q201 0 201 -144v-336q0 -26 -24 -26h-75q-13 0 -17.5 6t-6.5 20l-2 21q-66 -55 -148 -55q-70 0 -107 36t-37 89v45q0 53 39.5 89.5t110.5 36.5h138v64q0 28 -16.5 42t-58.5 14t-59.5 -12.5t-17.5 -39.5v-7q0 -25 -24 -25h-74q-24 0 -24 25z
M224 96q52 0 110 43v57h-112q-27 0 -37.5 -11.5t-10.5 -33.5v-16q0 -39 50 -39zM374 654v-34q0 -33 -28 -54.5t-82 -21.5q-55 0 -83 21.5t-28 54.5v34q0 33 28 54.5t83 21.5q54 0 82 -21.5t28 -54.5zM304 629v15q0 30 -40 30q-41 0 -41 -30v-15q0 -30 41 -30q40 0 40 30z
" />
    <glyph glyph-name="ae" unicode="&#xe6;" horiz-adv-x="785" 
d="M741 359v-114q0 -23 -23 -23h-256v-79q0 -54 78 -54t78 55v7q0 24 25 24h69q25 0 25 -24v-12q0 -147 -197 -147q-133 0 -178 62q-79 -62 -172 -62q-71 0 -108 36t-37 89v43q0 53 40 89t111 36h138v74q0 52 -75 52q-42 0 -59.5 -12.5t-17.5 -39.5v-10q0 -24 -25 -24h-73
q-25 0 -25 24v14q0 143 202 143q95 0 135 -45q48 45 144 45q201 0 201 -147zM224 94q48 0 110 46v57h-114q-47 0 -47 -44v-19q0 -40 51 -40zM462 353v-44h156v44q0 56 -78 56t-78 -56z" />
    <glyph glyph-name="ccedilla" unicode="&#xe7;" horiz-adv-x="492" 
d="M252 -45h30q41 0 64.5 -20.5t23.5 -61.5q0 -42 -23.5 -63t-64.5 -21h-119q-25 0 -25 25v20q0 24 25 24h98q19 0 19 15q0 16 -19 16h-75q-41 0 -31 33l22 77q-128 24 -128 141v219q0 147 206 147q205 0 205 -147v-17q0 -24 -24 -24h-77q-25 0 -25 24v7q0 28 -17.5 40.5
t-59.5 12.5t-59.5 -12.5t-17.5 -40.5v-199q0 -28 17.5 -41t59.5 -13t59.5 13t17.5 41v15q0 25 25 25h77q24 0 24 -25v-25q0 -145 -198 -148z" />
    <glyph glyph-name="egrave" unicode="&#xe8;" horiz-adv-x="500" 
d="M455 359v-116q0 -23 -22 -23h-256v-74q0 -28 17.5 -41.5t60.5 -13.5t60.5 13.5t17.5 41.5v5q0 25 25 25h70q25 0 25 -25v-11q0 -148 -199 -148q-205 0 -205 148v219q0 147 206 147q200 0 200 -147zM177 352v-44h156v44q0 55 -78 55t-78 -55zM195 577l-72 106
q-8 11 -4.5 18t16.5 7h87q23 0 35 -25l48 -98q11 -25 -13 -25h-65q-20 0 -32 17z" />
    <glyph glyph-name="eacute" unicode="&#xe9;" horiz-adv-x="500" 
d="M376 683l-72 -106q-12 -17 -32 -17h-65q-24 0 -13 25l48 98q12 25 35 25h87q13 0 16.5 -7t-4.5 -18zM455 359v-116q0 -23 -22 -23h-256v-74q0 -28 17.5 -41.5t60.5 -13.5t60.5 13.5t17.5 41.5v5q0 25 25 25h70q25 0 25 -25v-11q0 -148 -199 -148q-205 0 -205 148v219
q0 147 206 147q200 0 200 -147zM177 352v-44h156v44q0 55 -78 55t-78 -55z" />
    <glyph glyph-name="ecircumflex" unicode="&#xea;" horiz-adv-x="500" 
d="M255 630l-25 -45q-14 -25 -34 -25h-64q-13 0 -16.5 7t3.5 18l73 98q18 25 39 25h48q19 0 39 -25l73 -98q7 -11 3.5 -18t-16.5 -7h-64q-21 0 -34 25zM455 359v-116q0 -23 -22 -23h-256v-74q0 -28 17.5 -41.5t60.5 -13.5t60.5 13.5t17.5 41.5v5q0 25 25 25h70q25 0 25 -25
v-11q0 -148 -199 -148q-205 0 -205 148v219q0 147 206 147q200 0 200 -147zM177 352v-44h156v44q0 55 -78 55t-78 -55z" />
    <glyph glyph-name="edieresis" unicode="&#xeb;" horiz-adv-x="500" 
d="M231 681v-93q0 -25 -23 -25h-49q-24 0 -24 25v93q0 25 24 25h49q23 0 23 -25zM371 681v-93q0 -25 -23 -25h-49q-25 0 -25 25v93q0 25 25 25h49q23 0 23 -25zM455 359v-116q0 -23 -22 -23h-256v-74q0 -28 17.5 -41.5t60.5 -13.5t60.5 13.5t17.5 41.5v5q0 25 25 25h70
q25 0 25 -25v-11q0 -148 -199 -148q-205 0 -205 148v219q0 147 206 147q200 0 200 -147zM177 352v-44h156v44q0 55 -78 55t-78 -55z" />
    <glyph glyph-name="igrave" unicode="&#xec;" horiz-adv-x="250" 
d="M190 473v-448q0 -25 -23 -25h-83q-25 0 -25 25v448q0 25 25 25h83q23 0 23 -25zM62 577l-72 106q-8 11 -4.5 18t16.5 7h87q23 0 35 -25l48 -98q11 -25 -13 -25h-65q-20 0 -32 17z" />
    <glyph glyph-name="iacute" unicode="&#xed;" horiz-adv-x="250" 
d="M257 683l-72 -106q-12 -17 -32 -17h-65q-24 0 -13 25l48 98q12 25 35 25h87q13 0 16.5 -7t-4.5 -18zM190 473v-448q0 -25 -23 -25h-83q-25 0 -25 25v448q0 25 25 25h83q23 0 23 -25z" />
    <glyph glyph-name="icircumflex" unicode="&#xee;" horiz-adv-x="250" 
d="M128 630l-25 -45q-14 -25 -34 -25h-64q-13 0 -16.5 7t3.5 18l73 98q18 25 39 25h48q19 0 39 -25l73 -98q7 -11 3.5 -18t-16.5 -7h-64q-21 0 -34 25zM190 473v-448q0 -25 -23 -25h-83q-25 0 -25 25v448q0 25 25 25h83q23 0 23 -25z" />
    <glyph glyph-name="idieresis" unicode="&#xef;" horiz-adv-x="250" 
d="M104 681v-93q0 -25 -23 -25h-49q-24 0 -24 25v93q0 25 24 25h49q23 0 23 -25zM244 681v-93q0 -25 -23 -25h-49q-25 0 -25 25v93q0 25 25 25h49q23 0 23 -25zM190 473v-448q0 -25 -23 -25h-83q-25 0 -25 25v448q0 25 25 25h83q23 0 23 -25z" />
    <glyph glyph-name="eth" unicode="&#xf0;" horiz-adv-x="568" 
d="M279 583l44 23q-16 11 -56 11h-97q-26 0 -26 25v42q0 24 26 24h97q107 0 160 -43l44 24q22 13 34 -9l9 -15q12 -19 -10 -32l-39 -22q8 -20 8 -50v-422q0 -147 -208 -147q-107 0 -161.5 39t-54.5 108v221q0 69 36.5 107.5t108.5 38.5q85 0 156 -54v82q0 6 -3 10l-35 -17
q-22 -12 -34 9l-9 15q-12 20 10 32zM350 150v197q-60 46 -115 46q-32 0 -43.5 -14.5t-11.5 -38.5v-190q0 -55 85 -55t85 55z" />
    <glyph glyph-name="ntilde" unicode="&#xf1;" horiz-adv-x="546" 
d="M84 498h77q13 0 18 -5.5t6 -18.5l2 -24q68 56 160 56q68 0 106.5 -37t38.5 -97v-346q0 -26 -25 -26h-81q-26 0 -26 26v313q0 28 -11.5 40.5t-42.5 12.5q-57 0 -116 -45v-321q0 -26 -23 -26h-83q-25 0 -25 26v448q0 24 25 24zM211 615q-9 0 -13 -5t-6 -19l-1 -6
q-4 -22 -26 -22h-44q-23 0 -20 29l4 42q4 37 28 57t59 20q33 0 59 -13l42 -20q32 -15 38 -15q19 0 19 24v5q0 22 27 22h43q23 0 21 -29l-3 -39q-3 -38 -26 -58t-56 -20q-35 0 -64 13l-43 19q-34 15 -38 15z" />
    <glyph glyph-name="ograve" unicode="&#xf2;" horiz-adv-x="530" 
d="M49 140v219q0 69 54.5 108t161.5 39t161.5 -39t54.5 -108v-219q0 -70 -54.5 -109t-161.5 -39t-161.5 39t-54.5 109zM350 151v197q0 54 -85 54t-85 -54v-197q0 -55 85 -55t85 55zM207 577l-72 106q-8 11 -4.5 18t16.5 7h87q23 0 35 -25l48 -98q11 -25 -13 -25h-65
q-20 0 -32 17z" />
    <glyph glyph-name="oacute" unicode="&#xf3;" horiz-adv-x="530" 
d="M394 683l-72 -106q-12 -17 -32 -17h-65q-24 0 -13 25l48 98q12 25 35 25h87q13 0 16.5 -7t-4.5 -18zM49 140v219q0 69 54.5 108t161.5 39t161.5 -39t54.5 -108v-219q0 -70 -54.5 -109t-161.5 -39t-161.5 39t-54.5 109zM350 151v197q0 54 -85 54t-85 -54v-197
q0 -55 85 -55t85 55z" />
    <glyph glyph-name="ocircumflex" unicode="&#xf4;" horiz-adv-x="530" 
d="M267 630l-25 -45q-14 -25 -34 -25h-64q-13 0 -16.5 7t3.5 18l73 98q18 25 39 25h48q19 0 39 -25l73 -98q7 -11 3.5 -18t-16.5 -7h-64q-21 0 -34 25zM49 140v219q0 69 54.5 108t161.5 39t161.5 -39t54.5 -108v-219q0 -70 -54.5 -109t-161.5 -39t-161.5 39t-54.5 109z
M350 151v197q0 54 -85 54t-85 -54v-197q0 -55 85 -55t85 55z" />
    <glyph glyph-name="otilde" unicode="&#xf5;" horiz-adv-x="530" 
d="M49 140v219q0 69 54.5 108t161.5 39t161.5 -39t54.5 -108v-219q0 -70 -54.5 -109t-161.5 -39t-161.5 39t-54.5 109zM350 151v197q0 54 -85 54t-85 -54v-197q0 -55 85 -55t85 55zM207 607q-9 0 -13 -5t-6 -19l-1 -6q-4 -22 -26 -22h-44q-23 0 -20 29l4 42q4 37 28 57
t59 20q33 0 59 -13l42 -20q32 -15 38 -15q19 0 19 24v5q0 22 27 22h43q23 0 21 -29l-3 -39q-3 -38 -26 -58t-56 -20q-35 0 -64 13l-43 19q-34 15 -38 15z" />
    <glyph glyph-name="odieresis" unicode="&#xf6;" horiz-adv-x="530" 
d="M245 681v-93q0 -25 -23 -25h-49q-24 0 -24 25v93q0 25 24 25h49q23 0 23 -25zM385 681v-93q0 -25 -23 -25h-49q-25 0 -25 25v93q0 25 25 25h49q23 0 23 -25zM49 140v219q0 69 54.5 108t161.5 39t161.5 -39t54.5 -108v-219q0 -70 -54.5 -109t-161.5 -39t-161.5 39
t-54.5 109zM350 151v197q0 54 -85 54t-85 -54v-197q0 -55 85 -55t85 55z" />
    <glyph glyph-name="divide" unicode="&#xf7;" horiz-adv-x="581" 
d="M84 352h412q25 0 25 -24v-60q0 -24 -25 -24h-412q-25 0 -25 24v60q0 24 25 24zM357 161v-81q0 -25 -24 -25h-85q-25 0 -25 25v81q0 25 25 25h85q24 0 24 -25zM357 517v-81q0 -25 -24 -25h-85q-25 0 -25 25v81q0 25 25 25h85q24 0 24 -25z" />
    <glyph glyph-name="oslash" unicode="&#xf8;" horiz-adv-x="530" 
d="M49 140v219q0 69 54.5 108t161.5 39q56 0 98 -11l6 10q16 30 34 30h28q23 0 6 -30l-18 -34q62 -38 62 -112v-219q0 -70 -54.5 -109t-161.5 -39q-56 0 -100 11l-4 -7q-9 -18 -15.5 -24t-21.5 -6h-25q-12 0 -12 10.5t6 19.5l17 31q-61 39 -61 113zM350 151v193l-132 -243
q16 -5 47 -5q85 0 85 55zM180 348v-192l130 240q-18 6 -45 6q-85 0 -85 -54z" />
    <glyph glyph-name="ugrave" unicode="&#xf9;" 
d="M354 25l-2 22q-62 -55 -154 -55q-67 0 -105.5 37t-38.5 97v347q0 25 24 25h82q25 0 25 -25v-314q0 -28 12 -40.5t42 -12.5q55 0 110 44v323q0 25 24 25h83q24 0 24 -25v-448q0 -25 -24 -25h-77q-13 0 -18 5.5t-7 19.5zM208 577l-72 106q-8 11 -4.5 18t16.5 7h87
q23 0 35 -25l48 -98q11 -25 -13 -25h-65q-20 0 -32 17z" />
    <glyph glyph-name="uacute" unicode="&#xfa;" 
d="M396 683l-72 -106q-12 -17 -32 -17h-65q-24 0 -13 25l48 98q12 25 35 25h87q13 0 16.5 -7t-4.5 -18zM354 25l-2 22q-62 -55 -154 -55q-67 0 -105.5 37t-38.5 97v347q0 25 24 25h82q25 0 25 -25v-314q0 -28 12 -40.5t42 -12.5q55 0 110 44v323q0 25 24 25h83q24 0 24 -25
v-448q0 -25 -24 -25h-77q-13 0 -18 5.5t-7 19.5z" />
    <glyph glyph-name="ucircumflex" unicode="&#xfb;" 
d="M257 630l-25 -45q-14 -25 -34 -25h-64q-13 0 -16.5 7t3.5 18l73 98q18 25 39 25h48q19 0 39 -25l73 -98q7 -11 3.5 -18t-16.5 -7h-64q-21 0 -34 25zM354 25l-2 22q-62 -55 -154 -55q-67 0 -105.5 37t-38.5 97v347q0 25 24 25h82q25 0 25 -25v-314q0 -28 12 -40.5
t42 -12.5q55 0 110 44v323q0 25 24 25h83q24 0 24 -25v-448q0 -25 -24 -25h-77q-13 0 -18 5.5t-7 19.5z" />
    <glyph glyph-name="udieresis" unicode="&#xfc;" 
d="M244 681v-93q0 -25 -23 -25h-49q-24 0 -24 25v93q0 25 24 25h49q23 0 23 -25zM384 681v-93q0 -25 -23 -25h-49q-25 0 -25 25v93q0 25 25 25h49q23 0 23 -25zM354 25l-2 22q-62 -55 -154 -55q-67 0 -105.5 37t-38.5 97v347q0 25 24 25h82q25 0 25 -25v-314q0 -28 12 -40.5
t42 -12.5q55 0 110 44v323q0 25 24 25h83q24 0 24 -25v-448q0 -25 -24 -25h-77q-13 0 -18 5.5t-7 19.5z" />
    <glyph glyph-name="yacute" unicode="&#xfd;" horiz-adv-x="474" 
d="M145 473l75 -229q1 -2 17 -84q18 70 21 80l79 233q4 13 9.5 19t17.5 6h76q14 0 21 -6.5t3 -18.5l-221 -649q-8 -25 -28 -25h-60q-31 0 -24 25l49 163l-169 486q-4 12 3 18.5t20 6.5h83q20 0 28 -25zM373 683l-72 -106q-12 -17 -32 -17h-65q-24 0 -13 25l48 98
q12 25 35 25h87q13 0 16.5 -7t-4.5 -18z" />
    <glyph glyph-name="thorn" unicode="&#xfe;" 
d="M190 674v-222q71 54 156 54q73 0 109.5 -38.5t36.5 -107.5v-222q0 -69 -36.5 -107.5t-109.5 -38.5q-83 0 -156 53v-221q0 -25 -23 -25h-83q-25 0 -25 25v850q0 25 25 25h82q24 0 24 -25zM360 158v182q0 53 -54 53q-56 0 -116 -46v-196q60 -46 116 -46q54 0 54 53z" />
    <glyph glyph-name="ydieresis" unicode="&#xff;" horiz-adv-x="474" 
d="M145 473l75 -229q1 -2 17 -84q18 70 21 80l79 233q4 13 9.5 19t17.5 6h76q14 0 21 -6.5t3 -18.5l-221 -649q-8 -25 -28 -25h-60q-31 0 -24 25l49 163l-169 486q-4 12 3 18.5t20 6.5h83q20 0 28 -25zM218 681v-93q0 -25 -23 -25h-49q-24 0 -24 25v93q0 25 24 25h49
q23 0 23 -25zM358 681v-93q0 -25 -23 -25h-49q-25 0 -25 25v93q0 25 25 25h49q23 0 23 -25z" />
    <glyph glyph-name="Amacron" unicode="&#x100;" horiz-adv-x="553" 
d="M233 680h87q25 0 32 -25l186 -630q8 -25 -18 -25h-90q-21 0 -29 25l-35 122h-186l-35 -122q-8 -25 -30 -25h-81q-27 0 -19 25l187 630q7 25 31 25zM336 254l-33 111q-8 26 -17.5 93t-11.5 89q-24 -157 -31 -181l-34 -112h127zM161 849h231q25 0 25 -23v-51q0 -25 -25 -25
h-231q-25 0 -25 25v51q0 23 25 23z" />
    <glyph glyph-name="amacron" unicode="&#x101;" horiz-adv-x="517" 
d="M60 349v13q0 144 202 144q201 0 201 -144v-336q0 -26 -24 -26h-75q-13 0 -17.5 6t-6.5 20l-2 21q-66 -55 -148 -55q-70 0 -107 36t-37 89v45q0 53 39.5 89.5t110.5 36.5h138v64q0 28 -16.5 42t-58.5 14t-59.5 -12.5t-17.5 -39.5v-7q0 -25 -24 -25h-74q-24 0 -24 25z
M224 96q52 0 110 43v57h-112q-27 0 -37.5 -11.5t-10.5 -33.5v-16q0 -39 50 -39zM143 671h230q25 0 25 -24v-51q0 -24 -25 -24h-230q-26 0 -26 24v51q0 24 26 24z" />
    <glyph glyph-name="Abreve" unicode="&#x102;" horiz-adv-x="553" 
d="M233 680h87q25 0 32 -25l186 -630q8 -25 -18 -25h-90q-21 0 -29 25l-35 122h-186l-35 -122q-8 -25 -30 -25h-81q-27 0 -19 25l187 630q7 25 31 25zM336 254l-33 111q-8 26 -17.5 93t-11.5 89q-24 -157 -31 -181l-34 -112h127zM232 860v-17q0 -44 45 -44t45 44v17
q0 20 22 20h50q22 0 22 -20v-14q0 -59 -36.5 -91.5t-105.5 -32.5q-136 0 -136 124v14q0 20 22 20h50q22 0 22 -20z" />
    <glyph glyph-name="abreve" unicode="&#x103;" horiz-adv-x="517" 
d="M60 349v13q0 144 202 144q201 0 201 -144v-336q0 -26 -24 -26h-75q-13 0 -17.5 6t-6.5 20l-2 21q-66 -55 -148 -55q-70 0 -107 36t-37 89v45q0 53 39.5 89.5t110.5 36.5h138v64q0 28 -16.5 42t-58.5 14t-59.5 -12.5t-17.5 -39.5v-7q0 -25 -24 -25h-74q-24 0 -24 25z
M224 96q52 0 110 43v57h-112q-27 0 -37.5 -11.5t-10.5 -33.5v-16q0 -39 50 -39zM227 685v-17q0 -44 46 -44q45 0 45 44v17q0 21 22 21h49q22 0 22 -21v-14q0 -59 -36.5 -91.5t-105.5 -32.5q-135 0 -135 124v14q0 21 22 21h49q22 0 22 -21z" />
    <glyph glyph-name="Aogonek" unicode="&#x104;" horiz-adv-x="554" 
d="M321 680q24 0 31 -25l187 -630q8 -25 -19 -25h-35q-46 0 -46 -56q0 -32 38 -32h25q25 0 25 -24v-34q0 -25 -33 -25h-55q-38 0 -68.5 20t-30.5 67q0 67 57 121l-32 110h-186l-34 -122q-8 -25 -30 -25h-82q-26 0 -18 25l187 630q7 25 31 25h88zM336 254l-33 111
q-8 28 -18 95.5t-11 85.5q-24 -156 -31 -180l-34 -112h127z" />
    <glyph glyph-name="aogonek" unicode="&#x105;" horiz-adv-x="517" 
d="M60 349v13q0 144 202 144q201 0 201 -144v-336q0 -26 -24 -26h-6q-23 -1 -34.5 -16.5t-11.5 -40.5q0 -31 38 -31h14q25 0 25 -24v-34q0 -25 -33 -25h-46q-36 0 -66.5 20.5t-30.5 66.5q0 61 52 111l-2 20q-66 -55 -148 -55q-70 0 -107 36t-37 89v45q0 53 39.5 89.5
t110.5 36.5h138v64q0 28 -16.5 42t-58.5 14t-59.5 -12.5t-17.5 -39.5v-7q0 -25 -24 -25h-74q-24 0 -24 25zM224 96q52 0 110 43v57h-112q-27 0 -37.5 -11.5t-10.5 -33.5v-16q0 -39 50 -39z" />
    <glyph glyph-name="Cacute" unicode="&#x106;" horiz-adv-x="569" 
d="M529 217v-62q0 -71 -54.5 -117t-180.5 -46t-180.5 46t-54.5 117v370q0 71 54.5 117t180.5 46t180.5 -46t54.5 -117v-48q0 -25 -23 -25h-83q-25 0 -25 25v24q0 75 -102 75q-101 0 -101 -75v-322q0 -75 101 -75q102 0 102 75v38q0 25 25 25h83q23 0 23 -25zM421 853
l-73 -106q-12 -17 -32 -17h-65q-26 0 -13 25l49 98q12 25 34 25h87q13 0 17 -7t-4 -18z" />
    <glyph glyph-name="cacute" unicode="&#x107;" horiz-adv-x="492" 
d="M381 683l-72 -106q-12 -17 -32 -17h-65q-24 0 -13 25l48 98q12 25 35 25h87q13 0 16.5 -7t-4.5 -18zM255 506q205 0 205 -147v-17q0 -24 -24 -24h-77q-25 0 -25 24v7q0 28 -17.5 40.5t-59.5 12.5t-59.5 -12.5t-17.5 -40.5v-199q0 -28 17.5 -41t59.5 -13t59.5 13t17.5 41
v15q0 25 25 25h77q24 0 24 -25v-25q0 -148 -206 -148q-205 0 -205 148v219q0 147 206 147z" />
    <glyph glyph-name="Ccircumflex" unicode="&#x108;" horiz-adv-x="569" 
d="M529 217v-62q0 -71 -54.5 -117t-180.5 -46t-180.5 46t-54.5 117v370q0 71 54.5 117t180.5 46t180.5 -46t54.5 -117v-48q0 -25 -23 -25h-83q-25 0 -25 25v24q0 75 -102 75q-101 0 -101 -75v-322q0 -75 101 -75q102 0 102 75v38q0 25 25 25h83q23 0 23 -25zM289 800
l-25 -45q-14 -25 -34 -25h-64q-13 0 -16.5 7t3.5 18l73 98q18 25 39 25h48q19 0 39 -25l73 -98q7 -11 3.5 -18t-16.5 -7h-64q-21 0 -34 25z" />
    <glyph glyph-name="ccircumflex" unicode="&#x109;" horiz-adv-x="492" 
d="M246 630l-25 -45q-14 -25 -34 -25h-64q-13 0 -16.5 7t3.5 18l73 98q18 25 39 25h48q19 0 39 -25l73 -98q7 -11 3.5 -18t-16.5 -7h-64q-21 0 -34 25zM255 506q205 0 205 -147v-17q0 -24 -24 -24h-77q-25 0 -25 24v7q0 28 -17.5 40.5t-59.5 12.5t-59.5 -12.5t-17.5 -40.5
v-199q0 -28 17.5 -41t59.5 -13t59.5 13t17.5 41v15q0 25 25 25h77q24 0 24 -25v-25q0 -148 -206 -148q-205 0 -205 148v219q0 147 206 147z" />
    <glyph glyph-name="Cdotaccent" unicode="&#x10a;" horiz-adv-x="569" 
d="M351 839v-82q0 -13 -5.5 -18.5t-18.5 -5.5h-85q-14 0 -19 5.5t-5 18.5v82q0 25 24 25h85q24 0 24 -25zM529 217v-62q0 -71 -54.5 -117t-180.5 -46t-180.5 46t-54.5 117v370q0 71 54.5 117t180.5 46t180.5 -46t54.5 -117v-48q0 -25 -23 -25h-83q-25 0 -25 25v24
q0 75 -102 75q-101 0 -101 -75v-322q0 -75 101 -75q102 0 102 75v38q0 25 25 25h83q23 0 23 -25z" />
    <glyph glyph-name="cdotaccent" unicode="&#x10b;" horiz-adv-x="492" 
d="M255 506q205 0 205 -147v-17q0 -24 -24 -24h-77q-25 0 -25 24v7q0 28 -17.5 40.5t-59.5 12.5t-59.5 -12.5t-17.5 -40.5v-199q0 -28 17.5 -41t59.5 -13t59.5 13t17.5 41v15q0 25 25 25h77q24 0 24 -25v-25q0 -148 -206 -148q-205 0 -205 148v219q0 147 206 147zM312 677
v-81q0 -25 -23 -25h-86q-24 0 -24 25v81q0 25 24 25h86q23 0 23 -25z" />
    <glyph glyph-name="Ccaron" unicode="&#x10c;" horiz-adv-x="569" 
d="M529 217v-62q0 -71 -54.5 -117t-180.5 -46t-180.5 46t-54.5 117v370q0 71 54.5 117t180.5 46t180.5 -46t54.5 -117v-48q0 -25 -23 -25h-83q-25 0 -25 25v24q0 75 -102 75q-101 0 -101 -75v-322q0 -75 101 -75q102 0 102 75v38q0 25 25 25h83q23 0 23 -25zM259 854l25 -46
l25 46q13 24 34 24h64q13 0 16.5 -7t-3.5 -17l-73 -99q-20 -25 -39 -25h-48q-19 0 -39 26l-73 98q-7 10 -3.5 17t16.5 7h64q21 0 34 -24z" />
    <glyph glyph-name="ccaron" unicode="&#x10d;" horiz-adv-x="492" 
d="M221 684l25 -46l25 46q13 24 34 24h64q13 0 16.5 -7t-3.5 -17l-73 -99q-20 -25 -39 -25h-48q-19 0 -39 26l-73 98q-7 10 -3.5 17t16.5 7h64q21 0 34 -24zM255 506q205 0 205 -147v-17q0 -24 -24 -24h-77q-25 0 -25 24v7q0 28 -17.5 40.5t-59.5 12.5t-59.5 -12.5
t-17.5 -40.5v-199q0 -28 17.5 -41t59.5 -13t59.5 13t17.5 41v15q0 25 25 25h77q24 0 24 -25v-25q0 -148 -206 -148q-205 0 -205 148v219q0 147 206 147z" />
    <glyph glyph-name="Dcaron" unicode="&#x10e;" horiz-adv-x="615" 
d="M312 0h-221q-21 0 -21 26v628q0 26 24 26h218q126 0 185 -46.5t59 -116.5v-354q0 -70 -59 -116.5t-185 -46.5zM312 568h-107v-456h107q109 0 109 75v306q0 75 -109 75zM280 854l25 -46l25 46q13 24 34 24h64q13 0 16.5 -7t-3.5 -17l-73 -99q-20 -25 -39 -25h-48
q-19 0 -39 26l-73 98q-7 10 -3.5 17t16.5 7h64q21 0 34 -24z" />
    <glyph glyph-name="dcaron" unicode="&#x10f;" horiz-adv-x="643" 
d="M547 686v30q0 25 25 25h61q24 0 24 -25v-38q0 -61 -45 -133q-11 -18 -33 -13l-46 11q-25 6 -13 33q1 3 7.5 17t7.5 16.5t5 13.5t4.5 18t1.5 18.5t1 26.5zM355 26l-2 22q-71 -56 -159 -56q-72 0 -108.5 38.5t-36.5 107.5v222q0 69 36.5 107.5t108.5 38.5q85 0 156 -54v221
q0 26 24 26h83q24 0 24 -26v-647q0 -26 -24 -26h-77q-13 0 -18 6t-7 20zM180 340v-181q0 -24 11.5 -38.5t43.5 -14.5q55 0 115 46v194q-60 46 -115 46t-55 -52z" />
    <glyph glyph-name="Dcroat" unicode="&#x110;" horiz-adv-x="615" 
d="M312 0h-221q-21 0 -21 26v266h-42q-26 0 -26 25v51q0 23 26 23h42v263q0 26 24 26h218q126 0 185 -46.5t59 -116.5v-354q0 -70 -59 -116.5t-185 -46.5zM312 568h-107v-177h90q25 0 25 -23v-51q0 -25 -25 -25h-90v-180h107q109 0 109 75v306q0 75 -109 75z" />
    <glyph glyph-name="dcroat" unicode="&#x111;" 
d="M355 26l-2 22q-71 -56 -159 -56q-72 0 -108.5 38.5t-36.5 107.5v222q0 69 36.5 107.5t108.5 38.5q85 0 156 -54v89h-93q-25 0 -25 25v43q0 23 25 23h93v41q0 26 24 26h83q24 0 24 -26v-41h27q25 0 25 -23v-43q0 -25 -25 -25h-27v-515q0 -26 -24 -26h-77q-13 0 -18 6
t-7 20zM180 340v-181q0 -24 11.5 -38.5t43.5 -14.5q55 0 115 46v194q-60 46 -115 46t-55 -52z" />
    <glyph glyph-name="Emacron" unicode="&#x112;" horiz-adv-x="512" 
d="M446 0h-352q-24 0 -24 26v628q0 26 24 26h342q25 0 25 -24v-63q0 -25 -25 -25h-231v-162h214q26 0 26 -24v-60q0 -24 -26 -24h-214v-186h241q25 0 25 -24v-63q0 -25 -25 -25zM142 849h231q25 0 25 -23v-51q0 -25 -25 -25h-231q-25 0 -25 25v51q0 23 25 23z" />
    <glyph glyph-name="emacron" unicode="&#x113;" horiz-adv-x="500" 
d="M455 359v-116q0 -23 -22 -23h-256v-74q0 -28 17.5 -41.5t60.5 -13.5t60.5 13.5t17.5 41.5v5q0 25 25 25h70q25 0 25 -25v-11q0 -148 -199 -148q-205 0 -205 148v219q0 147 206 147q200 0 200 -147zM177 352v-44h156v44q0 55 -78 55t-78 -55zM135 671h230q25 0 25 -24v-51
q0 -24 -25 -24h-230q-26 0 -26 24v51q0 24 26 24z" />
    <glyph glyph-name="Ebreve" unicode="&#x114;" horiz-adv-x="512" 
d="M446 0h-352q-24 0 -24 26v628q0 26 24 26h342q25 0 25 -24v-63q0 -25 -25 -25h-231v-162h214q26 0 26 -24v-60q0 -24 -26 -24h-214v-186h241q25 0 25 -24v-63q0 -25 -25 -25zM211 860v-17q0 -44 45 -44t45 44v17q0 20 22 20h50q22 0 22 -20v-14q0 -59 -36.5 -91.5
t-105.5 -32.5q-136 0 -136 124v14q0 20 22 20h50q22 0 22 -20z" />
    <glyph glyph-name="ebreve" unicode="&#x115;" horiz-adv-x="500" 
d="M455 359v-116q0 -23 -22 -23h-256v-74q0 -28 17.5 -41.5t60.5 -13.5t60.5 13.5t17.5 41.5v5q0 25 25 25h70q25 0 25 -25v-11q0 -148 -199 -148q-205 0 -205 148v219q0 147 206 147q200 0 200 -147zM177 352v-44h156v44q0 55 -78 55t-78 -55zM204 685v-17q0 -44 46 -44
q45 0 45 44v17q0 21 22 21h49q22 0 22 -21v-14q0 -59 -36.5 -91.5t-105.5 -32.5q-135 0 -135 124v14q0 21 22 21h49q22 0 22 -21z" />
    <glyph glyph-name="Edotaccent" unicode="&#x116;" horiz-adv-x="512" 
d="M329 839v-82q0 -13 -5.5 -18.5t-18.5 -5.5h-85q-14 0 -19 5.5t-5 18.5v82q0 25 24 25h85q24 0 24 -25zM446 0h-352q-24 0 -24 26v628q0 26 24 26h342q25 0 25 -24v-63q0 -25 -25 -25h-231v-162h214q26 0 26 -24v-60q0 -24 -26 -24h-214v-186h241q25 0 25 -24v-63
q0 -25 -25 -25z" />
    <glyph glyph-name="edotaccent" unicode="&#x117;" horiz-adv-x="500" 
d="M455 359v-116q0 -23 -22 -23h-256v-74q0 -28 17.5 -41.5t60.5 -13.5t60.5 13.5t17.5 41.5v5q0 25 25 25h70q25 0 25 -25v-11q0 -148 -199 -148q-205 0 -205 148v219q0 147 206 147q200 0 200 -147zM177 352v-44h156v44q0 55 -78 55t-78 -55z" />
    <glyph glyph-name="Eogonek" unicode="&#x118;" horiz-adv-x="512" 
d="M446 0h-29q-47 0 -47 -56q0 -32 39 -32h25q25 0 25 -24v-34q0 -25 -33 -25h-56q-38 0 -68.5 20t-30.5 67q0 45 25 84h-202q-24 0 -24 26v628q0 26 24 26h342q25 0 25 -24v-63q0 -25 -25 -25h-231v-162h214q26 0 26 -24v-60q0 -24 -26 -24h-214v-186h241q25 0 25 -24v-63
q0 -25 -25 -25z" />
    <glyph glyph-name="eogonek" unicode="&#x119;" horiz-adv-x="499" 
d="M455 359v-116q0 -23 -22 -23h-256v-74q0 -28 17.5 -41.5t60.5 -13.5t60.5 13.5t17.5 41.5v5q0 25 25 25h70q25 0 25 -25v-11q0 -63 -35 -99q-3 -3 -18.5 -17.5t-21.5 -22t-13 -24t-7 -34.5q0 -31 38 -31h26q25 0 25 -24v-34q0 -25 -33 -25h-58q-36 0 -66 19.5t-30 65.5
q0 42 21 79q-4 0 -13 -0.5t-14 -0.5q-205 0 -205 148v219q0 147 206 147q200 0 200 -147zM177 352v-44h156v44q0 55 -78 55t-78 -55z" />
    <glyph glyph-name="Ecaron" unicode="&#x11a;" horiz-adv-x="512" 
d="M446 0h-352q-24 0 -24 26v628q0 26 24 26h342q25 0 25 -24v-63q0 -25 -25 -25h-231v-162h214q26 0 26 -24v-60q0 -24 -26 -24h-214v-186h241q25 0 25 -24v-63q0 -25 -25 -25zM231 854l25 -46l25 46q13 24 34 24h64q13 0 16.5 -7t-3.5 -17l-73 -99q-20 -25 -39 -25h-48
q-19 0 -39 26l-73 98q-7 10 -3.5 17t16.5 7h64q21 0 34 -24z" />
    <glyph glyph-name="ecaron" unicode="&#x11b;" horiz-adv-x="500" 
d="M224 684l25 -46l25 46q13 24 34 24h64q13 0 16.5 -7t-3.5 -17l-73 -99q-20 -25 -39 -25h-48q-19 0 -39 26l-73 98q-7 10 -3.5 17t16.5 7h64q21 0 34 -24zM455 359v-116q0 -23 -22 -23h-256v-74q0 -28 17.5 -41.5t60.5 -13.5t60.5 13.5t17.5 41.5v5q0 25 25 25h70
q25 0 25 -25v-11q0 -148 -199 -148q-205 0 -205 148v219q0 147 206 147q200 0 200 -147zM177 352v-44h156v44q0 55 -78 55t-78 -55z" />
    <glyph glyph-name="Gcircumflex" unicode="&#x11c;" horiz-adv-x="581" 
d="M290 800l-25 -45q-14 -25 -34 -25h-64q-13 0 -16.5 7t3.5 18l73 98q18 25 39 25h48q19 0 39 -25l73 -98q7 -11 3.5 -18t-16.5 -7h-64q-21 0 -34 25zM300 357h204q25 0 25 -24v-178q0 -71 -54.5 -117t-180.5 -46t-180.5 46t-54.5 117v370q0 71 54.5 117t180.5 46
t180.5 -46t54.5 -117v-40q0 -25 -23 -25h-83q-25 0 -25 25v16q0 75 -102 75q-101 0 -101 -75v-322q0 -75 101 -75q102 0 102 74v67h-98q-26 0 -26 24v64q0 24 26 24z" />
    <glyph glyph-name="gcircumflex" unicode="&#x11d;" 
d="M270 630l-25 -45q-14 -25 -34 -25h-64q-13 0 -16.5 7t3.5 18l73 98q18 25 39 25h48q19 0 39 -25l73 -98q7 -11 3.5 -18t-16.5 -7h-64q-21 0 -34 25zM194 -8q-72 0 -108.5 38.5t-36.5 107.5v222q0 69 36.5 107.5t108.5 38.5q89 0 160 -58l2 25q2 14 6.5 19.5t17.5 5.5h77
q24 0 24 -25v-527q0 -69 -53.5 -108t-160.5 -39h-141q-25 0 -25 24v58q0 26 25 26h141q83 0 83 54v84q-73 -53 -156 -53zM180 340v-181q0 -24 11.5 -38.5t43.5 -14.5q55 0 115 46v194q-60 46 -115 46t-55 -52z" />
    <glyph glyph-name="Gbreve" unicode="&#x11e;" horiz-adv-x="581" 
d="M300 357h204q25 0 25 -24v-178q0 -71 -54.5 -117t-180.5 -46t-180.5 46t-54.5 117v370q0 71 54.5 117t180.5 46t180.5 -46t54.5 -117v-40q0 -25 -23 -25h-83q-25 0 -25 25v16q0 75 -102 75q-101 0 -101 -75v-322q0 -75 101 -75q102 0 102 74v67h-98q-26 0 -26 24v64
q0 24 26 24zM245 860v-17q0 -44 45 -44t45 44v17q0 20 22 20h50q22 0 22 -20v-14q0 -59 -36.5 -91.5t-105.5 -32.5q-136 0 -136 124v14q0 20 22 20h50q22 0 22 -20z" />
    <glyph glyph-name="gbreve" unicode="&#x11f;" 
d="M194 -8q-72 0 -108.5 38.5t-36.5 107.5v222q0 69 36.5 107.5t108.5 38.5q89 0 160 -58l2 25q2 14 6.5 19.5t17.5 5.5h77q24 0 24 -25v-527q0 -69 -53.5 -108t-160.5 -39h-141q-25 0 -25 24v58q0 26 25 26h141q83 0 83 54v84q-73 -53 -156 -53zM180 340v-181
q0 -24 11.5 -38.5t43.5 -14.5q55 0 115 46v194q-60 46 -115 46t-55 -52zM221 685v-17q0 -44 46 -44q45 0 45 44v17q0 21 22 21h49q22 0 22 -21v-14q0 -59 -36.5 -91.5t-105.5 -32.5q-135 0 -135 124v14q0 21 22 21h49q22 0 22 -21z" />
    <glyph glyph-name="Gdotaccent" unicode="&#x120;" horiz-adv-x="581" 
d="M357 835v-82q0 -13 -5.5 -18.5t-18.5 -5.5h-85q-14 0 -19 5.5t-5 18.5v82q0 25 24 25h85q24 0 24 -25zM300 353h204q25 0 25 -24v-178q0 -71 -54.5 -117t-180.5 -46t-180.5 46t-54.5 117v370q0 71 54.5 117t180.5 46t180.5 -46t54.5 -117v-40q0 -25 -23 -25h-83
q-25 0 -25 25v16q0 75 -102 75q-101 0 -101 -75v-322q0 -75 101 -75q102 0 102 74v67h-98q-26 0 -26 24v64q0 24 26 24z" />
    <glyph glyph-name="gdotaccent" unicode="&#x121;" 
d="M194 -8q-72 0 -108.5 38.5t-36.5 107.5v222q0 69 36.5 107.5t108.5 38.5q89 0 160 -58l2 25q2 14 6.5 19.5t17.5 5.5h77q24 0 24 -25v-527q0 -69 -53.5 -108t-160.5 -39h-141q-25 0 -25 24v58q0 26 25 26h141q83 0 83 54v84q-73 -53 -156 -53zM180 340v-181
q0 -24 11.5 -38.5t43.5 -14.5q55 0 115 46v194q-60 46 -115 46t-55 -52zM334 677v-81q0 -25 -23 -25h-86q-24 0 -24 25v81q0 25 24 25h86q23 0 23 -25z" />
    <glyph glyph-name="Gcommaaccent" unicode="&#x122;" horiz-adv-x="581" 
d="M241 -105v30q0 25 25 25h61q24 0 24 -25v-38q0 -61 -45 -133q-11 -18 -33 -13l-46 11q-25 6 -13 33q1 3 7.5 17t7.5 16.5t5 13.5t4.5 18t1.5 18.5t1 26.5zM300 357h204q25 0 25 -24v-178q0 -71 -54.5 -117t-180.5 -46t-180.5 46t-54.5 117v370q0 71 54.5 117t180.5 46
t180.5 -46t54.5 -117v-40q0 -25 -23 -25h-83q-25 0 -25 25v16q0 75 -102 75q-101 0 -101 -75v-322q0 -75 101 -75q102 0 102 74v67h-98q-26 0 -26 24v64q0 24 26 24z" />
    <glyph glyph-name="gcommaaccent" unicode="&#x123;" 
d="M307 623v-30q0 -25 -25 -25h-61q-24 0 -24 25v38q0 61 45 133q11 18 33 13l46 -11q25 -6 13 -33q-1 -3 -7.5 -17t-7.5 -16.5t-5 -13.5t-4.5 -18t-1.5 -18.5t-1 -26.5zM194 -8q-72 0 -108.5 38.5t-36.5 107.5v222q0 69 36.5 107.5t108.5 38.5q89 0 160 -58l2 25
q2 14 6.5 19.5t17.5 5.5h77q24 0 24 -25v-527q0 -69 -53.5 -108t-160.5 -39h-141q-25 0 -25 24v58q0 26 25 26h141q83 0 83 54v84q-73 -53 -156 -53zM180 340v-181q0 -24 11.5 -38.5t43.5 -14.5q55 0 115 46v194q-60 46 -115 46t-55 -52z" />
    <glyph glyph-name="Hcircumflex" unicode="&#x124;" horiz-adv-x="625" 
d="M205 654v-249h216v249q0 26 24 26h87q24 0 24 -26v-628q0 -26 -24 -26h-87q-24 0 -24 26v267h-216v-267q0 -26 -24 -26h-87q-24 0 -24 26v628q0 26 24 26h87q24 0 24 -26zM312 800l-25 -45q-14 -25 -34 -25h-64q-13 0 -16.5 7t3.5 18l73 98q18 25 39 25h48q19 0 39 -25
l73 -98q7 -11 3.5 -18t-16.5 -7h-64q-21 0 -34 25z" />
    <glyph glyph-name="hcircumflex" unicode="&#x125;" horiz-adv-x="546" 
d="M190 673v-219q69 52 157 52q68 0 106.5 -37t38.5 -97v-346q0 -26 -25 -26h-81q-26 0 -26 26v313q0 28 -11.5 40.5t-42.5 12.5q-57 0 -116 -45v-321q0 -26 -23 -26h-83q-25 0 -25 26v647q0 26 25 26h83q23 0 23 -26zM125 800l-25 -45q-14 -25 -34 -25h-64q-13 0 -16.5 7
t3.5 18l73 98q18 25 39 25h48q19 0 39 -25l73 -98q7 -11 3.5 -18t-16.5 -7h-64q-21 0 -34 25z" />
    <glyph glyph-name="Hbar" unicode="&#x126;" horiz-adv-x="625" 
d="M205 654v-88h216v88q0 26 24 26h87q24 0 24 -26v-88h31q25 0 25 -24v-43q0 -24 -25 -24h-31v-449q0 -26 -24 -26h-87q-24 0 -24 26v267h-216v-267q0 -26 -24 -26h-87q-24 0 -24 26v449h-32q-25 0 -25 24v43q0 24 25 24h32v88q0 26 24 26h87q24 0 24 -26zM205 405h216v70
h-216v-70z" />
    <glyph glyph-name="hbar" unicode="&#x127;" horiz-adv-x="546" 
d="M190 673v-41h91q25 0 25 -24v-43q0 -24 -25 -24h-91v-87q69 52 157 52q68 0 106.5 -37t38.5 -97v-346q0 -26 -25 -26h-81q-26 0 -26 26v313q0 28 -11.5 40.5t-42.5 12.5q-57 0 -116 -45v-321q0 -26 -23 -26h-83q-25 0 -25 26v515h-29q-25 0 -25 24v43q0 24 25 24h29v41
q0 26 25 26h83q23 0 23 -26z" />
    <glyph glyph-name="Itilde" unicode="&#x128;" horiz-adv-x="274" 
d="M205 654v-628q0 -26 -24 -26h-87q-24 0 -24 26v628q0 26 24 26h87q24 0 24 -26zM77 786q-19 0 -19 -25v-5q0 -22 -27 -22h-43q-24 0 -21 29l4 41q4 37 28.5 57.5t59.5 20.5q30 0 58 -13l43 -21q30 -15 37 -15q9 0 13 5t6 19l1 6q4 22 27 22h43q23 0 21 -29l-3 -39
q-3 -38 -26.5 -58t-56.5 -20t-64 13l-43 19q-32 15 -38 15z" />
    <glyph glyph-name="itilde" unicode="&#x129;" horiz-adv-x="250" 
d="M190 473v-448q0 -25 -23 -25h-83q-25 0 -25 25v448q0 25 25 25h83q23 0 23 -25zM65 607q-9 0 -13 -5t-6 -19l-1 -6q-4 -22 -26 -22h-44q-23 0 -20 29l4 42q4 37 28 57t59 20q33 0 59 -13l42 -20q32 -15 38 -15q19 0 19 24v5q0 22 27 22h43q23 0 21 -29l-3 -39
q-3 -38 -26 -58t-56 -20q-35 0 -64 13l-43 19q-34 15 -38 15z" />
    <glyph glyph-name="Imacron" unicode="&#x12a;" horiz-adv-x="274" 
d="M205 654v-628q0 -26 -24 -26h-87q-24 0 -24 26v628q0 26 24 26h87q24 0 24 -26zM22 849h231q25 0 25 -23v-51q0 -25 -25 -25h-231q-25 0 -25 25v51q0 23 25 23z" />
    <glyph glyph-name="imacron" unicode="&#x12b;" horiz-adv-x="250" 
d="M190 473v-448q0 -25 -23 -25h-83q-25 0 -25 25v448q0 25 25 25h83q23 0 23 -25zM10 671h230q25 0 25 -24v-51q0 -24 -25 -24h-230q-26 0 -26 24v51q0 24 26 24z" />
    <glyph glyph-name="Ibreve" unicode="&#x12c;" horiz-adv-x="274" 
d="M205 654v-628q0 -26 -24 -26h-87q-24 0 -24 26v628q0 26 24 26h87q24 0 24 -26zM92 860v-17q0 -44 45 -44t45 44v17q0 20 22 20h50q22 0 22 -20v-14q0 -59 -36.5 -91.5t-105.5 -32.5q-136 0 -136 124v14q0 20 22 20h50q22 0 22 -20z" />
    <glyph glyph-name="ibreve" unicode="&#x12d;" horiz-adv-x="250" 
d="M190 473v-448q0 -25 -23 -25h-83q-25 0 -25 25v448q0 25 25 25h83q23 0 23 -25zM79 685v-17q0 -44 46 -44q45 0 45 44v17q0 21 22 21h49q22 0 22 -21v-14q0 -59 -36.5 -91.5t-105.5 -32.5q-135 0 -135 124v14q0 21 22 21h49q22 0 22 -21z" />
    <glyph glyph-name="Iogonek" unicode="&#x12e;" horiz-adv-x="274" 
d="M205 654v-628q0 -26 -24 -26h-27q-21 0 -32 -16t-11 -40q0 -32 38 -32h25q25 0 25 -24v-34q0 -25 -33 -25h-55q-38 0 -68.5 20t-30.5 67q0 69 58 119v619q0 26 24 26h87q24 0 24 -26z" />
    <glyph glyph-name="iogonek" unicode="&#x12f;" horiz-adv-x="250" 
d="M156 -171h-56q-38 0 -68.5 20t-30.5 67q0 69 58 119v438q0 25 25 25h83q23 0 23 -25v-447q0 -26 -23 -26h-21q-46 -1 -46 -56q0 -32 39 -32h25q25 0 25 -24v-34q0 -25 -33 -25zM190 673v-86q0 -24 -23 -24h-83q-25 0 -25 24v86q0 26 25 26h83q23 0 23 -26z" />
    <glyph glyph-name="Idotaccent" unicode="&#x130;" horiz-adv-x="274" 
d="M205 654v-628q0 -26 -24 -26h-87q-24 0 -24 26v628q0 26 24 26h87q24 0 24 -26zM204 839v-82q0 -13 -5 -18.5t-19 -5.5h-85q-13 0 -18.5 5.5t-5.5 18.5v82q0 25 24 25h85q24 0 24 -25z" />
    <glyph glyph-name="dotlessi" unicode="&#x131;" horiz-adv-x="250" 
d="M190 473v-448q0 -25 -23 -25h-83q-25 0 -25 25v448q0 25 25 25h83q23 0 23 -25z" />
    <glyph glyph-name="IJ" unicode="&#x132;" horiz-adv-x="789" 
d="M205 654v-628q0 -26 -24 -26h-87q-24 0 -24 26v628q0 26 24 26h87q24 0 24 -26zM423 215v-36q0 -75 86 -75q43 0 61.5 18t18.5 57v475q0 26 24 26h87q24 0 24 -26v-499q0 -163 -215 -163q-117 0 -168 46t-51 117v60q0 25 25 25h84q24 0 24 -25z" />
    <glyph glyph-name="ij" unicode="&#x133;" horiz-adv-x="499" 
d="M190 473v-447q0 -26 -23 -26h-83q-25 0 -25 26v447q0 25 25 25h83q23 0 23 -25zM190 673v-86q0 -24 -23 -24h-83q-25 0 -25 24v86q0 26 25 26h83q23 0 23 -26zM439 673v-86q0 -24 -23 -24h-84q-24 0 -24 24v86q0 26 24 26h84q23 0 23 -26zM439 473v-527q0 -69 -53.5 -108
t-160.5 -39h-9q-25 0 -25 24v58q0 26 25 26h9q83 0 83 54v512q0 25 24 25h83q24 0 24 -25z" />
    <glyph glyph-name="Jcircumflex" unicode="&#x134;" horiz-adv-x="515" 
d="M149 215v-36q0 -75 86 -75q43 0 61.5 18t18.5 57v475q0 26 24 26h87q24 0 24 -26v-499q0 -163 -215 -163q-117 0 -168 46t-51 117v60q0 25 25 25h84q24 0 24 -25zM377 800l-25 -45q-14 -25 -34 -25h-64q-13 0 -16.5 7t3.5 18l73 98q18 25 39 25h48q19 0 39 -25l73 -98
q7 -11 3.5 -18t-16.5 -7h-64q-21 0 -34 25z" />
    <glyph glyph-name="jcircumflex" unicode="&#x135;" horiz-adv-x="250" 
d="M190 473v-527q0 -69 -53.5 -108t-160.5 -39h-9q-25 0 -25 24v57q0 26 25 26h9q83 0 83 54v513q0 25 24 25h83q24 0 24 -25zM125 630l-25 -45q-14 -25 -34 -25h-64q-13 0 -16.5 7t3.5 18l73 98q18 25 39 25h48q19 0 39 -25l73 -98q7 -11 3.5 -18t-16.5 -7h-64
q-21 0 -34 25z" />
    <glyph glyph-name="Kcommaaccent" unicode="&#x136;" horiz-adv-x="584" 
d="M237 -105v30q0 25 25 25h61q24 0 24 -25v-38q0 -61 -45 -133q-11 -18 -33 -13l-46 11q-25 6 -13 33q1 3 7.5 17t7.5 16.5t5 13.5t4.5 18t1.5 18.5t1 26.5zM335 346l235 -321q7 -9 3.5 -17t-16.5 -8h-111q-17 0 -36 25l-188 262h-17v-262q0 -25 -24 -25h-87q-24 0 -24 25
v630q0 25 24 25h87q24 0 24 -25v-269h16l178 269q16 25 40 25h93q13 0 16 -7.5t-4 -17.5z" />
    <glyph glyph-name="kcommaaccent" unicode="&#x137;" horiz-adv-x="495" 
d="M205 -105v30q0 25 25 25h61q24 0 24 -25v-38q0 -61 -45 -133q-11 -18 -33 -13l-46 11q-25 6 -13 33q1 3 7.5 17t7.5 16.5t5 13.5t4.5 18t1.5 18.5t1 26.5zM316 283l175 -258q7 -9 3.5 -17t-15.5 -8h-91q-19 0 -36 25l-140 204h-22v-204q0 -25 -23 -25h-83q-25 0 -25 25
v649q0 25 25 25h83q23 0 23 -25v-346h22l124 145q23 25 40 25h90q13 0 16.5 -8t-4.5 -17z" />
    <glyph glyph-name="kgreenlandic" unicode="&#x138;" horiz-adv-x="495" 
d="M316 282l175 -257q7 -9 3.5 -17t-15.5 -8h-91q-19 0 -36 25l-140 203h-22v-203q0 -25 -23 -25h-83q-25 0 -25 25v448q0 25 25 25h83q23 0 23 -25v-146h22l124 146q21 25 40 25h90q13 0 16.5 -8t-4.5 -17z" />
    <glyph glyph-name="Lacute" unicode="&#x139;" horiz-adv-x="477" 
d="M269 853l-73 -106q-12 -17 -32 -17h-65q-26 0 -13 25l49 98q12 25 34 25h87q13 0 17 -7t-4 -18zM205 654v-542h223q25 0 25 -24v-63q0 -25 -25 -25h-337q-21 0 -21 26v628q0 26 24 26h87q24 0 24 -26z" />
    <glyph glyph-name="lacute" unicode="&#x13a;" horiz-adv-x="250" 
d="M259 853l-73 -106q-12 -17 -32 -17h-65q-26 0 -13 25l49 98q12 25 34 25h87q13 0 17 -7t-4 -18zM190 673v-647q0 -26 -23 -26h-83q-25 0 -25 26v647q0 26 25 26h83q23 0 23 -26z" />
    <glyph glyph-name="Lcommaaccent" unicode="&#x13b;" horiz-adv-x="477" 
d="M191 -105v30q0 25 25 25h61q24 0 24 -25v-38q0 -61 -45 -133q-11 -18 -33 -13l-46 11q-25 6 -13 33q1 3 7.5 17t7.5 16.5t5 13.5t4.5 18t1.5 18.5t1 26.5zM205 654v-542h223q25 0 25 -24v-63q0 -25 -25 -25h-337q-21 0 -21 26v628q0 26 24 26h87q24 0 24 -26z" />
    <glyph glyph-name="lcommaaccent" unicode="&#x13c;" horiz-adv-x="250" 
d="M70 -106v30q0 25 25 25h61q24 0 24 -25v-38q0 -61 -45 -133q-11 -18 -33 -13l-46 11q-25 6 -13 33q1 3 7.5 17t7.5 16.5t5 13.5t4.5 18t1.5 18.5t1 26.5zM190 673v-647q0 -26 -23 -26h-83q-25 0 -25 26v647q0 26 25 26h83q23 0 23 -26z" />
    <glyph glyph-name="Lcaron" unicode="&#x13d;" horiz-adv-x="477" 
d="M320 683v30q0 25 25 25h61q24 0 24 -25v-38q0 -61 -45 -133q-11 -18 -33 -13l-46 11q-25 6 -13 33q1 3 7.5 17t7.5 16.5t5 13.5t4.5 18t1.5 18.5t1 26.5zM205 654v-542h223q25 0 25 -24v-63q0 -25 -25 -25h-337q-21 0 -21 26v628q0 26 24 26h87q24 0 24 -26z" />
    <glyph glyph-name="lcaron" unicode="&#x13e;" horiz-adv-x="353" 
d="M257 686v30q0 25 25 25h61q24 0 24 -25v-38q0 -61 -45 -133q-11 -18 -33 -13l-46 11q-25 6 -13 33q1 3 7.5 17t7.5 16.5t5 13.5t4.5 18t1.5 18.5t1 26.5zM190 673v-647q0 -26 -23 -26h-83q-25 0 -25 26v647q0 26 25 26h83q23 0 23 -26z" />
    <glyph glyph-name="Ldot" unicode="&#x13f;" horiz-adv-x="477" 
d="M205 654v-542h223q25 0 25 -24v-63q0 -25 -25 -25h-337q-21 0 -21 26v628q0 26 24 26h87q24 0 24 -26zM437 393v-81q0 -25 -24 -25h-85q-25 0 -25 25v81q0 25 25 25h85q24 0 24 -25z" />
    <glyph glyph-name="ldot" unicode="&#x140;" horiz-adv-x="382" 
d="M190 673v-647q0 -26 -23 -26h-83q-25 0 -25 26v647q0 26 25 26h83q23 0 23 -26zM377 393v-81q0 -25 -24 -25h-85q-25 0 -25 25v81q0 25 25 25h85q24 0 24 -25z" />
    <glyph glyph-name="Lslash" unicode="&#x141;" horiz-adv-x="477" 
d="M205 654v-241l40 16q23 10 33 -14l12 -28q9 -21 -14 -31l-71 -29v-215h223q25 0 25 -24v-63q0 -25 -25 -25h-337q-21 0 -21 26v247l-27 -11q-23 -8 -32 13l-12 29q-9 23 14 31l57 23v296q0 26 24 26h87q24 0 24 -26z" />
    <glyph glyph-name="lslash" unicode="&#x142;" horiz-adv-x="280" 
d="M204 673v-259l37 15q22 9 32 -14l13 -28q9 -20 -15 -31l-67 -27v-303q0 -26 -23 -26h-83q-25 0 -25 26v250l-35 -14q-22 -9 -32 13l-12 29q-8 22 14 31l65 26v312q0 26 25 26h83q23 0 23 -26z" />
    <glyph glyph-name="Nacute" unicode="&#x143;" horiz-adv-x="625" 
d="M556 655v-630q0 -25 -24 -25h-79q-16 0 -23 12l-193 331q-34 55 -40 80v-398q0 -25 -24 -25h-79q-24 0 -24 25v630q0 25 24 25h79q15 0 21 -10l201 -345l11.5 -22.5l11 -21.5t8 -17t3.5 -9v400q0 25 24 25h79q24 0 24 -25zM448 853l-73 -106q-12 -17 -32 -17h-65
q-26 0 -13 25l49 98q12 25 34 25h87q13 0 17 -7t-4 -18z" />
    <glyph glyph-name="nacute" unicode="&#x144;" horiz-adv-x="546" 
d="M405 683l-72 -106q-12 -17 -32 -17h-65q-24 0 -13 25l48 98q12 25 35 25h87q13 0 16.5 -7t-4.5 -18zM84 498h77q13 0 18 -5.5t6 -18.5l2 -24q68 56 160 56q68 0 106.5 -37t38.5 -97v-346q0 -26 -25 -26h-81q-26 0 -26 26v313q0 28 -11.5 40.5t-42.5 12.5q-57 0 -116 -45
v-321q0 -26 -23 -26h-83q-25 0 -25 26v448q0 24 25 24z" />
    <glyph glyph-name="Ncommaaccent" unicode="&#x145;" horiz-adv-x="625" 
d="M556 655v-630q0 -25 -24 -25h-79q-16 0 -23 12l-193 331q-34 55 -40 80v-398q0 -25 -24 -25h-79q-24 0 -24 25v630q0 25 24 25h79q15 0 21 -10l201 -345l11.5 -22.5l11 -21.5t8 -17t3.5 -9v400q0 25 24 25h79q24 0 24 -25zM265 -106v30q0 25 25 25h61q24 0 24 -25v-38
q0 -61 -45 -133q-11 -18 -33 -13l-46 11q-25 6 -13 33q1 3 7.5 17t7.5 16.5t5 13.5t4.5 18t1.5 18.5t1 26.5z" />
    <glyph glyph-name="ncommaaccent" unicode="&#x146;" horiz-adv-x="546" 
d="M220 -105v30q0 25 25 25h61q24 0 24 -25v-38q0 -61 -45 -133q-11 -18 -33 -13l-46 11q-25 6 -13 33q1 3 7.5 17t7.5 16.5t5 13.5t4.5 18t1.5 18.5t1 26.5zM84 498h77q13 0 18 -5.5t6 -18.5l2 -24q68 56 160 56q68 0 106.5 -37t38.5 -97v-346q0 -26 -25 -26h-81
q-26 0 -26 26v313q0 28 -11.5 40.5t-42.5 12.5q-57 0 -116 -45v-321q0 -26 -23 -26h-83q-25 0 -25 26v448q0 24 25 24z" />
    <glyph glyph-name="Ncaron" unicode="&#x147;" horiz-adv-x="625" 
d="M556 655v-630q0 -25 -24 -25h-79q-16 0 -23 12l-193 331q-34 55 -40 80v-398q0 -25 -24 -25h-79q-24 0 -24 25v630q0 25 24 25h79q15 0 21 -10l201 -345l34 -70v400q0 25 24 25h79q24 0 24 -25zM287 854l25 -46l25 46q13 24 34 24h64q13 0 16.5 -7t-3.5 -17l-73 -99
q-20 -25 -39 -25h-48q-19 0 -39 26l-73 98q-7 10 -3.5 17t16.5 7h64q21 0 34 -24z" />
    <glyph glyph-name="ncaron" unicode="&#x148;" horiz-adv-x="546" 
d="M247 684l25 -46l25 46q13 24 34 24h64q13 0 16.5 -7t-3.5 -17l-73 -99q-20 -25 -39 -25h-48q-19 0 -39 26l-73 98q-7 10 -3.5 17t16.5 7h64q21 0 34 -24zM84 498h77q13 0 18 -5.5t6 -18.5l2 -24q68 56 160 56q68 0 106.5 -37t38.5 -97v-346q0 -26 -25 -26h-81
q-26 0 -26 26v313q0 28 -11.5 40.5t-42.5 12.5q-57 0 -116 -45v-321q0 -26 -23 -26h-83q-25 0 -25 26v448q0 24 25 24z" />
    <glyph glyph-name="napostrophe" unicode="&#x149;" horiz-adv-x="546" 
d="M52 686v30q0 25 25 25h61q24 0 24 -25v-38q0 -61 -45 -133q-11 -18 -33 -13l-46 11q-25 6 -13 33q1 3 7.5 17t7.5 16.5t5 13.5t4.5 18t1.5 18.5t1 26.5zM84 498h77q13 0 18 -5.5t6 -18.5l2 -24q68 56 160 56q68 0 106.5 -37t38.5 -97v-346q0 -26 -25 -26h-81
q-26 0 -26 26v313q0 28 -11.5 40.5t-42.5 12.5q-57 0 -116 -45v-321q0 -26 -23 -26h-83q-25 0 -25 26v448q0 24 25 24z" />
    <glyph glyph-name="Eng" unicode="&#x14a;" horiz-adv-x="625" 
d="M556 655v-709q0 -69 -52 -108t-159 -39h-9q-25 0 -25 24v57q0 26 25 26h9q84 0 84 54v54l-192 329q-34 56 -40 81v-399q0 -25 -24 -25h-79q-24 0 -24 25v630q0 25 24 25h79q15 0 21 -10l201 -345l34 -70v400q0 25 24 25h79q24 0 24 -25z" />
    <glyph glyph-name="eng" unicode="&#x14b;" horiz-adv-x="546" 
d="M84 498h77q23 0 24 -24l2 -24q68 56 160 56q68 0 106.5 -37t38.5 -97v-426q0 -69 -54 -108t-161 -39h-9q-25 0 -25 24v57q0 26 25 26h9q83 0 83 54v380q0 28 -12 40.5t-42 12.5q-57 0 -116 -45v-323q0 -25 -23 -25h-83q-25 0 -25 25v449q0 24 25 24z" />
    <glyph glyph-name="Omacron" unicode="&#x14c;" horiz-adv-x="605" 
d="M59 155v370q0 70 58.5 116.5t184.5 46.5t184.5 -46.5t58.5 -116.5v-370q0 -70 -58.5 -116.5t-184.5 -46.5t-184.5 46.5t-58.5 116.5zM410 179v322q0 75 -108 75q-107 0 -107 -75v-322q0 -75 107 -75q108 0 108 75zM187 849h231q25 0 25 -23v-51q0 -25 -25 -25h-231
q-25 0 -25 25v51q0 23 25 23z" />
    <glyph glyph-name="omacron" unicode="&#x14d;" horiz-adv-x="530" 
d="M150 671h230q25 0 25 -24v-51q0 -24 -25 -24h-230q-26 0 -26 24v51q0 24 26 24zM49 140v219q0 69 54.5 108t161.5 39t161.5 -39t54.5 -108v-219q0 -70 -54.5 -109t-161.5 -39t-161.5 39t-54.5 109zM350 151v197q0 54 -85 54t-85 -54v-197q0 -55 85 -55t85 55z" />
    <glyph glyph-name="Obreve" unicode="&#x14e;" horiz-adv-x="605" 
d="M59 155v370q0 70 58.5 116.5t184.5 46.5t184.5 -46.5t58.5 -116.5v-370q0 -70 -58.5 -116.5t-184.5 -46.5t-184.5 46.5t-58.5 116.5zM410 179v322q0 75 -108 75q-107 0 -107 -75v-322q0 -75 107 -75q108 0 108 75zM257 860v-17q0 -44 45 -44t45 44v17q0 20 22 20h50
q22 0 22 -20v-14q0 -59 -36.5 -91.5t-105.5 -32.5q-136 0 -136 124v14q0 20 22 20h50q22 0 22 -20z" />
    <glyph glyph-name="obreve" unicode="&#x14f;" horiz-adv-x="530" 
d="M49 140v219q0 69 54.5 108t161.5 39t161.5 -39t54.5 -108v-219q0 -70 -54.5 -109t-161.5 -39t-161.5 39t-54.5 109zM350 151v197q0 54 -85 54t-85 -54v-197q0 -55 85 -55t85 55zM218 685v-17q0 -44 46 -44q45 0 45 44v17q0 21 22 21h49q22 0 22 -21v-14
q0 -59 -36.5 -91.5t-105.5 -32.5q-135 0 -135 124v14q0 21 22 21h49q22 0 22 -21z" />
    <glyph glyph-name="Ohungarumlaut" unicode="&#x150;" horiz-adv-x="605" 
d="M493 853l-69 -99q-16 -24 -37 -24h-61q-13 0 -16.5 7t3.5 18l57 98q14 25 38 25h73q13 0 16.5 -7t-4.5 -18zM333 853l-55 -98q-13 -25 -33 -25h-61q-13 0 -17.5 7t0.5 18l42 98q11 25 34 25h73q13 0 18 -7t-1 -18zM59 155v370q0 70 58.5 116.5t184.5 46.5t184.5 -46.5
t58.5 -116.5v-370q0 -70 -58.5 -116.5t-184.5 -46.5t-184.5 46.5t-58.5 116.5zM410 179v322q0 75 -108 75q-107 0 -107 -75v-322q0 -75 107 -75q108 0 108 75z" />
    <glyph glyph-name="ohungarumlaut" unicode="&#x151;" horiz-adv-x="530" 
d="M468 683l-70 -99q-17 -24 -37 -24h-61q-13 0 -16.5 7t3.5 18l57 98q14 25 38 25h73q13 0 16.5 -7.5t-3.5 -17.5zM307 683l-55 -98q-13 -25 -33 -25h-61q-27 0 -17 25l42 98q11 25 34 25h73q13 0 18 -7.5t-1 -17.5zM49 140v219q0 69 54.5 108t161.5 39t161.5 -39
t54.5 -108v-219q0 -70 -54.5 -109t-161.5 -39t-161.5 39t-54.5 109zM350 151v197q0 54 -85 54t-85 -54v-197q0 -55 85 -55t85 55z" />
    <glyph glyph-name="OE" unicode="&#x152;" horiz-adv-x="852" 
d="M59 155v370q0 70 58.5 116.5t184.5 46.5q58 0 109 -22q5 14 24 14h341q26 0 26 -24v-63q0 -24 -26 -24h-231v-163h215q25 0 25 -24v-59q0 -24 -25 -24h-215v-188h242q25 0 25 -24v-63q0 -24 -25 -24h-353q-20 0 -23 14q-47 -22 -109 -22q-126 0 -184.5 46.5t-58.5 116.5z
M410 174v328q0 75 -108 75t-108 -75v-324q0 -75 108 -75q50 0 78.5 18t29.5 53z" />
    <glyph glyph-name="oe" unicode="&#x153;" horiz-adv-x="801" 
d="M49 139v220q0 69 54.5 108t161.5 39q96 0 142 -34q51 34 149 34q201 0 201 -147v-114q0 -23 -23 -23h-256v-78q0 -55 78 -55t78 55v7q0 24 25 24h69q25 0 25 -24v-12q0 -147 -197 -147q-97 0 -149 33q-47 -33 -142 -33q-107 0 -161.5 39t-54.5 108zM350 150v198
q0 55 -85 55t-85 -55v-198q0 -55 85 -55t85 55zM478 353v-44h156v44q0 56 -78 56t-78 -56z" />
    <glyph glyph-name="Racute" unicode="&#x154;" horiz-adv-x="600" 
d="M205 259v-233q0 -26 -24 -26h-87q-24 0 -24 26v628q0 26 24 26h210q126 0 184 -46t58 -117v-95q0 -104 -110 -144l108 -252q5 -12 -2 -19t-21 -7h-88q-5 0 -8.5 1.5t-6.5 6t-4.5 7.5l-5.5 11l-98 233h-105zM304 568h-99v-197h99q108 0 108 75v47q0 75 -108 75zM395 853
l-73 -106q-12 -17 -32 -17h-65q-26 0 -13 25l49 98q12 25 34 25h87q13 0 17 -7t-4 -18z" />
    <glyph glyph-name="racute" unicode="&#x155;" horiz-adv-x="371" 
d="M297 683l-72 -106q-12 -17 -32 -17h-65q-24 0 -13 25l48 98q12 25 35 25h87q13 0 16.5 -7t-4.5 -18zM334 506q26 0 26 -24v-64q0 -25 -26 -26q-86 -6 -144 -59v-307q0 -26 -23 -26h-83q-25 0 -25 26v448q0 24 25 24h77q13 0 18 -5.5t6 -18.5l3 -35q62 67 146 67z" />
    <glyph glyph-name="Rcommaaccent" unicode="&#x156;" horiz-adv-x="600" 
d="M205 259v-233q0 -26 -24 -26h-87q-24 0 -24 26v628q0 26 24 26h210q126 0 184 -46t58 -117v-95q0 -104 -110 -144l108 -252q5 -12 -2 -19t-21 -7h-88q-5 0 -8.5 1.5t-6.5 6t-4.5 7.5l-5.5 11l-98 233h-105zM304 568h-99v-197h99q108 0 108 75v47q0 75 -108 75zM245 -105
v30q0 25 25 25h61q24 0 24 -25v-38q0 -61 -45 -133q-11 -18 -33 -13l-46 11q-25 6 -13 33q1 3 7.5 17t7.5 16.5t5 13.5t4.5 18t1.5 18.5t1 26.5z" />
    <glyph glyph-name="rcommaaccent" unicode="&#x157;" horiz-adv-x="371" 
d="M71 -105v30q0 25 25 25h61q24 0 24 -25v-38q0 -61 -45 -133q-11 -18 -33 -13l-46 11q-25 6 -13 33q1 3 7.5 17t7.5 16.5t5 13.5t4.5 18t1.5 18.5t1 26.5zM334 506q26 0 26 -24v-64q0 -25 -26 -26q-86 -6 -144 -59v-307q0 -26 -23 -26h-83q-25 0 -25 26v448q0 24 25 24h77
q13 0 18 -5.5t6 -18.5l3 -35q62 67 146 67z" />
    <glyph glyph-name="Rcaron" unicode="&#x158;" horiz-adv-x="600" 
d="M205 259v-233q0 -26 -24 -26h-87q-24 0 -24 26v628q0 26 24 26h210q126 0 184 -46t58 -117v-95q0 -104 -110 -144l108 -252q5 -12 -2 -19t-21 -7h-88q-5 0 -8.5 1.5t-6.5 6t-4.5 7.5l-5.5 11l-98 233h-105zM304 568h-99v-197h99q108 0 108 75v47q0 75 -108 75zM265 854
l25 -46l25 46q13 24 34 24h64q13 0 16.5 -7t-3.5 -17l-73 -99q-20 -25 -39 -25h-48q-19 0 -39 26l-73 98q-7 10 -3.5 17t16.5 7h64q21 0 34 -24z" />
    <glyph glyph-name="rcaron" unicode="&#x159;" horiz-adv-x="371" 
d="M160 684l25 -46l25 46q13 24 34 24h64q13 0 16.5 -7t-3.5 -17l-73 -99q-20 -25 -39 -25h-48q-19 0 -39 26l-73 98q-7 10 -3.5 17t16.5 7h64q21 0 34 -24zM334 506q26 0 26 -24v-64q0 -25 -26 -26q-86 -6 -144 -59v-307q0 -26 -23 -26h-83q-25 0 -25 26v448q0 24 25 24h77
q13 0 18 -5.5t6 -18.5l3 -35q62 67 146 67z" />
    <glyph glyph-name="Sacute" unicode="&#x15a;" horiz-adv-x="572" 
d="M389 484v23q0 72 -97 72q-98 0 -98 -72v-15q0 -39 41 -54l174 -62q118 -42 118 -144v-77q0 -71 -56.5 -117t-181.5 -46q-124 0 -181.5 46.5t-57.5 116.5v63q0 26 24 26h84q24 0 24 -26v-45q0 -72 106 -72t106 72v32q0 19 -13.5 34t-28 22t-43.5 18l-155 58
q-38 14 -64.5 50t-26.5 79v59q0 71 53 117t174 46q122 0 176.5 -46t54.5 -117v-41q0 -25 -25 -25h-84q-23 0 -23 25zM417 853l-73 -106q-12 -17 -32 -17h-65q-26 0 -13 25l49 98q12 25 34 25h87q13 0 17 -7t-4 -18z" />
    <glyph glyph-name="sacute" unicode="&#x15b;" horiz-adv-x="472" 
d="M371 683l-72 -106q-12 -17 -32 -17h-65q-24 0 -13 25l48 98q12 25 35 25h87q13 0 16.5 -7t-4.5 -18zM314 354v19q0 41 -73 41q-72 0 -72 -41v-11q0 -24 31 -35l144 -51q96 -34 96 -104v-51q0 -54 -50.5 -91.5t-151.5 -37.5t-150.5 37.5t-49.5 91.5v23q0 23 23 23h74
q23 0 23 -23v-17q0 -42 80 -42q81 0 81 42v17q0 12 -10 20.5t-35 17.5l-145 53q-31 12 -55 41.5t-24 64.5v32q0 55 46 94t146 39q99 0 145 -39t46 -94v-19q0 -13 -5 -18t-18 -5h-74q-22 0 -22 23z" />
    <glyph glyph-name="Scircumflex" unicode="&#x15c;" horiz-adv-x="572" 
d="M389 484v23q0 72 -97 72q-98 0 -98 -72v-15q0 -39 41 -54l174 -62q118 -42 118 -144v-77q0 -71 -56.5 -117t-181.5 -46q-124 0 -181.5 46.5t-57.5 116.5v63q0 26 24 26h84q24 0 24 -26v-45q0 -72 106 -72t106 72v32q0 19 -13.5 34t-28 22t-43.5 18l-155 58
q-38 14 -64.5 50t-26.5 79v59q0 71 53 117t174 46q122 0 176.5 -46t54.5 -117v-41q0 -25 -25 -25h-84q-23 0 -23 25zM285 800l-25 -45q-14 -25 -34 -25h-64q-13 0 -16.5 7t3.5 18l73 98q18 25 39 25h48q19 0 39 -25l73 -98q7 -11 3.5 -18t-16.5 -7h-64q-21 0 -34 25z" />
    <glyph glyph-name="scircumflex" unicode="&#x15d;" horiz-adv-x="472" 
d="M236 630l-25 -45q-14 -25 -34 -25h-64q-13 0 -16.5 7t3.5 18l73 98q18 25 39 25h48q19 0 39 -25l73 -98q7 -11 3.5 -18t-16.5 -7h-64q-21 0 -34 25zM314 354v19q0 41 -73 41q-72 0 -72 -41v-11q0 -24 31 -35l144 -51q96 -34 96 -104v-51q0 -54 -50.5 -91.5t-151.5 -37.5
t-150.5 37.5t-49.5 91.5v23q0 23 23 23h74q23 0 23 -23v-17q0 -42 80 -42q81 0 81 42v17q0 12 -10 20.5t-35 17.5l-145 53q-31 12 -55 41.5t-24 64.5v32q0 55 46 94t146 39q99 0 145 -39t46 -94v-19q0 -13 -5 -18t-18 -5h-74q-22 0 -22 23z" />
    <glyph glyph-name="Scedilla" unicode="&#x15e;" horiz-adv-x="572" 
d="M317 -45h30q41 0 64.5 -20.5t23.5 -61.5q0 -42 -23.5 -63t-64.5 -21h-119q-25 0 -25 25v20q0 24 25 24h98q19 0 19 15q0 16 -19 16h-75q-41 0 -31 33l20 73q-99 8 -144.5 52.5t-45.5 107.5v63q0 26 24 26h84q24 0 24 -26v-45q0 -72 106 -72t106 72v32q0 19 -13.5 34
t-28 22t-43.5 18l-155 58q-38 14 -64.5 50t-26.5 79v59q0 71 53 117t174 46q122 0 176.5 -46t54.5 -117v-41q0 -25 -25 -25h-84q-23 0 -23 25v23q0 72 -97 72q-98 0 -98 -72v-15q0 -39 41 -54l174 -62q118 -42 118 -144v-77q0 -65 -48 -109.5t-152 -51.5z" />
    <glyph glyph-name="scedilla" unicode="&#x15f;" horiz-adv-x="472" 
d="M249 -45h30q41 0 64.5 -20.5t23.5 -61.5q0 -42 -23.5 -63t-64.5 -21h-119q-25 0 -25 25v20q0 24 25 24h98q19 0 19 15q0 16 -19 16h-75q-41 0 -31 33l21 75q-68 11 -101.5 45.5t-33.5 78.5v23q0 23 23 23h74q23 0 23 -23v-17q0 -42 80 -42q81 0 81 42v17q0 12 -10 20.5
t-35 17.5l-145 53q-31 12 -55 41.5t-24 64.5v32q0 55 46 94t146 39q99 0 145 -39t46 -94v-19q0 -13 -5 -18t-18 -5h-74q-22 0 -22 23v19q0 41 -73 41q-72 0 -72 -41v-11q0 -24 31 -35l144 -51q96 -34 96 -104v-51q0 -50 -45 -87t-136 -41z" />
    <glyph glyph-name="Scaron" unicode="&#x160;" horiz-adv-x="572" 
d="M389 484v23q0 72 -97 72q-98 0 -98 -72v-15q0 -39 41 -54l174 -62q118 -42 118 -144v-77q0 -71 -56.5 -117t-181.5 -46q-124 0 -181.5 46.5t-57.5 116.5v63q0 26 24 26h84q24 0 24 -26v-45q0 -72 106 -72t106 72v32q0 19 -13.5 34t-28 22t-43.5 18l-155 58
q-38 14 -64.5 50t-26.5 79v59q0 71 53 117t174 46q122 0 176.5 -46t54.5 -117v-41q0 -25 -25 -25h-84q-23 0 -23 25zM262 854l25 -46l25 46q13 24 34 24h64q13 0 16.5 -7t-3.5 -17l-73 -99q-20 -25 -39 -25h-48q-19 0 -39 26l-73 98q-7 10 -3.5 17t16.5 7h64q21 0 34 -24z
" />
    <glyph glyph-name="scaron" unicode="&#x161;" horiz-adv-x="472" 
d="M215 684l25 -46l25 46q13 24 34 24h64q13 0 16.5 -7t-3.5 -17l-73 -99q-20 -25 -39 -25h-48q-19 0 -39 26l-73 98q-7 10 -3.5 17t16.5 7h64q21 0 34 -24zM314 354v19q0 41 -73 41q-72 0 -72 -41v-11q0 -24 31 -35l144 -51q96 -34 96 -104v-51q0 -54 -50.5 -91.5
t-151.5 -37.5t-150.5 37.5t-49.5 91.5v23q0 23 23 23h74q23 0 23 -23v-17q0 -42 80 -42q81 0 81 42v17q0 12 -10 20.5t-35 17.5l-145 53q-31 12 -55 41.5t-24 64.5v32q0 55 46 94t146 39q99 0 145 -39t46 -94v-19q0 -13 -5 -18t-18 -5h-74q-22 0 -22 23z" />
    <glyph glyph-name="Tcommaaccent" unicode="&#x162;" horiz-adv-x="492" 
d="M191 -105v30q0 25 25 25h61q24 0 24 -25v-38q0 -61 -45 -133q-11 -18 -33 -13l-46 11q-25 6 -13 33q1 3 7.5 17t7.5 16.5t5 13.5t4.5 18t1.5 18.5t1 26.5zM36 680h420q25 0 25 -24v-63q0 -25 -25 -25h-142v-542q0 -26 -24 -26h-87q-25 0 -25 26v542h-142q-25 0 -25 25v63
q0 24 25 24z" />
    <glyph glyph-name="tcommaaccent" unicode="&#x163;" horiz-adv-x="363" 
d="M108 -106v30q0 25 25 25h61q24 0 24 -25v-38q0 -61 -45 -133q-11 -18 -33 -13l-46 11q-25 6 -13 33q1 3 7.5 17t7.5 16.5t5 13.5t4.5 18t1.5 18.5t1 26.5zM220 496h91q25 0 25 -23v-56q0 -25 -25 -25h-91v-230q0 -54 80 -54h22q25 0 25 -25v-58q0 -25 -25 -25h-42
q-107 0 -149.5 35.5t-42.5 112.5v244h-49q-24 0 -24 25v50q0 12 5.5 17t18.5 7l46 5h3v96q0 25 25 25h83q24 0 24 -25v-96z" />
    <glyph glyph-name="Tcaron" unicode="&#x164;" horiz-adv-x="492" 
d="M36 680h420q25 0 25 -24v-63q0 -25 -25 -25h-142v-542q0 -26 -24 -26h-87q-25 0 -25 26v542h-142q-25 0 -25 25v63q0 24 25 24zM221 854l25 -46l25 46q13 24 34 24h64q13 0 16.5 -7t-3.5 -17l-73 -99q-20 -25 -39 -25h-48q-19 0 -39 26l-73 98q-7 10 -3.5 17t16.5 7h64
q21 0 34 -24z" />
    <glyph glyph-name="tcaron" unicode="&#x165;" horiz-adv-x="403" 
d="M287 684v30q0 25 25 25h61q24 0 24 -25v-38q0 -61 -45 -133q-11 -18 -33 -13l-46 11q-25 6 -13 33q1 3 7.5 17t7.5 16.5t5 13.5t4.5 18t1.5 18.5t1 26.5zM220 496h91q25 0 25 -23v-56q0 -25 -25 -25h-91v-230q0 -54 80 -54h22q25 0 25 -25v-58q0 -25 -25 -25h-42
q-107 0 -149.5 35.5t-42.5 112.5v244h-49q-24 0 -24 25v50q0 12 5.5 17t18.5 7l46 5h3v96q0 25 25 25h83q24 0 24 -25v-96z" />
    <glyph glyph-name="Tbar" unicode="&#x166;" horiz-adv-x="492" 
d="M36 680h420q25 0 25 -24v-63q0 -25 -25 -25h-142v-145h106q25 0 25 -23v-43q0 -25 -25 -25h-106v-306q0 -26 -24 -26h-87q-25 0 -25 26v306h-103q-25 0 -25 25v43q0 23 25 23h103v145h-142q-25 0 -25 25v63q0 24 25 24z" />
    <glyph glyph-name="tbar" unicode="&#x167;" horiz-adv-x="363" 
d="M220 496h91q25 0 25 -23v-56q0 -25 -25 -25h-91v-67h91q25 0 25 -23v-43q0 -25 -25 -25h-91v-72q0 -54 80 -54h22q25 0 25 -25v-58q0 -25 -25 -25h-42q-107 0 -149.5 35.5t-42.5 112.5v86h-48q-25 0 -25 25v43q0 23 25 23h48v67h-49q-24 0 -24 25v50q0 12 5.5 17t18.5 7
l46 5h3v96q0 25 25 25h83q24 0 24 -25v-96z" />
    <glyph glyph-name="Utilde" unicode="&#x168;" horiz-adv-x="615" 
d="M200 654v-475q0 -75 107 -75q51 0 80 19t29 56v475q0 26 24 26h87q23 0 23 -26v-499q0 -70 -58.5 -116.5t-184.5 -46.5t-184.5 46.5t-58.5 116.5v499q0 26 25 26h87q24 0 24 -26zM247 786q-19 0 -19 -25v-5q0 -22 -27 -22h-43q-24 0 -21 29l4 41q4 37 28.5 57.5
t59.5 20.5q30 0 58 -13l43 -21q30 -15 37 -15q9 0 13 5t6 19l1 6q4 22 27 22h43q23 0 21 -29l-3 -39q-3 -38 -26.5 -58t-56.5 -20t-64 13l-43 19q-32 15 -38 15z" />
    <glyph glyph-name="utilde" unicode="&#x169;" 
d="M354 25l-2 22q-62 -55 -154 -55q-67 0 -105.5 37t-38.5 97v347q0 25 24 25h82q25 0 25 -25v-314q0 -28 12 -40.5t42 -12.5q55 0 110 44v323q0 25 24 25h83q24 0 24 -25v-448q0 -25 -24 -25h-77q-13 0 -18 5.5t-7 19.5zM210 607q-9 0 -13 -5t-6 -19l-1 -6q-4 -22 -26 -22
h-44q-23 0 -20 29l4 42q4 37 28 57t59 20q33 0 59 -13l42 -20q32 -15 38 -15q19 0 19 24v5q0 22 27 22h43q23 0 21 -29l-3 -39q-3 -38 -26 -58t-56 -20q-35 0 -64 13l-43 19q-34 15 -38 15z" />
    <glyph glyph-name="Umacron" unicode="&#x16a;" horiz-adv-x="615" 
d="M200 654v-475q0 -75 107 -75q51 0 80 19t29 56v475q0 26 24 26h87q23 0 23 -26v-499q0 -70 -58.5 -116.5t-184.5 -46.5t-184.5 46.5t-58.5 116.5v499q0 26 25 26h87q24 0 24 -26zM192 849h231q25 0 25 -23v-51q0 -25 -25 -25h-231q-25 0 -25 25v51q0 23 25 23z" />
    <glyph glyph-name="umacron" unicode="&#x16b;" 
d="M354 25l-2 22q-62 -55 -154 -55q-67 0 -105.5 37t-38.5 97v347q0 25 24 25h82q25 0 25 -25v-314q0 -28 12 -40.5t42 -12.5q55 0 110 44v323q0 25 24 25h83q24 0 24 -25v-448q0 -25 -24 -25h-77q-13 0 -18 5.5t-7 19.5zM155 671h230q25 0 25 -24v-51q0 -24 -25 -24h-230
q-26 0 -26 24v51q0 24 26 24z" />
    <glyph glyph-name="Ubreve" unicode="&#x16c;" horiz-adv-x="615" 
d="M200 654v-475q0 -75 107 -75q51 0 80 19t29 56v475q0 26 24 26h87q23 0 23 -26v-499q0 -70 -58.5 -116.5t-184.5 -46.5t-184.5 46.5t-58.5 116.5v499q0 26 25 26h87q24 0 24 -26zM262 860v-17q0 -44 45 -44t45 44v17q0 20 22 20h50q22 0 22 -20v-14q0 -59 -36.5 -91.5
t-105.5 -32.5q-136 0 -136 124v14q0 20 22 20h50q22 0 22 -20z" />
    <glyph glyph-name="ubreve" unicode="&#x16d;" 
d="M354 25l-2 22q-62 -55 -154 -55q-67 0 -105.5 37t-38.5 97v347q0 25 24 25h82q25 0 25 -25v-314q0 -28 12 -40.5t42 -12.5q55 0 110 44v323q0 25 24 25h83q24 0 24 -25v-448q0 -25 -24 -25h-77q-13 0 -18 5.5t-7 19.5zM216 685v-17q0 -44 46 -44q45 0 45 44v17
q0 21 22 21h49q22 0 22 -21v-14q0 -59 -36.5 -91.5t-105.5 -32.5q-135 0 -135 124v14q0 21 22 21h49q22 0 22 -21z" />
    <glyph glyph-name="Uring" unicode="&#x16e;" horiz-adv-x="615" 
d="M419 821v-29q0 -33 -28.5 -55.5t-83.5 -22.5t-83.5 22.5t-28.5 55.5v29q0 33 28.5 55.5t83.5 22.5t83.5 -22.5t28.5 -55.5zM347 801v12q0 30 -40 30t-40 -30v-12q0 -31 40 -31t40 31zM200 654v-475q0 -75 107 -75q51 0 80 19t29 56v475q0 26 24 26h87q23 0 23 -26v-499
q0 -70 -58.5 -116.5t-184.5 -46.5t-184.5 46.5t-58.5 116.5v499q0 26 25 26h87q24 0 24 -26z" />
    <glyph glyph-name="uring" unicode="&#x16f;" 
d="M379 654v-34q0 -33 -28 -54.5t-82 -21.5q-55 0 -83 21.5t-28 54.5v34q0 33 28 54.5t83 21.5q54 0 82 -21.5t28 -54.5zM309 629v15q0 30 -40 30q-41 0 -41 -30v-15q0 -30 41 -30q40 0 40 30zM354 25l-2 22q-62 -55 -154 -55q-67 0 -105.5 37t-38.5 97v347q0 25 24 25h82
q25 0 25 -25v-314q0 -28 12 -40.5t42 -12.5q55 0 110 44v323q0 25 24 25h83q24 0 24 -25v-448q0 -25 -24 -25h-77q-13 0 -18 5.5t-7 19.5z" />
    <glyph glyph-name="Uhungarumlaut" unicode="&#x170;" horiz-adv-x="615" 
d="M510 853l-69 -99q-16 -24 -37 -24h-61q-13 0 -16.5 7t3.5 18l57 98q14 25 38 25h73q13 0 16.5 -7t-4.5 -18zM350 853l-55 -98q-13 -25 -33 -25h-61q-13 0 -17.5 7t0.5 18l42 98q11 25 34 25h73q13 0 18 -7t-1 -18zM200 654v-475q0 -75 107 -75q51 0 80 19t29 56v475
q0 26 24 26h87q23 0 23 -26v-499q0 -70 -58.5 -116.5t-184.5 -46.5t-184.5 46.5t-58.5 116.5v499q0 26 25 26h87q24 0 24 -26z" />
    <glyph glyph-name="uhungarumlaut" unicode="&#x171;" 
d="M354 25l-2 22q-62 -55 -154 -55q-67 0 -105.5 37t-38.5 97v347q0 25 24 25h82q25 0 25 -25v-314q0 -28 12 -40.5t42 -12.5q55 0 110 44v323q0 25 24 25h83q24 0 24 -25v-448q0 -25 -24 -25h-77q-13 0 -18 5.5t-7 19.5zM470 683l-70 -99q-17 -24 -37 -24h-61
q-13 0 -16.5 7t3.5 18l57 98q14 25 38 25h73q13 0 16.5 -7.5t-3.5 -17.5zM309 683l-55 -98q-13 -25 -33 -25h-61q-27 0 -17 25l42 98q11 25 34 25h73q13 0 18 -7.5t-1 -17.5z" />
    <glyph glyph-name="Uogonek" unicode="&#x172;" horiz-adv-x="615" 
d="M200 654v-475q0 -75 107 -75q51 0 80 19t29 56v475q0 26 24 26h87q23 0 23 -26v-499q0 -61 -39 -99l-16.5 -16t-17.5 -17.5t-13 -16t-12.5 -19.5t-7 -19.5t-3.5 -24.5q0 -31 38 -31h25q26 0 26 -24v-34q0 -25 -34 -25h-58q-36 0 -66 20t-30 66q0 43 23 80q-27 -3 -58 -3
q-126 0 -184.5 46.5t-58.5 116.5v499q0 26 25 26h87q24 0 24 -26z" />
    <glyph glyph-name="uogonek" unicode="&#x173;" horiz-adv-x="539" 
d="M449 -171h-46q-36 0 -66.5 20.5t-30.5 66.5q0 59 48 106l-2 25q-62 -55 -154 -55q-67 0 -105.5 37t-38.5 97v347q0 25 24 25h82q25 0 25 -25v-314q0 -28 12 -40.5t42 -12.5q55 0 110 44v323q0 25 24 25h83q24 0 24 -25v-448q0 -25 -24 -25h-7q-21 -1 -32.5 -18t-11.5 -39
q0 -31 38 -31h14q25 0 25 -24v-34q0 -25 -33 -25z" />
    <glyph glyph-name="Wcircumflex" unicode="&#x174;" horiz-adv-x="838" 
d="M496 655l84 -340q9 -40 16 -99q9 61 18 98l86 341q6 25 29 25h76q25 0 19 -25l-159 -630q-6 -25 -31 -25h-85q-22 0 -28 25l-88 348q-11 37 -14 89q-10 -70 -14 -89l-88 -348q-6 -25 -31 -25h-85q-22 0 -28 25l-159 630q-6 25 19 25h89q23 0 29 -25l84 -341
q12 -51 16 -83q0 13 18 83l86 341q6 25 30 25h81q24 0 30 -25zM421 800l-25 -45q-14 -25 -34 -25h-64q-13 0 -16.5 7t3.5 18l73 98q18 25 39 25h48q19 0 39 -25l73 -98q7 -11 3.5 -18t-16.5 -7h-64q-21 0 -34 25z" />
    <glyph glyph-name="wcircumflex" unicode="&#x175;" horiz-adv-x="716" 
d="M359 630l-25 -45q-14 -25 -34 -25h-64q-13 0 -16.5 7t3.5 18l73 98q18 25 39 25h48q19 0 39 -25l73 -98q7 -11 3.5 -18t-16.5 -7h-64q-21 0 -34 25zM705 473l-128 -450q-4 -14 -8.5 -18.5t-16.5 -4.5h-99q-13 0 -18 5t-8 18l-56 237q-9 36 -9 53l-2 -9l-5 -20l-6 -24
l-69 -237q-3 -13 -8 -18t-17 -5h-97q-13 0 -18 5t-8 18l-121 450q-7 25 24 25h79q21 0 28 -25l69 -262q2 -9 4 -20.5t3 -19t1 -8.5q0 7 12 48l73 262q7 25 27 25h80q23 0 28 -25l61 -262l4 -21t3.5 -18t1.5 -8q0 5 11 47l68 262q7 25 28 25h66q30 0 23 -25z" />
    <glyph glyph-name="Ycircumflex" unicode="&#x176;" horiz-adv-x="545" 
d="M161 655l95 -228q11 -30 17 -53q9 34 18 53l106 228q11 25 29 25h86q13 0 18.5 -6.5t-0.5 -18.5l-189 -395v-235q0 -25 -24 -25h-87q-25 0 -25 25v219l-190 411q-5 11 -0.5 18t17.5 7h99q20 0 30 -25zM272 800l-25 -45q-14 -25 -34 -25h-64q-13 0 -16.5 7t3.5 18l73 98
q18 25 39 25h48q19 0 39 -25l73 -98q7 -11 3.5 -18t-16.5 -7h-64q-21 0 -34 25z" />
    <glyph glyph-name="ycircumflex" unicode="&#x177;" horiz-adv-x="474" 
d="M145 473l75 -229q1 -2 17 -84q18 70 21 80l79 233q4 13 9.5 19t17.5 6h76q14 0 21 -6.5t3 -18.5l-221 -649q-8 -25 -28 -25h-60q-31 0 -24 25l49 163l-169 486q-4 12 3 18.5t20 6.5h83q20 0 28 -25zM237 630l-25 -45q-14 -25 -34 -25h-64q-13 0 -16.5 7t3.5 18l73 98
q18 25 39 25h48q19 0 39 -25l73 -98q7 -11 3.5 -18t-16.5 -7h-64q-21 0 -34 25z" />
    <glyph glyph-name="Ydieresis" unicode="&#x178;" horiz-adv-x="545" 
d="M161 655l95 -228l17 -52q4 27 18 52l106 228q11 25 29 25h86q13 0 18.5 -6.5t-0.5 -18.5l-189 -395v-235q0 -25 -24 -25h-87q-25 0 -25 25v219l-190 411q-5 11 -0.5 18t17.5 7h99q20 0 30 -25zM251 850v-93q0 -25 -24 -25h-49q-24 0 -24 25v93q0 26 24 26h49q24 0 24 -26
zM390 850v-93q0 -25 -23 -25h-49q-24 0 -24 25v93q0 26 24 26h49q23 0 23 -26z" />
    <glyph glyph-name="Zacute" unicode="&#x179;" horiz-adv-x="497" 
d="M75 680h356q26 0 26 -24v-62q0 -10 -6 -20l-256 -462h254q25 0 25 -24v-63q0 -25 -25 -25h-391q-25 0 -25 25v63q0 9 4 17l257 463h-219q-25 0 -25 25v63q0 24 25 24zM389 853l-73 -106q-12 -17 -32 -17h-65q-26 0 -13 25l49 98q12 25 34 25h87q13 0 17 -7t-4 -18z" />
    <glyph glyph-name="zacute" unicode="&#x17a;" horiz-adv-x="446" 
d="M351 683l-72 -106q-12 -17 -32 -17h-65q-24 0 -13 25l48 98q12 25 35 25h87q13 0 16.5 -7t-4.5 -18zM74 498h303q25 0 25 -24v-58q0 -11 -8 -22l-202 -287h203q25 0 25 -24v-59q0 -24 -25 -24h-338q-25 0 -25 24v59q0 11 8 22l200 286h-166q-26 0 -26 24v59q0 24 26 24z
" />
    <glyph glyph-name="Zdotaccent" unicode="&#x17b;" horiz-adv-x="497" 
d="M315 839v-82q0 -13 -5.5 -18.5t-18.5 -5.5h-85q-14 0 -19 5.5t-5 18.5v82q0 25 24 25h85q24 0 24 -25zM75 680h356q26 0 26 -24v-62q0 -10 -6 -20l-256 -462h254q25 0 25 -24v-63q0 -25 -25 -25h-391q-25 0 -25 25v63q0 9 4 17l257 463h-219q-25 0 -25 25v63q0 24 25 24z
" />
    <glyph glyph-name="zdotaccent" unicode="&#x17c;" horiz-adv-x="446" 
d="M74 498h303q25 0 25 -24v-58q0 -11 -8 -22l-202 -287h203q25 0 25 -24v-59q0 -24 -25 -24h-338q-25 0 -25 24v59q0 11 8 22l200 286h-166q-26 0 -26 24v59q0 24 26 24zM291 677v-81q0 -25 -23 -25h-86q-24 0 -24 25v81q0 25 24 25h86q23 0 23 -25z" />
    <glyph glyph-name="Zcaron" unicode="&#x17d;" horiz-adv-x="497" 
d="M227 858l25 -46l25 46q13 24 34 24h64q13 0 16.5 -7t-3.5 -17l-73 -99q-20 -25 -39 -25h-48q-19 0 -39 26l-73 98q-7 10 -3.5 17t16.5 7h64q21 0 34 -24zM75 680h356q26 0 26 -24v-62q0 -10 -6 -20l-256 -462h254q25 0 25 -24v-63q0 -25 -25 -25h-391q-25 0 -25 25v63
q0 9 4 17l257 463h-219q-25 0 -25 25v63q0 24 25 24z" />
    <glyph glyph-name="zcaron" unicode="&#x17e;" horiz-adv-x="446" 
d="M203 684l25 -46l25 46q13 24 34 24h64q13 0 16.5 -7t-3.5 -17l-73 -99q-20 -25 -39 -25h-48q-19 0 -39 26l-73 98q-7 10 -3.5 17t16.5 7h64q21 0 34 -24zM74 498h303q25 0 25 -24v-58q0 -11 -8 -22l-202 -287h203q25 0 25 -24v-59q0 -24 -25 -24h-338q-25 0 -25 24v59
q0 11 8 22l200 286h-166q-26 0 -26 24v59q0 24 26 24z" />
    <glyph glyph-name="longs" unicode="&#x17f;" horiz-adv-x="349" 
d="M94 496h4v60q0 69 53.5 108t160.5 39h9q25 0 25 -25v-57q0 -25 -25 -25h-9q-83 0 -83 -55v-516q0 -25 -24 -25h-83q-24 0 -24 25v368h-54q-25 0 -25 25v49q0 12 5.5 17t19.5 7z" />
    <glyph glyph-name="florin" unicode="&#x192;" horiz-adv-x="576" 
d="M494 600h-20q-83 0 -89 -54l-13 -112h72q25 0 25 -24v-56q0 -24 -25 -24h-82l-43 -394q-8 -69 -65.5 -108t-163.5 -39h-9q-25 0 -25 24v58q0 25 25 25h20q82 0 88 55l41 379h-61q-24 0 -24 24v55q0 25 24 25h72l13 126q7 70 65 109t165 39h10q25 0 25 -25v-58
q0 -25 -25 -25z" />
    <glyph glyph-name="Aringacute" unicode="&#x1fa;" horiz-adv-x="554" 
d="M233 680h87q25 0 32 -25l186 -630q8 -25 -18 -25h-90q-21 0 -29 25l-35 122h-186l-35 -122q-8 -25 -30 -25h-81q-27 0 -19 25l187 630q7 25 31 25zM388 821v-29q0 -33 -28.5 -55.5t-83.5 -22.5t-83.5 22.5t-28.5 55.5v29q0 56 66 73l23 45q12 25 35 25h87q13 0 16.5 -7
t-4.5 -18l-42 -54q43 -22 43 -64zM336 254l-33 111q-8 26 -17.5 93t-11.5 89q-24 -157 -31 -181l-34 -112h127zM316 801v12q0 30 -40 30t-40 -30v-12q0 -31 40 -31t40 31z" />
    <glyph glyph-name="aringacute" unicode="&#x1fb;" horiz-adv-x="517" 
d="M60 349v13q0 144 202 144q201 0 201 -144v-336q0 -26 -24 -26h-75q-13 0 -17.5 6t-6.5 20l-2 21q-66 -55 -148 -55q-70 0 -107 36t-37 89v45q0 53 39.5 89.5t110.5 36.5h138v64q0 28 -16.5 42t-58.5 14t-59.5 -12.5t-17.5 -39.5v-7q0 -25 -24 -25h-74q-24 0 -24 25z
M373 654v-34q0 -33 -28 -54.5t-82 -21.5q-55 0 -83 21.5t-28 54.5v34q0 55 67 71l35 72q12 25 35 25h87q13 0 16.5 -7t-4.5 -18l-55 -81q40 -21 40 -62zM224 96q52 0 110 43v57h-112q-27 0 -37.5 -11.5t-10.5 -33.5v-16q0 -39 50 -39zM303 629v15q0 27 -35 30h-11
q-35 -3 -35 -30v-15q0 -30 41 -30q40 0 40 30z" />
    <glyph glyph-name="AEacute" unicode="&#x1fc;" horiz-adv-x="835" 
d="M427 680h332q25 0 25 -24v-61q0 -24 -25 -24h-231v-166h214q26 0 26 -24v-57q0 -25 -26 -25h-214v-190h242q25 0 25 -23v-62q0 -24 -25 -24h-345q-25 0 -25 25v122h-183l-71 -122q-15 -25 -29 -25h-82q-13 0 -18.5 7t0.5 18l375 631q15 24 35 24zM366 400l-85 -146h119
v211q-19 -39 -34 -65zM621 853l-73 -106q-12 -17 -32 -17h-65q-26 0 -13 25l49 98q12 25 34 25h87q13 0 17 -7t-4 -18z" />
    <glyph glyph-name="aeacute" unicode="&#x1fd;" horiz-adv-x="785" 
d="M521 683l-72 -106q-12 -17 -32 -17h-65q-24 0 -13 25l48 98q12 25 35 25h87q13 0 16.5 -7t-4.5 -18zM741 359v-114q0 -23 -23 -23h-256v-79q0 -54 78 -54t78 55v7q0 24 25 24h69q25 0 25 -24v-12q0 -147 -197 -147q-133 0 -178 62q-79 -62 -172 -62q-71 0 -108 36t-37 89
v43q0 53 40 89t111 36h138v74q0 52 -75 52q-42 0 -59.5 -12.5t-17.5 -39.5v-10q0 -24 -25 -24h-73q-25 0 -25 24v14q0 143 202 143q95 0 135 -45q48 45 144 45q201 0 201 -147zM224 94q48 0 110 46v57h-114q-47 0 -47 -44v-19q0 -40 51 -40zM462 353v-44h156v44q0 56 -78 56
t-78 -56z" />
    <glyph glyph-name="Oslashacute" unicode="&#x1fe;" horiz-adv-x="605" 
d="M59 154v370q0 70 58.5 116.5t184.5 46.5q76 0 133 -20l9 17q15 30 34 30h28q22 0 7 -30l-24 -46q56 -42 56 -114v-370q0 -70 -58.5 -116.5t-184.5 -46.5q-77 0 -135 20l-8 -16q-15 -30 -36 -30h-26q-23 0 -8 30l23 46q-53 42 -53 113zM410 178v305l-186 -362
q27 -18 78 -18q108 0 108 75zM195 500v-299l184 357q-29 17 -77 17q-107 0 -107 -75zM430 853l-73 -106q-12 -17 -32 -17h-65q-26 0 -13 25l49 98q12 25 34 25h87q13 0 17 -7t-4 -18z" />
    <glyph glyph-name="oslashacute" unicode="&#x1ff;" horiz-adv-x="530" 
d="M49 140v219q0 69 54.5 108t161.5 39q56 0 98 -11l6 10q16 30 34 30h28q23 0 6 -30l-18 -34q62 -38 62 -112v-219q0 -70 -54.5 -109t-161.5 -39q-56 0 -100 11l-4 -7q-9 -18 -15.5 -24t-21.5 -6h-25q-12 0 -12 10.5t6 19.5l17 31q-61 39 -61 113zM350 151v193l-132 -243
q16 -5 47 -5q85 0 85 55zM180 348v-192l130 240q-18 6 -45 6q-85 0 -85 -54zM392 683l-72 -106q-12 -17 -32 -17h-65q-24 0 -13 25l48 98q12 25 35 25h87q13 0 16.5 -7t-4.5 -18z" />
    <glyph glyph-name="Scommaaccent" unicode="&#x218;" horiz-adv-x="572" 
d="M236 -105v30q0 25 25 25h61q24 0 24 -25v-38q0 -61 -45 -133q-11 -18 -33 -13l-46 11q-25 6 -13 33q1 3 7.5 17t7.5 16.5t5 13.5t4.5 18t1.5 18.5t1 26.5zM389 484v23q0 72 -97 72q-98 0 -98 -72v-15q0 -39 41 -54l174 -62q118 -42 118 -144v-77q0 -71 -56.5 -117
t-181.5 -46q-124 0 -181.5 46.5t-57.5 116.5v63q0 26 24 26h84q24 0 24 -26v-45q0 -72 106 -72t106 72v32q0 19 -13.5 34t-28 22t-43.5 18l-155 58q-38 14 -64.5 50t-26.5 79v59q0 71 53 117t174 46q122 0 176.5 -46t54.5 -117v-41q0 -25 -25 -25h-84q-23 0 -23 25z" />
    <glyph glyph-name="scommaaccent" unicode="&#x219;" horiz-adv-x="472" 
d="M192 -106v30q0 25 25 25h61q24 0 24 -25v-38q0 -61 -45 -133q-11 -18 -33 -13l-46 11q-25 6 -13 33q1 3 7.5 17t7.5 16.5t5 13.5t4.5 18t1.5 18.5t1 26.5zM314 354v19q0 41 -73 41q-72 0 -72 -41v-11q0 -24 31 -35l144 -51q96 -34 96 -104v-51q0 -54 -50.5 -91.5
t-151.5 -37.5t-150.5 37.5t-49.5 91.5v23q0 23 23 23h74q23 0 23 -23v-17q0 -42 80 -42q81 0 81 42v17q0 12 -10 20.5t-35 17.5l-145 53q-31 12 -55 41.5t-24 64.5v32q0 55 46 94t146 39q99 0 145 -39t46 -94v-19q0 -13 -5 -18t-18 -5h-74q-22 0 -22 23z" />
    <glyph glyph-name="dotlessj" unicode="&#x237;" horiz-adv-x="250" 
d="M190 473v-527q0 -69 -53.5 -108t-160.5 -39h-9q-25 0 -25 24v57q0 26 25 26h9q83 0 83 54v513q0 25 24 25h83q24 0 24 -25z" />
    <glyph glyph-name="circumflex" unicode="&#x2c6;" horiz-adv-x="354" 
d="M177 630l-25 -45q-14 -25 -34 -25h-64q-13 0 -16.5 7t3.5 18l73 98q18 25 39 25h48q19 0 39 -25l73 -98q7 -11 3.5 -18t-16.5 -7h-64q-21 0 -34 25z" />
    <glyph glyph-name="caron" unicode="&#x2c7;" horiz-adv-x="354" 
d="M152 684l25 -46l25 46q13 24 34 24h64q13 0 16.5 -7t-3.5 -17l-73 -99q-20 -25 -39 -25h-48q-19 0 -39 26l-73 98q-7 10 -3.5 17t16.5 7h64q21 0 34 -24z" />
    <glyph glyph-name="breve" unicode="&#x2d8;" horiz-adv-x="417" 
d="M163 685v-17q0 -44 46 -44q45 0 45 44v17q0 21 22 21h49q22 0 22 -21v-14q0 -59 -36.5 -91.5t-105.5 -32.5q-135 0 -135 124v14q0 21 22 21h49q22 0 22 -21z" />
    <glyph glyph-name="dotaccent" unicode="&#x2d9;" horiz-adv-x="249" 
d="M191 677v-81q0 -25 -23 -25h-86q-24 0 -24 25v81q0 25 24 25h86q23 0 23 -25z" />
    <glyph glyph-name="ring" unicode="&#x2da;" horiz-adv-x="357" 
d="M289 654v-34q0 -33 -28 -54.5t-82 -21.5q-55 0 -83 21.5t-28 54.5v34q0 33 28 54.5t83 21.5q54 0 82 -21.5t28 -54.5zM219 629v15q0 30 -40 30q-41 0 -41 -30v-15q0 -30 41 -30q40 0 40 30z" />
    <glyph glyph-name="ogonek" unicode="&#x2db;" horiz-adv-x="232" 
d="M181 -171h-58q-46 0 -75.5 23.5t-29.5 64.5q0 55 52 114q20 22 40 18l38 -6q15 -2 18.5 -10.5t-6.5 -16.5q-45 -34 -45 -73q0 -31 47 -31h19q25 0 25 -24v-34q0 -25 -25 -25z" />
    <glyph glyph-name="tilde" unicode="&#x2dc;" horiz-adv-x="408" 
d="M143 607q-9 0 -13 -5t-6 -19l-1 -6q-4 -22 -26 -22h-44q-23 0 -20 29l4 42q4 37 28 57t59 20q33 0 59 -13l42 -20q32 -15 38 -15q19 0 19 24v5q0 22 27 22h43q23 0 21 -29l-3 -39q-3 -38 -26 -58t-56 -20q-35 0 -64 13l-43 19q-34 15 -38 15z" />
    <glyph glyph-name="hungarumlaut" unicode="&#x2dd;" horiz-adv-x="404" 
d="M365 683l-70 -99q-17 -24 -37 -24h-61q-13 0 -16.5 7t3.5 18l57 98q14 25 38 25h73q13 0 16.5 -7.5t-3.5 -17.5zM204 683l-55 -98q-13 -25 -33 -25h-61q-27 0 -17 25l42 98q11 25 34 25h73q13 0 18 -7.5t-1 -17.5z" />
    <glyph glyph-name="Delta" unicode="&#x394;" horiz-adv-x="400" 
d="M109 437h182q24 0 24 -25v-181q0 -25 -24 -25h-182q-24 0 -24 25v181q0 25 24 25z" />
    <glyph glyph-name="Omega" unicode="&#x3a9;" horiz-adv-x="400" 
d="M64 320q0 56 40 96.5t95 40.5q56 0 96 -40.5t40 -96.5q0 -55 -40 -95t-96 -40q-55 0 -95 39.5t-40 95.5zM84 320q0 -49 33 -82t82 -33q48 0 82 33.5t34 81.5t-34 82.5t-82 34.5t-81.5 -34.5t-33.5 -82.5z" />
    <glyph glyph-name="mu" unicode="&#x3bc;" horiz-adv-x="539" 
d="M354 25l-2 22q-62 -55 -150 -55q-14 0 -24 3l7 -171q1 -25 -24 -25h-83q-24 0 -24 25v649q0 25 24 25h82q25 0 25 -25v-314q0 -28 12 -40.5t42 -12.5q55 0 110 44v323q0 25 24 25h83q24 0 24 -25v-448q0 -25 -24 -25h-77q-13 0 -18 5.5t-7 19.5z" />
    <glyph glyph-name="pi" unicode="&#x3c0;" horiz-adv-x="400" 
d="M62 452h274q8 0 12 -5.5t3 -13.5t-6 -16l-128 -207q-7 -10 -17.5 -10t-16.5 10l-128 207q-5 8 -6.5 16t2 13.5t11.5 5.5z" />
    <glyph glyph-name="Wgrave" unicode="&#x1e80;" horiz-adv-x="838" 
d="M496 655l84 -340q9 -40 16 -99q9 61 18 98l86 341q6 25 29 25h76q25 0 19 -25l-159 -630q-6 -25 -31 -25h-85q-22 0 -28 25l-88 348q-11 37 -14 89q-10 -70 -14 -89l-88 -348q-6 -25 -31 -25h-85q-22 0 -28 25l-159 630q-6 25 19 25h89q23 0 29 -25l84 -341l16 -84
q5 33 18 84l86 341q6 25 30 25h81q24 0 30 -25zM356 747l-72 105q-8 11 -4 18.5t17 7.5h87q22 0 34 -25l48 -98q11 -25 -12 -25h-65q-20 0 -33 17z" />
    <glyph glyph-name="wgrave" unicode="&#x1e81;" horiz-adv-x="716" 
d="M705 473l-128 -450q-4 -14 -8.5 -18.5t-16.5 -4.5h-99q-13 0 -18 5t-8 18l-56 237q-9 36 -9 53l-2 -9l-5 -20l-6 -24l-69 -237q-3 -13 -8 -18t-17 -5h-97q-13 0 -18 5t-8 18l-121 450q-7 25 24 25h79q21 0 28 -25l69 -262q2 -9 4 -20.5t3 -19t1 -8.5q0 7 12 48l73 262
q7 25 27 25h80q23 0 28 -25l61 -262l4 -21t3.5 -18t1.5 -8q0 5 11 47l68 262q7 25 28 25h66q30 0 23 -25zM304 577l-72 106q-8 11 -4.5 18t16.5 7h87q23 0 35 -25l48 -98q11 -25 -13 -25h-65q-20 0 -32 17z" />
    <glyph glyph-name="Wacute" unicode="&#x1e82;" horiz-adv-x="838" 
d="M496 655l84 -340q9 -40 16 -99q9 61 18 98l86 341q6 25 29 25h76q25 0 19 -25l-159 -630q-6 -25 -31 -25h-85q-22 0 -28 25l-88 348q-11 37 -14 89q-10 -70 -14 -89l-88 -348q-6 -25 -31 -25h-85q-22 0 -28 25l-159 630q-6 25 19 25h89q23 0 29 -25l84 -341l16 -84
q5 33 18 84l86 341q6 25 30 25h81q24 0 30 -25zM560 853l-73 -106q-12 -17 -32 -17h-65q-26 0 -13 25l49 98q12 25 34 25h87q13 0 17 -7t-4 -18z" />
    <glyph glyph-name="wacute" unicode="&#x1e83;" horiz-adv-x="716" 
d="M505 683l-72 -106q-12 -17 -32 -17h-65q-24 0 -13 25l48 98q12 25 35 25h87q13 0 16.5 -7t-4.5 -18zM705 473l-128 -450q-4 -14 -8.5 -18.5t-16.5 -4.5h-99q-13 0 -18 5t-8 18l-56 237q-9 36 -9 53l-2 -9l-5 -20l-6 -24l-69 -237q-3 -13 -8 -18t-17 -5h-97q-13 0 -18 5
t-8 18l-121 450q-7 25 24 25h79q21 0 28 -25l69 -262q2 -9 4 -20.5t3 -19t1 -8.5q0 7 12 48l73 262q7 25 27 25h80q23 0 28 -25l61 -262l4 -21t3.5 -18t1.5 -8q0 5 11 47l68 262q7 25 28 25h66q30 0 23 -25z" />
    <glyph glyph-name="Wdieresis" unicode="&#x1e84;" horiz-adv-x="838" 
d="M496 655l84 -340q9 -40 16 -99q9 61 18 98l86 341q6 25 29 25h76q25 0 19 -25l-159 -630q-6 -25 -31 -25h-85q-22 0 -28 25l-88 348q-11 37 -14 89q-10 -70 -14 -89l-88 -348q-6 -25 -31 -25h-85q-22 0 -28 25l-159 630q-6 25 19 25h89q23 0 29 -25l84 -341
q12 -51 16 -83q0 13 18 83l86 341q6 25 30 25h81q24 0 30 -25zM397 850v-93q0 -25 -24 -25h-49q-24 0 -24 25v93q0 26 24 26h49q24 0 24 -26zM536 850v-93q0 -25 -23 -25h-49q-24 0 -24 25v93q0 26 24 26h49q23 0 23 -26z" />
    <glyph glyph-name="wdieresis" unicode="&#x1e85;" horiz-adv-x="716" 
d="M343 681v-93q0 -25 -23 -25h-49q-24 0 -24 25v93q0 25 24 25h49q23 0 23 -25zM483 681v-93q0 -25 -23 -25h-49q-25 0 -25 25v93q0 25 25 25h49q23 0 23 -25zM705 473l-128 -450q-4 -14 -8.5 -18.5t-16.5 -4.5h-99q-13 0 -18 5t-8 18l-56 237q-9 36 -9 53l-2 -9l-5 -20
l-6 -24l-69 -237q-3 -13 -8 -18t-17 -5h-97q-13 0 -18 5t-8 18l-121 450q-7 25 24 25h79q21 0 28 -25l69 -262q2 -9 4 -20.5t3 -19t1 -8.5q0 7 12 48l73 262q7 25 27 25h80q23 0 28 -25l61 -262l4 -21t3.5 -18t1.5 -8q0 5 11 47l68 262q7 25 28 25h66q30 0 23 -25z" />
    <glyph glyph-name="Ygrave" unicode="&#x1ef2;" horiz-adv-x="545" 
d="M161 655l95 -228q11 -30 17 -53q9 34 18 53l106 228q11 25 29 25h86q13 0 18.5 -6.5t-0.5 -18.5l-189 -395v-235q0 -25 -24 -25h-87q-25 0 -25 25v219l-190 411q-5 11 -0.5 18t17.5 7h99q20 0 30 -25zM214 747l-72 105q-8 11 -4 18.5t17 7.5h87q22 0 34 -25l48 -98
q11 -25 -12 -25h-65q-20 0 -33 17z" />
    <glyph glyph-name="ygrave" unicode="&#x1ef3;" horiz-adv-x="474" 
d="M145 473l75 -229q1 -2 17 -84q18 70 21 80l79 233q4 13 9.5 19t17.5 6h76q14 0 21 -6.5t3 -18.5l-221 -649q-8 -25 -28 -25h-60q-31 0 -24 25l49 163l-169 486q-4 12 3 18.5t20 6.5h83q20 0 28 -25zM180 577l-72 106q-8 11 -4.5 18t16.5 7h87q23 0 35 -25l48 -98
q11 -25 -13 -25h-65q-20 0 -32 17z" />
    <glyph glyph-name="endash" unicode="&#x2013;" horiz-adv-x="533" 
d="M84 342h365q25 0 25 -24v-59q0 -24 -25 -24h-365q-25 0 -25 24v59q0 24 25 24z" />
    <glyph glyph-name="emdash" unicode="&#x2014;" horiz-adv-x="843" 
d="M84 342h675q25 0 25 -24v-59q0 -24 -25 -24h-675q-25 0 -25 24v59q0 24 25 24z" />
    <glyph glyph-name="quoteleft" unicode="&#x2018;" horiz-adv-x="266" 
d="M187 597v-67q0 -25 -24 -25h-86q-23 0 -23 25v74q0 114 144 148q23 6 31 -16l20 -56q8 -23 -16 -31q-46 -15 -46 -52z" />
    <glyph glyph-name="quoteright" unicode="&#x2019;" horiz-adv-x="266" 
d="M79 660v67q0 25 24 25h86q23 0 23 -25v-74q0 -113 -144 -148q-23 -6 -31 16l-20 56q-8 23 16 31q46 15 46 52z" />
    <glyph glyph-name="quotesinglbase" unicode="&#x201a;" horiz-adv-x="266" 
d="M79 39v67q0 25 24 25h86q23 0 23 -25v-74q0 -114 -144 -148q-23 -6 -31 16l-20 56q-8 23 16 31q46 15 46 52z" />
    <glyph glyph-name="quotedblleft" unicode="&#x201c;" horiz-adv-x="484" 
d="M405 597v-67q0 -25 -24 -25h-86q-23 0 -23 25v74q0 114 144 148q23 6 31 -16l20 -56q8 -23 -16 -31q-46 -15 -46 -52zM187 597v-67q0 -25 -24 -25h-86q-23 0 -23 25v74q0 114 144 148q23 6 31 -16l20 -56q8 -23 -16 -31q-46 -15 -46 -52z" />
    <glyph glyph-name="quotedblright" unicode="&#x201d;" horiz-adv-x="484" 
d="M297 660v67q0 25 24 25h86q23 0 23 -25v-74q0 -113 -144 -148q-23 -6 -31 16l-20 56q-8 23 16 31q46 15 46 52zM79 660v67q0 25 24 25h86q23 0 23 -25v-74q0 -113 -144 -148q-23 -6 -31 16l-20 56q-8 23 16 31q46 15 46 52z" />
    <glyph glyph-name="quotedblbase" unicode="&#x201e;" horiz-adv-x="484" 
d="M297 39v67q0 25 24 25h86q23 0 23 -25v-74q0 -114 -144 -148q-23 -6 -31 16l-20 56q-8 23 16 31q46 15 46 52zM79 39v67q0 25 24 25h86q23 0 23 -25v-74q0 -114 -144 -148q-23 -6 -31 16l-20 56q-8 23 16 31q46 15 46 52z" />
    <glyph glyph-name="dagger" unicode="&#x2020;" horiz-adv-x="678" 
d="M405 673v-647q0 -26 -23 -26h-84q-24 0 -24 26v647q0 26 24 26h84q23 0 23 -26zM95 514h127q25 0 25 -23v-60q0 -25 -25 -25h-127q-25 0 -25 25v60q0 23 25 23zM458 514h126q25 0 25 -23v-60q0 -25 -25 -25h-126q-26 0 -26 25v60q0 23 26 23z" />
    <glyph glyph-name="daggerdbl" unicode="&#x2021;" horiz-adv-x="678" 
d="M405 673v-647q0 -26 -23 -26h-84q-24 0 -24 26v647q0 26 24 26h84q23 0 23 -26zM95 514h127q25 0 25 -23v-60q0 -25 -25 -25h-127q-25 0 -25 25v60q0 23 25 23zM458 514h126q25 0 25 -23v-60q0 -25 -25 -25h-126q-26 0 -26 25v60q0 23 26 23zM95 290h127q25 0 25 -24v-59
q0 -25 -25 -25h-127q-25 0 -25 25v59q0 24 25 24zM458 290h126q25 0 25 -24v-59q0 -25 -25 -25h-126q-26 0 -26 25v59q0 24 26 24z" />
    <glyph glyph-name="bullet" unicode="&#x2022;" horiz-adv-x="273" 
d="M203 344v-145q0 -25 -23 -25h-86q-24 0 -24 25v145q0 26 24 26h86q23 0 23 -26z" />
    <glyph glyph-name="ellipsis" unicode="&#x2026;" horiz-adv-x="745" 
d="M192 106v-81q0 -25 -24 -25h-85q-25 0 -25 25v81q0 25 25 25h85q24 0 24 -25zM687 106v-81q0 -25 -24 -25h-85q-25 0 -25 25v81q0 25 25 25h85q24 0 24 -25zM440 106v-81q0 -25 -24 -25h-85q-25 0 -25 25v81q0 25 25 25h85q24 0 24 -25z" />
    <glyph glyph-name="perthousand" unicode="&#x2030;" horiz-adv-x="1234" 
d="M67 478v98q0 112 156 112t156 -112v-98q0 -112 -156 -112t-156 112zM272 482v90q0 30 -49 30t-49 -30v-90q0 -31 49 -31t49 31zM694 107v90q0 30 -48 30q-49 0 -49 -30v-90q0 -31 49 -31q48 0 48 31zM490 102v98q0 112 156 112t156 -112v-98q0 -112 -156 -112t-156 112z
M1060 107v90q0 30 -49 30q-48 0 -48 -30v-90q0 -31 48 -31q49 0 49 31zM855 102v98q0 112 157 112q155 0 155 -112v-98q0 -112 -155 -112q-157 0 -157 112zM655 654l-320 -628q-13 -26 -36 -26h-70q-10 0 -13.5 9t1.5 17l321 628q13 26 36 26h69q12 0 15 -8t-3 -18z" />
    <glyph glyph-name="guilsinglleft" unicode="&#x2039;" horiz-adv-x="363" 
d="M273 319l-106 -74l106 -73q26 -18 26 -35v-83q0 -12 -8.5 -17t-17.5 1l-186 133q-23 17 -23 34v81q0 16 23 33l186 134q10 7 18 2t8 -18v-83q0 -16 -26 -35z" />
    <glyph glyph-name="guilsinglright" unicode="&#x203a;" horiz-adv-x="363" 
d="M196 245l-106 74q-26 19 -26 35v83q0 13 8 18t18 -2l186 -134q23 -17 23 -33v-81q0 -17 -23 -34l-186 -133q-9 -6 -17.5 -1t-8.5 17v83q0 17 26 35z" />
    <glyph glyph-name="fraction" unicode="&#x2044;" horiz-adv-x="452" 
d="M444 654l-320 -628q-13 -26 -36 -26h-70q-10 0 -13.5 9t1.5 17l321 628q13 26 36 26h69q12 0 15 -8t-3 -18z" />
    <glyph glyph-name="Euro" unicode="&#x20ac;" horiz-adv-x="660" 
d="M92 311h31v55h-31q-25 0 -25 24v35q0 24 25 24h31v76q0 71 54.5 117t180.5 46t180.5 -46t54.5 -117v-48q0 -25 -23 -25h-83q-25 0 -25 25v24q0 75 -102 75q-101 0 -101 -75v-52h98q25 0 25 -24v-35q0 -24 -25 -24h-98v-55h98q25 0 25 -23v-35q0 -25 -25 -25h-98v-49
q0 -75 101 -75q102 0 102 75v38q0 25 25 25h83q23 0 23 -25v-62q0 -71 -54.5 -117t-180.5 -46t-180.5 46t-54.5 117v73h-31q-25 0 -25 25v35q0 23 25 23z" />
    <glyph glyph-name="afii61289" unicode="&#x2113;" horiz-adv-x="570" 
d="M108 145v33q-20 -9 -35 -15q-23 -9 -32 11l-27 63q-10 23 14 33q1 1 18 8.5l36 16t26 12.5v216q0 69 50.5 116t151.5 47q96 0 143.5 -47t47.5 -116q0 -48 -21.5 -90.5t-62.5 -77t-81.5 -59.5t-96.5 -53v-66q0 -70 76 -70h113q26 0 26 -24v-59q0 -24 -25 -24h-115
q-107 0 -156.5 39.5t-49.5 105.5zM239 506v-134q139 77 139 142q0 31 -18 48t-52 17q-69 0 -69 -73z" />
    <glyph glyph-name="trademark" unicode="&#x2122;" horiz-adv-x="921" 
d="M851 659v-366q0 -21 -20 -21h-66q-20 0 -20 21v184q-9 -25 -10 -28l-43 -95q-10 -20 -27 -20h-47q-18 0 -28 20l-46 97q-5 11 -10 31v-189q0 -21 -20 -21h-62q-21 0 -21 21v366q0 21 21 21h62q14 0 18 -9l94 -183l15 -34q7 19 14 32l91 185q4 9 19 9h66q20 0 20 -21z
M91 680h274q21 0 21 -19v-53q0 -20 -21 -20h-81v-295q0 -21 -20 -21h-71q-20 0 -20 21v295h-82q-12 0 -16.5 4.5t-4.5 15.5v53q0 19 21 19z" />
    <glyph glyph-name="uni2126" unicode="&#x2126;" horiz-adv-x="400" 
d="M64 320q0 56 40 96.5t95 40.5q56 0 96 -40.5t40 -96.5t-40 -95.5t-96 -39.5q-55 0 -95 39.5t-40 95.5zM83 320q0 -49 33.5 -82t82.5 -33q48 0 82 33.5t34 81.5t-34 82.5t-82 34.5t-82 -34.5t-34 -82.5z" />
    <glyph glyph-name="estimated" unicode="&#x212e;" horiz-adv-x="833" 
d="M757 340q0 -16 -18 -16h-536v-215q89 -82 208 -82q136 0 238 110q5 5 12 5q6 0 11 -5.5t5 -12.5t-8 -17q-46 -53 -114 -84t-144 -31q-146 0 -247 98t-101 250q0 144 102 246t246 102q143 0 244.5 -102t101.5 -246zM411 653q-119 0 -208 -84v-214h417v214q-91 84 -209 84z
" />
    <glyph glyph-name="partialdiff" unicode="&#x2202;" horiz-adv-x="400" 
d="M86 187v273q0 13 12 15t23 -6l207 -128q10 -6 10 -17t-10 -17l-207 -128q-8 -5 -16 -6t-13.5 2t-5.5 12z" />
    <glyph glyph-name="uni2206" unicode="&#x2206;" horiz-adv-x="400" 
d="M110 437h181q24 0 24 -25v-181q0 -25 -24 -25h-181q-26 0 -26 25v181q0 25 26 25z" />
    <glyph glyph-name="product" unicode="&#x220f;" horiz-adv-x="400" 
d="M337 195h-273q-13 0 -15 12t6 24l128 207q6 10 17 10t17 -10l128 -207q8 -12 6.5 -24t-14.5 -12z" />
    <glyph glyph-name="summation" unicode="&#x2211;" horiz-adv-x="400" 
d="M314 460v-273q0 -9 -5.5 -12t-13.5 -2t-16 6l-207 128q-10 6 -10 17t10 17l207 128q11 8 23 6t12 -15z" />
    <glyph glyph-name="minus" unicode="&#x2212;" horiz-adv-x="581" 
d="M84 381h412q25 0 25 -24v-59q0 -25 -25 -25h-412q-25 0 -25 25v59q0 24 25 24z" />
    <glyph glyph-name="radical" unicode="&#x221a;" horiz-adv-x="400" 
d="M109 446h182q18 0 26 -7.5t8 -26.5v-181q0 -35 -34 -35h-182q-34 0 -34 35v181q0 19 8 26.5t26 7.5zM291 426h-182q-15 0 -15 -14v-181q0 -16 15 -16h182q14 0 14 16v181q0 14 -14 14z" />
    <glyph glyph-name="infinity" unicode="&#x221e;" horiz-adv-x="400" 
d="M47 345l129 129q12 12 24 12t24 -12l129 -129q12 -12 12 -24q0 -13 -12 -24l-129 -128q-14 -14 -24 -14t-24 14l-129 128q-13 12 -13 24q0 11 13 24zM190 460l-128 -128q-6 -6 -6 -12q0 -4 5 -9l129 -129q5 -5 10 -5t10 5l129 129q5 5 5 9q0 6 -6 12l-128 128q-4 4 -10 4
t-10 -4z" />
    <glyph glyph-name="integral" unicode="&#x222b;" horiz-adv-x="400" 
d="M23 320q0 74 51.5 126t124.5 52t125 -52t52 -126q0 -73 -51.5 -124.5t-125.5 -51.5q-73 0 -124.5 51t-51.5 125z" />
    <glyph glyph-name="approxequal" unicode="&#x2248;" horiz-adv-x="504" 
d="M173 374q-8 0 -12.5 -5t-6 -10t-3.5 -16l-1 -6q-2 -13 -8 -17.5t-19 -4.5h-43q-23 0 -20 28l4 48q3 44 27.5 66t56.5 22q28 0 54 -11l90 -41q28 -13 40 -13q7 0 11 4.5t5 9.5t4 17l1 5q4 22 27 22h43q24 0 21 -29l-5 -41q-6 -47 -29 -70.5t-53 -23.5q-29 0 -61 14l-91 42
q-20 10 -32 10zM173 185q-8 0 -12.5 -5t-6 -10t-3.5 -16l-1 -6q-2 -13 -8 -17.5t-19 -4.5h-43q-23 0 -20 28l4 48q3 44 27.5 66t56.5 22q28 0 54 -11l90 -41q28 -13 40 -13q7 0 11 4.5t5 9.5t4 17l1 5q4 22 27 22h43q24 0 21 -29l-5 -41q-6 -47 -29 -70.5t-53 -23.5
q-29 0 -61 14l-91 42q-20 10 -32 10z" />
    <glyph glyph-name="notequal" unicode="&#x2260;" horiz-adv-x="581" 
d="M84 478h200l21 55q9 26 32 26h77q26 0 17 -26l-21 -55h86q25 0 25 -24v-60q0 -24 -25 -24h-126l-36 -97h162q25 0 25 -23v-60q0 -25 -25 -25h-202l-20 -55q-9 -25 -33 -25h-77q-25 0 -16 25l20 55h-84q-25 0 -25 25v60q0 23 25 23h124l36 97h-160q-25 0 -25 24v60
q0 24 25 24z" />
    <glyph glyph-name="lessequal" unicode="&#x2264;" horiz-adv-x="523" 
d="M438 500l-251 -76l251 -76q25 -8 25 -27v-80q0 -15 -6.5 -22t-18.5 -2l-356 134q-8 3 -12 5t-7.5 8t-3.5 14v93q0 18 23 27l356 133q12 4 18.5 -3t6.5 -21v-79q0 -20 -25 -28zM85 177h353q25 0 25 -24v-59q0 -24 -25 -24h-353q-26 0 -26 24v59q0 24 26 24z" />
    <glyph glyph-name="greaterequal" unicode="&#x2265;" horiz-adv-x="523" 
d="M336 424l-252 76q-25 8 -25 28v80q0 14 6.5 21t18.5 3l357 -133q22 -8 22 -28v-93q0 -18 -22 -27l-357 -134q-12 -4 -18.5 3t-6.5 21v80q0 20 25 28zM84 177h354q25 0 25 -24v-60q0 -24 -25 -24h-354q-25 0 -25 24v60q0 24 25 24z" />
    <glyph glyph-name="lozenge" unicode="&#x25ca;" horiz-adv-x="400" 
d="M54 338l129 129q9 9 17 9t17 -9l129 -129q8 -7 8 -17q0 -9 -8 -17l-129 -129q-10 -8 -17 -8t-17 8l-129 129q-9 9 -9 17q0 9 9 17z" />
    <glyph glyph-name="CR" horiz-adv-x="0" 
 />
    <glyph glyph-name="commaaccent" horiz-adv-x="290" 
d="M102 76v30q0 25 25 25h61q24 0 24 -25v-38q0 -61 -45 -133q-11 -18 -33 -13l-46 11q-25 6 -13 33q1 3 7.5 17t7.5 16.5t5 13.5t4.5 18t1.5 18.5t1 26.5z" />
    <glyph glyph-name="acute.case" horiz-adv-x="194" 
d="M196 853l-73 -106q-12 -17 -32 -17h-65q-26 0 -13 25l49 98q12 25 34 25h87q13 0 17 -7t-4 -18z" />
    <glyph glyph-name="macron.case" horiz-adv-x="194" 
d="M-18 849h231q25 0 25 -23v-51q0 -25 -25 -25h-231q-25 0 -25 25v51q0 23 25 23z" />
    <glyph glyph-name="breve.case" horiz-adv-x="194" 
d="M52 860v-17q0 -44 45 -44t45 44v17q0 20 22 20h50q22 0 22 -20v-14q0 -59 -36.5 -91.5t-105.5 -32.5q-136 0 -136 124v14q0 20 22 20h50q22 0 22 -20z" />
    <glyph glyph-name="caron.case" horiz-adv-x="194" 
d="M72 854l25 -46l25 46q13 24 34 24h64q13 0 16.5 -7t-3.5 -17l-73 -99q-20 -25 -39 -25h-48q-19 0 -39 26l-73 98q-7 10 -3.5 17t16.5 7h64q21 0 34 -24z" />
    <glyph glyph-name="ring.case" horiz-adv-x="194" 
d="M209 821v-29q0 -33 -28.5 -55.5t-83.5 -22.5t-83.5 22.5t-28.5 55.5v29q0 33 28.5 55.5t83.5 22.5t83.5 -22.5t28.5 -55.5zM137 801v12q0 30 -40 30t-40 -30v-12q0 -31 40 -31t40 31z" />
    <glyph glyph-name="circumflex.case" horiz-adv-x="194" 
d="M97 800l-25 -45q-14 -25 -34 -25h-64q-13 0 -16.5 7t3.5 18l73 98q18 25 39 25h48q19 0 39 -25l73 -98q7 -11 3.5 -18t-16.5 -7h-64q-21 0 -34 25z" />
    <glyph glyph-name="tilde.case" horiz-adv-x="194" 
d="M37 786q-19 0 -19 -25v-5q0 -22 -27 -22h-43q-24 0 -21 29l4 41q4 37 28.5 57.5t59.5 20.5q30 0 58 -13l43 -21q30 -15 37 -15q9 0 13 5t6 19l1 6q4 22 27 22h43q23 0 21 -29l-3 -39q-3 -38 -26.5 -58t-56.5 -20t-64 13l-43 19q-32 15 -38 15z" />
    <glyph glyph-name="dieresis.case" horiz-adv-x="194" 
d="M76 850v-93q0 -25 -24 -25h-49q-24 0 -24 25v93q0 26 24 26h49q24 0 24 -26zM215 850v-93q0 -25 -23 -25h-49q-24 0 -24 25v93q0 26 24 26h49q23 0 23 -26z" />
    <glyph glyph-name="dotaccent.case" horiz-adv-x="194" 
d="M164 839v-82q0 -13 -5 -18.5t-19 -5.5h-85q-13 0 -18.5 5.5t-5.5 18.5v82q0 25 24 25h85q24 0 24 -25z" />
    <glyph glyph-name="grave.case" horiz-adv-x="194" 
d="M79 747l-72 105q-8 11 -4 18.5t17 7.5h87q22 0 34 -25l48 -98q11 -25 -12 -25h-65q-20 0 -33 17z" />
    <glyph glyph-name="hungarumlaut.case" horiz-adv-x="194" 
d="M259 853l-69 -99q-16 -24 -37 -24h-61q-13 0 -16.5 7t3.5 18l57 98q14 25 38 25h73q13 0 16.5 -7t-4.5 -18zM99 853l-55 -98q-13 -25 -33 -25h-61q-13 0 -17.5 7t0.5 18l42 98q11 25 34 25h73q13 0 18 -7t-1 -18z" />
    <glyph glyph-name="apple" horiz-adv-x="1476" 
d="M708 320q17 0 28.5 -13.5t11.5 -37.5q0 -68 -87 -68v-40l3 -32q-24 -8 -32 -8q-11 0 -11 8v75l-25 -3v-3q0 -79 -68 -79q-21 0 -31 10.5t-10 23.5q0 36 70 53v42q-17 -48 -46 -48q-28 0 -28 31v3q-19 -33 -53 -33q-29 0 -29 30v101l-29 -2v4q0 20 12 20h17l-3 30
q24 8 32 8q11 0 11 -8v-29h47v-3q0 -21 -12 -21h-35v-86q0 -16 13 -16q9 0 19 8t10 18v25l-3 33q24 8 32 8q11 0 11 -9v-66q0 -15 7 -15q8 0 17.5 17.5t8.5 30.5l-2 34q24 8 31 8q11 0 11 -9v-99l25 3v61l-3 36q24 8 32 8q11 0 11 -9v-40q17 48 47 48zM377 289v-49l3 -32
q-24 -8 -31 -8q-11 0 -11 8v66q0 16 -8 16q-6 0 -16 -17.5t-10 -30.5l2 -34q-24 -8 -31 -8q-11 0 -11 8v66q0 16 -8 16q-7 0 -16.5 -17.5t-9.5 -30.5l3 -34q-24 -8 -32 -8q-11 0 -11 8v69l-3 36q24 8 32 8q11 0 11 -9v-40q3 9 7.5 19t15 20t22.5 10q29 0 29 -32v-17
q14 49 45 49q28 0 28 -32zM1210 332l-29 -2v4q0 20 12 20h17l-3 30q24 8 32 8q11 0 11 -8v-29h47v-3q0 -21 -12 -21h-35v-90q0 -15 16 -15q11 0 38.5 5.5t46.5 5.5q17 0 39.5 -6t22.5 -18q0 -14 -9.5 -21t-17.5 -7q-2 0 -26.5 12t-44.5 12q-7 0 -32 -4t-44 -4q-20 0 -24 16
q-2 8 -5 108v7zM66 529v8h1338v-8h-1338zM66 0v8h1338v-8h-1338zM1068 289v-49l2 -32q-24 -8 -31 -8q-11 0 -11 8v67q0 15 -8 15q-7 0 -16.5 -17.5t-9.5 -30.5l3 -34q-24 -8 -32 -8q-11 0 -11 8v69l-3 36q24 8 32 8q11 0 11 -9v-40q18 49 45 49q29 0 29 -32zM147 258
q-16 -6 -44 -6q2 -22 26 -22q17 0 32 9q8 -5 8 -16q0 -4 -2.5 -8.5t-14 -9.5t-30.5 -5q-28 0 -44 14.5t-16 38.5q0 27 18.5 47.5t50.5 20.5q19 0 30 -9.5t11 -21.5q0 -24 -25 -32zM846 258q-16 -6 -44 -6q2 -22 26 -22q17 0 32 9q8 -5 8 -16q0 -4 -2.5 -8.5t-14 -9.5
t-30.5 -5q-28 0 -44 14.5t-16 38.5q0 27 18.5 47.5t50.5 20.5q19 0 30 -9.5t11 -21.5q0 -24 -25 -32zM1169 258q-16 -6 -44 -6q2 -22 26 -22q17 0 32 9q8 -5 8 -16q0 -4 -2.5 -8.5t-14 -9.5t-30.5 -5q-28 0 -44 14.5t-16 38.5q0 27 18.5 47.5t50.5 20.5q19 0 30 -9.5
t11 -21.5q0 -24 -25 -32zM661 219q45 6 45 51q0 20 -13 20t-22.5 -18.5t-9.5 -29.5v-23zM911 250q11 0 18.5 -7t7.5 -17t-7.5 -16.5t-18.5 -6.5t-18 6.5t-7 16.5t7 17t18 7zM556 194q-41 -9 -41 -32q0 -14 14 -14q25 0 27 46zM102 264q37 0 37 21q0 13 -13 13q-20 0 -24 -34
zM1124 264q37 0 37 21q0 13 -13 13q-20 0 -24 -34zM801 264q37 0 37 21q0 13 -13 13q-20 0 -24 -34z" />
    </font>
</defs>
</svg>
