<?xml version="1.0" standalone="no"?>
<!DOCTYPE svg PUBLIC "-//W3C//DTD SVG 1.1//EN" "http://www.w3.org/Graphics/SVG/1.1/DTD/svg11.dtd" >
<svg>
<metadata>
Created by FontForge 20090622 at Sat Dec 19 19:25:20 2015
 By deploy user
Copyright (c) 2009 by Eduardo Manso. All rights reserved.
</metadata>
<defs>
<font id="Geogrotesque-Light" horiz-adv-x="519" >
  <font-face 
    font-family="Geogrotesque Lg"
    font-weight="300"
    font-stretch="normal"
    units-per-em="1000"
    panose-1="2 0 0 0 0 0 0 0 0 0"
    ascent="750"
    descent="-250"
    x-height="493"
    cap-height="680"
    bbox="-60 -218 1420 964"
    underline-thickness="50"
    underline-position="-50"
    unicode-range="U+0020-U+FB04"
  />
<missing-glyph horiz-adv-x="862" 
d="M679 94q-104 -102 -249 -102q-144 0 -246 102q-103 101 -103 247q0 144 103 247q102 102 246 102q147 0 249 -102q103 -103 103 -247t-103 -247zM667 106q99 99 99 235t-99 235q-98 98 -237 98q-136 0 -234 -98q-99 -99 -99 -235q0 -138 99 -235q98 -98 234 -98
q139 0 237 98zM554 188l-123 123l-122 -122q-5 -5 -9 -5q-3 0 -8 5l-14 14q-4 4 -4 8q0 5 4 9l122 122l-122 123q-5 5 -5 8q0 4 5 9l14 13q5 5 9 5t8 -4l122 -123l124 123q4 4 8 4q5 0 9 -4l14 -14q4 -4 4 -9q0 -4 -4 -8l-123 -123l122 -123q5 -5 5 -9q0 -3 -5 -8l-14 -14
q-4 -4 -9 -4q-4 0 -8 4z" />
    <glyph glyph-name="ff" unicode="ff" horiz-adv-x="607" 
d="M100 491h10v89q0 123 179 123h5q12 0 12 -12v-21q0 -12 -12 -12h-5q-127 0 -127 -83v-84h238v91q0 123 179 123h5q12 0 12 -12v-20q0 -13 -12 -13h-5q-127 0 -127 -83v-86h116q12 0 12 -11v-20q0 -12 -12 -12h-116v-436q0 -12 -12 -12h-28q-12 0 -12 12v436h-238v-436
q0 -12 -11 -12h-29q-12 0 -12 12v436h-65q-12 0 -12 12v16q0 12 12 12z" />
    <glyph glyph-name="fi" unicode="fi" horiz-adv-x="534" 
d="M449 479v-467q0 -12 -11 -12h-29q-12 0 -12 12v436h-238v-436q0 -12 -12 -12h-29q-11 0 -11 12v436h-65q-12 0 -12 12v16q0 12 12 12l55 3h10v85q0 123 179 123h128q12 0 12 -12v-21q0 -12 -12 -12h-128q-127 0 -127 -83v-80h278q12 0 12 -12z" />
    <glyph glyph-name="fl" unicode="fl" horiz-adv-x="534" 
d="M449 687v-675q0 -12 -11 -12h-29q-12 0 -12 12v642h-111q-127 0 -127 -83v-80h116q12 0 12 -11v-20q0 -12 -12 -12h-116v-436q0 -12 -12 -12h-29q-11 0 -11 12v436h-65q-12 0 -12 12v16q0 12 12 12l55 3h10v85q0 123 179 123h151q12 0 12 -12z" />
    <glyph glyph-name="ffi" unicode="ffi" horiz-adv-x="827" 
d="M100 491h10v89q0 123 179 123h5q12 0 12 -12v-21q0 -12 -12 -12h-5q-127 0 -127 -83v-84h238v85q0 123 179 123h128q13 0 13 -12v-21q0 -12 -13 -12h-128q-127 0 -127 -83v-80h278q13 0 13 -12v-467q0 -12 -11 -12h-29q-12 0 -12 12v436h-239v-436q0 -12 -11 -12h-29
q-12 0 -12 12v436h-238v-436q0 -12 -11 -12h-29q-12 0 -12 12v436h-65q-12 0 -12 12v16q0 12 12 12z" />
    <glyph glyph-name="ffl" unicode="ffl" horiz-adv-x="827" 
d="M100 491h10v89q0 123 179 123h5q12 0 12 -12v-21q0 -12 -12 -12h-5q-127 0 -127 -83v-84h238v85q0 123 180 123h150q13 0 13 -12v-675q0 -12 -11 -12h-29q-12 0 -12 12v642h-111q-70 0 -98.5 -21.5t-28.5 -61.5v-80h116q12 0 12 -11v-20q0 -12 -12 -12h-116v-436
q0 -12 -12 -12h-29q-12 0 -12 12v436h-238v-436q0 -12 -11 -12h-29q-12 0 -12 12v436h-65q-12 0 -12 12v16q0 12 12 12z" />
    <glyph glyph-name=".notdef" horiz-adv-x="862" 
d="M679 94q-104 -102 -249 -102q-144 0 -246 102q-103 101 -103 247q0 144 103 247q102 102 246 102q147 0 249 -102q103 -103 103 -247t-103 -247zM667 106q99 99 99 235t-99 235q-98 98 -237 98q-136 0 -234 -98q-99 -99 -99 -235q0 -138 99 -235q98 -98 234 -98
q139 0 237 98zM554 188l-123 123l-122 -122q-5 -5 -9 -5q-3 0 -8 5l-14 14q-4 4 -4 8q0 5 4 9l122 122l-122 123q-5 5 -5 8q0 4 5 9l14 13q5 5 9 5t8 -4l122 -123l124 123q4 4 8 4q5 0 9 -4l14 -14q4 -4 4 -9q0 -4 -4 -8l-123 -123l122 -123q5 -5 5 -9q0 -3 -5 -8l-14 -14
q-4 -4 -9 -4q-4 0 -8 4z" />
    <glyph glyph-name=".null" horiz-adv-x="0" 
 />
    <glyph glyph-name="nonmarkingreturn" horiz-adv-x="333" 
 />
    <glyph glyph-name="space" unicode=" " horiz-adv-x="232" 
 />
    <glyph glyph-name="exclam" unicode="!" horiz-adv-x="248" 
d="M151 390l-5 -221q0 -12 -12 -12h-21q-11 0 -11 12l-6 221v278q0 12 12 12h32q11 0 11 -12v-278zM150 89v-77q0 -12 -11 -12h-30q-12 0 -12 12v77q0 12 12 12h30q11 0 11 -12z" />
    <glyph glyph-name="quotedbl" unicode="&#x22;" horiz-adv-x="350" 
d="M137 668l-5 -173q0 -13 -11 -13h-20q-12 0 -12 13l-4 173q0 12 12 12h29q11 0 11 -12zM265 668l-4 -173q0 -13 -12 -13h-20q-11 0 -11 13l-5 173q0 12 11 12h29q12 0 12 -12z" />
    <glyph glyph-name="numbersign" unicode="#" horiz-adv-x="646" 
d="M99 270h85l33 119h-78q-12 0 -12 12v16q0 12 12 12h89l28 101q3 12 15 12h22q13 0 9 -12l-28 -101h160l29 101q3 12 14 12h22q13 0 9 -12l-29 -101h68q12 0 12 -12v-16q0 -12 -12 -12h-79l-33 -119h72q11 0 11 -12v-16q0 -12 -11 -12h-83l-27 -99q-3 -12 -15 -12h-23
q-11 0 -8 12l28 99h-161l-28 -99q-3 -12 -14 -12h-22q-12 0 -9 12l28 99h-74q-12 0 -12 12v16q0 12 12 12zM262 389l-33 -119h160l34 119h-161z" />
    <glyph glyph-name="dollar" unicode="$" horiz-adv-x="527" 
d="M383 454v31q0 69 -121 69q-119 0 -119 -69v-31q0 -23 17 -39.5t39 -22.5l156 -49q84 -27 84 -91v-59q0 -43 -36.5 -72t-109.5 -35v-74q0 -12 -11 -12h-29q-12 0 -12 12v73q-78 4 -116 33.5t-38 74.5v28q0 11 11 11h27q10 0 10 -11v-26q0 -32 32.5 -51t94.5 -19
q63 0 96 19t33 51v45q0 41 -63 61l-156 49q-30 10 -54 35.5t-24 59.5v40q0 45 35.5 74.5t111.5 33.5v75q0 12 12 12h29q11 0 11 -12v-75q71 -6 105 -35.5t34 -72.5v-31q0 -11 -12 -11h-26q-11 0 -11 11z" />
    <glyph glyph-name="percent" unicode="%" horiz-adv-x="751" 
d="M87 485v111q0 90 130 90q129 0 129 -90v-111q0 -91 -129 -91q-130 0 -130 91zM301 486v109q0 55 -84 55q-85 0 -85 -55v-109q0 -54 85 -54q84 0 84 54zM619 83v109q0 54 -85 54t-85 -54v-109q0 -55 85 -55t85 55zM405 82v111q0 91 129 91q130 0 130 -91v-111
q0 -90 -130 -90q-129 0 -129 90zM546 668l-298 -656q-5 -12 -17 -12h-26q-10 0 -5 12l299 656q5 12 16 12h25q12 0 6 -12z" />
    <glyph glyph-name="ampersand" unicode="&#x26;" horiz-adv-x="665" 
d="M292 385h318q12 0 12 -12v-22q0 -11 -12 -11h-79v-209q0 -63 -52 -101t-167 -38q-219 0 -219 138v117q0 48 20 76t75 40q-51 12 -69.5 39t-18.5 74v74q0 65 41.5 101.5t148.5 36.5t149 -37t42 -102v-19q0 -12 -11 -12h-29q-12 0 -12 12v13q0 49 -30.5 74.5t-108.5 25.5
t-108 -25.5t-30 -74.5v-60q0 -50 29 -74t111 -24zM312 37q167 0 167 100v203h-194q-82 0 -110.5 -24.5t-28.5 -74.5v-104q0 -100 166 -100z" />
    <glyph glyph-name="quotesingle" unicode="'" horiz-adv-x="222" 
d="M137 668l-5 -173q0 -13 -11 -13h-20q-12 0 -12 13l-4 173q0 12 12 12h29q11 0 11 -12z" />
    <glyph glyph-name="parenleft" unicode="(" horiz-adv-x="353" 
d="M93 -95v680q0 123 179 123h6q12 0 12 -12v-21q0 -12 -12 -12h-6q-69 0 -97 -21.5t-28 -61.5v-670q0 -40 28 -61.5t97 -21.5h6q12 0 12 -12v-21q0 -12 -12 -12h-6q-179 0 -179 123z" />
    <glyph glyph-name="parenright" unicode=")" horiz-adv-x="353" 
d="M259 585v-680q0 -123 -178 -123h-5q-12 0 -12 12v21q0 12 12 12h5q69 0 97 21.5t28 61.5v670q0 40 -28 61.5t-97 21.5h-5q-12 0 -12 12v21q0 12 12 12h5q178 0 178 -123z" />
    <glyph glyph-name="asterisk" unicode="*" horiz-adv-x="502" 
d="M243 368q-11 0 -11 13l4 131l-113 -73q-11 -8 -17 4l-7 14q-6 11 5 16l114 65l-114 66q-11 6 -5 16l7 13q6 11 17 5l113 -74l-4 134q0 12 12 12h15q11 0 11 -12l-4 -134l113 74q11 8 17 -5l7 -13q6 -10 -5 -16l-115 -66l115 -65q10 -5 5 -16l-7 -14q-6 -11 -17 -4
l-112 72l3 -130q0 -13 -11 -13h-16z" />
    <glyph glyph-name="plus" unicode="+" horiz-adv-x="584" 
d="M269 144v173h-172q-12 0 -12 11v22q0 12 12 12h172v173q0 12 11 12h21q12 0 12 -12v-173h175q11 0 11 -12v-22q0 -11 -11 -11h-175v-173q0 -12 -12 -12h-21q-11 0 -11 12z" />
    <glyph glyph-name="comma" unicode="," horiz-adv-x="212" 
d="M80 30v59q0 12 11 12h30q12 0 12 -12v-61q0 -86 -88 -114q-11 -3 -15 7l-8 21q-4 10 7 15q51 24 51 73z" />
    <glyph glyph-name="hyphen" unicode="-" horiz-adv-x="462" 
d="M97 311h268q12 0 12 -11v-21q0 -12 -12 -12h-268q-12 0 -12 12v21q0 11 12 11z" />
    <glyph glyph-name="period" unicode="." horiz-adv-x="213" 
d="M133 89v-77q0 -12 -12 -12h-29q-12 0 -12 12v77q0 12 12 12h29q12 0 12 -12z" />
    <glyph glyph-name="slash" unicode="/" horiz-adv-x="370" 
d="M323 687l-220 -823q-3 -12 -15 -12h-32q-12 0 -9 12l220 823q3 12 15 12h32q12 0 9 -12z" />
    <glyph glyph-name="zero" unicode="0" horiz-adv-x="536" 
d="M69 133v414q0 66 44.5 103.5t154.5 37.5q111 0 155 -37.5t44 -103.5v-414q0 -66 -44 -103.5t-155 -37.5q-110 0 -154.5 37.5t-44.5 103.5zM414 141v398q0 50 -32 76.5t-114 26.5t-113.5 -26.5t-31.5 -76.5v-398q0 -50 31.5 -76.5t113.5 -26.5t114 26.5t32 76.5z" />
    <glyph glyph-name="one" unicode="1" horiz-adv-x="536" 
d="M88 628l208 54q11 2 11 -10v-626h166q11 0 11 -12v-22q0 -12 -11 -12h-386q-12 0 -12 12v22q0 12 12 12h167v577l-166 -43q-12 -3 -12 10v23q0 12 12 15z" />
    <glyph glyph-name="two" unicode="2" horiz-adv-x="536" 
d="M141 46h321q12 0 12 -12v-22q0 -12 -12 -12h-363q-11 0 -11 12v195q0 63 86 91l181 54q63 20 63 74v114q0 51 -31 77t-113 26q-81 0 -112 -26.5t-31 -76.5v-49q0 -13 -11 -13h-29q-12 0 -12 13v56q0 66 42.5 103.5t152.5 37.5q111 0 154 -37.5t43 -103.5v-120
q0 -50 -28.5 -78t-59.5 -37l-171 -49q-71 -19 -71 -70v-147z" />
    <glyph glyph-name="three" unicode="3" horiz-adv-x="536" 
d="M174 385h87q82 0 110.5 24t28.5 74v60q0 49 -30 74.5t-108 25.5t-108.5 -25.5t-30.5 -74.5v-13q0 -12 -12 -12h-28q-12 0 -12 12v19q0 65 42.5 102t149.5 37t148.5 -36.5t41.5 -101.5v-74q0 -46 -19 -73.5t-70 -39.5q55 -12 75 -40t20 -76v-117q0 -65 -43.5 -101.5
t-152.5 -36.5t-153 37t-44 102v19q0 12 12 12h29q11 0 11 -12v-13q0 -49 32.5 -74.5t112.5 -25.5q79 0 111 25.5t32 74.5v104q0 51 -28.5 75t-110.5 24h-93q-12 0 -12 11v22q0 12 12 12z" />
    <glyph glyph-name="four" unicode="4" horiz-adv-x="536" 
d="M254 668l-147 -398h287v398q0 12 12 12h30q12 0 12 -12v-656q0 -12 -12 -12h-30q-12 0 -12 12v212h-331q-12 0 -12 12v21q0 5 4 17l146 394q5 12 15 12h30q13 0 8 -12z" />
    <glyph glyph-name="five" unicode="5" horiz-adv-x="536" 
d="M106 680h325q12 0 12 -12v-22q0 -12 -12 -12h-283v-225h119q94 0 143 -33t49 -94v-151q0 -67 -40.5 -103t-148.5 -36t-148.5 36t-40.5 103v19q0 12 12 12h28q12 0 12 -12v-13q0 -51 28 -75.5t109 -24.5q80 0 108 24.5t28 75.5v138q0 89 -140 89h-160q-11 0 -11 12v292
q0 12 11 12z" />
    <glyph glyph-name="six" unicode="6" horiz-adv-x="536" 
d="M75 133v420q0 135 193 135q192 0 192 -135v-16q0 -12 -12 -12h-29q-11 0 -11 12v10q0 96 -140 96q-79 0 -109.5 -26t-30.5 -70v-200q32 55 148 55q107 0 149 -37.5t42 -103.5v-128q0 -66 -42.5 -103.5t-153.5 -37.5q-110 0 -153 37.5t-43 103.5zM414 139v116
q0 51 -30.5 76.5t-112.5 25.5q-78 0 -110.5 -24.5t-32.5 -69.5v-124q0 -50 31 -76t112 -26q82 0 112.5 26t30.5 76z" />
    <glyph glyph-name="seven" unicode="7" horiz-adv-x="536" 
d="M67 680h404q11 0 11 -12v-22q0 -5 -2 -11l-260 -623q-5 -12 -15 -12h-35q-14 0 -9 12l261 622h-355q-12 0 -12 12v22q0 12 12 12z" />
    <glyph glyph-name="eight" unicode="8" horiz-adv-x="536" 
d="M80 482v65q0 67 39.5 104t148.5 37q110 0 149 -37t39 -104v-65q0 -48 -20.5 -77t-74.5 -41q57 -12 79.5 -41.5t22.5 -76.5v-113q0 -66 -42.5 -103.5t-152.5 -37.5t-152.5 37.5t-42.5 103.5v113q0 47 22.5 76.5t79.5 41.5q-54 12 -74.5 41t-20.5 77zM411 139v100
q0 51 -30.5 77t-112.5 26q-81 0 -111.5 -26t-30.5 -77v-100q0 -50 30.5 -76t111.5 -26q82 0 112.5 26t30.5 76zM404 489v52q0 51 -27.5 76.5t-108.5 25.5q-80 0 -107.5 -25.5t-27.5 -76.5v-52q0 -52 27.5 -77.5t107.5 -25.5q81 0 108.5 25.5t27.5 77.5z" />
    <glyph glyph-name="nine" unicode="9" horiz-adv-x="536" 
d="M461 547v-420q0 -135 -193 -135q-191 0 -191 135v16q0 12 12 12h29q11 0 11 -12v-10q0 -96 139 -96q80 0 110 26t30 70v199q-33 -54 -148 -54q-106 0 -148.5 37.5t-42.5 103.5v128q0 66 43 103.5t154 37.5q110 0 152.5 -37.5t42.5 -103.5zM408 541q0 50 -30.5 76
t-111.5 26q-82 0 -113 -26t-31 -76v-116q0 -50 31 -76t113 -26q78 0 110 25t32 71v122z" />
    <glyph glyph-name="colon" unicode=":" horiz-adv-x="213" 
d="M133 89v-77q0 -12 -12 -12h-29q-12 0 -12 12v77q0 12 12 12h29q12 0 12 -12zM133 480v-77q0 -12 -12 -12h-29q-12 0 -12 12v77q0 13 12 13h29q12 0 12 -13z" />
    <glyph glyph-name="semicolon" unicode=";" horiz-adv-x="264" 
d="M185 480v-77q0 -12 -12 -12h-29q-12 0 -12 12v77q0 13 12 13h29q12 0 12 -13zM132 30v59q0 12 12 12h29q12 0 12 -12v-61q0 -83 -88 -114q-11 -3 -15 7l-8 21q-4 10 7 15q29 13 40 30t11 43z" />
    <glyph glyph-name="less" unicode="&#x3c;" horiz-adv-x="544" 
d="M447 478l-310 -138l310 -137q12 -4 12 -14v-29q0 -15 -12 -9l-351 160q-11 5 -11 14v31q0 9 11 14l351 160q12 5 12 -9v-29q0 -9 -12 -14z" />
    <glyph glyph-name="equal" unicode="=" horiz-adv-x="590" 
d="M97 442h396q12 0 12 -12v-21q0 -12 -12 -12h-396q-12 0 -12 12v21q0 12 12 12zM97 271h396q12 0 12 -12v-21q0 -12 -12 -12h-396q-12 0 -12 12v21q0 12 12 12z" />
    <glyph glyph-name="greater" unicode="&#x3e;" horiz-adv-x="543" 
d="M407 340l-310 138q-12 5 -12 13v30q0 16 12 10l351 -161q11 -5 11 -13v-33q0 -8 -11 -13l-351 -161q-12 -6 -12 10v29q0 10 12 14z" />
    <glyph glyph-name="question" unicode="?" horiz-adv-x="568" 
d="M248 169v81q0 64 67 97l64 32q54 29 54 82v79q0 50 -34 76.5t-116 26.5t-115.5 -26.5t-33.5 -76.5v-49q0 -13 -12 -13h-28q-12 0 -12 13v56q0 141 201 141q203 0 203 -141v-84q0 -83 -80 -123l-52 -26q-52 -26 -52 -75v-70q0 -12 -12 -12h-30q-12 0 -12 12zM302 89v-77
q0 -12 -12 -12h-30q-12 0 -12 12v77q0 12 12 12h30q12 0 12 -12z" />
    <glyph glyph-name="at" unicode="@" horiz-adv-x="824" 
d="M598 -113h-186q-94 0 -158.5 12.5t-97.5 36t-46.5 50.5t-13.5 62v407q0 36 13.5 63t47 50t97.5 35.5t158 12.5q93 0 157.5 -12.5t98 -35.5t47 -50t13.5 -63v-299q0 -123 -115 -123q-83 0 -102 65q-76 -65 -162 -65q-115 0 -115 102q0 13 1 20l18 180q13 124 134 124
q75 0 144 -59l6 39q1 12 13 12h25q11 0 10 -12l-28 -275q-4 -41 10.5 -66t48.5 -25q61 0 61 89v292q0 37 -21.5 62t-82 41t-161.5 16q-147 0 -206 -31t-59 -88v-404q0 -37 21.5 -62t82 -41t161.5 -16h186q12 0 12 -12v-20q0 -12 -12 -12zM303 327l-17 -165q0 -2 -0.5 -6
t-0.5 -6q0 -31 20 -49.5t62 -18.5q63 0 137 53q0 11 1 18l21 203q-66 56 -127 56q-87 0 -96 -85z" />
    <glyph glyph-name="A" unicode="A" 
d="M244 680h31q12 0 15 -12l203 -656q5 -12 -9 -12h-31q-11 0 -14 12l-61 194h-241l-59 -194q-3 -12 -14 -12h-29q-13 0 -9 12l203 656q3 12 15 12zM366 249l-83 268q-11 37 -25 106q-8 -53 -23 -104l-85 -270h216z" />
    <glyph glyph-name="B" unicode="B" horiz-adv-x="579" 
d="M303 0h-195q-12 0 -12 12v656q0 12 12 12h169q209 0 209 -137v-68q0 -91 -95 -119q121 -24 121 -124v-92q0 -140 -209 -140zM303 330h-154v-285h154q156 0 156 102v82q0 101 -156 101zM277 635h-128v-262h139q145 0 145 103v60q0 48 -36 73.5t-120 25.5z" />
    <glyph glyph-name="C" unicode="C" horiz-adv-x="547" 
d="M493 198v-65q0 -141 -204 -141t-204 141v414q0 141 204 141t204 -141v-52q0 -13 -11 -13h-29q-12 0 -12 13v44q0 49 -34.5 76t-117.5 27t-117 -26.5t-34 -76.5v-398q0 -50 34 -76.5t117 -26.5t117.5 27t34.5 76v57q0 11 12 11h29q11 0 11 -11z" />
    <glyph glyph-name="D" unicode="D" horiz-adv-x="599" 
d="M305 0h-198q-11 0 -11 12v656q0 12 11 12h198q209 0 209 -141v-398q0 -141 -209 -141zM305 634h-156v-588h156q156 0 156 103v382q0 103 -156 103z" />
    <glyph glyph-name="E" unicode="E" horiz-adv-x="527" 
d="M461 0h-354q-11 0 -11 12v656q0 12 12 12h341q12 0 12 -12v-22q0 -12 -12 -12h-300v-254h282q12 0 12 -12v-21q0 -12 -12 -12h-282v-289h312q12 0 12 -12v-22q0 -12 -12 -12z" />
    <glyph glyph-name="F" unicode="F" horiz-adv-x="531" 
d="M108 680h367q12 0 12 -12v-22q0 -12 -12 -12h-326v-256h308q12 0 12 -12v-22q0 -12 -12 -12h-308v-320q0 -12 -11 -12h-30q-12 0 -12 12v656q0 12 12 12z" />
    <glyph glyph-name="G" unicode="G" horiz-adv-x="563" 
d="M298 319h183q12 0 12 -12v-174q0 -141 -204 -141t-204 141v414q0 141 204 141t204 -141v-50q0 -12 -11 -12h-29q-12 0 -12 12v42q0 49 -34.5 76t-117.5 27t-117 -26.5t-34 -76.5v-398q0 -50 34 -76.5t117 -26.5q152 0 152 101v134h-143q-12 0 -12 12v22q0 12 12 12z" />
    <glyph glyph-name="H" unicode="H" horiz-adv-x="610" 
d="M149 668v-282h312v282q0 12 11 12h31q11 0 11 -12v-656q0 -12 -11 -12h-31q-11 0 -11 12v328h-312v-328q0 -12 -11 -12h-30q-12 0 -12 12v656q0 12 12 12h30q11 0 11 -12z" />
    <glyph glyph-name="I" unicode="I" horiz-adv-x="245" 
d="M149 668v-656q0 -12 -11 -12h-30q-12 0 -12 12v656q0 12 12 12h30q11 0 11 -12z" />
    <glyph glyph-name="J" unicode="J" horiz-adv-x="491" 
d="M86 174v-33q0 -50 29 -76.5t103 -26.5t102 26.5t28 76.5v527q0 12 11 12h30q12 0 12 -12v-535q0 -66 -40.5 -103.5t-142.5 -37.5t-143 37.5t-41 103.5v41q0 12 12 12h29q11 0 11 -12z" />
    <glyph glyph-name="K" unicode="K" horiz-adv-x="539" 
d="M229 345l289 -333q4 -4 1.5 -8t-7.5 -4h-40q-7 0 -19 12l-269 308h-35v-308q0 -12 -11 -12h-30q-12 0 -12 12v656q0 12 12 12h30q11 0 11 -12v-307h34l247 308q9 11 20 11h33q15 0 6 -12z" />
    <glyph glyph-name="L" unicode="L" horiz-adv-x="494" 
d="M149 668v-622h296q12 0 12 -12v-22q0 -12 -12 -12h-339q-10 0 -10 12v656q0 12 12 12h30q11 0 11 -12z" />
    <glyph glyph-name="M" unicode="M" horiz-adv-x="720" 
d="M624 668v-656q0 -12 -11 -12h-29q-12 0 -12 12v553l-18 -52l-164 -397q-4 -12 -16 -12h-28q-10 0 -15 12l-170 404q-10 21 -15 44v-552q0 -12 -11 -12h-27q-12 0 -12 12v656q0 12 12 12h27q8 0 11 -7l198 -467l16 -47q10 29 17 46l196 469q2 6 11 6h29q11 0 11 -12z" />
    <glyph glyph-name="N" unicode="N" horiz-adv-x="609" 
d="M513 668v-656q0 -12 -11 -12h-27q-8 0 -11 6l-286 509q-26 41 -32 60v-563q0 -12 -11 -12h-27q-12 0 -12 12v656q0 12 12 12h27q7 0 10 -5l289 -513l29 -57v563q0 12 12 12h27q11 0 11 -12z" />
    <glyph glyph-name="O" unicode="O" horiz-adv-x="587" 
d="M85 133v414q0 141 208 141q210 0 210 -141v-414q0 -141 -210 -141q-208 0 -208 141zM449 141v398q0 103 -156 103q-155 0 -155 -103v-398q0 -103 155 -103q156 0 156 103z" />
    <glyph glyph-name="P" unicode="P" horiz-adv-x="563" 
d="M302 269h-153v-257q0 -12 -11 -12h-30q-12 0 -12 12v656q0 12 11 12h195q209 0 209 -141v-129q0 -141 -209 -141zM302 634h-153v-319h153q156 0 156 103v113q0 103 -156 103z" />
    <glyph glyph-name="Q" unicode="Q" horiz-adv-x="586" 
d="M503 547v-414q0 -121 -153 -138l143 -131q9 -8 1 -16l-16 -17q-7 -9 -16 -1l-174 162q-203 1 -203 141v414q0 141 208 141q210 0 210 -141zM138 540v-400q0 -103 155 -103q156 0 156 103v400q0 103 -156 103q-155 0 -155 -103z" />
    <glyph glyph-name="R" unicode="R" horiz-adv-x="587" 
d="M302 282h-153v-270q0 -12 -11 -12h-30q-12 0 -12 12v656q0 12 11 12h195q209 0 209 -141v-116q0 -111 -128 -135l137 -276q5 -12 -11 -12h-30q-10 0 -15 12l-132 271q-10 -1 -30 -1zM302 634h-153v-307h153q156 0 156 103v101q0 103 -156 103z" />
    <glyph glyph-name="S" unicode="S" horiz-adv-x="563" 
d="M434 498v43q0 49 -33.5 75.5t-115.5 26.5t-115.5 -26.5t-33.5 -75.5v-37q0 -62 63 -85l192 -73q100 -38 100 -125v-88q0 -141 -207 -141q-208 0 -208 141v52q0 13 12 13h29q12 0 12 -13v-46q0 -102 154 -102q156 0 156 102v71q0 61 -83 93l-186 72q-35 13 -60.5 44
t-25.5 74v54q0 141 201 141t201 -141v-49q0 -12 -12 -12h-29q-11 0 -11 12z" />
    <glyph glyph-name="T" unicode="T" horiz-adv-x="480" 
d="M32 680h416q12 0 12 -12v-22q0 -12 -12 -12h-182v-622q0 -12 -11 -12h-30q-12 0 -12 12v622h-181q-12 0 -12 12v22q0 12 12 12z" />
    <glyph glyph-name="U" unicode="U" horiz-adv-x="598" 
d="M143 668v-527q0 -103 156 -103t156 103v527q0 12 12 12h30q11 0 11 -12v-535q0 -141 -209 -141t-209 141v535q0 12 12 12h30q11 0 11 -12z" />
    <glyph glyph-name="V" unicode="V" 
d="M275 0h-31q-12 0 -15 12l-203 656q-4 12 9 12h33q11 0 14 -12l156 -505l22 -95q13 60 23 93l157 507q3 12 14 12h30q13 0 9 -12l-203 -656q-3 -12 -15 -12z" />
    <glyph glyph-name="W" unicode="W" horiz-adv-x="791" 
d="M426 668l129 -506l15 -74q8 44 16 74l130 506q3 12 14 12h26q13 0 10 -12l-167 -656q-3 -12 -15 -12h-30q-11 0 -14 12l-131 514q-7 25 -13 64l-14 -64l-130 -514q-3 -12 -15 -12h-30q-12 0 -15 12l-166 656q-3 12 9 12h31q11 0 14 -12l128 -506l16 -70q9 45 16 70
l130 506q3 12 14 12h28q11 0 14 -12z" />
    <glyph glyph-name="X" unicode="X" horiz-adv-x="546" 
d="M302 344l197 -332q8 -12 -6 -12h-36q-10 0 -18 12l-170 285l-166 -285q-8 -12 -17 -12h-33q-13 0 -6 13l194 333l-191 321q-7 13 5 13h37q10 0 17 -12l166 -278l159 278q7 12 17 12h33q13 0 6 -12z" />
    <glyph glyph-name="Y" unicode="Y" horiz-adv-x="509" 
d="M79 668l162 -308q9 -18 14 -33q0 3 15 33l164 308q7 12 15 12h29q16 0 9 -12l-205 -386v-270q0 -12 -12 -12h-30q-11 0 -11 12v264l-206 392q-6 12 8 12h33q9 0 15 -12z" />
    <glyph glyph-name="Z" unicode="Z" horiz-adv-x="504" 
d="M85 680h348q12 0 12 -12v-22q0 -5 -2 -9l-323 -591h328q12 0 12 -12v-22q0 -12 -12 -12h-381q-11 0 -11 12v22q0 7 3 13l320 587h-294q-12 0 -12 12v22q0 12 12 12z" />
    <glyph glyph-name="bracketleft" unicode="[" horiz-adv-x="358" 
d="M93 -199v886q0 12 12 12h175q12 0 12 -12v-22q0 -12 -12 -12h-133v-818h133q12 0 12 -12v-22q0 -12 -12 -12h-175q-12 0 -12 12z" />
    <glyph glyph-name="backslash" unicode="\" horiz-adv-x="370" 
d="M267 -136l-220 823q-3 12 9 12h32q12 0 15 -12l220 -823q3 -12 -9 -12h-32q-12 0 -15 12z" />
    <glyph glyph-name="bracketright" unicode="]" horiz-adv-x="358" 
d="M264 687v-886q0 -12 -11 -12h-175q-11 0 -11 12v22q0 12 11 12h133v818h-133q-11 0 -11 12v22q0 12 11 12h175q11 0 11 -12z" />
    <glyph glyph-name="asciicircum" unicode="^" horiz-adv-x="551" 
d="M413 317l-138 310l-137 -310q-5 -12 -14 -12h-29q-14 0 -9 12l160 352q6 11 13 11h32q7 0 13 -11l161 -352q5 -12 -9 -12h-29q-9 0 -14 12z" />
    <glyph glyph-name="underscore" unicode="_" horiz-adv-x="427" 
d="M35 -88h357q12 0 12 -11v-21q0 -12 -12 -12h-357q-12 0 -12 12v21q0 11 12 11z" />
    <glyph glyph-name="grave" unicode="`" horiz-adv-x="336" 
d="M184 577l-81 119q-9 12 6 12h32q9 0 16 -10l72 -117q7 -11 -5 -11h-25q-11 0 -15 7z" />
    <glyph glyph-name="a" unicode="a" horiz-adv-x="502" 
d="M75 360v18q0 123 174 123q95 0 134.5 -32t39.5 -91v-366q0 -12 -11 -12h-25q-12 0 -12 12l-2 40q-76 -60 -170 -60q-67 0 -102 32.5t-35 83.5v51q0 51 32.5 83.5t92.5 32.5h181v99q0 40 -27.5 62t-96.5 22t-96.5 -21.5t-27.5 -61.5v-15q0 -12 -12 -12h-26q-11 0 -11 12z
M214 36q83 0 158 59v138h-172q-83 0 -83 -80v-39q0 -78 97 -78z" />
    <glyph glyph-name="b" unicode="b" horiz-adv-x="520" 
d="M122 0h-25q-12 0 -12 12v675q0 12 12 12h28q12 0 12 -12v-247q77 61 172 61q69 0 103 -33t34 -90v-263q0 -57 -34 -90t-103 -33q-97 0 -174 61l-1 -41q0 -12 -12 -12zM395 122v249q0 37 -24 59.5t-74 22.5q-91 0 -160 -60v-295q76 -59 160 -59q50 0 74 23t24 60z" />
    <glyph glyph-name="c" unicode="c" horiz-adv-x="475" 
d="M249 501q95 0 135 -32.5t40 -91.5v-19q0 -12 -12 -12h-26q-12 0 -12 12v16q0 40 -27.5 61.5t-97.5 21.5q-69 0 -96.5 -21.5t-27.5 -61.5v-255q0 -41 27.5 -62t96.5 -21q70 0 97.5 21t27.5 62v24q0 12 12 12h26q12 0 12 -12v-28q0 -59 -40 -91t-136 -32q-175 0 -175 123
v262q0 59 40 91.5t136 32.5z" />
    <glyph glyph-name="d" unicode="d" horiz-adv-x="520" 
d="M386 12l-2 41q-77 -61 -174 -61q-69 0 -103 33t-34 90v263q0 57 34 90t103 33q93 0 173 -61v247q0 12 11 12h29q12 0 12 -12v-675q0 -12 -12 -12h-25q-12 0 -12 12zM125 371v-249q0 -37 24 -60t74 -23q80 0 160 59v295q-73 60 -160 60q-50 0 -74 -22.5t-24 -59.5z" />
    <glyph glyph-name="e" unicode="e" horiz-adv-x="490" 
d="M427 377v-124q0 -11 -11 -11h-292v-124q0 -40 28 -61.5t99 -21.5t99 21.5t28 61.5v21q0 12 11 12h26q12 0 12 -12v-24q0 -123 -177 -123t-177 123v262q0 124 178 124q176 0 176 -124zM124 375v-93h254v93q0 83 -127 83t-127 -83z" />
    <glyph glyph-name="f" unicode="f" horiz-adv-x="314" 
d="M97 491h9v91q0 123 180 123h5q12 0 12 -12v-20q0 -13 -12 -13h-5q-70 0 -98.5 -21.5t-28.5 -61.5v-86h116q12 0 12 -11v-20q0 -12 -12 -12h-116v-436q0 -12 -12 -12h-29q-12 0 -12 12v436h-65q-11 0 -11 12v16q0 12 11 12z" />
    <glyph glyph-name="g" unicode="g" horiz-adv-x="520" 
d="M210 -8q-69 0 -103 33t-34 90v263q0 57 34 90t103 33q96 0 174 -62l2 41q0 13 12 13h25q12 0 12 -13v-564q0 -124 -179 -124h-135q-12 0 -12 12v21q0 12 12 12h135q127 0 127 83v132q-78 -60 -173 -60zM125 371v-249q0 -37 24 -60t74 -23q80 0 160 59v295q-73 60 -160 60
q-50 0 -74 -22.5t-24 -59.5z" />
    <glyph glyph-name="h" unicode="h" horiz-adv-x="525" 
d="M137 687v-247q74 61 172 61q68 0 102.5 -32.5t34.5 -87.5v-369q0 -12 -11 -12h-29q-11 0 -11 12v359q0 83 -98 83q-91 0 -160 -60v-382q0 -12 -12 -12h-28q-12 0 -12 12v675q0 12 12 12h28q12 0 12 -12z" />
    <glyph glyph-name="i" unicode="i" horiz-adv-x="221" 
d="M137 480v-468q0 -12 -12 -12h-28q-12 0 -12 12v468q0 13 12 13h28q12 0 12 -13zM137 687v-95q0 -12 -12 -12h-28q-12 0 -12 12v95q0 12 12 12h28q12 0 12 -12z" />
    <glyph glyph-name="j" unicode="j" horiz-adv-x="221" 
d="M137 687v-95q0 -12 -12 -12h-29q-11 0 -11 12v95q0 12 11 12h29q12 0 12 -12zM137 480v-564q0 -124 -179 -124h-6q-12 0 -12 12v21q0 12 12 12h6q127 0 127 83v560q0 13 11 13h29q12 0 12 -13z" />
    <glyph glyph-name="k" unicode="k" horiz-adv-x="450" 
d="M216 280l223 -268q4 -4 2 -8t-7 -4h-33q-12 0 -21 12l-206 245h-37v-245q0 -12 -12 -12h-29q-11 0 -11 12v675q0 12 11 12h29q12 0 12 -12v-389h36l182 183q12 12 20 12h33q6 0 7.5 -3.5t-2.5 -8.5z" />
    <glyph glyph-name="l" unicode="l" horiz-adv-x="221" 
d="M137 687v-675q0 -12 -12 -12h-28q-12 0 -12 12v675q0 12 12 12h28q12 0 12 -12z" />
    <glyph glyph-name="m" unicode="m" horiz-adv-x="823" 
d="M97 493h25q12 0 12 -12l1 -41q72 61 168 61q98 0 128 -69q75 69 176 69q68 0 103 -32.5t35 -87.5v-369q0 -12 -12 -12h-28q-13 0 -13 12v359q0 83 -98 83q-84 0 -156 -61q2 -7 2 -22v-359q0 -12 -11 -12h-29q-11 0 -11 12v359q0 83 -98 83q-88 0 -154 -60v-382
q0 -12 -12 -12h-28q-12 0 -12 12v469q0 12 12 12z" />
    <glyph glyph-name="n" unicode="n" horiz-adv-x="525" 
d="M122 493q12 0 12 -12l1 -42q75 62 174 62q68 0 102.5 -32.5t34.5 -87.5v-369q0 -12 -11 -12h-29q-11 0 -11 12v359q0 83 -98 83q-91 0 -160 -60v-382q0 -12 -12 -12h-28q-12 0 -12 12v469q0 12 12 12h25z" />
    <glyph glyph-name="o" unicode="o" horiz-adv-x="508" 
d="M73 115v262q0 124 181 124t181 -124v-262q0 -123 -181 -123t-181 123zM383 119v255q0 83 -129 83t-129 -83v-255q0 -83 129 -83t129 83z" />
    <glyph glyph-name="p" unicode="p" horiz-adv-x="520" 
d="M97 493h25q12 0 12 -13l1 -41q78 62 174 62q69 0 103 -33t34 -90v-263q0 -57 -34 -90t-103 -33q-96 0 -172 60v-248q0 -12 -12 -12h-28q-12 0 -12 12v676q0 13 12 13zM395 122v249q0 37 -24 59.5t-74 22.5q-91 0 -160 -60v-295q76 -59 160 -59q50 0 74 23t24 60z" />
    <glyph glyph-name="q" unicode="q" horiz-adv-x="520" 
d="M384 439l2 41q0 13 12 13h25q12 0 12 -13v-676q0 -12 -12 -12h-29q-11 0 -11 12v248q-78 -60 -173 -60q-69 0 -103 33t-34 90v263q0 57 34 90t103 33q96 0 174 -62zM125 371v-249q0 -37 24 -60t74 -23q80 0 160 59v295q-73 60 -160 60q-50 0 -74 -22.5t-24 -59.5z" />
    <glyph glyph-name="r" unicode="r" horiz-adv-x="337" 
d="M305 500q13 0 13 -11v-24q0 -12 -13 -12q-50 -2 -96 -24.5t-72 -45.5v-371q0 -12 -12 -12h-28q-12 0 -12 12v469q0 12 12 12h25q12 0 12 -12l2 -54q81 73 169 73z" />
    <glyph glyph-name="s" unicode="s" horiz-adv-x="464" 
d="M356 361v31q0 69 -121 69q-119 0 -119 -69v-31q0 -23 17 -39.5t39 -22.5l156 -49q84 -27 84 -91v-59q0 -47 -44.5 -77.5t-132.5 -30.5t-131.5 30t-43.5 78v28q0 11 11 11h27q10 0 10 -11v-26q0 -32 32.5 -51t94.5 -19q63 0 96 19t33 51v45q0 41 -63 61l-156 49
q-30 10 -54 35.5t-24 59.5v40q0 48 41 78.5t128 30.5q86 0 127.5 -30.5t41.5 -78.5v-31q0 -11 -12 -11h-26q-11 0 -11 11z" />
    <glyph glyph-name="t" unicode="t" horiz-adv-x="343" 
d="M156 491h118q12 0 12 -11v-20q0 -12 -12 -12h-118v-320q0 -40 28.5 -61.5t97.5 -21.5h16q12 0 12 -12v-21q0 -12 -12 -12h-22q-96 0 -134 31t-38 92v325h-63q-12 0 -12 12v16q0 11 12 12l53 3h10v108q0 13 12 13h29q11 0 11 -13v-108z" />
    <glyph glyph-name="u" unicode="u" 
d="M385 12l-2 40q-70 -60 -167 -60q-67 0 -102 32.5t-35 86.5v369q0 13 11 13h29q12 0 12 -13v-358q0 -83 98 -83q83 0 154 59v382q0 13 11 13h29q11 0 11 -13v-468q0 -12 -11 -12h-26q-12 0 -12 12z" />
    <glyph glyph-name="v" unicode="v" horiz-adv-x="421" 
d="M225 0h-32q-9 0 -13 11l-159 470q-3 12 9 12h31q11 0 14 -12l123 -361q2 -7 7 -28t6 -24q7 34 14 52l124 361q3 12 14 12h28q12 0 9 -12l-162 -470q-4 -11 -13 -11z" />
    <glyph glyph-name="w" unicode="w" horiz-adv-x="639" 
d="M619 481l-131 -470q-3 -11 -13 -11h-34q-9 0 -12 11l-98 366q-3 10 -10 46l-12 -47l-103 -365q-3 -11 -13 -11h-33q-10 0 -13 11l-126 470q-3 12 10 12h29q10 0 13 -12l100 -372l9 -40l10 40l102 372q3 12 14 12h32q11 0 14 -12l97 -372q8 -36 9 -38q0 3 10 38l101 372
q3 12 13 12h25q13 0 10 -12z" />
    <glyph glyph-name="x" unicode="x" horiz-adv-x="461" 
d="M258 249l163 -237q8 -12 -7 -12h-32q-10 0 -18 12l-139 200l-135 -200q-8 -12 -18 -12h-28q-6 0 -8 4t1 8l162 238l-158 231q-9 12 6 12h33q10 0 18 -12l134 -194l130 194q8 12 17 12h29q15 0 6 -12z" />
    <glyph glyph-name="y" unicode="y" horiz-adv-x="421" 
d="M74 481l123 -361q5 -15 14 -51q0 11 14 49l124 363q3 12 14 12h28q12 0 9 -12l-231 -677q-3 -12 -14 -12h-23q-12 0 -9 12l64 194l-166 483q-3 12 9 12h30q11 0 14 -12z" />
    <glyph glyph-name="z" unicode="z" horiz-adv-x="456" 
d="M75 493h300q12 0 12 -12v-18q0 -7 -3 -11l-268 -408h272q12 0 12 -12v-20q0 -12 -12 -12h-325q-12 0 -12 12v20q0 6 3 10l267 407h-246q-12 0 -12 12v20q0 12 12 12z" />
    <glyph glyph-name="braceleft" unicode="{" horiz-adv-x="447" 
d="M187 354v231q0 123 179 123h5q12 0 12 -12v-21q0 -12 -12 -12h-5q-69 0 -97.5 -21.5t-28.5 -61.5v-230q0 -83 -86 -102q86 -18 86 -101v-237q0 -40 28.5 -61.5t97.5 -21.5h5q12 0 12 -12v-21q0 -12 -12 -12h-5q-179 0 -179 123v238q0 83 -117 83h-1q-12 0 -12 12v21
q0 12 12 12h1q117 0 117 83z" />
    <glyph glyph-name="bar" unicode="|" horiz-adv-x="245" 
d="M149 687v-886q0 -12 -11 -12h-30q-12 0 -12 12v886q0 12 12 12h30q11 0 11 -12z" />
    <glyph glyph-name="braceright" unicode="}" horiz-adv-x="447" 
d="M260 585v-231q0 -83 117 -83h1q12 0 12 -12v-21q0 -12 -12 -12h-1q-117 0 -117 -83v-238q0 -123 -179 -123h-5q-12 0 -12 12v21q0 12 12 12h5q69 0 97.5 21.5t28.5 61.5v237q0 84 86 101q-86 19 -86 102v230q0 40 -28.5 61.5t-97.5 21.5h-5q-12 0 -12 12v21q0 12 12 12h5
q179 0 179 -123z" />
    <glyph glyph-name="asciitilde" unicode="~" horiz-adv-x="481" 
d="M156 292q-19 0 -25.5 -11t-6.5 -42v-10q0 -11 -13 -11h-16q-10 0 -10 14l1 21q4 85 66 85q19 0 49 -16l84 -46q28 -14 41 -14q19 0 25 11.5t6 42.5v9q0 11 13 11h16q10 0 10 -13l-1 -22q-4 -85 -64 -85q-23 0 -54 17l-85 47q-22 12 -36 12z" />
    <glyph glyph-name="exclamdown" unicode="&#xa1;" horiz-adv-x="248" 
d="M96 103l5 221q0 12 12 12h21q11 0 11 -12l6 -221v-278q0 -12 -12 -12h-32q-11 0 -11 12v278zM97 404v77q0 12 11 12h30q12 0 12 -12v-77q0 -12 -12 -12h-30q-11 0 -11 12z" />
    <glyph glyph-name="cent" unicode="&#xa2;" horiz-adv-x="525" 
d="M286 668v-75q152 -7 152 -123v-19q0 -12 -12 -12h-26q-12 0 -12 12v16q0 40 -27.5 61.5t-97.5 21.5q-69 0 -96.5 -21.5t-27.5 -61.5v-255q0 -41 27.5 -62t96.5 -21q70 0 97.5 21t27.5 62v24q0 12 12 12h26q12 0 12 -12v-28q0 -115 -152 -123v-73q0 -12 -11 -12h-29
q-12 0 -12 12v74q-147 9 -147 122v262q0 114 147 123v75q0 12 12 12h29q11 0 11 -12z" />
    <glyph glyph-name="sterling" unicode="&#xa3;" horiz-adv-x="655" 
d="M211 364h166q12 0 12 -11v-21q0 -12 -12 -12h-166v-275h216q43 0 66.5 25.5t23.5 93.5v5q0 12 12 12h27q12 0 12 -12v-5q0 -94 -34.5 -129t-95.5 -35h-339q-12 0 -12 12v21q0 12 12 12h59v275h-59q-12 0 -12 12v21q0 11 12 11h59v190q0 66 40 100t150 34t150.5 -34
t40.5 -100v-27q0 -12 -11 -12h-29q-11 0 -11 12v20q0 50 -29 72.5t-111 22.5q-81 0 -109 -22.5t-28 -72.5v-183z" />
    <glyph glyph-name="currency" unicode="&#xa4;" horiz-adv-x="648" 
d="M100 299h52v83h-52q-12 0 -12 12v13q0 11 12 11h52v129q0 141 204 141t204 -141v-52q0 -13 -11 -13h-29q-12 0 -12 13v44q0 49 -34.5 76t-117.5 27t-117 -26.5t-34 -76.5v-121h171q12 0 12 -11v-13q0 -12 -12 -12h-171v-83h171q12 0 12 -12v-13q0 -11 -12 -11h-171v-122
q0 -50 34 -76.5t117 -26.5t117.5 27t34.5 76v57q0 11 12 11h29q11 0 11 -11v-65q0 -141 -204 -141t-204 141v130h-52q-12 0 -12 11v13q0 12 12 12z" />
    <glyph glyph-name="yen" unicode="&#xa5;" horiz-adv-x="643" 
d="M507 272h-158v-260q0 -12 -12 -12h-30q-11 0 -11 12v260h-158q-12 0 -12 12v13q0 12 12 12h140l-43 83h-97q-12 0 -12 11v13q0 12 12 12h78l-126 240q-6 12 8 12h33q9 0 15 -12l162 -308q3 -6 8 -19t6 -14l15 33l164 308q7 12 15 12h29q16 0 9 -12l-128 -240h81
q12 0 12 -12v-13q0 -11 -12 -11h-100l-44 -83h144q12 0 12 -12v-13q0 -12 -12 -12z" />
    <glyph glyph-name="brokenbar" unicode="&#xa6;" horiz-adv-x="221" 
d="M137 668v-342q0 -12 -12 -12h-28q-12 0 -12 12v342q0 12 12 12h28q12 0 12 -12zM137 143v-342q0 -12 -12 -12h-28q-12 0 -12 12v342q0 12 12 12h28q12 0 12 -12z" />
    <glyph glyph-name="section" unicode="&#xa7;" horiz-adv-x="548" 
d="M444 272v-108q0 -12 -12 -12h-25q-12 0 -12 12v104q0 21 -12.5 36.5t-24.5 22t-25 9.5l-141 42q-96 29 -96 102v84q0 124 178 124q96 0 137 -31.5t41 -90.5v-14q0 -12 -12 -12h-25q-12 0 -12 12v16q0 40 -28.5 61t-98.5 21t-99 -21t-29 -61v-86q0 -46 72 -65l136 -39
q32 -9 60 -36t28 -70zM104 203v107q0 12 12 12h26q11 0 11 -12v-103q0 -29 20.5 -46t41.5 -23l141 -41q96 -29 96 -102v-84q0 -124 -178 -124q-96 0 -137 31.5t-41 90.5v14q0 12 12 12h25q12 0 12 -12v-16q0 -83 128 -83t128 83v86q0 46 -72 65l-137 39q-32 9 -60 36t-28 70
z" />
    <glyph glyph-name="dieresis" unicode="&#xa8;" horiz-adv-x="308" 
d="M126 690v-98q0 -12 -12 -12h-18q-12 0 -12 12v98q0 12 12 12h18q12 0 12 -12zM224 690v-98q0 -12 -12 -12h-18q-12 0 -12 12v98q0 12 12 12h18q12 0 12 -12z" />
    <glyph glyph-name="copyright" unicode="&#xa9;" horiz-adv-x="714" 
d="M617 525v-369q0 -36 -10 -63t-37 -51.5t-80.5 -37t-132.5 -12.5q-80 0 -133.5 12.5t-80.5 37t-37 51.5t-10 63v369q0 36 10 62.5t37 51t80.5 37t133.5 12.5q79 0 132.5 -12.5t80.5 -37t37 -51t10 -62.5zM577 150v381q0 57 -49.5 89t-170.5 32q-122 0 -171 -32t-49 -90
v-380q0 -58 49 -90t171 -32q121 0 170.5 32t49.5 90zM357 551q80 0 108.5 -30t28.5 -91v-17q0 -12 -12 -12h-23q-12 0 -12 12v16q0 43 -18 63.5t-72 20.5q-55 0 -72 -20.5t-17 -63.5v-179q0 -42 17 -62.5t72 -20.5q54 0 72 20.5t18 62.5v24q0 12 12 12h23q12 0 12 -12v-25
q0 -61 -28.5 -91t-108.5 -30q-79 0 -108 30.5t-29 90.5v181q0 60 29 90.5t108 30.5z" />
    <glyph glyph-name="ordfeminine" unicode="&#xaa;" horiz-adv-x="351" 
d="M71 603v11q0 74 108 74q107 0 107 -75v-217q0 -9 -8 -9h-21q-7 0 -8 9l-2 22q-44 -36 -99 -36q-42 0 -62.5 19.5t-20.5 51.5v30q0 31 20 50.5t58 19.5h103v59q0 46 -68 46q-69 0 -69 -45v-10q0 -8 -8 -8h-22q-8 0 -8 8zM158 413q51 0 88 34v77h-96q-45 0 -45 -44v-23
q0 -44 53 -44z" />
    <glyph glyph-name="guillemotleft" unicode="&#xab;" horiz-adv-x="582" 
d="M484 360l-154 -115l154 -114q12 -10 12 -19v-31q0 -6 -4 -7.5t-8 1.5l-186 140q-11 7 -11 16v28q0 9 11 16l186 141q4 3 8 1.5t4 -7.5v-33q0 -7 -12 -17zM283 360l-154 -115l154 -114q12 -10 12 -19v-31q0 -6 -4 -7.5t-8 1.5l-186 140q-11 7 -11 16v28q0 9 11 16l186 141
q4 3 8 1.5t4 -7.5v-33q0 -7 -12 -17z" />
    <glyph glyph-name="logicalnot" unicode="&#xac;" horiz-adv-x="373" 
d="M77 313q0 45 31.5 77t76.5 32q46 0 78 -32t32 -77q0 -46 -32 -77.5t-78 -31.5q-45 0 -76.5 31.5t-31.5 77.5z" />
    <glyph glyph-name="uni00AD" unicode="&#xad;" horiz-adv-x="462" 
d="M97 311h268q12 0 12 -11v-21q0 -12 -12 -12h-268q-12 0 -12 12v21q0 11 12 11z" />
    <glyph glyph-name="registered" unicode="&#xae;" horiz-adv-x="616" 
d="M520 558v-177q0 -130 -211 -130q-213 0 -213 130v177q0 130 213 130q211 0 211 -130zM483 377v184q0 92 -174 92q-175 0 -175 -92v-183q0 -93 175 -93q174 0 174 92zM319 432h-65v-90q0 -9 -8 -9h-22q-8 0 -8 9v247q0 9 8 9h95q95 0 95 -71v-24q0 -50 -51 -66l41 -95
q4 -9 -8 -9h-23q-5 0 -9 9l-38 90h-7zM315 568h-61v-106h61q30 0 45.5 12.5t15.5 30.5v20q0 18 -15 30.5t-46 12.5z" />
    <glyph glyph-name="macron" unicode="&#xaf;" horiz-adv-x="419" 
d="M81 646h257q12 0 12 -12v-18q0 -12 -12 -12h-257q-12 0 -12 12v18q0 12 12 12z" />
    <glyph glyph-name="degree" unicode="&#xb0;" horiz-adv-x="397" 
d="M67 499v97q0 44 30 67t102 23t101.5 -23t29.5 -67v-97q0 -90 -131 -90q-72 0 -102 23.5t-30 66.5zM285 501v94q0 55 -86 55q-87 0 -87 -55v-94q0 -55 87 -55q86 0 86 55z" />
    <glyph glyph-name="plusminus" unicode="&#xb1;" horiz-adv-x="584" 
d="M269 227v131h-172q-12 0 -12 12v21q0 11 12 11h172v131q0 12 11 12h21q12 0 12 -12v-131h175q11 0 11 -11v-21q0 -12 -11 -12h-175v-131q0 -13 -12 -13h-21q-11 0 -11 13zM97 153h391q11 0 11 -12v-21q0 -12 -11 -12h-391q-12 0 -12 12v21q0 12 12 12z" />
    <glyph glyph-name="twosuperior" unicode="&#xb2;" horiz-adv-x="370" 
d="M110 310h189q9 0 9 -9v-17q0 -9 -9 -9h-222q-8 0 -8 9v114q0 17 10 30t18 16.5t22 8.5l110 36q36 12 36 42v64q0 59 -81 59q-45 0 -62.5 -15t-17.5 -44v-28q0 -9 -9 -9h-24q-8 0 -8 9v34q0 87 121 87q122 0 122 -87v-68q0 -54 -53 -72l-105 -34q-38 -13 -38 -35v-82z" />
    <glyph glyph-name="threesuperior" unicode="&#xb3;" horiz-adv-x="369" 
d="M133 509h49q46 0 62.5 13.5t16.5 42.5v33q0 28 -17 42.5t-60 14.5q-44 0 -61 -14.5t-17 -42.5v-7q0 -8 -8 -8h-24q-9 0 -9 8v12q0 41 26 63.5t94 22.5q66 0 92 -22.5t26 -62.5v-44q0 -28 -11 -44t-41 -23q55 -13 55 -70v-67q0 -85 -121 -85q-122 0 -122 86v12q0 8 8 8h24
q9 0 9 -8v-7q0 -57 81 -57q80 0 80 57v57q0 29 -16.5 42.5t-61.5 13.5h-54q-9 0 -9 9v16q0 9 9 9z" />
    <glyph glyph-name="acute" unicode="&#xb4;" horiz-adv-x="336" 
d="M232 696l-81 -119q-5 -7 -14 -7h-25q-12 0 -6 11l72 117q7 10 16 10h32q13 0 6 -12z" />
    <glyph glyph-name="uni00B5" unicode="&#xb5;" 
d="M385 12l-2 40q-70 -60 -167 -60q-61 0 -89 33l4 -220q0 -13 -12 -13h-29q-11 0 -11 13v675q0 13 11 13h29q12 0 12 -13v-358q0 -83 98 -83q83 0 154 59v382q0 13 11 13h29q11 0 11 -13v-468q0 -12 -11 -12h-26q-11 0 -12 12z" />
    <glyph glyph-name="paragraph" unicode="&#xb6;" horiz-adv-x="631" 
d="M393 669v-864q0 -13 -11 -13h-30q-12 0 -12 13v477h-51q-107 0 -150 34t-43 97v136q0 63 43 97t150 34h93q11 0 11 -11zM535 668v-863q0 -13 -11 -13h-30q-12 0 -12 13v863q0 12 12 12h30q11 0 11 -12z" />
    <glyph glyph-name="periodcentered" unicode="&#xb7;" horiz-adv-x="213" 
d="M133 300v-77q0 -12 -12 -12h-29q-12 0 -12 12v77q0 12 12 12h29q12 0 12 -12z" />
    <glyph glyph-name="cedilla" unicode="&#xb8;" horiz-adv-x="164" 
d="M82 -54h39q34 0 58 -18.5t24 -59.5t-24 -60t-58 -19h-118q-12 0 -12 12v11q0 12 12 12h112q48 0 48 44q0 43 -48 43h-59q-10 0 -14 4t-2 11l22 78q4 11 13 10l15 -2q11 -2 7 -15z" />
    <glyph glyph-name="onesuperior" unicode="&#xb9;" horiz-adv-x="376" 
d="M72 656l129 31q3 1 5.5 -1t2.5 -7v-367h96q8 0 8 -9v-16q0 -9 -8 -9h-233q-9 0 -9 9v16q0 9 9 9h95v332l-95 -22q-9 -2 -9 6v18q0 8 9 10z" />
    <glyph glyph-name="ordmasculine" unicode="&#xba;" horiz-adv-x="354" 
d="M64 458v154q0 76 113 76t113 -76v-154q0 -76 -113 -76t-113 76zM249 462v147q0 47 -72 47t-72 -47v-147q0 -47 72 -47t72 47z" />
    <glyph glyph-name="guillemotright" unicode="&#xbb;" horiz-adv-x="581" 
d="M298 138l154 115l-154 114q-12 10 -12 19v31q0 6 4 7.5t8 -1.5l186 -140q11 -7 11 -16v-28q0 -9 -11 -16l-186 -141q-4 -3 -8 -1.5t-4 7.5v33q0 7 12 17zM98 138l154 115l-154 114q-12 10 -12 19v31q0 6 4 7.5t8 -1.5l186 -140q11 -7 11 -16v-28q0 -9 -11 -16l-186 -141
q-4 -3 -8 -1.5t-4 7.5v33q0 7 12 17z" />
    <glyph glyph-name="onequarter" unicode="&#xbc;" horiz-adv-x="819" 
d="M638 399l-84 -234h160v234q0 9 9 9h24q9 0 9 -9v-390q0 -9 -9 -9h-24q-9 0 -9 9v122h-195q-10 0 -10 8v14q0 5 2 9l85 237q3 9 11 9h25q10 0 6 -9zM72 656l129 31q3 1 5.5 -1t2.5 -7v-367h96q8 0 8 -9v-16q0 -9 -8 -9h-233q-9 0 -9 9v16q0 9 9 9h95v333l-95 -23
q-9 -2 -9 6v18q0 8 9 10zM552 720l-202 -760q-3 -9 -9 -9h-26q-10 0 -7 9l201 760q3 9 11 9h26q9 0 6 -9z" />
    <glyph glyph-name="onehalf" unicode="&#xbd;" horiz-adv-x="838" 
d="M72 656l129 31q3 1 5.5 -1t2.5 -7v-367h96q8 0 8 -9v-16q0 -9 -8 -9h-233q-9 0 -9 9v16q0 9 9 9h95v335l-95 -25q-9 -2 -9 6v18q0 8 9 10zM545 720l-201 -760q-3 -9 -10 -9h-25q-10 0 -7 9l201 760q3 9 11 9h26q8 0 5 -9zM577 35h190q8 0 8 -9v-17q0 -9 -8 -9h-223
q-7 0 -7 9v114q0 40 49 55l111 36q36 12 36 42v64q0 59 -82 59q-44 0 -62 -15t-18 -44v-28q0 -9 -8 -9h-24q-9 0 -9 9v34q0 87 121 87q123 0 123 -87v-68q0 -55 -54 -72l-105 -34q-38 -12 -38 -35v-82z" />
    <glyph glyph-name="threequarters" unicode="&#xbe;" horiz-adv-x="818" 
d="M133 508h49q46 0 62.5 13.5t16.5 42.5v33q0 28 -17 42.5t-60 14.5q-44 0 -61 -14.5t-17 -42.5v-7q0 -8 -8 -8h-24q-9 0 -9 8v12q0 41 26 63.5t94 22.5q66 0 92 -22.5t26 -62.5v-44q0 -28 -11 -44t-41 -23q55 -13 55 -70v-67q0 -85 -121 -85q-122 0 -122 86v12q0 8 8 8h24
q9 0 9 -8v-7q0 -57 81 -57q80 0 80 57v57q0 29 -16.5 42.5t-61.5 13.5h-54q-9 0 -9 9v16q0 9 9 9zM552 720l-201 -760q-3 -9 -10 -9h-25q-10 0 -7 9l201 760q3 9 11 9h26q8 0 5 -9zM637 399l-84 -234h160v234q0 9 9 9h24q9 0 9 -9v-390q0 -9 -9 -9h-24q-9 0 -9 9v122h-195
q-10 0 -10 8v14q0 5 2 9l85 237q3 9 11 9h25q10 0 6 -9z" />
    <glyph glyph-name="questiondown" unicode="&#xbf;" horiz-adv-x="568" 
d="M320 324v-81q0 -63 -67 -97l-64 -32q-54 -29 -54 -82v-79q0 -50 34 -76.5t116 -26.5t115.5 26.5t33.5 76.5v49q0 13 12 13h28q12 0 12 -13v-56q0 -141 -201 -141q-203 0 -203 141v84q0 83 80 123l52 26q52 26 52 75v70q0 12 12 12h30q12 0 12 -12zM266 404v77q0 12 12 12
h30q12 0 12 -12v-77q0 -12 -12 -12h-30q-12 0 -12 12z" />
    <glyph glyph-name="Agrave" unicode="&#xc0;" 
d="M244 680h31q12 0 15 -12l203 -656q5 -12 -9 -12h-31q-11 0 -14 12l-61 194h-241l-59 -194q-3 -12 -14 -12h-29q-13 0 -9 12l203 656q3 12 15 12zM366 249l-83 268q-17 56 -25 105q-11 -60 -23 -103l-85 -270h216zM232 747l-81 119q-8 12 5 12h32q9 0 16 -11l72 -116
q7 -12 -5 -12h-25q-9 0 -14 8z" />
    <glyph glyph-name="Aacute" unicode="&#xc1;" 
d="M244 680h31q12 0 15 -12l203 -656q5 -12 -9 -12h-31q-11 0 -14 12l-61 194h-241l-59 -194q-3 -12 -14 -12h-29q-13 0 -9 12l203 656q3 12 15 12zM366 249l-83 268q-17 56 -25 105q-11 -60 -23 -103l-85 -270h216zM367 866l-81 -119q-5 -7 -14 -7h-25q-14 0 -6 11l73 117
q7 10 15 10h32q15 0 6 -12z" />
    <glyph glyph-name="Acircumflex" unicode="&#xc2;" 
d="M244 680h31q12 0 15 -12l203 -656q5 -12 -9 -12h-31q-11 0 -14 12l-61 194h-241l-59 -194q-3 -12 -14 -12h-29q-13 0 -9 12l203 656q3 12 15 12zM366 249l-83 268q-17 56 -25 105q-11 -60 -23 -103l-85 -270h216zM259 844l-60 -92q-7 -12 -17 -12h-23q-15 0 -6 12l78 114
q9 12 18 12h20q11 0 18 -11l79 -115q9 -12 -6 -12h-24q-7 0 -16 12z" />
    <glyph glyph-name="Atilde" unicode="&#xc3;" 
d="M244 680h31q12 0 15 -12l203 -656q5 -12 -9 -12h-31q-11 0 -14 12l-61 194h-241l-59 -194q-3 -12 -14 -12h-29q-13 0 -9 12l203 656q3 12 15 12zM366 249l-83 268q-17 56 -25 105q-11 -60 -23 -103l-85 -270h216zM194 828q-19 0 -25 -10.5t-6 -43.5v-9q0 -11 -13 -11h-17
q-10 0 -10 14l1 20q4 81 67 81q29 0 52 -19l46 -37q21 -17 36 -17q19 0 25 11t6 43v9q0 11 13 11h16q11 0 11 -13l-1 -20q-4 -82 -68 -82q-26 0 -52 20l-45 36q-23 17 -36 17z" />
    <glyph glyph-name="Adieresis" unicode="&#xc4;" 
d="M244 680h31q12 0 15 -12l203 -656q5 -12 -9 -12h-31q-11 0 -14 12l-61 194h-241l-59 -194q-3 -12 -14 -12h-29q-13 0 -9 12l203 656q3 12 15 12zM366 249l-83 268q-17 56 -25 105q-11 -60 -23 -103l-85 -270h216zM231 857v-98q0 -12 -11 -12h-18q-12 0 -12 12v98
q0 12 12 12h18q11 0 11 -12zM329 857v-98q0 -12 -11 -12h-18q-12 0 -12 12v98q0 12 12 12h18q11 0 11 -12z" />
    <glyph glyph-name="Aring" unicode="&#xc5;" 
d="M244 680h31q12 0 15 -12l203 -656q5 -12 -9 -12h-31q-11 0 -14 12l-61 194h-241l-59 -194q-3 -12 -14 -12h-29q-13 0 -9 12l203 656q3 12 15 12zM366 249l-83 268q-17 56 -25 105q-11 -60 -23 -103l-85 -270h216zM351 811v-15q0 -33 -22.5 -53t-69.5 -20q-91 0 -91 73v15
q0 73 91 73q47 0 69.5 -20t22.5 -53zM317 800v7q0 47 -58 47q-57 0 -57 -47v-7q0 -47 57 -47q58 0 58 47z" />
    <glyph glyph-name="AE" unicode="&#xc6;" horiz-adv-x="840" 
d="M425 680h337q12 0 12 -11v-22q0 -11 -12 -11h-300v-256h282q12 0 12 -12v-20q0 -12 -12 -12h-282v-291h312q12 0 12 -12v-21q0 -12 -12 -12h-347q-16 0 -16 12v194h-221l-111 -194q-8 -12 -14 -12h-28q-17 0 -10 12l381 656q7 12 17 12zM378 530l-162 -281h195v341
q-22 -42 -33 -60z" />
    <glyph glyph-name="Ccedilla" unicode="&#xc7;" horiz-adv-x="547" 
d="M271 -54h39q34 0 58 -18.5t24 -59.5t-24 -60t-58 -19h-118q-12 0 -12 12v11q0 12 12 12h112q48 0 48 44q0 43 -48 43h-59q-10 0 -14 4t-2 11l19 68q-163 11 -163 139v414q0 141 204 141t204 -141v-52q0 -13 -11 -13h-29q-12 0 -12 13v44q0 49 -34.5 76t-117.5 27
t-117 -26.5t-34 -76.5v-398q0 -50 34 -76.5t117 -26.5t117.5 27t34.5 76v57q0 11 12 11h29q11 0 11 -11v-65q0 -141 -204 -141h-5z" />
    <glyph glyph-name="Egrave" unicode="&#xc8;" horiz-adv-x="527" 
d="M272 747l-81 119q-8 12 5 12h32q9 0 16 -11l72 -116q7 -12 -5 -12h-25q-9 0 -14 8zM461 0h-354q-11 0 -11 12v656q0 12 12 12h341q12 0 12 -12v-22q0 -12 -12 -12h-300v-254h282q12 0 12 -12v-21q0 -12 -12 -12h-282v-289h312q12 0 12 -12v-22q0 -12 -12 -12z" />
    <glyph glyph-name="Eacute" unicode="&#xc9;" horiz-adv-x="527" 
d="M461 0h-354q-11 0 -11 12v656q0 12 12 12h341q12 0 12 -12v-22q0 -12 -12 -12h-300v-254h282q12 0 12 -12v-21q0 -12 -12 -12h-282v-289h312q12 0 12 -12v-22q0 -12 -12 -12zM376 866l-81 -119q-5 -7 -14 -7h-25q-14 0 -6 11l73 117q7 10 15 10h32q15 0 6 -12z" />
    <glyph glyph-name="Ecircumflex" unicode="&#xca;" horiz-adv-x="527" 
d="M263 844l-60 -92q-7 -12 -17 -12h-23q-15 0 -6 12l78 114q9 12 18 12h20q11 0 18 -11l79 -115q9 -12 -6 -12h-24q-7 0 -16 12zM461 0h-354q-11 0 -11 12v656q0 12 12 12h341q12 0 12 -12v-22q0 -12 -12 -12h-300v-254h282q12 0 12 -12v-21q0 -12 -12 -12h-282v-289h312
q12 0 12 -12v-22q0 -12 -12 -12z" />
    <glyph glyph-name="Edieresis" unicode="&#xcb;" horiz-adv-x="527" 
d="M461 0h-354q-11 0 -11 12v656q0 12 12 12h341q12 0 12 -12v-22q0 -12 -12 -12h-300v-254h282q12 0 12 -12v-21q0 -12 -12 -12h-282v-289h312q12 0 12 -12v-22q0 -12 -12 -12zM252 857v-98q0 -12 -11 -12h-18q-12 0 -12 12v98q0 12 12 12h18q11 0 11 -12zM350 857v-98
q0 -12 -11 -12h-18q-12 0 -12 12v98q0 12 12 12h18q11 0 11 -12z" />
    <glyph glyph-name="Igrave" unicode="&#xcc;" horiz-adv-x="245" 
d="M149 668v-656q0 -12 -11 -12h-30q-12 0 -12 12v656q0 12 12 12h30q11 0 11 -12zM96 747l-81 119q-8 12 5 12h32q9 0 16 -11l72 -116q8 -12 -5 -12h-25q-9 0 -14 8z" />
    <glyph glyph-name="Iacute" unicode="&#xcd;" horiz-adv-x="245" 
d="M149 668v-656q0 -12 -11 -12h-30q-12 0 -12 12v656q0 12 12 12h30q11 0 11 -12zM228 866l-81 -119q-5 -7 -14 -7h-25q-14 0 -6 11l73 117q7 10 15 10h32q15 0 6 -12z" />
    <glyph glyph-name="Icircumflex" unicode="&#xce;" horiz-adv-x="245" 
d="M149 668v-656q0 -12 -11 -12h-30q-12 0 -12 12v656q0 12 12 12h30q11 0 11 -12zM122 844l-60 -92q-7 -12 -17 -12h-23q-15 0 -6 12l78 114q9 12 18 12h20q11 0 18 -11l79 -115q9 -12 -6 -12h-24q-7 0 -16 12z" />
    <glyph glyph-name="Idieresis" unicode="&#xcf;" horiz-adv-x="245" 
d="M149 668v-656q0 -12 -11 -12h-30q-12 0 -12 12v656q0 12 12 12h30q11 0 11 -12zM94 857v-98q0 -12 -11 -12h-18q-12 0 -12 12v98q0 12 12 12h18q11 0 11 -12zM192 857v-98q0 -12 -11 -12h-18q-12 0 -12 12v98q0 12 12 12h18q11 0 11 -12z" />
    <glyph glyph-name="Eth" unicode="&#xd0;" horiz-adv-x="599" 
d="M305 0h-198q-11 0 -11 12v312h-72q-12 0 -12 12v18q0 11 12 11h72v303q0 12 11 12h198q209 0 209 -141v-398q0 -141 -209 -141zM305 634h-156v-269h143q12 0 12 -11v-18q0 -12 -12 -12h-143v-278h156q156 0 156 103v382q0 103 -156 103z" />
    <glyph glyph-name="Ntilde" unicode="&#xd1;" horiz-adv-x="609" 
d="M513 668v-656q0 -12 -11 -12h-27q-8 0 -11 6l-286 509q-28 43 -32 59v-562q0 -12 -11 -12h-27q-12 0 -12 12v656q0 12 12 12h27q7 0 10 -5l289 -513l29 -57v563q0 12 12 12h27q11 0 11 -12zM239 828q-19 0 -25 -10.5t-6 -43.5v-9q0 -11 -13 -11h-17q-10 0 -10 14l1 20
q4 81 67 81q29 0 52 -19l46 -37q21 -17 36 -17q19 0 25 11t6 43v9q0 11 13 11h16q11 0 11 -13l-1 -20q-4 -82 -68 -82q-26 0 -52 20l-45 36q-23 17 -36 17z" />
    <glyph glyph-name="Ograve" unicode="&#xd2;" horiz-adv-x="587" 
d="M267 747l-81 119q-8 12 5 12h32q9 0 16 -11l72 -116q7 -12 -5 -12h-25q-9 0 -14 8zM85 133v414q0 141 208 141q210 0 210 -141v-414q0 -141 -210 -141q-208 0 -208 141zM449 141v398q0 103 -156 103q-155 0 -155 -103v-398q0 -103 155 -103q156 0 156 103z" />
    <glyph glyph-name="Oacute" unicode="&#xd3;" horiz-adv-x="587" 
d="M391 866l-81 -119q-5 -7 -14 -7h-25q-14 0 -6 11l73 117q7 10 15 10h32q15 0 6 -12zM85 133v414q0 141 208 141q210 0 210 -141v-414q0 -141 -210 -141q-208 0 -208 141zM449 141v398q0 103 -156 103q-155 0 -155 -103v-398q0 -103 155 -103q156 0 156 103z" />
    <glyph glyph-name="Ocircumflex" unicode="&#xd4;" horiz-adv-x="587" 
d="M293 844l-60 -92q-7 -12 -17 -12h-23q-15 0 -6 12l78 114q9 12 18 12h20q11 0 18 -11l79 -115q9 -12 -6 -12h-24q-7 0 -16 12zM85 133v414q0 141 208 141q210 0 210 -141v-414q0 -141 -210 -141q-208 0 -208 141zM449 141v398q0 103 -156 103q-155 0 -155 -103v-398
q0 -103 155 -103q156 0 156 103z" />
    <glyph glyph-name="Otilde" unicode="&#xd5;" horiz-adv-x="587" 
d="M85 133v414q0 141 208 141q210 0 210 -141v-414q0 -141 -210 -141q-208 0 -208 141zM449 141v398q0 103 -156 103q-155 0 -155 -103v-398q0 -103 155 -103q156 0 156 103zM228 828q-19 0 -25 -10.5t-6 -43.5v-9q0 -11 -13 -11h-17q-10 0 -10 14l1 20q4 81 67 81
q29 0 52 -19l46 -37q21 -17 36 -17q19 0 25 11t6 43v9q0 11 13 11h16q11 0 11 -13l-1 -20q-4 -82 -68 -82q-26 0 -52 20l-45 36q-23 17 -36 17z" />
    <glyph glyph-name="Odieresis" unicode="&#xd6;" horiz-adv-x="587" 
d="M85 133v414q0 141 208 141q210 0 210 -141v-414q0 -141 -210 -141q-208 0 -208 141zM449 141v398q0 103 -156 103q-155 0 -155 -103v-398q0 -103 155 -103q156 0 156 103zM265 857v-98q0 -12 -11 -12h-18q-12 0 -12 12v98q0 12 12 12h18q11 0 11 -12zM363 857v-98
q0 -12 -11 -12h-18q-12 0 -12 12v98q0 12 12 12h18q11 0 11 -12z" />
    <glyph glyph-name="multiply" unicode="&#xd7;" horiz-adv-x="545" 
d="M350 158l-86 150l-150 -86q-12 -6 -17 5l-9 18q-5 11 4 16l150 86l-87 150q-6 10 4 16l18 11q10 7 16 -5l87 -150l151 87q11 6 16 -4l10 -18q6 -10 -5 -17l-150 -87l86 -149q7 -11 -4 -17l-18 -10q-10 -6 -16 4z" />
    <glyph glyph-name="Oslash" unicode="&#xd8;" horiz-adv-x="587" 
d="M85 133v413q0 142 208 142q87 0 141 -26l13 27q10 17 19 17h11q13 0 4 -17l-22 -44q44 -34 44 -99v-413q0 -141 -210 -141q-92 0 -141 26l-13 -27q-9 -17 -19 -17h-11q-13 0 -4 17l21 44q-41 34 -41 98zM449 140v399q0 30 -15 54l-259 -529q38 -27 118 -27q156 0 156 103
zM138 140q0 -32 14 -53l259 528q-40 27 -118 27q-155 0 -155 -103v-399z" />
    <glyph glyph-name="Ugrave" unicode="&#xd9;" horiz-adv-x="599" 
d="M277 747l-81 119q-8 12 5 12h32q9 0 16 -11l72 -116q8 -12 -5 -12h-25q-9 0 -14 8zM143 668v-527q0 -103 156 -103t156 103v527q0 12 12 12h30q11 0 11 -12v-535q0 -141 -209 -141t-209 141v535q0 12 12 12h30q11 0 11 -12z" />
    <glyph glyph-name="Uacute" unicode="&#xda;" horiz-adv-x="599" 
d="M143 668v-527q0 -103 156 -103t156 103v527q0 12 12 12h30q11 0 11 -12v-535q0 -141 -209 -141t-209 141v535q0 12 12 12h30q11 0 11 -12zM402 866l-81 -119q-5 -7 -14 -7h-25q-14 0 -6 11l73 117q7 10 15 10h32q15 0 6 -12z" />
    <glyph glyph-name="Ucircumflex" unicode="&#xdb;" horiz-adv-x="599" 
d="M299 844l-60 -92q-7 -12 -17 -12h-23q-15 0 -6 12l78 114q9 12 18 12h20q11 0 18 -11l79 -115q9 -12 -6 -12h-24q-7 0 -16 12zM143 668v-527q0 -103 156 -103t156 103v527q0 12 12 12h30q11 0 11 -12v-535q0 -141 -209 -141t-209 141v535q0 12 12 12h30q11 0 11 -12z" />
    <glyph glyph-name="Udieresis" unicode="&#xdc;" horiz-adv-x="599" 
d="M143 668v-527q0 -103 156 -103t156 103v527q0 12 12 12h30q11 0 11 -12v-535q0 -141 -209 -141t-209 141v535q0 12 12 12h30q11 0 11 -12zM271 857v-98q0 -12 -11 -12h-18q-12 0 -12 12v98q0 12 12 12h18q11 0 11 -12zM369 857v-98q0 -12 -11 -12h-18q-12 0 -12 12v98
q0 12 12 12h18q11 0 11 -12z" />
    <glyph glyph-name="Yacute" unicode="&#xdd;" horiz-adv-x="509" 
d="M79 668l162 -308q9 -18 14 -33q0 3 15 33l164 308q7 12 15 12h29q16 0 9 -12l-205 -386v-270q0 -12 -12 -12h-30q-11 0 -11 12v264l-206 392q-6 12 8 12h33q9 0 15 -12zM366 866l-81 -119q-5 -7 -14 -7h-25q-14 0 -6 11l73 117q7 10 15 10h32q15 0 6 -12z" />
    <glyph glyph-name="Thorn" unicode="&#xde;" horiz-adv-x="563" 
d="M149 668v-175h153q209 0 209 -141v-107q0 -141 -209 -141h-153v-92q0 -12 -11 -12h-30q-12 0 -12 12v656q0 12 12 12h30q11 0 11 -12zM302 448h-153v-299h153q156 0 156 104v91q0 104 -156 104z" />
    <glyph glyph-name="germandbls" unicode="&#xdf;" horiz-adv-x="592" 
d="M159 581v-569q0 -12 -12 -12h-29q-12 0 -12 12v436h-65q-11 0 -11 12v16q0 12 11 12l56 3h9v94q0 123 187 123q186 0 186 -123v-38q0 -37 -24.5 -57t-53.5 -28l-63 -17q-58 -16 -58 -50v-6q0 -41 60 -63l119 -44q93 -34 93 -98v-70q0 -59 -35.5 -90.5t-127.5 -31.5
q-91 0 -124.5 30.5t-33.5 90.5v12q0 12 12 12h20q12 0 12 -12v-14q0 -40 24 -61t90 -21t90.5 21t24.5 61v64q0 41 -69 65l-116 43q-85 31 -85 101v13q0 60 79 81l56 15q61 17 61 61v27q0 85 -135 85q-136 0 -136 -85z" />
    <glyph glyph-name="agrave" unicode="&#xe0;" horiz-adv-x="502" 
d="M75 360v18q0 123 174 123q95 0 134.5 -32t39.5 -91v-366q0 -12 -11 -12h-25q-12 0 -12 12l-2 40q-76 -60 -170 -60q-67 0 -102 32.5t-35 83.5v51q0 51 32.5 83.5t92.5 32.5h181v99q0 40 -27.5 62t-96.5 22t-96.5 -21.5t-27.5 -61.5v-15q0 -12 -12 -12h-26q-11 0 -11 12z
M214 36q83 0 158 59v138h-172q-83 0 -83 -80v-39q0 -78 97 -78zM246 577l-81 119q-9 12 6 12h32q9 0 16 -10l72 -117q7 -11 -5 -11h-25q-11 0 -15 7z" />
    <glyph glyph-name="aacute" unicode="&#xe1;" horiz-adv-x="502" 
d="M75 360v18q0 123 174 123q95 0 134.5 -32t39.5 -91v-366q0 -12 -11 -12h-25q-12 0 -12 12l-2 40q-76 -60 -170 -60q-67 0 -102 32.5t-35 83.5v51q0 51 32.5 83.5t92.5 32.5h181v99q0 40 -27.5 62t-96.5 22t-96.5 -21.5t-27.5 -61.5v-15q0 -12 -12 -12h-26q-11 0 -11 12z
M214 36q83 0 158 59v138h-172q-83 0 -83 -80v-39q0 -78 97 -78zM335 696l-81 -119q-5 -7 -14 -7h-25q-11 0 -6 11l72 117q7 10 16 10h32q13 0 6 -12z" />
    <glyph glyph-name="acircumflex" unicode="&#xe2;" horiz-adv-x="502" 
d="M75 360v18q0 123 174 123q95 0 134.5 -32t39.5 -91v-366q0 -12 -11 -12h-25q-12 0 -12 12l-2 40q-76 -60 -170 -60q-67 0 -102 32.5t-35 83.5v51q0 51 32.5 83.5t92.5 32.5h181v99q0 40 -27.5 62t-96.5 22t-96.5 -21.5t-27.5 -61.5v-15q0 -12 -12 -12h-26q-11 0 -11 12z
M214 36q83 0 158 59v138h-172q-83 0 -83 -80v-39q0 -78 97 -78zM251 674l-61 -92q-7 -12 -16 -12h-24q-15 0 -6 12l78 114q9 12 18 12h20q12 0 19 -11l78 -115q9 -12 -6 -12h-23q-8 0 -17 12z" />
    <glyph glyph-name="atilde" unicode="&#xe3;" horiz-adv-x="502" 
d="M75 360v18q0 123 174 123q95 0 134.5 -32t39.5 -91v-366q0 -12 -11 -12h-25q-12 0 -12 12l-2 40q-76 -60 -170 -60q-67 0 -102 32.5t-35 83.5v51q0 51 32.5 83.5t92.5 32.5h181v99q0 40 -27.5 62t-96.5 22t-96.5 -21.5t-27.5 -61.5v-15q0 -12 -12 -12h-26q-11 0 -11 12z
M214 36q83 0 158 59v138h-172q-83 0 -83 -80v-39q0 -78 97 -78zM185 654q-19 0 -25 -11t-6 -44v-8q0 -11 -13 -11h-16q-11 0 -11 13l1 20q4 82 67 82q27 0 52 -20l46 -37q21 -17 36 -17q19 0 25 11t6 43v9q0 11 13 11h16q11 0 11 -13l-1 -20q-4 -82 -67 -82q-28 0 -52 20
l-46 36q-22 18 -36 18z" />
    <glyph glyph-name="adieresis" unicode="&#xe4;" horiz-adv-x="502" 
d="M75 360v18q0 123 174 123q95 0 134.5 -32t39.5 -91v-366q0 -12 -11 -12h-25q-12 0 -12 12l-2 40q-76 -60 -170 -60q-67 0 -102 32.5t-35 83.5v51q0 51 32.5 83.5t92.5 32.5h181v99q0 40 -27.5 62t-96.5 22t-96.5 -21.5t-27.5 -61.5v-15q0 -12 -12 -12h-26q-11 0 -11 12z
M214 36q83 0 158 59v138h-172q-83 0 -83 -80v-39q0 -78 97 -78zM222 690v-98q0 -12 -12 -12h-18q-12 0 -12 12v98q0 12 12 12h18q12 0 12 -12zM320 690v-98q0 -12 -12 -12h-18q-12 0 -12 12v98q0 12 12 12h18q12 0 12 -12z" />
    <glyph glyph-name="aring" unicode="&#xe5;" horiz-adv-x="502" 
d="M75 360v18q0 123 174 123q95 0 134.5 -32t39.5 -91v-366q0 -12 -11 -12h-25q-12 0 -12 12l-2 40q-76 -60 -170 -60q-67 0 -102 32.5t-35 83.5v51q0 51 32.5 83.5t92.5 32.5h181v99q0 40 -27.5 62t-96.5 22t-96.5 -21.5t-27.5 -61.5v-15q0 -12 -12 -12h-26q-11 0 -11 12z
M214 36q83 0 158 59v138h-172q-83 0 -83 -80v-39q0 -78 97 -78zM342 646v-19q0 -71 -90 -71t-90 71v19q0 71 90 71t90 -71zM310 632v9q0 46 -58 46q-57 0 -57 -46v-9q0 -46 57 -46q58 0 58 46z" />
    <glyph glyph-name="ae" unicode="&#xe6;" horiz-adv-x="789" 
d="M726 378v-123q0 -11 -11 -11h-292v-130q0 -40 28.5 -60.5t98.5 -20.5q127 0 127 84v22q0 11 11 11h25q12 0 12 -11v-24q0 -123 -175 -123q-140 0 -167 72q-86 -72 -180 -72q-69 0 -103 32t-34 84v42q0 51 32.5 83.5t92.5 32.5h181v117q0 78 -124 78q-69 0 -96.5 -21.5
t-27.5 -61.5v-18q0 -12 -12 -12h-26q-12 0 -12 12v19q0 58 40 90t135 32q118 0 148 -61q34 61 153 61q176 0 176 -123zM214 34q79 0 158 69v125h-174q-40 0 -60.5 -22t-20.5 -58v-34q0 -36 25 -58t72 -22zM423 376v-94h254v94q0 84 -127 84q-70 0 -98.5 -22t-28.5 -62z" />
    <glyph glyph-name="ccedilla" unicode="&#xe7;" horiz-adv-x="476" 
d="M229 -54h39q34 0 58 -18.5t24 -59.5t-24 -60t-58 -19h-118q-12 0 -12 12v11q0 12 12 12h112q48 0 48 44q0 43 -48 43h-59q-10 0 -14 4t-2 11l19 68q-133 13 -133 121v262q0 59 40 91.5t136 32.5q95 0 135 -32.5t40 -91.5v-19q0 -12 -12 -12h-26q-12 0 -12 12v16
q0 40 -27.5 61.5t-97.5 21.5q-69 0 -96.5 -21.5t-27.5 -61.5v-255q0 -41 27.5 -62t96.5 -21q70 0 97.5 21t27.5 62v24q0 12 12 12h26q12 0 12 -12v-28q0 -59 -40 -91t-136 -32h-6z" />
    <glyph glyph-name="egrave" unicode="&#xe8;" horiz-adv-x="490" 
d="M427 377v-124q0 -11 -11 -11h-292v-124q0 -40 28 -61.5t99 -21.5t99 21.5t28 61.5v21q0 12 11 12h26q12 0 12 -12v-24q0 -123 -177 -123t-177 123v262q0 124 178 124q176 0 176 -124zM124 375v-93h254v93q0 83 -127 83t-127 -83zM232 577l-81 119q-9 12 6 12h32
q9 0 16 -10l72 -117q7 -11 -5 -11h-25q-11 0 -15 7z" />
    <glyph glyph-name="eacute" unicode="&#xe9;" horiz-adv-x="490" 
d="M344 696l-81 -119q-5 -7 -14 -7h-25q-12 0 -6 11l72 117q7 10 16 10h32q13 0 6 -12zM427 377v-124q0 -11 -11 -11h-292v-124q0 -40 28 -61.5t99 -21.5t99 21.5t28 61.5v21q0 12 11 12h26q12 0 12 -12v-24q0 -123 -177 -123t-177 123v262q0 124 178 124q176 0 176 -124z
M124 375v-93h254v93q0 83 -127 83t-127 -83z" />
    <glyph glyph-name="ecircumflex" unicode="&#xea;" horiz-adv-x="490" 
d="M251 674l-61 -92q-7 -12 -16 -12h-24q-15 0 -6 12l78 114q9 12 18 12h20q12 0 19 -11l78 -115q9 -12 -6 -12h-23q-8 0 -17 12zM427 377v-124q0 -11 -11 -11h-292v-124q0 -40 28 -61.5t99 -21.5t99 21.5t28 61.5v21q0 12 11 12h26q12 0 12 -12v-24q0 -123 -177 -123
t-177 123v262q0 124 178 124q176 0 176 -124zM124 375v-93h254v93q0 83 -127 83t-127 -83z" />
    <glyph glyph-name="edieresis" unicode="&#xeb;" horiz-adv-x="490" 
d="M222 690v-98q0 -12 -12 -12h-18q-12 0 -12 12v98q0 12 12 12h18q12 0 12 -12zM320 690v-98q0 -12 -12 -12h-18q-12 0 -12 12v98q0 12 12 12h18q12 0 12 -12zM427 377v-124q0 -11 -11 -11h-292v-124q0 -40 28 -61.5t99 -21.5t99 21.5t28 61.5v21q0 12 11 12h26
q12 0 12 -12v-24q0 -123 -177 -123t-177 123v262q0 124 178 124q176 0 176 -124zM124 375v-93h254v93q0 83 -127 83t-127 -83z" />
    <glyph glyph-name="igrave" unicode="&#xec;" horiz-adv-x="221" 
d="M137 481v-469q0 -12 -12 -12h-29q-11 0 -11 12v469q0 12 11 12h29q12 0 12 -12zM83 577l-81 119q-9 12 6 12h32q9 0 16 -10l72 -117q7 -11 -5 -11h-25q-12 0 -15 7z" />
    <glyph glyph-name="iacute" unicode="&#xed;" horiz-adv-x="221" 
d="M215 696l-81 -119q-5 -7 -14 -7h-25q-11 0 -6 11l72 117q7 10 16 10h32q13 0 6 -12zM137 481v-469q0 -12 -12 -12h-29q-11 0 -11 12v469q0 12 11 12h29q12 0 12 -12z" />
    <glyph glyph-name="icircumflex" unicode="&#xee;" horiz-adv-x="221" 
d="M112 674l-61 -92q-7 -12 -16 -12h-24q-15 0 -6 12l78 114q9 12 18 12h20q12 0 19 -11l78 -115q9 -12 -6 -12h-23q-8 0 -17 12zM137 481v-469q0 -12 -12 -12h-29q-11 0 -11 12v469q0 12 11 12h29q12 0 12 -12z" />
    <glyph glyph-name="idieresis" unicode="&#xef;" horiz-adv-x="221" 
d="M83 690v-98q0 -12 -12 -12h-18q-12 0 -12 12v98q0 12 12 12h18q12 0 12 -12zM181 690v-98q0 -12 -12 -12h-18q-12 0 -12 12v98q0 12 12 12h18q12 0 12 -12zM137 481v-469q0 -12 -12 -12h-29q-11 0 -11 12v469q0 12 11 12h29q12 0 12 -12z" />
    <glyph glyph-name="eth" unicode="&#xf0;" horiz-adv-x="552" 
d="M277 607l83 35q-30 27 -104 27h-87q-12 0 -12 12v15q0 12 12 12h87q107 0 147 -43l54 24q10 5 15 -4l4 -8q5 -10 -6 -15l-49 -23q12 -22 12 -54v-470q0 -123 -179 -123q-181 0 -181 123v263q0 57 34.5 90t103.5 33q92 0 172 -61v137q0 21 -10 37l-82 -35q-12 -6 -16 5
l-3 7q-6 11 5 16zM383 119v276q-73 60 -160 60q-50 0 -74 -23t-24 -60v-253q0 -84 129 -84t129 84z" />
    <glyph glyph-name="ntilde" unicode="&#xf1;" horiz-adv-x="525" 
d="M122 493q12 0 12 -12l1 -42q75 62 174 62q68 0 102.5 -32.5t34.5 -87.5v-369q0 -12 -11 -12h-29q-11 0 -11 12v359q0 83 -98 83q-91 0 -160 -60v-382q0 -12 -12 -12h-28q-12 0 -12 12v469q0 12 12 12h25zM194 657q-19 0 -25 -11t-6 -44v-8q0 -11 -13 -11h-16
q-11 0 -11 13l1 20q4 82 67 82q27 0 52 -20l46 -37q21 -17 36 -17q19 0 25 11t6 43v9q0 11 13 11h16q11 0 11 -13l-1 -20q-4 -82 -67 -82q-28 0 -52 20l-46 36q-22 18 -36 18z" />
    <glyph glyph-name="ograve" unicode="&#xf2;" horiz-adv-x="508" 
d="M73 115v262q0 124 181 124t181 -124v-262q0 -123 -181 -123t-181 123zM383 119v255q0 83 -129 83t-129 -83v-255q0 -83 129 -83t129 83zM232 577l-81 119q-9 12 6 12h32q9 0 16 -10l72 -117q7 -11 -5 -11h-25q-11 0 -15 7z" />
    <glyph glyph-name="oacute" unicode="&#xf3;" horiz-adv-x="508" 
d="M356 696l-81 -119q-5 -7 -14 -7h-25q-12 0 -6 11l72 117q7 10 16 10h32q13 0 6 -12zM73 115v262q0 124 181 124t181 -124v-262q0 -123 -181 -123t-181 123zM383 119v255q0 83 -129 83t-129 -83v-255q0 -83 129 -83t129 83z" />
    <glyph glyph-name="ocircumflex" unicode="&#xf4;" horiz-adv-x="508" 
d="M255 674l-61 -92q-7 -12 -16 -12h-24q-15 0 -6 12l78 114q9 12 18 12h20q12 0 19 -11l78 -115q9 -12 -6 -12h-23q-8 0 -17 12zM73 115v262q0 124 181 124t181 -124v-262q0 -123 -181 -123t-181 123zM383 119v255q0 83 -129 83t-129 -83v-255q0 -83 129 -83t129 83z" />
    <glyph glyph-name="otilde" unicode="&#xf5;" horiz-adv-x="508" 
d="M73 115v262q0 124 181 124t181 -124v-262q0 -123 -181 -123t-181 123zM383 119v255q0 83 -129 83t-129 -83v-255q0 -83 129 -83t129 83zM189 654q-19 0 -25 -11t-6 -44v-8q0 -11 -13 -11h-16q-11 0 -11 13l1 20q4 82 67 82q27 0 52 -20l46 -37q21 -17 36 -17q19 0 25 11
t6 43v9q0 11 13 11h16q11 0 11 -13l-1 -20q-4 -82 -67 -82q-28 0 -52 20l-46 36q-22 18 -36 18z" />
    <glyph glyph-name="odieresis" unicode="&#xf6;" horiz-adv-x="508" 
d="M226 690v-98q0 -12 -12 -12h-18q-12 0 -12 12v98q0 12 12 12h18q12 0 12 -12zM324 690v-98q0 -12 -12 -12h-18q-12 0 -12 12v98q0 12 12 12h18q12 0 12 -12zM73 115v262q0 124 181 124t181 -124v-262q0 -123 -181 -123t-181 123zM383 119v255q0 83 -129 83t-129 -83v-255
q0 -83 129 -83t129 83z" />
    <glyph glyph-name="divide" unicode="&#xf7;" horiz-adv-x="590" 
d="M96 348h398q12 0 12 -11v-21q0 -12 -12 -12h-397q-12 0 -12 12v21q0 11 11 11zM322 202v-77q0 -12 -12 -12h-29q-12 0 -12 12v77q0 12 12 12h29q12 0 12 -12zM322 530v-77q0 -12 -12 -12h-29q-12 0 -12 12v77q0 12 12 12h29q12 0 12 -12z" />
    <glyph glyph-name="oslash" unicode="&#xf8;" horiz-adv-x="508" 
d="M73 115v262q0 124 181 124q72 0 115 -20l13 23q9 17 19 17h13q11 0 2 -17l-21 -38q40 -31 40 -89v-262q0 -123 -181 -123q-70 0 -117 20l-12 -21q-9 -17 -19 -17h-11q-14 0 -4 17l21 37q-39 29 -39 87zM383 119v255q0 29 -14 47l-209 -368q31 -17 94 -17q129 0 129 83z
M125 119q0 -27 13 -46l207 367q-31 17 -91 17q-129 0 -129 -83v-255z" />
    <glyph glyph-name="ugrave" unicode="&#xf9;" 
d="M385 12l-2 40q-70 -60 -167 -60q-67 0 -102 32.5t-35 86.5v369q0 13 11 13h29q12 0 12 -13v-358q0 -83 98 -83q83 0 154 59v382q0 13 11 13h29q11 0 11 -13v-468q0 -12 -11 -12h-26q-12 0 -12 12zM245 577l-81 119q-9 12 6 12h32q9 0 16 -10l72 -117q7 -11 -5 -11h-25
q-12 0 -15 7z" />
    <glyph glyph-name="uacute" unicode="&#xfa;" 
d="M356 696l-81 -119q-5 -7 -14 -7h-25q-12 0 -6 11l72 117q7 10 16 10h32q13 0 6 -12zM385 12l-2 40q-70 -60 -167 -60q-67 0 -102 32.5t-35 86.5v369q0 13 11 13h29q12 0 12 -13v-358q0 -83 98 -83q83 0 154 59v382q0 13 11 13h29q11 0 11 -13v-468q0 -12 -11 -12h-26
q-12 0 -12 12z" />
    <glyph glyph-name="ucircumflex" unicode="&#xfb;" 
d="M258 674l-61 -92q-7 -12 -16 -12h-24q-15 0 -6 12l78 114q9 12 18 12h20q12 0 19 -11l78 -115q9 -12 -6 -12h-23q-8 0 -17 12zM385 12l-2 40q-70 -60 -167 -60q-67 0 -102 32.5t-35 86.5v369q0 13 11 13h29q12 0 12 -13v-358q0 -83 98 -83q83 0 154 59v382q0 13 11 13h29
q11 0 11 -13v-468q0 -12 -11 -12h-26q-12 0 -12 12z" />
    <glyph glyph-name="udieresis" unicode="&#xfc;" 
d="M232 690v-98q0 -12 -12 -12h-18q-12 0 -12 12v98q0 12 12 12h18q12 0 12 -12zM330 690v-98q0 -12 -12 -12h-18q-12 0 -12 12v98q0 12 12 12h18q12 0 12 -12zM385 12l-2 40q-70 -60 -167 -60q-67 0 -102 32.5t-35 86.5v369q0 13 11 13h29q12 0 12 -13v-358q0 -83 98 -83
q83 0 154 59v382q0 13 11 13h29q11 0 11 -13v-468q0 -12 -11 -12h-26q-12 0 -12 12z" />
    <glyph glyph-name="yacute" unicode="&#xfd;" horiz-adv-x="421" 
d="M74 481l123 -361q5 -15 14 -51q0 11 14 49l124 363q3 12 14 12h28q12 0 9 -12l-231 -677q-3 -12 -14 -12h-23q-12 0 -9 12l64 194l-166 483q-3 12 9 12h30q11 0 14 -12zM316 696l-81 -119q-5 -7 -14 -7h-25q-12 0 -6 11l72 117q7 10 16 10h32q13 0 6 -12z" />
    <glyph glyph-name="thorn" unicode="&#xfe;" horiz-adv-x="520" 
d="M137 687v-247q74 61 172 61q69 0 103.5 -33t34.5 -90v-263q0 -57 -34.5 -90t-103.5 -33q-99 0 -172 60v-248q0 -12 -12 -12h-29q-11 0 -11 12v883q0 12 11 12h29q12 0 12 -12zM395 121v251q0 37 -24.5 60t-74.5 23q-86 0 -159 -60v-298q72 -59 159 -59q50 0 74.5 23
t24.5 60z" />
    <glyph glyph-name="ydieresis" unicode="&#xff;" horiz-adv-x="421" 
d="M74 481l123 -361q5 -15 14 -51q0 11 14 49l124 363q3 12 14 12h28q12 0 9 -12l-231 -677q-3 -12 -14 -12h-23q-12 0 -9 12l64 194l-166 483q-3 12 9 12h30q11 0 14 -12zM186 690v-98q0 -12 -12 -12h-18q-12 0 -12 12v98q0 12 12 12h18q12 0 12 -12zM284 690v-98
q0 -12 -12 -12h-18q-12 0 -12 12v98q0 12 12 12h18q12 0 12 -12z" />
    <glyph glyph-name="Amacron" unicode="&#x100;" 
d="M244 680h31q12 0 15 -12l203 -656q5 -12 -9 -12h-31q-11 0 -14 12l-61 194h-241l-59 -194q-3 -12 -14 -12h-29q-13 0 -9 12l203 656q3 12 15 12zM366 249l-83 268q-17 56 -25 105q-11 -60 -23 -103l-85 -270h216zM131 820h257q12 0 12 -11v-18q0 -12 -12 -12h-257
q-12 0 -12 12v18q0 11 12 11z" />
    <glyph glyph-name="amacron" unicode="&#x101;" horiz-adv-x="502" 
d="M75 360v18q0 123 174 123q95 0 134.5 -32t39.5 -91v-366q0 -12 -11 -12h-25q-12 0 -12 12l-2 40q-76 -60 -170 -60q-67 0 -102 32.5t-35 83.5v51q0 51 32.5 83.5t92.5 32.5h181v99q0 40 -27.5 62t-96.5 22t-96.5 -21.5t-27.5 -61.5v-15q0 -12 -12 -12h-26q-11 0 -11 12z
M214 36q83 0 158 59v138h-172q-83 0 -83 -80v-39q0 -78 97 -78zM122 646h257q12 0 12 -12v-18q0 -12 -12 -12h-257q-12 0 -12 12v18q0 12 12 12z" />
    <glyph glyph-name="Abreve" unicode="&#x102;" 
d="M244 680h31q12 0 15 -12l203 -656q5 -12 -9 -12h-31q-11 0 -14 12l-61 194h-241l-59 -194q-3 -12 -14 -12h-29q-13 0 -9 12l203 656q3 12 15 12zM366 249l-83 268q-17 56 -25 105q-11 -60 -23 -103l-85 -270h216zM186 868v-17q0 -36 15 -55t58 -19q44 0 59 19t15 55v17
q0 11 11 11h18q11 0 11 -11v-16q0 -53 -26 -81t-89 -28q-62 0 -87 27.5t-25 81.5v16q0 11 11 11h18q11 0 11 -11z" />
    <glyph glyph-name="abreve" unicode="&#x103;" horiz-adv-x="502" 
d="M75 360v18q0 123 174 123q95 0 134.5 -32t39.5 -91v-366q0 -12 -11 -12h-25q-12 0 -12 12l-2 40q-76 -60 -170 -60q-67 0 -102 32.5t-35 83.5v51q0 51 32.5 83.5t92.5 32.5h181v99q0 40 -27.5 62t-96.5 22t-96.5 -21.5t-27.5 -61.5v-15q0 -12 -12 -12h-26q-11 0 -11 12z
M214 36q83 0 158 59v138h-172q-83 0 -83 -80v-39q0 -78 97 -78zM180 683v-18q0 -35 15 -54t59 -19q43 0 58 19t15 54v18q0 11 11 11h18q11 0 11 -11v-17q0 -53 -26 -81t-88 -28q-63 0 -88 28t-25 81v17q0 11 11 11h18q11 0 11 -11z" />
    <glyph glyph-name="Aogonek" unicode="&#x104;" 
d="M244 680h31q11 0 15 -12l203 -656q5 -12 -9 -12h-10q-35 -6 -51.5 -26t-16.5 -42q0 -43 58 -43h23q11 0 11 -12v-14q0 -12 -14 -12h-31q-89 0 -89 74q0 24 17.5 51.5t53.5 45.5l-57 184h-241l-60 -194q-3 -12 -13 -12h-29q-13 0 -9 12l203 656q3 12 15 12zM366 249
l-83 268q-11 36 -25 105q-7 -50 -23 -103l-85 -270h216z" />
    <glyph glyph-name="aogonek" unicode="&#x105;" horiz-adv-x="502" 
d="M75 360v18q0 123 174 123q95 0 134.5 -32t39.5 -91v-366q0 -12 -11 -12h-4q-33 -7 -49.5 -27t-16.5 -42q0 -42 57 -42h16q12 0 12 -12v-14q0 -12 -14 -12h-27q-38 0 -62 18.5t-24 55.5q0 57 75 95l-2 32q-76 -60 -170 -60q-67 0 -102 32.5t-35 83.5v51q0 51 32.5 83.5
t92.5 32.5h181v99q0 40 -27.5 62t-96.5 22t-96.5 -21.5t-27.5 -61.5v-15q0 -12 -12 -12h-26q-11 0 -11 12zM214 36q83 0 158 59v138h-172q-83 0 -83 -80v-39q0 -78 97 -78z" />
    <glyph glyph-name="Cacute" unicode="&#x106;" horiz-adv-x="547" 
d="M493 198v-65q0 -141 -204 -141t-204 141v414q0 141 204 141t204 -141v-52q0 -13 -11 -13h-29q-12 0 -12 13v44q0 49 -34.5 76t-117.5 27t-117 -26.5t-34 -76.5v-398q0 -50 34 -76.5t117 -26.5t117.5 27t34.5 76v57q0 11 12 11h29q11 0 11 -11zM380 866l-81 -119
q-5 -7 -14 -7h-25q-14 0 -6 11l73 117q7 10 15 10h32q15 0 6 -12z" />
    <glyph glyph-name="cacute" unicode="&#x107;" horiz-adv-x="476" 
d="M348 696l-81 -119q-5 -7 -14 -7h-25q-12 0 -6 11l72 117q7 10 16 10h32q13 0 6 -12zM249 501q95 0 135 -32.5t40 -91.5v-19q0 -12 -12 -12h-26q-12 0 -12 12v16q0 40 -27.5 61.5t-97.5 21.5q-69 0 -96.5 -21.5t-27.5 -61.5v-255q0 -41 27.5 -62t96.5 -21q70 0 97.5 21
t27.5 62v24q0 12 12 12h26q12 0 12 -12v-28q0 -59 -40 -91t-136 -32q-175 0 -175 123v262q0 59 40 91.5t136 32.5z" />
    <glyph glyph-name="Ccircumflex" unicode="&#x108;" horiz-adv-x="547" 
d="M493 198v-65q0 -141 -204 -141t-204 141v414q0 141 204 141t204 -141v-52q0 -13 -11 -13h-29q-12 0 -12 13v44q0 49 -34.5 76t-117.5 27t-117 -26.5t-34 -76.5v-398q0 -50 34 -76.5t117 -26.5t117.5 27t34.5 76v57q0 11 12 11h29q11 0 11 -11zM274 844l-60 -92
q-7 -12 -17 -12h-23q-15 0 -6 12l78 114q9 12 18 12h20q11 0 18 -11l79 -115q9 -12 -6 -12h-24q-7 0 -16 12z" />
    <glyph glyph-name="ccircumflex" unicode="&#x109;" horiz-adv-x="476" 
d="M238 674l-61 -92q-7 -12 -16 -12h-24q-15 0 -6 12l78 114q9 12 18 12h20q12 0 19 -11l78 -115q9 -12 -6 -12h-23q-8 0 -17 12zM249 501q95 0 135 -32.5t40 -91.5v-19q0 -12 -12 -12h-26q-12 0 -12 12v16q0 40 -27.5 61.5t-97.5 21.5q-69 0 -96.5 -21.5t-27.5 -61.5v-255
q0 -41 27.5 -62t96.5 -21q70 0 97.5 21t27.5 62v24q0 12 12 12h26q12 0 12 -12v-28q0 -59 -40 -91t-136 -32q-175 0 -175 123v262q0 59 40 91.5t136 32.5z" />
    <glyph glyph-name="Cdotaccent" unicode="&#x10a;" horiz-adv-x="547" 
d="M300 838v-77q0 -12 -12 -12h-29q-12 0 -12 12v77q0 12 12 12h29q12 0 12 -12zM493 198v-65q0 -141 -204 -141t-204 141v414q0 141 204 141t204 -141v-52q0 -13 -11 -13h-29q-12 0 -12 13v44q0 49 -34.5 76t-117.5 27t-117 -26.5t-34 -76.5v-398q0 -50 34 -76.5t117 -26.5
t117.5 27t34.5 76v57q0 11 12 11h29q11 0 11 -11z" />
    <glyph glyph-name="cdotaccent" unicode="&#x10b;" horiz-adv-x="476" 
d="M249 501q95 0 135 -32.5t40 -91.5v-19q0 -12 -12 -12h-26q-12 0 -12 12v16q0 40 -27.5 61.5t-97.5 21.5q-69 0 -96.5 -21.5t-27.5 -61.5v-255q0 -41 27.5 -62t96.5 -21q70 0 97.5 21t27.5 62v24q0 12 12 12h26q12 0 12 -12v-28q0 -59 -40 -91t-136 -32q-175 0 -175 123
v262q0 59 40 91.5t136 32.5zM264 675v-77q0 -12 -11 -12h-30q-12 0 -12 12v77q0 12 12 12h30q11 0 11 -12z" />
    <glyph glyph-name="Ccaron" unicode="&#x10c;" horiz-adv-x="547" 
d="M493 198v-65q0 -141 -204 -141t-204 141v414q0 141 204 141t204 -141v-52q0 -13 -11 -13h-29q-12 0 -12 13v44q0 49 -34.5 76t-117.5 27t-117 -26.5t-34 -76.5v-398q0 -50 34 -76.5t117 -26.5t117.5 27t34.5 76v57q0 11 12 11h29q11 0 11 -11zM213 866l60 -92l61 92
q9 12 16 12h24q15 0 6 -12l-79 -115q-7 -11 -18 -11h-20q-9 0 -18 12l-78 114q-9 12 6 12h23q10 0 17 -12z" />
    <glyph glyph-name="ccaron" unicode="&#x10d;" horiz-adv-x="476" 
d="M177 696l61 -92l60 92q9 12 17 12h23q15 0 6 -12l-78 -115q-7 -11 -19 -11h-20q-9 0 -18 12l-78 114q-9 12 6 12h24q9 0 16 -12zM249 501q95 0 135 -32.5t40 -91.5v-19q0 -12 -12 -12h-26q-12 0 -12 12v16q0 40 -27.5 61.5t-97.5 21.5q-69 0 -96.5 -21.5t-27.5 -61.5
v-255q0 -41 27.5 -62t96.5 -21q70 0 97.5 21t27.5 62v24q0 12 12 12h26q12 0 12 -12v-28q0 -59 -40 -91t-136 -32q-175 0 -175 123v262q0 59 40 91.5t136 32.5z" />
    <glyph glyph-name="Dcaron" unicode="&#x10e;" horiz-adv-x="599" 
d="M305 0h-198q-11 0 -11 12v656q0 12 11 12h198q209 0 209 -141v-398q0 -141 -209 -141zM305 634h-156v-588h156q156 0 156 103v382q0 103 -156 103zM236 866l60 -92l61 92q9 12 16 12h24q15 0 6 -12l-79 -115q-7 -11 -18 -11h-20q-9 0 -18 12l-78 114q-9 12 6 12h23
q10 0 17 -12z" />
    <glyph glyph-name="dcaron" unicode="&#x10f;" horiz-adv-x="559" 
d="M519 674v27q0 12 12 12h22q12 0 12 -12v-29q0 -52 -37 -114q-5 -9 -16 -6l-17 5q-11 3 -5 16q3 7 9.5 20.5t8.5 19t5.5 16t4.5 21t1 24.5zM386 12l-2 41q-77 -61 -174 -61q-69 0 -103 33t-34 90v263q0 57 34 90t103 33q93 0 173 -61v247q0 12 11 12h29q12 0 12 -12v-675
q0 -12 -12 -12h-25q-12 0 -12 12zM125 371v-249q0 -37 24 -60t74 -23q80 0 160 59v295q-73 60 -160 60q-50 0 -74 -22.5t-24 -59.5z" />
    <glyph glyph-name="Dcroat" unicode="&#x110;" horiz-adv-x="599" 
d="M305 0h-198q-11 0 -11 12v312h-72q-12 0 -12 12v18q0 11 12 11h72v303q0 12 11 12h198q209 0 209 -141v-398q0 -141 -209 -141zM305 634h-156v-269h143q12 0 12 -11v-18q0 -12 -12 -12h-143v-278h156q156 0 156 103v382q0 103 -156 103z" />
    <glyph glyph-name="dcroat" unicode="&#x111;" horiz-adv-x="520" 
d="M386 12l-2 41q-77 -61 -174 -61q-69 0 -103 33t-34 90v263q0 57 34 90t103 33q93 0 173 -61v124h-168q-12 0 -12 12v15q0 12 12 12h168v84q0 12 11 12h29q12 0 12 -12v-84h44q12 0 12 -12v-15q0 -12 -12 -12h-44v-552q0 -12 -12 -12h-25q-12 0 -12 12zM125 371v-249
q0 -37 24 -60t74 -23q80 0 160 59v295q-73 60 -160 60q-50 0 -74 -22.5t-24 -59.5z" />
    <glyph glyph-name="Emacron" unicode="&#x112;" horiz-adv-x="527" 
d="M461 0h-354q-11 0 -11 12v656q0 12 12 12h341q12 0 12 -12v-22q0 -12 -12 -12h-300v-254h282q12 0 12 -12v-21q0 -12 -12 -12h-282v-289h312q12 0 12 -12v-22q0 -12 -12 -12zM144 820h257q12 0 12 -11v-18q0 -12 -12 -12h-257q-12 0 -12 12v18q0 11 12 11z" />
    <glyph glyph-name="emacron" unicode="&#x113;" horiz-adv-x="490" 
d="M427 377v-124q0 -11 -11 -11h-292v-124q0 -40 28 -61.5t99 -21.5t99 21.5t28 61.5v21q0 12 11 12h26q12 0 12 -12v-24q0 -123 -177 -123t-177 123v262q0 124 178 124q176 0 176 -124zM124 375v-93h254v93q0 83 -127 83t-127 -83zM116 646h257q12 0 12 -12v-18
q0 -12 -12 -12h-257q-12 0 -12 12v18q0 12 12 12z" />
    <glyph glyph-name="Ebreve" unicode="&#x114;" horiz-adv-x="527" 
d="M461 0h-354q-11 0 -11 12v656q0 12 12 12h341q12 0 12 -12v-22q0 -12 -12 -12h-300v-254h282q12 0 12 -12v-21q0 -12 -12 -12h-282v-289h312q12 0 12 -12v-22q0 -12 -12 -12zM203 868v-17q0 -36 15 -55t58 -19q44 0 59 19t15 55v17q0 11 11 11h18q11 0 11 -11v-16
q0 -53 -26 -81t-89 -28q-62 0 -87 27.5t-25 81.5v16q0 11 11 11h18q11 0 11 -11z" />
    <glyph glyph-name="ebreve" unicode="&#x115;" horiz-adv-x="490" 
d="M427 377v-124q0 -11 -11 -11h-292v-124q0 -40 28 -61.5t99 -21.5t99 21.5t28 61.5v21q0 12 11 12h26q12 0 12 -12v-24q0 -123 -177 -123t-177 123v262q0 124 178 124q176 0 176 -124zM124 375v-93h254v93q0 83 -127 83t-127 -83zM172 683v-18q0 -35 15 -54t59 -19
q43 0 58 19t15 54v18q0 11 11 11h18q11 0 11 -11v-17q0 -53 -26 -81t-88 -28q-63 0 -88 28t-25 81v17q0 11 11 11h18q11 0 11 -11z" />
    <glyph glyph-name="Edotaccent" unicode="&#x116;" horiz-adv-x="527" 
d="M303 838v-77q0 -12 -12 -12h-29q-12 0 -12 12v77q0 12 12 12h29q12 0 12 -12zM461 0h-354q-11 0 -11 12v656q0 12 12 12h341q12 0 12 -12v-22q0 -12 -12 -12h-300v-254h282q12 0 12 -12v-21q0 -12 -12 -12h-282v-289h312q12 0 12 -12v-22q0 -12 -12 -12z" />
    <glyph glyph-name="edotaccent" unicode="&#x117;" horiz-adv-x="490" 
d="M427 377v-124q0 -11 -11 -11h-292v-124q0 -40 28 -61.5t99 -21.5t99 21.5t28 61.5v21q0 12 11 12h26q12 0 12 -12v-24q0 -123 -177 -123t-177 123v262q0 124 178 124q176 0 176 -124zM124 375v-93h254v93q0 83 -127 83t-127 -83z" />
    <glyph glyph-name="Eogonek" unicode="&#x118;" horiz-adv-x="527" 
d="M461 0h-26q-36 0 -54.5 -19.5t-18.5 -45.5q0 -46 57 -46h28q12 0 12 -12v-14q0 -12 -14 -12h-37q-39 0 -64 19t-25 57q0 42 37 73h-249q-11 0 -11 12v656q0 12 12 12h341q12 0 12 -12v-22q0 -12 -12 -12h-300v-254h282q12 0 12 -12v-21q0 -12 -12 -12h-282v-289h312
q12 0 12 -12v-22q0 -12 -12 -12z" />
    <glyph glyph-name="eogonek" unicode="&#x119;" horiz-adv-x="490" 
d="M427 377v-124q0 -11 -11 -11h-292v-124q0 -40 28 -61.5t99 -21.5t99 21.5t28 61.5v21q0 12 11 12h26q12 0 12 -12v-24q0 -57 -36 -87q-3 -2 -20.5 -16t-23 -20.5t-13 -21.5t-7.5 -32q0 -49 59 -49h28q12 0 12 -12v-14q0 -12 -14 -12h-39q-39 0 -63 19.5t-24 56.5
q0 41 25 70q-28 -5 -61 -5q-177 0 -177 123v262q0 124 178 124q176 0 176 -124zM124 375v-93h254v93q0 83 -127 83t-127 -83z" />
    <glyph glyph-name="Ecaron" unicode="&#x11a;" horiz-adv-x="527" 
d="M461 0h-354q-11 0 -11 12v656q0 12 12 12h341q12 0 12 -12v-22q0 -12 -12 -12h-300v-254h282q12 0 12 -12v-21q0 -12 -12 -12h-282v-289h312q12 0 12 -12v-22q0 -12 -12 -12zM203 866l60 -92l61 92q9 12 16 12h24q15 0 6 -12l-79 -115q-7 -11 -18 -11h-20q-9 0 -18 12
l-78 114q-9 12 6 12h23q10 0 17 -12z" />
    <glyph glyph-name="ecaron" unicode="&#x11b;" horiz-adv-x="490" 
d="M185 696l61 -92l60 92q9 12 17 12h23q15 0 6 -12l-78 -115q-7 -11 -19 -11h-20q-9 0 -18 12l-78 114q-9 12 6 12h24q9 0 16 -12zM427 377v-124q0 -11 -11 -11h-292v-124q0 -40 28 -61.5t99 -21.5t99 21.5t28 61.5v21q0 12 11 12h26q12 0 12 -12v-24q0 -123 -177 -123
t-177 123v262q0 124 178 124q176 0 176 -124zM124 375v-93h254v93q0 83 -127 83t-127 -83z" />
    <glyph glyph-name="Gcircumflex" unicode="&#x11c;" horiz-adv-x="563" 
d="M281 844l-60 -92q-7 -12 -17 -12h-23q-15 0 -6 12l78 114q9 12 18 12h20q11 0 18 -11l79 -115q9 -12 -6 -12h-24q-7 0 -16 12zM298 319h183q12 0 12 -12v-174q0 -141 -204 -141t-204 141v414q0 141 204 141t204 -141v-50q0 -12 -11 -12h-29q-12 0 -12 12v42
q0 49 -34.5 76t-117.5 27t-117 -26.5t-34 -76.5v-398q0 -50 34 -76.5t117 -26.5q152 0 152 101v134h-143q-12 0 -12 12v22q0 12 12 12z" />
    <glyph glyph-name="gcircumflex" unicode="&#x11d;" horiz-adv-x="520" 
d="M260 674l-61 -92q-7 -12 -16 -12h-24q-15 0 -6 12l78 114q9 12 18 12h20q12 0 19 -11l78 -115q9 -12 -6 -12h-23q-8 0 -17 12zM210 -8q-69 0 -103 33t-34 90v263q0 57 34 90t103 33q96 0 174 -62l2 41q0 13 12 13h25q12 0 12 -13v-564q0 -124 -179 -124h-135
q-12 0 -12 12v21q0 12 12 12h135q127 0 127 83v132q-78 -60 -173 -60zM125 371v-249q0 -37 24 -60t74 -23q80 0 160 59v295q-73 60 -160 60q-50 0 -74 -22.5t-24 -59.5z" />
    <glyph glyph-name="Gbreve" unicode="&#x11e;" horiz-adv-x="563" 
d="M298 319h183q12 0 12 -12v-174q0 -141 -204 -141t-204 141v414q0 141 204 141t204 -141v-50q0 -12 -11 -12h-29q-12 0 -12 12v42q0 49 -34.5 76t-117.5 27t-117 -26.5t-34 -76.5v-398q0 -50 34 -76.5t117 -26.5q152 0 152 101v134h-143q-12 0 -12 12v22q0 12 12 12z
M208 868v-17q0 -36 15 -55t58 -19q44 0 59 19t15 55v17q0 11 11 11h18q11 0 11 -11v-16q0 -53 -26 -81t-89 -28q-62 0 -87 27.5t-25 81.5v16q0 11 11 11h18q11 0 11 -11z" />
    <glyph glyph-name="gbreve" unicode="&#x11f;" horiz-adv-x="520" 
d="M210 -8q-69 0 -103 33t-34 90v263q0 57 34 90t103 33q96 0 174 -62l2 41q0 13 12 13h25q12 0 12 -13v-564q0 -124 -179 -124h-135q-12 0 -12 12v21q0 12 12 12h135q127 0 127 83v132q-78 -60 -173 -60zM125 371v-249q0 -37 24 -60t74 -23q80 0 160 59v295q-73 60 -160 60
q-50 0 -74 -22.5t-24 -59.5zM185 683v-18q0 -35 15 -54t59 -19q43 0 58 19t15 54v18q0 11 11 11h18q11 0 11 -11v-17q0 -53 -26 -81t-88 -28q-63 0 -88 28t-25 81v17q0 11 11 11h18q11 0 11 -11z" />
    <glyph glyph-name="Gdotaccent" unicode="&#x120;" horiz-adv-x="563" 
d="M308 835v-77q0 -12 -12 -12h-29q-12 0 -12 12v77q0 12 12 12h29q12 0 12 -12zM298 316h183q12 0 12 -12v-174q0 -141 -204 -141t-204 141v414q0 141 204 141t204 -141v-50q0 -12 -11 -12h-29q-12 0 -12 12v42q0 49 -34.5 76t-117.5 27t-117 -26.5t-34 -76.5v-398
q0 -50 34 -76.5t117 -26.5q152 0 152 101v134h-143q-12 0 -12 12v22q0 12 12 12z" />
    <glyph glyph-name="gdotaccent" unicode="&#x121;" horiz-adv-x="520" 
d="M210 -8q-69 0 -103 33t-34 90v263q0 57 34 90t103 33q96 0 174 -62l2 41q0 13 12 13h25q12 0 12 -13v-564q0 -124 -179 -124h-135q-12 0 -12 12v21q0 12 12 12h135q127 0 127 83v132q-78 -60 -173 -60zM125 371v-249q0 -37 24 -60t74 -23q80 0 160 59v295q-73 60 -160 60
q-50 0 -74 -22.5t-24 -59.5zM276 675v-77q0 -12 -11 -12h-30q-12 0 -12 12v77q0 12 12 12h30q11 0 11 -12z" />
    <glyph glyph-name="Gcommaaccent" unicode="&#x122;" horiz-adv-x="563" 
d="M267 -89v27q0 12 12 12h22q12 0 12 -12v-29q0 -52 -37 -114q-5 -9 -16 -6l-17 5q-11 3 -5 16q3 7 9.5 20.5t8.5 19t5.5 16t4.5 21t1 24.5zM298 319h183q12 0 12 -12v-174q0 -141 -204 -141t-204 141v414q0 141 204 141t204 -141v-50q0 -12 -11 -12h-29q-12 0 -12 12v42
q0 49 -34.5 76t-117.5 27t-117 -26.5t-34 -76.5v-398q0 -50 34 -76.5t117 -26.5q152 0 152 101v134h-143q-12 0 -12 12v22q0 12 12 12z" />
    <glyph glyph-name="gcommaaccent" unicode="&#x123;" horiz-adv-x="520" 
d="M267 612v-27q0 -12 -12 -12h-22q-12 0 -12 12v29q0 52 37 114q5 9 16 6l17 -5q11 -3 5 -16q-3 -7 -9.5 -20.5t-8.5 -19t-5.5 -16t-4.5 -21t-1 -24.5zM210 -8q-69 0 -103 33t-34 90v263q0 57 34 90t103 33q96 0 174 -62l2 41q0 13 12 13h25q12 0 12 -13v-564
q0 -124 -179 -124h-135q-12 0 -12 12v21q0 12 12 12h135q127 0 127 83v132q-78 -60 -173 -60zM125 371v-249q0 -37 24 -60t74 -23q80 0 160 59v295q-73 60 -160 60q-50 0 -74 -22.5t-24 -59.5z" />
    <glyph glyph-name="Hcircumflex" unicode="&#x124;" horiz-adv-x="610" 
d="M149 668v-282h312v282q0 12 11 12h31q11 0 11 -12v-656q0 -12 -11 -12h-31q-11 0 -11 12v328h-312v-328q0 -12 -11 -12h-30q-12 0 -12 12v656q0 12 12 12h30q11 0 11 -12zM304 844l-60 -92q-7 -12 -17 -12h-23q-15 0 -6 12l78 114q9 12 18 12h20q11 0 18 -11l79 -115
q9 -12 -6 -12h-24q-7 0 -16 12z" />
    <glyph glyph-name="hcircumflex" unicode="&#x125;" horiz-adv-x="525" 
d="M137 687v-247q74 61 172 61q68 0 102.5 -32.5t34.5 -87.5v-369q0 -12 -11 -12h-29q-11 0 -11 12v359q0 83 -98 83q-91 0 -160 -60v-382q0 -12 -12 -12h-28q-12 0 -12 12v675q0 12 12 12h28q12 0 12 -12zM110 844l-60 -92q-7 -12 -17 -12h-23q-15 0 -6 12l78 114
q9 12 18 12h20q11 0 18 -11l79 -115q9 -12 -6 -12h-24q-7 0 -16 12z" />
    <glyph glyph-name="Hbar" unicode="&#x126;" horiz-adv-x="610" 
d="M149 668v-128h312v128q0 12 11 12h31q11 0 11 -12v-128h38q12 0 12 -12v-15q0 -12 -12 -12h-38v-489q0 -12 -11 -12h-31q-11 0 -11 12v328h-312v-328q0 -12 -11 -12h-30q-12 0 -12 12v489h-38q-12 0 -12 12v15q0 12 12 12h38v128q0 12 12 12h30q11 0 11 -12zM149 386h312
v115h-312v-115z" />
    <glyph glyph-name="hbar" unicode="&#x127;" horiz-adv-x="525" 
d="M137 687v-84h156q12 0 12 -11v-16q0 -12 -12 -12h-156v-124q74 61 172 61q68 0 102.5 -32.5t34.5 -87.5v-369q0 -12 -11 -12h-29q-11 0 -11 12v359q0 83 -98 83q-91 0 -160 -60v-382q0 -12 -12 -12h-28q-12 0 -12 12v552h-56q-12 0 -12 12v16q0 11 12 11h56v84
q0 12 12 12h28q12 0 12 -12z" />
    <glyph glyph-name="Itilde" unicode="&#x128;" horiz-adv-x="245" 
d="M149 668v-656q0 -12 -11 -12h-30q-12 0 -12 12v656q0 12 12 12h30q11 0 11 -12zM57 828q-19 0 -25 -10.5t-6 -43.5v-9q0 -11 -13 -11h-17q-10 0 -10 14l1 20q4 81 67 81q29 0 52 -19l46 -37q21 -17 36 -17q19 0 25 11t6 43v9q0 11 13 11h16q11 0 11 -13l-1 -20
q-4 -82 -68 -82q-26 0 -52 20l-45 36q-23 17 -36 17z" />
    <glyph glyph-name="itilde" unicode="&#x129;" horiz-adv-x="221" 
d="M137 481v-469q0 -12 -12 -12h-29q-11 0 -11 12v469q0 12 11 12h29q12 0 12 -12zM45 654q-19 0 -25 -11t-6 -44v-8q0 -11 -13 -11h-16q-11 0 -11 13l1 20q4 82 67 82q27 0 52 -20l46 -37q21 -17 36 -17q19 0 25 11t6 43v9q0 11 13 11h16q11 0 11 -13l-1 -20
q-4 -82 -67 -82q-28 0 -52 20l-46 36q-22 18 -36 18z" />
    <glyph glyph-name="Imacron" unicode="&#x12a;" horiz-adv-x="245" 
d="M149 668v-656q0 -12 -11 -12h-30q-12 0 -12 12v656q0 12 12 12h30q11 0 11 -12zM-6 820h257q12 0 12 -11v-18q0 -12 -12 -12h-257q-12 0 -12 12v18q0 11 12 11z" />
    <glyph glyph-name="imacron" unicode="&#x12b;" horiz-adv-x="221" 
d="M137 481v-469q0 -12 -12 -12h-29q-11 0 -11 12v469q0 12 11 12h29q12 0 12 -12zM-18 646h257q12 0 12 -12v-18q0 -12 -12 -12h-257q-12 0 -12 12v18q0 12 12 12z" />
    <glyph glyph-name="Ibreve" unicode="&#x12c;" horiz-adv-x="245" 
d="M149 668v-656q0 -12 -11 -12h-30q-12 0 -12 12v656q0 12 12 12h30q11 0 11 -12zM49 868v-17q0 -36 15 -55t58 -19q44 0 59 19t15 55v17q0 11 11 11h18q11 0 11 -11v-16q0 -53 -26 -81t-89 -28q-62 0 -87 27.5t-25 81.5v16q0 11 11 11h18q11 0 11 -11z" />
    <glyph glyph-name="ibreve" unicode="&#x12d;" horiz-adv-x="221" 
d="M137 481v-469q0 -12 -12 -12h-29q-11 0 -11 12v469q0 12 11 12h29q12 0 12 -12zM37 683v-18q0 -35 15 -54t59 -19q43 0 58 19t15 54v18q0 11 11 11h18q11 0 11 -11v-17q0 -53 -26 -81t-88 -28q-63 0 -88 28t-25 81v17q0 11 11 11h18q11 0 11 -11z" />
    <glyph glyph-name="Iogonek" unicode="&#x12e;" horiz-adv-x="245" 
d="M149 668v-656q0 -12 -11 -12h-10q-33 -6 -49 -26t-16 -42q0 -43 57 -43h23q12 0 12 -12v-14q0 -12 -15 -12h-30q-40 0 -65 18t-25 56q0 27 21.5 55t54.5 43v645q0 12 12 12h30q11 0 11 -12z" />
    <glyph glyph-name="iogonek" unicode="&#x12f;" horiz-adv-x="221" 
d="M129 -149h-31q-89 0 -89 74q0 27 21.5 55.5t54.5 42.5v457q0 13 12 13h28q12 0 12 -13v-468q0 -12 -12 -12h-9q-33 -7 -49 -26.5t-16 -41.5q0 -43 58 -43h22q12 0 12 -12v-14q0 -12 -14 -12zM137 687v-95q0 -12 -12 -12h-28q-12 0 -12 12v95q0 12 12 12h28q12 0 12 -12z
" />
    <glyph glyph-name="Idotaccent" unicode="&#x130;" horiz-adv-x="245" 
d="M149 668v-656q0 -12 -11 -12h-30q-12 0 -12 12v656q0 12 12 12h30q11 0 11 -12zM149 838v-77q0 -12 -12 -12h-29q-12 0 -12 12v77q0 12 12 12h29q12 0 12 -12z" />
    <glyph glyph-name="dotlessi" unicode="&#x131;" horiz-adv-x="221" 
d="M137 481v-469q0 -12 -12 -12h-29q-11 0 -11 12v469q0 12 11 12h29q12 0 12 -12z" />
    <glyph glyph-name="IJ" unicode="&#x132;" horiz-adv-x="737" 
d="M149 668v-656q0 -12 -11 -12h-30q-12 0 -12 12v656q0 12 12 12h30q11 0 11 -12zM331 174v-33q0 -50 29 -76.5t103 -26.5t102 26.5t28 76.5v527q0 12 11 12h30q12 0 12 -12v-535q0 -66 -40.5 -103.5t-142.5 -37.5t-143 37.5t-41 103.5v41q0 12 12 12h29q11 0 11 -12z" />
    <glyph glyph-name="ij" unicode="&#x133;" horiz-adv-x="441" 
d="M137 480v-468q0 -12 -12 -12h-28q-12 0 -12 12v468q0 13 12 13h28q12 0 12 -13zM137 687v-95q0 -12 -12 -12h-28q-12 0 -12 12v95q0 12 12 12h28q12 0 12 -12zM357 687v-95q0 -12 -12 -12h-29q-11 0 -11 12v95q0 12 11 12h29q12 0 12 -12zM357 480v-564q0 -124 -179 -124
h-6q-12 0 -12 12v21q0 12 12 12h6q127 0 127 83v560q0 13 11 13h29q12 0 12 -13z" />
    <glyph glyph-name="Jcircumflex" unicode="&#x134;" horiz-adv-x="492" 
d="M86 174v-33q0 -50 29 -76.5t103 -26.5t102 26.5t28 76.5v527q0 12 11 12h30q12 0 12 -12v-535q0 -66 -40.5 -103.5t-142.5 -37.5t-143 37.5t-41 103.5v41q0 12 12 12h29q11 0 11 -12zM373 844l-60 -92q-7 -12 -17 -12h-23q-15 0 -6 12l78 114q9 12 18 12h20q11 0 18 -11
l79 -115q9 -12 -6 -12h-24q-7 0 -16 12z" />
    <glyph glyph-name="jcircumflex" unicode="&#x135;" horiz-adv-x="221" 
d="M137 481v-566q0 -123 -180 -123h-5q-12 0 -12 12v20q0 12 12 12h5q128 0 128 83v562q0 12 11 12h29q12 0 12 -12zM112 674l-61 -92q-7 -12 -16 -12h-24q-15 0 -6 12l78 114q9 12 18 12h20q12 0 19 -11l78 -115q9 -12 -6 -12h-23q-8 0 -17 12z" />
    <glyph glyph-name="Kcommaaccent" unicode="&#x136;" horiz-adv-x="539" 
d="M249 -89v27q0 12 12 12h22q12 0 12 -12v-29q0 -52 -37 -114q-5 -9 -16 -6l-17 5q-11 3 -5 16q3 7 9.5 20.5t8.5 19t5.5 16t4.5 21t1 24.5zM229 345l289 -333q4 -4 1.5 -8t-7.5 -4h-40q-7 0 -19 12l-269 308h-35v-308q0 -12 -11 -12h-30q-12 0 -12 12v656q0 12 12 12h30
q11 0 11 -12v-307h34l247 308q9 11 20 11h33q15 0 6 -12z" />
    <glyph glyph-name="kcommaaccent" unicode="&#x137;" horiz-adv-x="450" 
d="M209 -89v27q0 12 12 12h22q12 0 12 -12v-29q0 -52 -37 -114q-5 -9 -16 -6l-17 5q-11 3 -5 16q3 7 9.5 20.5t8.5 19t5.5 16t4.5 21t1 24.5zM216 280l223 -268q4 -4 2 -8t-7 -4h-33q-12 0 -21 12l-206 245h-37v-245q0 -12 -12 -12h-29q-11 0 -11 12v675q0 12 11 12h29
q12 0 12 -12v-389h36l182 183q12 12 20 12h33q6 0 7.5 -3.5t-2.5 -8.5z" />
    <glyph glyph-name="kgreenlandic" unicode="&#x138;" horiz-adv-x="450" 
d="M216 275l223 -263q4 -4 2 -8t-7 -4h-33q-12 0 -21 12l-206 240h-37v-240q0 -12 -12 -12h-29q-11 0 -11 12v469q0 12 11 12h29q12 0 12 -12v-188h36l182 188q12 12 20 12h33q6 0 7.5 -3.5t-2.5 -8.5z" />
    <glyph glyph-name="Lacute" unicode="&#x139;" horiz-adv-x="494" 
d="M228 866l-81 -119q-5 -7 -14 -7h-25q-14 0 -6 11l73 117q7 10 15 10h32q15 0 6 -12zM149 668v-622h296q12 0 12 -12v-22q0 -12 -12 -12h-339q-10 0 -10 12v656q0 12 12 12h30q11 0 11 -12z" />
    <glyph glyph-name="lacute" unicode="&#x13a;" horiz-adv-x="221" 
d="M216 866l-81 -119q-5 -7 -14 -7h-25q-14 0 -6 11l73 117q7 10 15 10h32q15 0 6 -12zM137 687v-675q0 -12 -12 -12h-28q-12 0 -12 12v675q0 12 12 12h28q12 0 12 -12z" />
    <glyph glyph-name="Lcommaaccent" unicode="&#x13b;" horiz-adv-x="494" 
d="M245 -89v27q0 12 12 12h22q12 0 12 -12v-29q0 -52 -37 -114q-5 -9 -16 -6l-17 5q-11 3 -5 16q3 7 9.5 20.5t8.5 19t5.5 16t4.5 21t1 24.5zM149 668v-622h296q12 0 12 -12v-22q0 -12 -12 -12h-339q-10 0 -10 12v656q0 12 12 12h30q11 0 11 -12z" />
    <glyph glyph-name="lcommaaccent" unicode="&#x13c;" horiz-adv-x="221" 
d="M88 -89v27q0 12 12 12h22q12 0 12 -12v-29q0 -52 -37 -114q-5 -9 -16 -6l-17 5q-11 3 -5 16q3 7 9.5 20.5t8.5 19t5.5 16t4.5 21t1 24.5zM137 687v-675q0 -12 -12 -12h-28q-12 0 -12 12v675q0 12 12 12h28q12 0 12 -12z" />
    <glyph glyph-name="Lcaron" unicode="&#x13d;" horiz-adv-x="494" 
d="M328 659v27q0 12 12 12h22q12 0 12 -12v-29q0 -52 -37 -114q-5 -9 -16 -6l-17 5q-11 3 -5 16q3 7 9.5 20.5t8.5 19t5.5 16t4.5 21t1 24.5zM149 668v-622h296q12 0 12 -12v-22q0 -12 -12 -12h-339q-10 0 -10 12v656q0 12 12 12h30q11 0 11 -12z" />
    <glyph glyph-name="lcaron" unicode="&#x13e;" horiz-adv-x="260" 
d="M221 674v27q0 12 12 12h22q12 0 12 -12v-29q0 -52 -37 -114q-5 -9 -16 -6l-17 5q-11 3 -5 16q3 7 9.5 20.5t8.5 19t5.5 16t4.5 21t1 24.5zM137 687v-675q0 -12 -12 -12h-28q-12 0 -12 12v675q0 12 12 12h28q12 0 12 -12z" />
    <glyph glyph-name="Ldot" unicode="&#x13f;" horiz-adv-x="494" 
d="M149 668v-622h296q12 0 12 -12v-22q0 -12 -12 -12h-339q-10 0 -10 12v656q0 12 12 12h30q11 0 11 -12zM398 393v-77q0 -12 -12 -12h-29q-12 0 -12 12v77q0 12 12 12h29q12 0 12 -12z" />
    <glyph glyph-name="ldot" unicode="&#x140;" horiz-adv-x="288" 
d="M137 687v-675q0 -12 -12 -12h-28q-12 0 -12 12v675q0 12 12 12h28q12 0 12 -12zM269 393v-77q0 -12 -12 -12h-29q-12 0 -12 12v77q0 12 12 12h29q12 0 12 -12z" />
    <glyph glyph-name="Lslash" unicode="&#x141;" horiz-adv-x="494" 
d="M149 668v-300l69 29q10 5 15 -6l6 -12q5 -10 -8 -15l-82 -34v-284h296q12 0 12 -12v-22q0 -12 -12 -12h-339q-10 0 -10 12v296l-56 -23q-12 -5 -16 7l-4 11q-4 11 6 15l70 29v321q0 12 12 12h30q11 0 11 -12z" />
    <glyph glyph-name="lslash" unicode="&#x142;" horiz-adv-x="236" 
d="M144 687v-316l63 26q11 5 15 -6l6 -12q5 -10 -8 -15l-76 -32v-320q0 -12 -12 -12h-28q-12 0 -12 12v299l-63 -26q-12 -5 -16 7l-4 11q-4 11 6 15l77 31v338q0 12 12 12h28q12 0 12 -12z" />
    <glyph glyph-name="Nacute" unicode="&#x143;" horiz-adv-x="609" 
d="M513 668v-656q0 -12 -11 -12h-27q-8 0 -11 6l-286 509q-28 43 -32 59v-562q0 -12 -11 -12h-27q-12 0 -12 12v656q0 12 12 12h27q7 0 10 -5l289 -513l29 -57v563q0 12 12 12h27q11 0 11 -12zM411 866l-81 -119q-5 -7 -14 -7h-25q-14 0 -6 11l73 117q7 10 15 10h32
q15 0 6 -12z" />
    <glyph glyph-name="nacute" unicode="&#x144;" horiz-adv-x="525" 
d="M372 696l-81 -119q-5 -7 -14 -7h-25q-12 0 -6 11l72 117q7 10 16 10h32q13 0 6 -12zM122 493q12 0 12 -12l1 -42q75 62 174 62q68 0 102.5 -32.5t34.5 -87.5v-369q0 -12 -11 -12h-29q-11 0 -11 12v359q0 83 -98 83q-91 0 -160 -60v-382q0 -12 -12 -12h-28q-12 0 -12 12
v469q0 12 12 12h25z" />
    <glyph glyph-name="Ncommaaccent" unicode="&#x145;" horiz-adv-x="609" 
d="M513 668v-656q0 -12 -11 -12h-27q-8 0 -11 6l-286 509q-28 43 -32 59v-562q0 -12 -11 -12h-27q-12 0 -12 12v656q0 12 12 12h27q7 0 10 -5l289 -513l29 -57v563q0 12 12 12h27q11 0 11 -12zM284 -89v27q0 12 12 12h22q12 0 12 -12v-29q0 -52 -37 -114q-5 -9 -16 -6l-17 5
q-11 3 -5 16q3 7 9.5 20.5t8.5 19t5.5 16t4.5 21t1 24.5z" />
    <glyph glyph-name="ncommaaccent" unicode="&#x146;" horiz-adv-x="525" 
d="M243 -88v27q0 12 12 12h22q12 0 12 -12v-29q0 -52 -37 -114q-5 -9 -16 -6l-17 5q-11 3 -5 16q3 7 9.5 20.5t8.5 19t5.5 16t4.5 21t1 24.5zM122 493q12 0 12 -12l1 -42q75 62 174 62q68 0 102.5 -32.5t34.5 -87.5v-369q0 -12 -11 -12h-29q-11 0 -11 12v359q0 83 -98 83
q-91 0 -160 -60v-382q0 -12 -12 -12h-28q-12 0 -12 12v469q0 12 12 12h25z" />
    <glyph glyph-name="Ncaron" unicode="&#x147;" horiz-adv-x="609" 
d="M513 668v-656q0 -12 -11 -12h-27q-8 0 -11 6l-286 509q-28 43 -32 59v-562q0 -12 -11 -12h-27q-12 0 -12 12v656q0 12 12 12h27q7 0 10 -5l289 -513l29 -57v563q0 12 12 12h27q11 0 11 -12zM244 866l60 -92l61 92q9 12 16 12h24q15 0 6 -12l-79 -115q-7 -11 -18 -11h-20
q-9 0 -18 12l-78 114q-9 12 6 12h23q10 0 17 -12z" />
    <glyph glyph-name="ncaron" unicode="&#x148;" horiz-adv-x="525" 
d="M202 696l61 -92l60 92q9 12 17 12h23q15 0 6 -12l-78 -115q-7 -11 -19 -11h-20q-9 0 -18 12l-78 114q-9 12 6 12h24q9 0 16 -12zM122 493q12 0 12 -12l1 -42q75 62 174 62q68 0 102.5 -32.5t34.5 -87.5v-369q0 -12 -11 -12h-29q-11 0 -11 12v359q0 83 -98 83
q-91 0 -160 -60v-382q0 -12 -12 -12h-28q-12 0 -12 12v469q0 12 12 12h25z" />
    <glyph glyph-name="napostrophe" unicode="&#x149;" horiz-adv-x="525" 
d="M82 674v27q0 12 12 12h22q12 0 12 -12v-29q0 -52 -37 -114q-5 -9 -16 -6l-17 5q-11 3 -5 16q3 7 9.5 20.5t8.5 19t5.5 16t4.5 21t1 24.5zM122 493q12 0 12 -12l1 -42q75 62 174 62q68 0 102.5 -32.5t34.5 -87.5v-369q0 -12 -11 -12h-29q-11 0 -11 12v359q0 83 -98 83
q-91 0 -160 -60v-382q0 -12 -12 -12h-28q-12 0 -12 12v469q0 12 12 12h25z" />
    <glyph glyph-name="Eng" unicode="&#x14a;" horiz-adv-x="609" 
d="M513 668v-753q0 -123 -177 -123h-5q-12 0 -12 12v20q0 12 12 12h5q127 0 127 83v88l-285 508l-32 61v-564q0 -12 -11 -12h-27q-12 0 -12 12v656q0 12 12 12h27q7 0 10 -5l289 -513l29 -57v563q0 12 12 12h27q11 0 11 -12z" />
    <glyph glyph-name="eng" unicode="&#x14b;" horiz-adv-x="525" 
d="M96 493h26q12 0 12 -12l1 -42q75 62 174 62q68 0 103 -32.5t35 -86.5v-467q0 -123 -179 -123h-5q-12 0 -12 12v20q0 12 12 12h5q127 0 127 83v453q0 83 -98 83q-91 0 -160 -60v-383q0 -12 -12 -12h-29q-11 0 -11 12v469q0 12 11 12z" />
    <glyph glyph-name="Omacron" unicode="&#x14c;" horiz-adv-x="587" 
d="M85 133v414q0 141 208 141q210 0 210 -141v-414q0 -141 -210 -141q-208 0 -208 141zM449 141v398q0 103 -156 103q-155 0 -155 -103v-398q0 -103 155 -103q156 0 156 103zM165 820h257q12 0 12 -11v-18q0 -12 -12 -12h-257q-12 0 -12 12v18q0 11 12 11z" />
    <glyph glyph-name="omacron" unicode="&#x14d;" horiz-adv-x="508" 
d="M125 646h257q12 0 12 -12v-18q0 -12 -12 -12h-257q-12 0 -12 12v18q0 12 12 12zM73 115v262q0 124 181 124t181 -124v-262q0 -123 -181 -123t-181 123zM383 119v255q0 83 -129 83t-129 -83v-255q0 -83 129 -83t129 83z" />
    <glyph glyph-name="Obreve" unicode="&#x14e;" horiz-adv-x="587" 
d="M85 133v414q0 141 208 141q210 0 210 -141v-414q0 -141 -210 -141q-208 0 -208 141zM449 141v398q0 103 -156 103q-155 0 -155 -103v-398q0 -103 155 -103q156 0 156 103zM220 868v-17q0 -36 15 -55t58 -19q44 0 59 19t15 55v17q0 11 11 11h18q11 0 11 -11v-16
q0 -53 -26 -81t-89 -28q-62 0 -87 27.5t-25 81.5v16q0 11 11 11h18q11 0 11 -11z" />
    <glyph glyph-name="obreve" unicode="&#x14f;" horiz-adv-x="508" 
d="M73 115v262q0 124 181 124t181 -124v-262q0 -123 -181 -123t-181 123zM383 119v255q0 83 -129 83t-129 -83v-255q0 -83 129 -83t129 83zM175 683v-18q0 -35 15 -54t59 -19q43 0 58 19t15 54v18q0 11 11 11h18q11 0 11 -11v-17q0 -53 -26 -81t-88 -28q-63 0 -88 28t-25 81
v17q0 11 11 11h18q11 0 11 -11z" />
    <glyph glyph-name="Ohungarumlaut" unicode="&#x150;" horiz-adv-x="587" 
d="M436 866l-79 -116q-7 -10 -17 -10h-22q-13 0 -6 12l73 114q7 12 19 12h26q15 0 6 -12zM334 866l-65 -114q-6 -12 -16 -12h-22q-13 0 -7 12l59 114q6 12 16 12h27q7 0 9 -4t-1 -8zM85 133v414q0 141 208 141q210 0 210 -141v-414q0 -141 -210 -141q-208 0 -208 141z
M449 141v398q0 103 -156 103q-155 0 -155 -103v-398q0 -103 155 -103q156 0 156 103z" />
    <glyph glyph-name="ohungarumlaut" unicode="&#x151;" horiz-adv-x="508" 
d="M399 696l-80 -116q-7 -10 -16 -10h-22q-13 0 -6 12l73 114q7 12 19 12h26q15 0 6 -12zM296 696l-64 -114q-6 -12 -16 -12h-22q-13 0 -7 12l58 114q5 12 17 12h26q15 0 8 -12zM73 115v262q0 124 181 124t181 -124v-262q0 -123 -181 -123t-181 123zM383 119v255
q0 83 -129 83t-129 -83v-255q0 -83 129 -83t129 83z" />
    <glyph glyph-name="OE" unicode="&#x152;" horiz-adv-x="880" 
d="M85 133v414q0 141 208 141q104 0 156 -45v25q0 12 12 12h341q12 0 12 -11v-22q0 -12 -12 -12h-299v-255h281q12 0 12 -12v-20q0 -12 -12 -12h-281v-291h312q12 0 12 -11v-22q0 -12 -12 -12h-355q-11 0 -11 12v25q-52 -45 -156 -45q-208 0 -208 141zM293 37q153 0 156 98
v409q-3 99 -156 99q-155 0 -155 -103v-400q0 -103 155 -103z" />
    <glyph glyph-name="oe" unicode="&#x153;" horiz-adv-x="800" 
d="M73 115v263q0 123 181 123q115 0 151 -52q39 52 156 52q176 0 176 -123v-123q0 -11 -11 -11h-292v-127q0 -84 127 -84t127 84v22q0 11 12 11h24q12 0 12 -11v-24q0 -123 -175 -123q-118 0 -156 51q-35 -51 -151 -51q-181 0 -181 123zM383 119v255q0 84 -129 84t-129 -84
v-255q0 -84 129 -84t129 84zM434 376v-94h254v94q0 84 -127 84t-127 -84z" />
    <glyph glyph-name="Racute" unicode="&#x154;" horiz-adv-x="588" 
d="M302 282h-153v-270q0 -12 -11 -12h-30q-12 0 -12 12v656q0 12 11 12h195q209 0 209 -141v-116q0 -111 -128 -135l137 -276q5 -12 -11 -12h-30q-10 0 -15 12l-132 271q-10 -1 -30 -1zM302 634h-153v-307h153q156 0 156 103v101q0 103 -156 103zM374 866l-81 -119
q-5 -7 -14 -7h-25q-14 0 -6 11l73 117q7 10 15 10h32q15 0 6 -12z" />
    <glyph glyph-name="racute" unicode="&#x155;" horiz-adv-x="337" 
d="M230 696l-81 -119q-5 -7 -14 -7h-25q-12 0 -6 11l72 117q7 10 16 10h32q13 0 6 -12zM305 500q13 0 13 -11v-24q0 -12 -13 -12q-50 -2 -96 -24.5t-72 -45.5v-371q0 -12 -12 -12h-28q-12 0 -12 12v469q0 12 12 12h25q12 0 12 -12l2 -54q81 73 169 73z" />
    <glyph glyph-name="Rcommaaccent" unicode="&#x156;" horiz-adv-x="588" 
d="M268 -88v27q0 12 12 12h22q12 0 12 -12v-29q0 -52 -37 -114q-5 -9 -16 -6l-17 5q-11 3 -5 16q3 7 9.5 20.5t8.5 19t5.5 16t4.5 21t1 24.5zM302 282h-153v-270q0 -12 -11 -12h-30q-12 0 -12 12v656q0 12 11 12h195q209 0 209 -141v-116q0 -111 -128 -135l137 -276
q5 -12 -11 -12h-30q-10 0 -15 12l-132 271q-10 -1 -30 -1zM302 634h-153v-307h153q156 0 156 103v101q0 103 -156 103z" />
    <glyph glyph-name="rcommaaccent" unicode="&#x157;" horiz-adv-x="337" 
d="M88 -89v27q0 12 12 12h22q12 0 12 -12v-29q0 -52 -37 -114q-5 -9 -16 -6l-17 5q-11 3 -5 16q3 7 9.5 20.5t8.5 19t5.5 16t4.5 21t1 24.5zM305 500q13 0 13 -11v-24q0 -12 -13 -12q-50 -2 -96 -24.5t-72 -45.5v-371q0 -12 -12 -12h-28q-12 0 -12 12v469q0 12 12 12h25
q12 0 12 -12l2 -54q81 73 169 73z" />
    <glyph glyph-name="Rcaron" unicode="&#x158;" horiz-adv-x="588" 
d="M302 282h-153v-270q0 -12 -11 -12h-30q-12 0 -12 12v656q0 12 11 12h195q209 0 209 -141v-116q0 -111 -128 -135l137 -276q5 -12 -11 -12h-30q-10 0 -15 12l-132 271q-10 -1 -30 -1zM302 634h-153v-307h153q156 0 156 103v101q0 103 -156 103zM224 866l60 -92l61 92
q9 12 16 12h24q15 0 6 -12l-79 -115q-7 -11 -18 -11h-20q-9 0 -18 12l-78 114q-9 12 6 12h23q10 0 17 -12z" />
    <glyph glyph-name="rcaron" unicode="&#x159;" horiz-adv-x="337" 
d="M108 696l61 -92l60 92q9 12 17 12h23q15 0 6 -12l-78 -115q-7 -11 -19 -11h-20q-9 0 -18 12l-78 114q-9 12 6 12h24q9 0 16 -12zM305 500q13 0 13 -11v-24q0 -12 -13 -12q-50 -2 -96 -24.5t-72 -45.5v-371q0 -12 -12 -12h-28q-12 0 -12 12v469q0 12 12 12h25q12 0 12 -12
l2 -54q81 73 169 73z" />
    <glyph glyph-name="Sacute" unicode="&#x15a;" horiz-adv-x="563" 
d="M434 498v43q0 49 -33.5 75.5t-115.5 26.5t-115.5 -26.5t-33.5 -75.5v-37q0 -62 63 -85l192 -73q100 -38 100 -125v-88q0 -141 -207 -141q-208 0 -208 141v52q0 13 12 13h29q12 0 12 -13v-46q0 -102 154 -102q156 0 156 102v71q0 61 -83 93l-186 72q-35 13 -60.5 44
t-25.5 74v54q0 141 201 141t201 -141v-49q0 -12 -12 -12h-29q-11 0 -11 12zM390 866l-81 -119q-5 -7 -14 -7h-25q-14 0 -6 11l73 117q7 10 15 10h32q15 0 6 -12z" />
    <glyph glyph-name="sacute" unicode="&#x15b;" horiz-adv-x="464" 
d="M343 696l-81 -119q-5 -7 -14 -7h-25q-11 0 -6 11l72 117q7 10 16 10h32q13 0 6 -12zM356 361v31q0 69 -121 69q-119 0 -119 -69v-31q0 -23 17 -39.5t39 -22.5l156 -49q84 -27 84 -91v-59q0 -47 -44.5 -77.5t-132.5 -30.5t-131.5 30t-43.5 78v28q0 11 11 11h27
q10 0 10 -11v-26q0 -32 32.5 -51t94.5 -19q63 0 96 19t33 51v45q0 41 -63 61l-156 49q-30 10 -54 35.5t-24 59.5v40q0 48 41 78.5t128 30.5q86 0 127.5 -30.5t41.5 -78.5v-31q0 -11 -12 -11h-26q-11 0 -11 11z" />
    <glyph glyph-name="Scircumflex" unicode="&#x15c;" horiz-adv-x="563" 
d="M434 498v43q0 49 -33.5 75.5t-115.5 26.5t-115.5 -26.5t-33.5 -75.5v-37q0 -62 63 -85l192 -73q100 -38 100 -125v-88q0 -141 -207 -141q-208 0 -208 141v52q0 13 12 13h29q12 0 12 -13v-46q0 -102 154 -102q156 0 156 102v71q0 61 -83 93l-186 72q-35 13 -60.5 44
t-25.5 74v54q0 141 201 141t201 -141v-49q0 -12 -12 -12h-29q-11 0 -11 12zM281 844l-60 -92q-7 -12 -17 -12h-23q-15 0 -6 12l78 114q9 12 18 12h20q11 0 18 -11l79 -115q9 -12 -6 -12h-24q-7 0 -16 12z" />
    <glyph glyph-name="scircumflex" unicode="&#x15d;" horiz-adv-x="464" 
d="M232 674l-61 -92q-7 -12 -16 -12h-24q-15 0 -6 12l78 114q9 12 18 12h20q12 0 19 -11l78 -115q9 -12 -6 -12h-23q-8 0 -17 12zM356 361v31q0 69 -121 69q-119 0 -119 -69v-31q0 -23 17 -39.5t39 -22.5l156 -49q84 -27 84 -91v-59q0 -47 -44.5 -77.5t-132.5 -30.5
t-131.5 30t-43.5 78v28q0 11 11 11h27q10 0 10 -11v-26q0 -32 32.5 -51t94.5 -19q63 0 96 19t33 51v45q0 41 -63 61l-156 49q-30 10 -54 35.5t-24 59.5v40q0 48 41 78.5t128 30.5q86 0 127.5 -30.5t41.5 -78.5v-31q0 -11 -12 -11h-26q-11 0 -11 11z" />
    <glyph glyph-name="Scedilla" unicode="&#x15e;" horiz-adv-x="563" 
d="M276 -54h39q34 0 58 -18.5t24 -59.5t-24 -60t-58 -19h-118q-12 0 -12 12v11q0 12 12 12h112q48 0 48 44q0 43 -48 43h-59q-10 0 -14 4t-2 11l19 67q-177 10 -177 140v52q0 13 12 13h29q12 0 12 -13v-46q0 -102 154 -102q156 0 156 102v71q0 61 -83 93l-186 72
q-35 13 -60.5 44t-25.5 74v54q0 141 201 141t201 -141v-49q0 -12 -12 -12h-29q-11 0 -11 12v43q0 49 -33.5 75.5t-115.5 26.5t-115.5 -26.5t-33.5 -75.5v-37q0 -62 63 -85l192 -73q100 -38 100 -125v-88q0 -138 -202 -141z" />
    <glyph glyph-name="scedilla" unicode="&#x15f;" horiz-adv-x="464" 
d="M221 -54h39q34 0 58 -18.5t24 -59.5t-24 -60t-58 -19h-118q-12 0 -12 12v11q0 12 12 12h112q48 0 48 44q0 43 -48 43h-59q-10 0 -14 4t-2 11l19 68q-69 6 -103.5 35t-34.5 71v28q0 11 11 11h27q10 0 10 -11v-26q0 -32 32.5 -51t94.5 -19q63 0 96 19t33 51v45q0 41 -63 61
l-156 49q-30 10 -54 35.5t-24 59.5v40q0 48 41 78.5t128 30.5q86 0 127.5 -30.5t41.5 -78.5v-31q0 -11 -12 -11h-26q-11 0 -11 11v31q0 69 -121 69q-119 0 -119 -69v-31q0 -23 17 -39.5t39 -22.5l156 -49q84 -27 84 -91v-59q0 -47 -44.5 -77.5t-132.5 -30.5h-1z" />
    <glyph glyph-name="Scaron" unicode="&#x160;" horiz-adv-x="563" 
d="M434 498v43q0 49 -33.5 75.5t-115.5 26.5t-115.5 -26.5t-33.5 -75.5v-37q0 -62 63 -85l192 -73q100 -38 100 -125v-88q0 -141 -207 -141q-208 0 -208 141v52q0 13 12 13h29q12 0 12 -13v-46q0 -102 154 -102q156 0 156 102v71q0 61 -83 93l-186 72q-35 13 -60.5 44
t-25.5 74v54q0 141 201 141t201 -141v-49q0 -12 -12 -12h-29q-11 0 -11 12zM225 866l60 -92l61 92q9 12 16 12h24q15 0 6 -12l-79 -115q-7 -11 -18 -11h-20q-9 0 -18 12l-78 114q-9 12 6 12h23q10 0 17 -12z" />
    <glyph glyph-name="scaron" unicode="&#x161;" horiz-adv-x="464" 
d="M176 696l61 -92l60 92q9 12 17 12h23q15 0 6 -12l-78 -115q-7 -11 -19 -11h-20q-9 0 -18 12l-78 114q-9 12 6 12h24q9 0 16 -12zM356 361v31q0 69 -121 69q-119 0 -119 -69v-31q0 -23 17 -39.5t39 -22.5l156 -49q84 -27 84 -91v-59q0 -47 -44.5 -77.5t-132.5 -30.5
t-131.5 30t-43.5 78v28q0 11 11 11h27q10 0 10 -11v-26q0 -32 32.5 -51t94.5 -19q63 0 96 19t33 51v45q0 41 -63 61l-156 49q-30 10 -54 35.5t-24 59.5v40q0 48 41 78.5t128 30.5q86 0 127.5 -30.5t41.5 -78.5v-31q0 -11 -12 -11h-26q-11 0 -11 11z" />
    <glyph glyph-name="Tcommaaccent" unicode="&#x162;" horiz-adv-x="480" 
d="M217 -89v27q0 12 12 12h22q12 0 12 -12v-29q0 -52 -37 -114q-5 -9 -16 -6l-17 5q-11 3 -5 16q3 7 9.5 20.5t8.5 19t5.5 16t4.5 21t1 24.5zM32 680h416q12 0 12 -12v-22q0 -12 -12 -12h-182v-622q0 -12 -11 -12h-30q-12 0 -12 12v622h-181q-12 0 -12 12v22q0 12 12 12z
" />
    <glyph glyph-name="tcommaaccent" unicode="&#x163;" horiz-adv-x="343" 
d="M113 -89v27q0 12 12 12h22q12 0 12 -12v-29q0 -52 -37 -114q-5 -9 -16 -6l-17 5q-11 3 -5 16q3 7 9.5 20.5t8.5 19t5.5 16t4.5 21t1 24.5zM156 491h118q12 0 12 -11v-20q0 -12 -12 -12h-118v-320q0 -40 28.5 -61.5t97.5 -21.5h16q12 0 12 -12v-21q0 -12 -12 -12h-22
q-96 0 -134 31t-38 92v325h-63q-12 0 -12 12v16q0 11 12 12l53 3h10v108q0 13 12 13h29q11 0 11 -13v-108z" />
    <glyph glyph-name="Tcaron" unicode="&#x164;" horiz-adv-x="480" 
d="M32 680h416q12 0 12 -12v-22q0 -12 -12 -12h-182v-622q0 -12 -11 -12h-30q-12 0 -12 12v622h-181q-12 0 -12 12v22q0 12 12 12zM180 866l60 -92l61 92q9 12 16 12h24q15 0 6 -12l-79 -115q-7 -11 -18 -11h-20q-9 0 -18 12l-78 114q-9 12 6 12h23q10 0 17 -12z" />
    <glyph glyph-name="tcaron" unicode="&#x165;" horiz-adv-x="355" 
d="M240 665v27q0 12 12 12h22q12 0 12 -12v-29q0 -52 -37 -114q-5 -9 -16 -6l-17 5q-11 3 -5 16q3 7 9.5 20.5t8.5 19t5.5 16t4.5 21t1 24.5zM156 491h118q12 0 12 -11v-20q0 -12 -12 -12h-118v-320q0 -40 28.5 -61.5t97.5 -21.5h16q12 0 12 -12v-21q0 -12 -12 -12h-22
q-96 0 -134 31t-38 92v325h-63q-12 0 -12 12v16q0 11 12 12l53 3h10v108q0 13 12 13h29q11 0 11 -13v-108z" />
    <glyph glyph-name="Tbar" unicode="&#x166;" horiz-adv-x="480" 
d="M32 680h416q12 0 12 -12v-22q0 -12 -12 -12h-182v-180h156q12 0 12 -11v-16q0 -12 -12 -12h-156v-403q0 -12 -11 -12h-30q-12 0 -12 12v403h-152q-12 0 -12 12v16q0 11 12 11h152v180h-181q-12 0 -12 12v22q0 12 12 12z" />
    <glyph glyph-name="tbar" unicode="&#x167;" horiz-adv-x="343" 
d="M156 491h118q12 0 12 -11v-20q0 -12 -12 -12h-118v-114h119q12 0 12 -11v-16q0 -12 -12 -12h-119v-167q0 -40 28.5 -61.5t97.5 -21.5h16q12 0 12 -12v-21q0 -12 -12 -12h-22q-96 0 -134 31t-38 92v172h-63q-12 0 -12 12v16q0 11 12 11h63v114h-63q-12 0 -12 12v16
q0 11 12 12l53 3h10v108q0 13 12 13h29q11 0 11 -13v-108z" />
    <glyph glyph-name="Utilde" unicode="&#x168;" horiz-adv-x="599" 
d="M143 668v-527q0 -103 156 -103t156 103v527q0 12 12 12h30q11 0 11 -12v-535q0 -141 -209 -141t-209 141v535q0 12 12 12h30q11 0 11 -12zM234 828q-19 0 -25 -10.5t-6 -43.5v-9q0 -11 -13 -11h-17q-10 0 -10 14l1 20q4 81 67 81q29 0 52 -19l46 -37q21 -17 36 -17
q19 0 25 11t6 43v9q0 11 13 11h16q11 0 11 -13l-1 -20q-4 -82 -68 -82q-26 0 -52 20l-45 36q-23 17 -36 17z" />
    <glyph glyph-name="utilde" unicode="&#x169;" 
d="M385 12l-2 40q-70 -60 -167 -60q-67 0 -102 32.5t-35 86.5v369q0 13 11 13h29q12 0 12 -13v-358q0 -83 98 -83q83 0 154 59v382q0 13 11 13h29q11 0 11 -13v-468q0 -12 -11 -12h-26q-12 0 -12 12zM194 654q-19 0 -25 -11t-6 -44v-8q0 -11 -13 -11h-16q-11 0 -11 13l1 20
q4 82 67 82q27 0 52 -20l46 -37q21 -17 36 -17q19 0 25 11t6 43v9q0 11 13 11h16q11 0 11 -13l-1 -20q-4 -82 -67 -82q-28 0 -52 20l-46 36q-22 18 -36 18z" />
    <glyph glyph-name="Umacron" unicode="&#x16a;" horiz-adv-x="599" 
d="M143 668v-527q0 -103 156 -103t156 103v527q0 12 12 12h30q11 0 11 -12v-535q0 -141 -209 -141t-209 141v535q0 12 12 12h30q11 0 11 -12zM171 820h257q12 0 12 -11v-18q0 -12 -12 -12h-257q-12 0 -12 12v18q0 11 12 11z" />
    <glyph glyph-name="umacron" unicode="&#x16b;" 
d="M385 12l-2 40q-70 -60 -167 -60q-67 0 -102 32.5t-35 86.5v369q0 13 11 13h29q12 0 12 -13v-358q0 -83 98 -83q83 0 154 59v382q0 13 11 13h29q11 0 11 -13v-468q0 -12 -11 -12h-26q-12 0 -12 12zM131 646h257q12 0 12 -12v-18q0 -12 -12 -12h-257q-12 0 -12 12v18
q0 12 12 12z" />
    <glyph glyph-name="Ubreve" unicode="&#x16c;" horiz-adv-x="599" 
d="M143 668v-527q0 -103 156 -103t156 103v527q0 12 12 12h30q11 0 11 -12v-535q0 -141 -209 -141t-209 141v535q0 12 12 12h30q11 0 11 -12zM226 868v-17q0 -36 15 -55t58 -19q44 0 59 19t15 55v17q0 11 11 11h18q11 0 11 -11v-16q0 -53 -26 -81t-89 -28q-62 0 -87 27.5
t-25 81.5v16q0 11 11 11h18q11 0 11 -11z" />
    <glyph glyph-name="ubreve" unicode="&#x16d;" 
d="M385 12l-2 40q-70 -60 -167 -60q-67 0 -102 32.5t-35 86.5v369q0 13 11 13h29q12 0 12 -13v-358q0 -83 98 -83q83 0 154 59v382q0 13 11 13h29q11 0 11 -13v-468q0 -12 -11 -12h-26q-12 0 -12 12zM182 683v-18q0 -35 15 -54t59 -19q43 0 58 19t15 54v18q0 11 11 11h18
q11 0 11 -11v-17q0 -53 -26 -81t-88 -28q-63 0 -88 28t-25 81v17q0 11 11 11h18q11 0 11 -11z" />
    <glyph glyph-name="Uring" unicode="&#x16e;" horiz-adv-x="599" 
d="M391 811v-15q0 -33 -22.5 -53t-69.5 -20q-91 0 -91 73v15q0 73 91 73q47 0 69.5 -20t22.5 -53zM357 800v7q0 47 -58 47q-57 0 -57 -47v-7q0 -47 57 -47q58 0 58 47zM143 668v-527q0 -103 156 -103t156 103v527q0 12 12 12h30q11 0 11 -12v-535q0 -141 -209 -141t-209 141
v535q0 12 12 12h30q11 0 11 -12z" />
    <glyph glyph-name="uring" unicode="&#x16f;" 
d="M347 646v-19q0 -71 -90 -71t-90 71v19q0 71 90 71t90 -71zM315 632v9q0 46 -58 46q-57 0 -57 -46v-9q0 -46 57 -46q58 0 58 46zM385 12l-2 40q-70 -60 -167 -60q-67 0 -102 32.5t-35 86.5v369q0 13 11 13h29q12 0 12 -13v-358q0 -83 98 -83q83 0 154 59v382q0 13 11 13
h29q11 0 11 -13v-468q0 -12 -11 -12h-26q-12 0 -12 12z" />
    <glyph glyph-name="Uhungarumlaut" unicode="&#x170;" horiz-adv-x="599" 
d="M446 866l-79 -116q-7 -10 -17 -10h-22q-13 0 -6 12l73 114q7 12 19 12h26q15 0 6 -12zM344 866l-65 -114q-6 -12 -16 -12h-22q-13 0 -7 12l59 114q6 12 16 12h27q7 0 9 -4t-1 -8zM143 668v-527q0 -103 156 -103t156 103v527q0 12 12 12h30q11 0 11 -12v-535
q0 -141 -209 -141t-209 141v535q0 12 12 12h30q11 0 11 -12z" />
    <glyph glyph-name="uhungarumlaut" unicode="&#x171;" 
d="M385 12l-2 40q-70 -60 -167 -60q-67 0 -102 32.5t-35 86.5v369q0 13 11 13h29q12 0 12 -13v-358q0 -83 98 -83q83 0 154 59v382q0 13 11 13h29q11 0 11 -13v-468q0 -12 -11 -12h-26q-12 0 -12 12zM402 696l-80 -116q-7 -10 -16 -10h-22q-13 0 -6 12l73 114q7 12 19 12h26
q15 0 6 -12zM299 696l-64 -114q-6 -12 -16 -12h-22q-13 0 -7 12l58 114q5 12 17 12h26q15 0 8 -12z" />
    <glyph glyph-name="Uogonek" unicode="&#x172;" horiz-adv-x="599" 
d="M143 668v-527q0 -103 156 -103t156 103v527q0 12 12 12h30q11 0 11 -12v-535q0 -60 -38 -94q-1 -1 -22 -18t-27 -23.5t-15 -24t-9 -35.5q0 -49 58 -49h34q13 0 13 -12v-14q0 -12 -15 -12h-44q-39 0 -63.5 20t-24.5 58t27 71q-37 -8 -83 -8q-209 0 -209 141v535
q0 12 12 12h30q11 0 11 -12z" />
    <glyph glyph-name="uogonek" unicode="&#x173;" 
d="M425 -149h-27q-39 0 -63 18.5t-24 55.5q0 27 20 52t54 42l-2 33q-70 -60 -167 -60q-67 0 -102 32.5t-35 86.5v369q0 13 11 13h29q12 0 12 -13v-358q0 -83 98 -83q83 0 154 59v382q0 13 11 13h29q11 0 11 -13v-468q0 -12 -11 -12h-3q-33 -6 -49.5 -27t-16.5 -42
q0 -42 57 -42h16q12 0 12 -12v-14q0 -12 -14 -12z" />
    <glyph glyph-name="Wcircumflex" unicode="&#x174;" horiz-adv-x="791" 
d="M396 844l-60 -92q-7 -12 -17 -12h-23q-15 0 -6 12l78 114q9 12 18 12h20q11 0 18 -11l79 -115q9 -12 -6 -12h-24q-7 0 -16 12zM426 668l129 -506l15 -74q8 44 16 74l130 506q3 12 14 12h26q13 0 10 -12l-167 -656q-3 -12 -15 -12h-30q-11 0 -14 12l-131 514q-7 25 -13 64
l-14 -64l-130 -514q-3 -12 -15 -12h-30q-12 0 -15 12l-166 656q-3 12 9 12h31q11 0 14 -12l128 -506l16 -70q9 45 16 70l130 506q3 12 14 12h28q11 0 14 -12z" />
    <glyph glyph-name="wcircumflex" unicode="&#x175;" horiz-adv-x="639" 
d="M320 674l-61 -92q-7 -12 -16 -12h-24q-15 0 -6 12l78 114q9 12 18 12h20q12 0 19 -11l78 -115q9 -12 -6 -12h-23q-8 0 -17 12zM619 481l-131 -470q-3 -11 -13 -11h-34q-9 0 -12 11l-98 366q-3 10 -10 46l-12 -47l-103 -365q-3 -11 -13 -11h-33q-10 0 -13 11l-126 470
q-3 12 10 12h29q10 0 13 -12l100 -372l9 -40l10 40l102 372q3 12 14 12h32q11 0 14 -12l97 -372q8 -36 9 -38q0 3 10 38l101 372q3 12 13 12h25q13 0 10 -12z" />
    <glyph glyph-name="Ycircumflex" unicode="&#x176;" horiz-adv-x="509" 
d="M79 668l162 -308q3 -6 8 -19t6 -14l15 33l164 308q7 12 15 12h29q16 0 9 -12l-205 -386v-270q0 -12 -12 -12h-30q-11 0 -11 12v264l-206 392q-6 12 8 12h33q9 0 15 -12zM254 844l-60 -92q-7 -12 -17 -12h-23q-15 0 -6 12l78 114q9 12 18 12h20q11 0 18 -11l79 -115
q9 -12 -6 -12h-24q-7 0 -16 12z" />
    <glyph glyph-name="ycircumflex" unicode="&#x177;" horiz-adv-x="421" 
d="M74 481l123 -361q5 -15 14 -51q0 11 14 49l124 363q3 12 14 12h28q12 0 9 -12l-231 -677q-3 -12 -14 -12h-23q-12 0 -9 12l64 194l-166 483q-3 12 9 12h30q11 0 14 -12zM211 674l-61 -92q-7 -12 -16 -12h-24q-15 0 -6 12l78 114q9 12 18 12h20q12 0 19 -11l78 -115
q9 -12 -6 -12h-23q-8 0 -17 12z" />
    <glyph glyph-name="Ydieresis" unicode="&#x178;" horiz-adv-x="509" 
d="M79 668l162 -308q9 -18 14 -33q0 3 15 33l164 308q7 12 15 12h29q16 0 9 -12l-205 -386v-270q0 -12 -12 -12h-30q-11 0 -11 12v264l-206 392q-6 12 8 12h33q9 0 15 -12zM226 857v-98q0 -12 -11 -12h-18q-12 0 -12 12v98q0 12 12 12h18q11 0 11 -12zM324 857v-98
q0 -12 -11 -12h-18q-12 0 -12 12v98q0 12 12 12h18q11 0 11 -12z" />
    <glyph glyph-name="Zacute" unicode="&#x179;" horiz-adv-x="505" 
d="M85 680h348q12 0 12 -12v-22q0 -5 -2 -9l-323 -591h328q12 0 12 -12v-22q0 -12 -12 -12h-381q-11 0 -11 12v22q0 7 3 13l320 587h-294q-12 0 -12 12v22q0 12 12 12zM365 866l-81 -119q-5 -7 -14 -7h-25q-14 0 -6 11l73 117q7 10 15 10h32q15 0 6 -12z" />
    <glyph glyph-name="zacute" unicode="&#x17a;" horiz-adv-x="456" 
d="M324 696l-81 -119q-5 -7 -14 -7h-25q-12 0 -6 11l72 117q7 10 16 10h32q13 0 6 -12zM75 493h300q12 0 12 -12v-18q0 -7 -3 -11l-268 -408h272q12 0 12 -12v-20q0 -12 -12 -12h-325q-12 0 -12 12v20q0 6 3 10l267 407h-246q-12 0 -12 12v20q0 12 12 12z" />
    <glyph glyph-name="Zdotaccent" unicode="&#x17b;" horiz-adv-x="505" 
d="M279 838v-77q0 -12 -12 -12h-29q-12 0 -12 12v77q0 12 12 12h29q12 0 12 -12zM85 680h348q12 0 12 -12v-22q0 -5 -2 -9l-323 -591h328q12 0 12 -12v-22q0 -12 -12 -12h-381q-11 0 -11 12v22q0 7 3 13l320 587h-294q-12 0 -12 12v22q0 12 12 12z" />
    <glyph glyph-name="zdotaccent" unicode="&#x17c;" horiz-adv-x="456" 
d="M75 493h300q12 0 12 -12v-18q0 -7 -3 -11l-268 -408h272q12 0 12 -12v-20q0 -12 -12 -12h-325q-12 0 -12 12v20q0 6 3 10l267 407h-246q-12 0 -12 12v20q0 12 12 12zM255 675v-77q0 -12 -11 -12h-30q-12 0 -12 12v77q0 12 12 12h30q11 0 11 -12z" />
    <glyph glyph-name="Zcaron" unicode="&#x17d;" horiz-adv-x="505" 
d="M193 881l61 -92l60 92q9 12 17 12h23q15 0 6 -12l-78 -115q-7 -11 -19 -11h-20q-9 0 -18 12l-78 114q-9 12 6 12h24q9 0 16 -12zM85 680h348q12 0 12 -12v-22q0 -5 -2 -9l-323 -591h328q12 0 12 -12v-22q0 -12 -12 -12h-381q-11 0 -11 12v22q0 7 3 13l320 587h-294
q-12 0 -12 12v22q0 12 12 12z" />
    <glyph glyph-name="zcaron" unicode="&#x17e;" horiz-adv-x="456" 
d="M169 696l61 -92l60 92q9 12 17 12h23q15 0 6 -12l-78 -115q-7 -11 -19 -11h-20q-9 0 -18 12l-78 114q-9 12 6 12h24q9 0 16 -12zM75 493h300q12 0 12 -12v-18q0 -7 -3 -11l-268 -408h272q12 0 12 -12v-20q0 -12 -12 -12h-325q-12 0 -12 12v20q0 6 3 10l267 407h-246
q-12 0 -12 12v20q0 12 12 12z" />
    <glyph glyph-name="longs" unicode="&#x17f;" horiz-adv-x="314" 
d="M97 491h10v89q0 123 179 123h5q12 0 12 -12v-20q0 -12 -12 -12h-5q-127 0 -127 -83v-564q0 -12 -12 -12h-29q-11 0 -11 12v437h-65q-12 0 -12 11v16q0 12 12 12z" />
    <glyph glyph-name="florin" unicode="&#x192;" horiz-adv-x="545" 
d="M481 663h-9q-127 0 -137 -83l-22 -169h104q12 0 12 -12v-20q0 -12 -12 -12h-108l-54 -459q-15 -124 -193 -124h-5q-12 0 -12 12v20q0 13 12 13h9q127 0 137 83l54 455h-97q-12 0 -12 12v20q0 12 12 12h102l21 174q14 123 193 123h5q12 0 12 -12v-21q0 -12 -12 -12z" />
    <glyph glyph-name="Aringacute" unicode="&#x1fa;" 
d="M244 680h31q12 0 15 -12l203 -656q5 -12 -9 -12h-31q-11 0 -14 12l-61 194h-241l-59 -194q-3 -12 -14 -12h-29q-13 0 -9 12l203 656q3 12 15 12zM366 249l-83 268q-17 56 -25 105q-11 -60 -23 -103l-85 -270h216zM350 811v-15q0 -33 -22.5 -53t-69.5 -20q-91 0 -91 73v15
q0 67 80 73l42 70q7 10 16 10h32q13 0 6 -12l-50 -72q57 -13 57 -69zM316 800v7q0 47 -58 47q-57 0 -57 -47v-7q0 -47 57 -47q58 0 58 47z" />
    <glyph glyph-name="aringacute" unicode="&#x1fb;" horiz-adv-x="502" 
d="M75 360v18q0 123 174 123q95 0 134.5 -32t39.5 -91v-366q0 -12 -11 -12h-25q-12 0 -12 12l-2 40q-76 -60 -170 -60q-67 0 -102 32.5t-35 83.5v51q0 51 32.5 83.5t92.5 32.5h181v99q0 40 -27.5 62t-96.5 22t-96.5 -21.5t-27.5 -61.5v-15q0 -12 -12 -12h-26q-11 0 -11 12z
M214 36q83 0 158 59v138h-172q-83 0 -83 -80v-39q0 -78 97 -78zM340 646v-19q0 -71 -90 -71t-90 71v19q0 30 19.5 49.5t59.5 21.5l62 100q7 10 16 10h32q13 0 6 -12l-70 -102q55 -14 55 -67zM308 632v9q0 46 -58 46q-57 0 -57 -46v-9q0 -46 57 -46q58 0 58 46z" />
    <glyph glyph-name="AEacute" unicode="&#x1fc;" horiz-adv-x="840" 
d="M425 680h337q12 0 12 -11v-22q0 -11 -12 -11h-300v-256h282q12 0 12 -12v-20q0 -12 -12 -12h-282v-291h312q12 0 12 -12v-21q0 -12 -12 -12h-347q-16 0 -16 12v194h-221l-111 -194q-8 -12 -14 -12h-28q-17 0 -10 12l381 656q7 12 17 12zM378 530l-162 -281h195v341
q-22 -42 -33 -60zM570 866l-81 -119q-5 -7 -14 -7h-25q-14 0 -6 11l73 117q7 10 15 10h32q15 0 6 -12z" />
    <glyph glyph-name="aeacute" unicode="&#x1fd;" horiz-adv-x="789" 
d="M506 696l-81 -119q-5 -7 -14 -7h-25q-12 0 -6 11l72 117q7 10 16 10h32q13 0 6 -12zM726 378v-123q0 -11 -11 -11h-292v-130q0 -40 28.5 -60.5t98.5 -20.5q127 0 127 84v22q0 11 11 11h25q12 0 12 -11v-24q0 -123 -175 -123q-140 0 -167 72q-86 -72 -180 -72
q-69 0 -103 32t-34 84v42q0 51 32.5 83.5t92.5 32.5h181v117q0 78 -124 78q-69 0 -96.5 -21.5t-27.5 -61.5v-18q0 -12 -12 -12h-26q-12 0 -12 12v19q0 58 40 90t135 32q118 0 148 -61q34 61 153 61q176 0 176 -123zM214 34q79 0 158 69v125h-174q-40 0 -60.5 -22t-20.5 -58
v-34q0 -36 25 -58t72 -22zM423 376v-94h254v94q0 84 -127 84q-70 0 -98.5 -22t-28.5 -62z" />
    <glyph glyph-name="Oslashacute" unicode="&#x1fe;" horiz-adv-x="587" 
d="M85 133v413q0 142 208 142q87 0 141 -26l13 27q10 17 19 17h11q13 0 4 -17l-22 -44q44 -34 44 -99v-413q0 -141 -210 -141q-92 0 -141 26l-13 -27q-9 -17 -19 -17h-11q-13 0 -4 17l21 44q-41 34 -41 98zM449 140v399q0 30 -15 54l-259 -529q38 -27 118 -27q156 0 156 103
zM138 140q0 -32 14 -53l259 528q-40 27 -118 27q-155 0 -155 -103v-399zM395 866l-81 -119q-5 -7 -14 -7h-25q-14 0 -6 11l73 117q7 10 15 10h32q15 0 6 -12z" />
    <glyph glyph-name="oslashacute" unicode="&#x1ff;" horiz-adv-x="508" 
d="M73 115v262q0 124 181 124q72 0 115 -20l13 23q9 17 19 17h13q11 0 2 -17l-21 -38q40 -31 40 -89v-262q0 -123 -181 -123q-70 0 -117 20l-12 -21q-9 -17 -19 -17h-11q-14 0 -4 17l21 37q-39 29 -39 87zM383 119v255q0 29 -14 47l-209 -368q31 -17 94 -17q129 0 129 83z
M125 119q0 -27 13 -46l207 367q-31 17 -91 17q-129 0 -129 -83v-255zM361 696l-81 -119q-5 -7 -14 -7h-25q-11 0 -6 11l72 117q7 10 16 10h32q13 0 6 -12z" />
    <glyph glyph-name="Scommaaccent" unicode="&#x218;" horiz-adv-x="563" 
d="M266 -89v27q0 12 12 12h22q12 0 12 -12v-29q0 -52 -37 -114q-5 -9 -16 -6l-17 5q-11 3 -5 16q3 7 9.5 20.5t8.5 19t5.5 16t4.5 21t1 24.5zM434 498v43q0 49 -33.5 75.5t-115.5 26.5t-115.5 -26.5t-33.5 -75.5v-37q0 -62 63 -85l192 -73q100 -38 100 -125v-88
q0 -141 -207 -141q-208 0 -208 141v52q0 13 12 13h29q12 0 12 -13v-46q0 -102 154 -102q156 0 156 102v71q0 61 -83 93l-186 72q-35 13 -60.5 44t-25.5 74v54q0 141 201 141t201 -141v-49q0 -12 -12 -12h-29q-11 0 -11 12z" />
    <glyph glyph-name="scommaaccent" unicode="&#x219;" horiz-adv-x="464" 
d="M219 -90v27q0 12 12 12h22q12 0 12 -12v-29q0 -52 -37 -114q-5 -9 -16 -6l-17 5q-11 3 -5 16q3 7 9.5 20.5t8.5 19t5.5 16t4.5 21t1 24.5zM356 361v31q0 69 -121 69q-119 0 -119 -69v-31q0 -23 17 -39.5t39 -22.5l156 -49q84 -27 84 -91v-59q0 -47 -44.5 -77.5
t-132.5 -30.5t-131.5 30t-43.5 78v28q0 11 11 11h27q10 0 10 -11v-26q0 -32 32.5 -51t94.5 -19q63 0 96 19t33 51v45q0 41 -63 61l-156 49q-30 10 -54 35.5t-24 59.5v40q0 48 41 78.5t128 30.5q86 0 127.5 -30.5t41.5 -78.5v-31q0 -11 -12 -11h-26q-11 0 -11 11z" />
    <glyph glyph-name="dotlessj" unicode="&#x237;" horiz-adv-x="221" 
d="M137 481v-566q0 -123 -180 -123h-5q-12 0 -12 12v20q0 12 12 12h5q128 0 128 83v562q0 12 11 12h29q12 0 12 -12z" />
    <glyph glyph-name="circumflex" unicode="&#x2c6;" horiz-adv-x="345" 
d="M172 674l-61 -92q-7 -12 -16 -12h-24q-15 0 -6 12l78 114q9 12 18 12h20q12 0 19 -11l78 -115q9 -12 -6 -12h-23q-8 0 -17 12z" />
    <glyph glyph-name="caron" unicode="&#x2c7;" horiz-adv-x="345" 
d="M111 696l61 -92l60 92q9 12 17 12h23q15 0 6 -12l-78 -115q-7 -11 -19 -11h-20q-9 0 -18 12l-78 114q-9 12 6 12h24q9 0 16 -12z" />
    <glyph glyph-name="breve" unicode="&#x2d8;" horiz-adv-x="394" 
d="M123 683v-18q0 -35 15 -54t59 -19q43 0 58 19t15 54v18q0 11 11 11h18q11 0 11 -11v-17q0 -53 -26 -81t-88 -28q-63 0 -88 28t-25 81v17q0 11 11 11h18q11 0 11 -11z" />
    <glyph glyph-name="dotaccent" unicode="&#x2d9;" horiz-adv-x="237" 
d="M145 675v-77q0 -12 -11 -12h-30q-12 0 -12 12v77q0 12 12 12h30q11 0 11 -12z" />
    <glyph glyph-name="ring" unicode="&#x2da;" horiz-adv-x="377" 
d="M278 646v-19q0 -71 -90 -71t-90 71v19q0 71 90 71t90 -71zM246 632v9q0 46 -58 46q-57 0 -57 -46v-9q0 -46 57 -46q58 0 58 46z" />
    <glyph glyph-name="ogonek" unicode="&#x2db;" horiz-adv-x="225" 
d="M163 -149h-31q-43 0 -67.5 18.5t-24.5 54.5q0 55 70 96q12 8 23 4l14 -5q5 -2 6 -6.5t-5 -7.5q-66 -30 -66 -74q0 -42 62 -42h19q12 0 12 -12v-14q0 -12 -12 -12z" />
    <glyph glyph-name="tilde" unicode="&#x2dc;" horiz-adv-x="426" 
d="M147 654q-19 0 -25 -11t-6 -44v-8q0 -11 -13 -11h-16q-11 0 -11 13l1 20q4 82 67 82q27 0 52 -20l46 -37q21 -17 36 -17q19 0 25 11t6 43v9q0 11 13 11h16q11 0 11 -13l-1 -20q-4 -82 -67 -82q-28 0 -52 20l-46 36q-22 18 -36 18z" />
    <glyph glyph-name="hungarumlaut" unicode="&#x2dd;" horiz-adv-x="356" 
d="M284 696l-80 -116q-7 -10 -16 -10h-22q-13 0 -6 12l73 114q7 12 19 12h26q15 0 6 -12zM181 696l-64 -114q-6 -12 -16 -12h-22q-13 0 -7 12l58 114q5 12 17 12h26q15 0 8 -12z" />
    <glyph glyph-name="Delta" unicode="&#x394;" horiz-adv-x="373" 
d="M108 414h157q21 0 21 -22v-157q0 -21 -21 -21h-157q-22 0 -22 21v157q0 22 22 22z" />
    <glyph glyph-name="Omega" unicode="&#x3a9;" horiz-adv-x="373" 
d="M68 313q0 48 34.5 83t82.5 35q49 0 84 -35t35 -83q0 -49 -35 -83.5t-84 -34.5q-48 0 -82.5 34.5t-34.5 83.5zM85 313q0 -42 29 -71t71 -29t71.5 29t29.5 71q0 41 -29.5 71t-71.5 30t-71 -29.5t-29 -71.5z" />
    <glyph glyph-name="mu" unicode="&#x3bc;" 
d="M385 12l-2 40q-70 -60 -167 -60q-61 0 -89 33l4 -220q0 -13 -12 -13h-29q-11 0 -11 13v675q0 13 11 13h29q12 0 12 -13v-358q0 -83 98 -83q83 0 154 59v382q0 13 11 13h29q11 0 11 -13v-468q0 -12 -11 -12h-26q-12 0 -12 12z" />
    <glyph glyph-name="pi" unicode="&#x3c0;" horiz-adv-x="373" 
d="M66 427h238q7 0 10 -5t2 -12t-5 -14l-110 -179q-6 -9 -15.5 -9t-14.5 9l-111 179q-4 7 -5.5 14t1.5 12t10 5z" />
    <glyph glyph-name="Wgrave" unicode="&#x1e80;" horiz-adv-x="791" 
d="M368 747l-81 119q-8 12 5 12h32q9 0 16 -11l72 -116q7 -12 -5 -12h-25q-9 0 -14 8zM426 668l129 -506l15 -74q8 44 16 74l130 506q3 12 14 12h26q13 0 10 -12l-167 -656q-3 -12 -15 -12h-30q-11 0 -14 12l-131 514q-7 25 -13 64l-14 -64l-130 -514q-3 -12 -15 -12h-30
q-12 0 -15 12l-166 656q-3 12 9 12h31q11 0 14 -12l128 -506l16 -70q9 45 16 70l130 506q3 12 14 12h28q11 0 14 -12z" />
    <glyph glyph-name="wgrave" unicode="&#x1e81;" horiz-adv-x="639" 
d="M619 481l-131 -470q-3 -11 -13 -11h-34q-9 0 -12 11l-98 366q-3 10 -10 46l-12 -47l-103 -365q-3 -11 -13 -11h-33q-10 0 -13 11l-126 470q-3 12 10 12h29q10 0 13 -12l100 -372l9 -40l10 40l102 372q3 12 14 12h32q11 0 14 -12l97 -372q8 -36 9 -38q0 3 10 38l101 372
q3 12 13 12h25q13 0 10 -12zM295 577l-81 119q-9 12 6 12h32q9 0 16 -10l72 -117q7 -11 -5 -11h-25q-12 0 -15 7z" />
    <glyph glyph-name="Wacute" unicode="&#x1e82;" horiz-adv-x="791" 
d="M426 668l129 -506q11 -44 15 -73q7 41 16 73l130 506q3 12 14 12h26q13 0 10 -12l-167 -656q-3 -12 -15 -12h-30q-11 0 -14 12l-131 514q-7 25 -13 64l-14 -64l-130 -514q-3 -12 -15 -12h-30q-12 0 -15 12l-166 656q-3 12 9 12h31q11 0 14 -12l128 -506l16 -70
q9 45 16 70l130 506q3 12 14 12h28q11 0 14 -12zM505 866l-81 -119q-5 -7 -14 -7h-25q-14 0 -6 11l73 117q7 10 15 10h32q15 0 6 -12z" />
    <glyph glyph-name="wacute" unicode="&#x1e83;" horiz-adv-x="639" 
d="M431 696l-81 -119q-5 -7 -14 -7h-25q-11 0 -6 11l72 117q7 10 16 10h32q13 0 6 -12zM619 481l-131 -470q-3 -11 -13 -11h-34q-9 0 -12 11l-98 366q-3 10 -10 46l-12 -47l-103 -365q-3 -11 -13 -11h-33q-10 0 -13 11l-126 470q-3 12 10 12h29q10 0 13 -12l100 -372l9 -40
l10 40l102 372q3 12 14 12h32q11 0 14 -12l97 -372q8 -36 9 -38q0 3 10 38l101 372q3 12 13 12h25q13 0 10 -12z" />
    <glyph glyph-name="Wdieresis" unicode="&#x1e84;" horiz-adv-x="791" 
d="M426 668l129 -506q11 -44 15 -73q7 41 16 73l130 506q3 12 14 12h26q13 0 10 -12l-167 -656q-3 -12 -15 -12h-30q-11 0 -14 12l-131 514q-7 25 -13 64l-14 -64l-130 -514q-3 -12 -15 -12h-30q-12 0 -15 12l-166 656q-3 12 9 12h31q11 0 14 -12l128 -506l16 -70
q9 45 16 70l130 506q3 12 14 12h28q11 0 14 -12zM465 857v-98q0 -12 -11 -12h-18q-12 0 -12 12v98q0 12 12 12h18q11 0 11 -12zM367 857v-98q0 -12 -11 -12h-18q-12 0 -12 12v98q0 12 12 12h18q11 0 11 -12z" />
    <glyph glyph-name="wdieresis" unicode="&#x1e85;" horiz-adv-x="639" 
d="M291 690v-98q0 -12 -12 -12h-18q-12 0 -12 12v98q0 12 12 12h18q12 0 12 -12zM389 690v-98q0 -12 -12 -12h-18q-12 0 -12 12v98q0 12 12 12h18q12 0 12 -12zM619 481l-131 -470q-3 -11 -13 -11h-34q-9 0 -12 11l-98 366q-3 10 -10 46l-12 -47l-103 -365q-3 -11 -13 -11
h-33q-10 0 -13 11l-126 470q-3 12 10 12h29q10 0 13 -12l100 -372l9 -40l10 40l102 372q3 12 14 12h32q11 0 14 -12l97 -372q8 -36 9 -38q0 3 10 38l101 372q3 12 13 12h25q13 0 10 -12z" />
    <glyph glyph-name="Ygrave" unicode="&#x1ef2;" horiz-adv-x="509" 
d="M79 668l162 -308q9 -18 14 -33q0 3 15 33l164 308q7 12 15 12h29q16 0 9 -12l-205 -386v-270q0 -12 -12 -12h-30q-11 0 -11 12v264l-206 392q-6 12 8 12h33q9 0 15 -12zM225 747l-81 119q-8 12 5 12h32q9 0 16 -11l72 -116q7 -12 -5 -12h-25q-9 0 -14 8z" />
    <glyph glyph-name="ygrave" unicode="&#x1ef3;" horiz-adv-x="421" 
d="M74 481l123 -361q5 -15 14 -51q0 11 14 49l124 363q3 12 14 12h28q12 0 9 -12l-231 -677q-3 -12 -14 -12h-23q-12 0 -9 12l64 194l-166 483q-3 12 9 12h30q11 0 14 -12zM183 577l-81 119q-9 12 6 12h32q9 0 16 -10l72 -117q7 -11 -5 -11h-25q-12 0 -15 7z" />
    <glyph glyph-name="endash" unicode="&#x2013;" horiz-adv-x="550" 
d="M97 311h356q12 0 12 -11v-21q0 -12 -12 -12h-356q-12 0 -12 12v21q0 11 12 11z" />
    <glyph glyph-name="emdash" unicode="&#x2014;" horiz-adv-x="858" 
d="M97 311h665q12 0 12 -11v-21q0 -12 -12 -12h-665q-12 0 -12 12v21q0 11 12 11z" />
    <glyph glyph-name="quoteleft" unicode="&#x2018;" horiz-adv-x="213" 
d="M128 606v-59q0 -12 -11 -12h-30q-12 0 -12 12v61q0 86 88 114q11 3 15 -7l8 -21q4 -10 -7 -15q-51 -24 -51 -73z" />
    <glyph glyph-name="quoteright" unicode="&#x2019;" horiz-adv-x="212" 
d="M84 651v59q0 12 11 12h30q12 0 12 -12v-61q0 -86 -88 -114q-11 -3 -15 7l-8 21q-4 10 7 15q51 24 51 73z" />
    <glyph glyph-name="quotesinglbase" unicode="&#x201a;" horiz-adv-x="212" 
d="M84 30v59q0 12 11 12h30q12 0 12 -12v-61q0 -86 -88 -114q-11 -3 -15 7l-8 21q-4 10 7 15q51 24 51 73z" />
    <glyph glyph-name="quotedblleft" unicode="&#x201c;" horiz-adv-x="353" 
d="M269 606v-59q0 -12 -11 -12h-30q-12 0 -12 12v61q0 86 88 114q11 3 15 -7l8 -21q4 -10 -7 -15q-51 -24 -51 -73zM128 606v-59q0 -12 -11 -12h-30q-12 0 -12 12v61q0 86 88 114q11 3 15 -7l8 -21q4 -10 -7 -15q-51 -24 -51 -73z" />
    <glyph glyph-name="quotedblright" unicode="&#x201d;" horiz-adv-x="353" 
d="M225 651v59q0 12 11 12h30q12 0 12 -12v-61q0 -86 -88 -114q-11 -3 -15 7l-8 21q-4 10 7 15q51 24 51 73zM84 651v59q0 12 11 12h30q12 0 12 -12v-61q0 -86 -88 -114q-11 -3 -15 7l-8 21q-4 10 7 15q51 24 51 73z" />
    <glyph glyph-name="quotedblbase" unicode="&#x201e;" horiz-adv-x="353" 
d="M225 30v59q0 12 11 12h30q12 0 12 -12v-61q0 -86 -88 -114q-11 -3 -15 7l-8 21q-4 10 7 15q51 24 51 73zM84 30v59q0 12 11 12h30q12 0 12 -12v-61q0 -86 -88 -114q-11 -3 -15 7l-8 21q-4 10 7 15q51 24 51 73z" />
    <glyph glyph-name="dagger" unicode="&#x2020;" horiz-adv-x="553" 
d="M303 687v-675q0 -12 -12 -12h-29q-11 0 -11 12v675q0 12 11 12h29q12 0 12 -12zM108 498h111q12 0 12 -12v-21q0 -12 -12 -12h-111q-12 0 -12 12v21q0 12 12 12zM334 498h111q12 0 12 -12v-21q0 -12 -12 -12h-111q-12 0 -12 12v21q0 12 12 12z" />
    <glyph glyph-name="daggerdbl" unicode="&#x2021;" horiz-adv-x="553" 
d="M303 687v-675q0 -12 -12 -12h-29q-11 0 -11 12v675q0 12 11 12h29q12 0 12 -12zM108 498h111q12 0 12 -12v-21q0 -12 -12 -12h-111q-12 0 -12 12v21q0 12 12 12zM334 498h111q12 0 12 -12v-21q0 -12 -12 -12h-111q-12 0 -12 12v21q0 12 12 12zM108 246h111q12 0 12 -11
v-21q0 -13 -12 -13h-111q-12 0 -12 13v21q0 11 12 11zM334 246h111q12 0 12 -11v-21q0 -13 -12 -13h-111q-12 0 -12 13v21q0 11 12 11z" />
    <glyph glyph-name="bullet" unicode="&#x2022;" horiz-adv-x="245" 
d="M149 322v-125q0 -11 -11 -11h-30q-12 0 -12 11v125q0 12 12 12h30q11 0 11 -12z" />
    <glyph glyph-name="ellipsis" unicode="&#x2026;" horiz-adv-x="708" 
d="M133 89v-77q0 -12 -12 -12h-29q-12 0 -12 12v77q0 12 12 12h29q12 0 12 -12zM628 89v-77q0 -12 -12 -12h-29q-12 0 -12 12v77q0 12 12 12h29q12 0 12 -12zM381 89v-77q0 -12 -12 -12h-29q-12 0 -12 12v77q0 12 12 12h29q12 0 12 -12z" />
    <glyph glyph-name="perthousand" unicode="&#x2030;" horiz-adv-x="1065" 
d="M87 485v111q0 90 130 90q129 0 129 -90v-111q0 -91 -129 -91q-130 0 -130 91zM301 486v109q0 55 -84 55q-85 0 -85 -55v-109q0 -54 85 -54q84 0 84 54zM619 83v109q0 54 -85 54t-85 -54v-109q0 -55 85 -55t85 55zM405 82v111q0 91 129 91q130 0 130 -91v-111
q0 -90 -130 -90q-129 0 -129 90zM933 83v109q0 54 -84 54q-86 0 -86 -54v-109q0 -55 86 -55q84 0 84 55zM719 82v111q0 91 130 91q129 0 129 -91v-111q0 -90 -129 -90q-130 0 -130 90zM546 668l-298 -656q-5 -12 -17 -12h-26q-10 0 -5 12l299 656q5 12 16 12h25q12 0 6 -12z
" />
    <glyph glyph-name="guilsinglleft" unicode="&#x2039;" horiz-adv-x="381" 
d="M283 360l-154 -115l154 -114q12 -10 12 -19v-31q0 -6 -4 -7.5t-8 1.5l-186 140q-11 7 -11 16v28q0 9 11 16l186 141q4 3 8 1.5t4 -7.5v-33q0 -7 -12 -17z" />
    <glyph glyph-name="guilsinglright" unicode="&#x203a;" horiz-adv-x="381" 
d="M252 245l-154 115q-12 10 -12 17v33q0 6 4 7.5t8 -1.5l186 -141q11 -7 11 -16v-28q0 -9 -11 -16l-186 -140q-3 -2 -5.5 -2.5t-4.5 2t-2 6.5v31q0 9 12 19z" />
    <glyph glyph-name="fraction" unicode="&#x2044;" horiz-adv-x="435" 
d="M390 668l-298 -656q-5 -12 -17 -12h-26q-10 0 -5 12l299 656q5 12 16 12h25q12 0 6 -12z" />
    <glyph glyph-name="Euro" unicode="&#x20ac;" horiz-adv-x="646" 
d="M99 299h51v83h-51q-12 0 -12 12v13q0 11 12 11h51v129q0 141 204 141t204 -141v-52q0 -13 -11 -13h-29q-12 0 -12 13v44q0 49 -34.5 76t-117.5 27t-117 -26.5t-34 -76.5v-121h171q12 0 12 -11v-13q0 -12 -12 -12h-171v-83h171q12 0 12 -12v-13q0 -11 -12 -11h-171v-122
q0 -50 34 -76.5t117 -26.5t117.5 27t34.5 76v57q0 11 12 11h29q11 0 11 -11v-65q0 -141 -204 -141t-204 141v130h-51q-12 0 -12 11v13q0 12 12 12z" />
    <glyph glyph-name="afii61289" unicode="&#x2113;" horiz-adv-x="512" 
d="M144 122v118q-27 -14 -55.5 -26.5t-43.5 -17.5l-15 -6q-12 -5 -16 5l-9 22q-5 12 5 16q1 0 20 7.5t52.5 22.5t61.5 30v248q0 141 152 141q147 0 147 -141q0 -144 -247 -275v-134q0 -42 28 -65t97 -23h92q12 0 12 -12v-20q0 -12 -12 -12h-93q-176 0 -176 122zM196 536
v-217q198 110 198 219q0 48 -22 74t-77 26q-56 0 -77.5 -26t-21.5 -76z" />
    <glyph glyph-name="trademark" unicode="&#x2122;" horiz-adv-x="887" 
d="M791 670v-388q0 -10 -10 -10h-25q-10 0 -10 10v309q0 -1 -1.5 -5t-3.5 -10.5t-4 -10.5l-101 -221q-5 -10 -13 -10h-20q-8 0 -13 10l-103 223q-2 3 -9 25v-310q0 -10 -9 -10h-24q-9 0 -9 10v388q0 10 9 10h24q7 0 9 -5l125 -265l10 -27q0 4 10 26l124 266q2 5 9 5h25
q10 0 10 -10zM106 680h271q10 0 10 -9v-20q0 -9 -10 -9h-113v-360q0 -10 -9 -10h-27q-10 0 -10 10v360h-112q-10 0 -10 9v20q0 9 10 9z" />
    <glyph glyph-name="uni2126" unicode="&#x2126;" horiz-adv-x="373" 
d="M68 313q0 48 34.5 83t82.5 35q49 0 84 -35t35 -83q0 -49 -35 -83.5t-84 -34.5q-48 0 -82.5 34.5t-34.5 83.5zM85 313q0 -42 29 -71.5t71 -29.5t71.5 29.5t29.5 71.5q0 41 -29.5 70.5t-71.5 29.5t-71 -29.5t-29 -70.5z" />
    <glyph glyph-name="estimated" unicode="&#x212e;" horiz-adv-x="833" 
d="M753 340q0 -16 -16 -16h-587v-180q43 -60 110 -95.5t146 -35.5q143 0 247 113q5 5 9 5q9 0 9 -9q0 -6 -7 -15q-46 -53 -114 -84t-144 -31q-145 0 -246.5 101t-101.5 247q0 144 102 246t246 102q142 0 244.5 -102t102.5 -246zM406 666q-78 0 -145 -35.5t-111 -95.5v-191
h513v188q-45 61 -112.5 97.5t-144.5 36.5z" />
    <glyph glyph-name="partialdiff" unicode="&#x2202;" horiz-adv-x="373" 
d="M87 197v237q0 11 10.5 13t20.5 -5l179 -111q9 -6 9 -15.5t-9 -14.5l-179 -111q-10 -7 -20.5 -5.5t-10.5 12.5z" />
    <glyph glyph-name="uni2206" unicode="&#x2206;" horiz-adv-x="373" 
d="M108 413h157q21 0 21 -21v-157q0 -22 -21 -22h-157q-22 0 -22 22v157q0 21 22 21z" />
    <glyph glyph-name="product" unicode="&#x220f;" horiz-adv-x="373" 
d="M306 205h-238q-7 0 -10 5t-2 11.5t5 13.5l110 180q5 9 15 8.5t15 -8.5l111 -180q4 -7 5.5 -13.5t-1.5 -11.5t-10 -5z" />
    <glyph glyph-name="summation" unicode="&#x2211;" horiz-adv-x="373" 
d="M285 434v-237q0 -11 -10 -12.5t-20 5.5l-179 111q-9 5 -9 14.5t9 15.5l179 111q7 4 13.5 5t11.5 -2.5t5 -10.5z" />
    <glyph glyph-name="minus" unicode="&#x2212;" horiz-adv-x="590" 
d="M97 358h396q12 0 12 -12v-21q0 -12 -12 -12h-396q-12 0 -12 12v21q0 12 12 12z" />
    <glyph glyph-name="radical" unicode="&#x221a;" horiz-adv-x="373" 
d="M108 422h157q30 0 30 -30v-157q0 -30 -30 -30h-157q-30 0 -30 30v157q0 16 7 23t23 7zM265 405h-157q-13 0 -13 -13v-157q0 -13 13 -13h157q13 0 13 13v157q0 13 -13 13z" />
    <glyph glyph-name="infinity" unicode="&#x221e;" horiz-adv-x="373" 
d="M54 335l111 111q13 11 21 11q9 0 22 -11l111 -111q10 -11 10 -21q0 -11 -10 -22l-111 -111q-13 -11 -22 -11q-8 0 -21 11l-111 111q-12 14 -12 22q0 7 12 21zM178 434l-112 -112q-4 -4 -4 -9t4 -8l112 -112q3 -4 8 -4t9 4l112 112q4 4 4 8q0 3 -4 9l-112 112q-6 4 -9 4
q-4 0 -8 -4z" />
    <glyph glyph-name="integral" unicode="&#x222b;" horiz-adv-x="373" 
d="M31 313q0 65 45 110.5t109 45.5q65 0 111 -45.5t46 -110.5t-46 -110t-111 -45t-109.5 45t-44.5 110z" />
    <glyph glyph-name="approxequal" unicode="&#x2248;" horiz-adv-x="481" 
d="M156 407q-19 0 -25.5 -11t-6.5 -42v-10q0 -11 -13 -11h-16q-10 0 -10 14l1 21q4 85 66 85q19 0 49 -16l84 -46q28 -14 41 -14q19 0 25 11.5t6 42.5v9q0 11 13 11h16q10 0 10 -13l-1 -22q-4 -85 -64 -85q-23 0 -54 17l-85 47q-22 12 -36 12zM156 256q-19 0 -25.5 -11
t-6.5 -42v-10q0 -11 -13 -11h-16q-10 0 -10 14l1 21q4 85 66 85q19 0 49 -16l84 -46q28 -14 41 -14q19 0 25 11.5t6 42.5v9q0 11 13 11h16q10 0 10 -13l-1 -22q-4 -85 -64 -85q-23 0 -54 17l-85 47q-22 12 -36 12z" />
    <glyph glyph-name="notequal" unicode="&#x2260;" horiz-adv-x="590" 
d="M97 442h214l29 72q4 12 15 12h27q12 0 8 -12l-29 -72h132q12 0 12 -12v-21q0 -12 -12 -12h-149l-50 -126h199q12 0 12 -12v-21q0 -12 -12 -12h-216l-28 -72q-5 -12 -16 -12h-27q-12 0 -7 12l28 72h-130q-12 0 -12 12v21q0 12 12 12h147l50 126h-197q-12 0 -12 12v21
q0 12 12 12z" />
    <glyph glyph-name="lessequal" unicode="&#x2264;" horiz-adv-x="544" 
d="M447 519l-310 -118l310 -117q12 -4 12 -14v-29q0 -13 -12 -9l-351 140q-11 5 -11 14v31q0 9 11 14l351 140q12 5 12 -9v-29q0 -9 -12 -14zM97 167h350q12 0 12 -11v-21q0 -11 -12 -11h-350q-12 0 -12 11v21q0 11 12 11z" />
    <glyph glyph-name="greaterequal" unicode="&#x2265;" horiz-adv-x="543" 
d="M407 401l-310 118q-12 5 -12 14v29q0 14 12 10l351 -140q11 -5 11 -14v-33q0 -8 -11 -13l-351 -141q-12 -5 -12 10v30q0 9 12 13zM97 168h349q12 0 12 -12v-22q0 -11 -12 -11h-349q-12 0 -12 11v22q0 12 12 12z" />
    <glyph glyph-name="lozenge" unicode="&#x25ca;" horiz-adv-x="373" 
d="M60 329l111 111q8 7 15 7q8 0 15 -7l111 -111q8 -8 8 -15q0 -8 -8 -15l-111 -111q-7 -9 -15 -9q-6 0 -15 9l-111 111q-8 8 -8 15q0 5 8 15z" />
    <glyph glyph-name="CR" horiz-adv-x="0" 
 />
    <glyph glyph-name="commaaccent" horiz-adv-x="264" 
d="M106 62v27q0 12 12 12h22q12 0 12 -12v-29q0 -52 -37 -114q-5 -9 -16 -6l-17 5q-11 3 -5 16q3 7 9.5 20.5t8.5 19t5.5 16t4.5 21t1 24.5z" />
    <glyph glyph-name="acute.case" horiz-adv-x="233" 
d="M211 866l-81 -119q-5 -7 -14 -7h-25q-14 0 -6 11l73 117q7 10 15 10h32q15 0 6 -12z" />
    <glyph glyph-name="macron.case" horiz-adv-x="233" 
d="M-12 820h257q12 0 12 -11v-18q0 -12 -12 -12h-257q-12 0 -12 12v18q0 11 12 11z" />
    <glyph glyph-name="breve.case" horiz-adv-x="233" 
d="M43 868v-17q0 -36 15 -55t58 -19q44 0 59 19t15 55v17q0 11 11 11h18q11 0 11 -11v-16q0 -53 -26 -81t-89 -28q-62 0 -87 27.5t-25 81.5v16q0 11 11 11h18q11 0 11 -11z" />
    <glyph glyph-name="caron.case" horiz-adv-x="233" 
d="M56 866l60 -92l61 92q9 12 16 12h24q15 0 6 -12l-79 -115q-7 -11 -18 -11h-20q-9 0 -18 12l-78 114q-9 12 6 12h23q10 0 17 -12z" />
    <glyph glyph-name="ring.case" horiz-adv-x="233" 
d="M208 811v-15q0 -33 -22.5 -53t-69.5 -20q-91 0 -91 73v15q0 73 91 73q47 0 69.5 -20t22.5 -53zM174 800v7q0 47 -58 47q-57 0 -57 -47v-7q0 -47 57 -47q58 0 58 47z" />
    <glyph glyph-name="circumflex.case" horiz-adv-x="233" 
d="M116 844l-60 -92q-7 -12 -17 -12h-23q-15 0 -6 12l78 114q9 12 18 12h20q11 0 18 -11l79 -115q9 -12 -6 -12h-24q-7 0 -16 12z" />
    <glyph glyph-name="tilde.case" horiz-adv-x="233" 
d="M51 828q-19 0 -25 -10.5t-6 -43.5v-9q0 -11 -13 -11h-17q-10 0 -10 14l1 20q4 81 67 81q29 0 52 -19l46 -37q21 -17 36 -17q19 0 25 11t6 43v9q0 11 13 11h16q11 0 11 -13l-1 -20q-4 -82 -68 -82q-26 0 -52 20l-45 36q-23 17 -36 17z" />
    <glyph glyph-name="dieresis.case" horiz-adv-x="233" 
d="M88 857v-98q0 -12 -11 -12h-18q-12 0 -12 12v98q0 12 12 12h18q11 0 11 -12zM186 857v-98q0 -12 -11 -12h-18q-12 0 -12 12v98q0 12 12 12h18q11 0 11 -12z" />
    <glyph glyph-name="dotaccent.case" horiz-adv-x="233" 
d="M143 838v-77q0 -12 -12 -12h-29q-12 0 -12 12v77q0 12 12 12h29q12 0 12 -12z" />
    <glyph glyph-name="grave.case" horiz-adv-x="233" 
d="M136 747l-81 119q-8 12 5 12h32q9 0 16 -11l72 -116q8 -12 -5 -12h-25q-9 0 -14 8z" />
    <glyph glyph-name="hungarumlaut.case" horiz-adv-x="233" 
d="M222 866l-79 -116q-7 -10 -17 -10h-22q-13 0 -6 12l73 114q7 12 19 12h26q15 0 6 -12zM120 866l-65 -114q-6 -12 -16 -12h-22q-13 0 -7 12l59 114q6 12 16 12h27q7 0 9 -4t-1 -8z" />
    <glyph glyph-name="apple" horiz-adv-x="1489" 
d="M715 320q17 0 28.5 -13.5t11.5 -37.5q0 -68 -87 -68v-40l3 -32q-24 -8 -32 -8q-11 0 -11 8v75l-25 -3v-3q0 -79 -68 -79q-21 0 -31 10.5t-10 23.5q0 36 70 53v42q-17 -48 -46 -48q-28 0 -28 31v3q-19 -33 -53 -33q-29 0 -29 30v101l-29 -2v4q0 20 12 20h17l-3 30
q24 8 32 8q11 0 11 -8v-29h47v-3q0 -21 -12 -21h-35v-86q0 -16 13 -16q9 0 19 8t10 18v25l-3 33q24 8 32 8q11 0 11 -9v-66q0 -15 7 -15t16.5 17t9.5 31l-2 34q24 8 31 8q11 0 11 -9v-99l25 3v61l-3 36q24 8 32 8q11 0 11 -9v-40q17 48 47 48zM384 289v-49l3 -32
q-24 -8 -31 -8q-11 0 -11 8v66q0 16 -8 16q-7 0 -16.5 -17.5t-9.5 -30.5l2 -34q-24 -8 -31 -8q-11 0 -11 8v66q0 16 -8 16q-7 0 -16.5 -17.5t-9.5 -30.5l3 -34q-24 -8 -32 -8q-11 0 -11 8v69l-3 36q24 8 32 8q11 0 11 -9v-40q3 9 7.5 19t15 20t22.5 10q29 0 29 -32v-17
q14 49 45 49q28 0 28 -32zM1217 332l-29 -2v4q0 20 12 20h17l-3 30q24 8 32 8q11 0 11 -8v-29h47v-3q0 -21 -12 -21h-35v-90q0 -15 16 -15q11 0 38.5 5.5t46.5 5.5q17 0 39.5 -6t22.5 -18q0 -14 -9.5 -21t-17.5 -7q-2 0 -26.5 12t-44.5 12q-7 0 -32 -4t-44 -4q-20 0 -24 16
q-2 8 -5 108v7zM73 529v8h1338v-8h-1338zM73 0v8h1338v-8h-1338zM1075 289v-49l2 -32q-24 -8 -31 -8q-11 0 -11 8v67q0 15 -8 15q-7 0 -16.5 -17.5t-9.5 -30.5l3 -34q-24 -8 -32 -8q-11 0 -11 8v69l-3 36q24 8 32 8q11 0 11 -9v-40q18 49 45 49q29 0 29 -32zM154 258
q-16 -6 -44 -6q2 -22 26 -22q17 0 32 9q8 -5 8 -16q0 -4 -2.5 -8.5t-14 -9.5t-30.5 -5q-28 0 -44 14.5t-16 38.5q0 27 18.5 47.5t50.5 20.5q19 0 30 -9.5t11 -21.5q0 -24 -25 -32zM853 258q-16 -6 -44 -6q2 -22 26 -22q17 0 32 9q8 -5 8 -16q0 -4 -2.5 -8.5t-14 -9.5
t-30.5 -5q-28 0 -44 14.5t-16 38.5q0 27 18.5 47.5t50.5 20.5q19 0 30 -9.5t11 -21.5q0 -24 -25 -32zM1176 258q-16 -6 -44 -6q2 -22 26 -22q17 0 32 9q8 -5 8 -16q0 -4 -2.5 -8.5t-14 -9.5t-30.5 -5q-28 0 -44 14.5t-16 38.5q0 27 18.5 47.5t50.5 20.5q19 0 30 -9.5
t11 -21.5q0 -24 -25 -32zM668 219q45 6 45 51q0 20 -13 20t-22.5 -18.5t-9.5 -29.5v-23zM918 250q11 0 18.5 -7t7.5 -17t-7.5 -16.5t-18.5 -6.5t-18 6.5t-7 16.5t7 17t18 7zM563 194q-41 -9 -41 -32q0 -14 14 -14q25 0 27 46zM109 264q37 0 37 21q0 13 -13 13q-20 0 -24 -34
zM1131 264q37 0 37 21q0 13 -13 13q-20 0 -24 -34zM808 264q37 0 37 21q0 13 -13 13q-20 0 -24 -34z" />
    </font>
</defs>
</svg>
