<?xml version="1.0" encoding="UTF-8" standalone="no"?>
<svg width="99px" height="99px" viewBox="0 0 99 99" version="1.1" xmlns="http://www.w3.org/2000/svg" xmlns:xlink="http://www.w3.org/1999/xlink" xmlns:sketch="http://www.bohemiancoding.com/sketch/ns">
    <!-- Generator: Sketch 3.5.2 (25235) - http://www.bohemiancoding.com/sketch -->
    <title>facebook</title>
    <desc>Created with Sketch.</desc>
    <defs></defs>
    <g id="SOCIAL-ICONS" stroke="none" stroke-width="1" fill="none" fill-rule="evenodd" sketch:type="MSPage">
        <g id="Desktop-HD" sketch:type="MSArtboardGroup" transform="translate(-17.000000, -29.000000)" fill="#F0F0F0">
            <g id="social" sketch:type="MSLayerGroup" transform="translate(18.000000, 30.000000)">
                <path d="M87.6176471,0 L9.73529412,0 C4.38088235,0 0,4.365 0,9.7 L0,87.3 C0,92.635 4.38088235,97 9.73529412,97 L87.6176471,97 C92.9720588,97 97.3529412,92.635 97.3529412,87.3 L97.3529412,9.7 C97.3529412,4.365 92.9720588,0 87.6176471,0 L87.6176471,0 Z M82.75,19.7 L82.75,34.19375 L73.0147059,34.19375 C70.0941176,34.19375 68.1470588,36.12625 68.1470588,39.025 L68.1470588,48.6875 L82.75,48.6875 L82.75,63.18125 L68.1470588,63.18125 L68.1470588,97 L53.5441176,97 L53.5441176,63.18125 L43.8088235,63.18125 L43.8088235,48.6875 L53.5441176,48.6875 L53.5441176,36.609375 C53.5441176,27.43 61.3323529,19.7 70.5808824,19.7 L82.75,19.7 L82.75,19.7 Z" id="Shape" sketch:type="MSShapeGroup"></path>
            </g>
        </g>
    </g>
</svg>