<?xml version="1.0" encoding="UTF-8" standalone="no"?>
<svg width="100px" height="99px" viewBox="0 0 100 99" version="1.1" xmlns="http://www.w3.org/2000/svg" xmlns:xlink="http://www.w3.org/1999/xlink" xmlns:sketch="http://www.bohemiancoding.com/sketch/ns">
    <!-- Generator: Sketch 3.5.2 (25235) - http://www.bohemiancoding.com/sketch -->
    <title>instagram</title>
    <desc>Created with Sketch.</desc>
    <defs></defs>
    <g id="SOCIAL-ICONS" stroke="none" stroke-width="1" fill="none" fill-rule="evenodd" sketch:type="MSPage">
        <g id="Desktop-HD" sketch:type="MSArtboardGroup" transform="translate(-380.000000, -29.000000)" fill="#F0F0F0">
            <g id="social" sketch:type="MSLayerGroup" transform="translate(18.000000, 30.000000)">
                <path d="M451.068627,0 L373.186275,0 C367.831863,0 363.45098,4.365 363.45098,9.7 L363.45098,87.3 C363.45098,92.635 367.831863,97 373.186275,97 L451.068627,97 C456.423039,97 460.803922,92.635 460.803922,87.3 L460.803922,9.7 C460.803922,4.365 456.423039,0 451.068627,0 L451.068627,0 Z M412.127451,29.1 C422.836275,29.1 431.598039,37.83 431.598039,48.5 C431.598039,59.17 422.836275,67.9 412.127451,67.9 C401.418627,67.9 392.656863,59.17 392.656863,48.5 C392.656863,37.83 401.418627,29.1 412.127451,29.1 L412.127451,29.1 Z M375.620098,87.3 C374.159804,87.3 373.186275,86.33 373.186275,84.875 L373.186275,43.65 L383.408333,43.65 C382.921569,45.105 382.921569,47.045 382.921569,48.5 C382.921569,64.505 396.064216,77.6 412.127451,77.6 C428.190686,77.6 441.333333,64.505 441.333333,48.5 C441.333333,47.045 441.333333,45.105 440.846569,43.65 L451.068627,43.65 L451.068627,84.875 C451.068627,86.33 450.095098,87.3 448.634804,87.3 L375.620098,87.3 L375.620098,87.3 Z M451.068627,21.825 C451.068627,23.28 450.095098,24.25 448.634804,24.25 L438.89951,24.25 C437.439216,24.25 436.465686,23.28 436.465686,21.825 L436.465686,12.125 C436.465686,10.67 437.439216,9.7 438.89951,9.7 L448.634804,9.7 C450.095098,9.7 451.068627,10.67 451.068627,12.125 L451.068627,21.825 L451.068627,21.825 Z" id="Shape" sketch:type="MSShapeGroup"></path>
            </g>
        </g>
    </g>
</svg>