<?xml version="1.0" encoding="UTF-8" standalone="no"?>
<svg width="99px" height="99px" viewBox="0 0 99 99" version="1.1" xmlns="http://www.w3.org/2000/svg" xmlns:xlink="http://www.w3.org/1999/xlink" xmlns:sketch="http://www.bohemiancoding.com/sketch/ns">
    <!-- Generator: Sketch 3.5.2 (25235) - http://www.bohemiancoding.com/sketch -->
    <title>twitter</title>
    <desc>Created with Sketch.</desc>
    <defs></defs>
    <g id="SOCIAL-ICONS" stroke="none" stroke-width="1" fill="none" fill-rule="evenodd" sketch:type="MSPage">
        <g id="Desktop-HD" sketch:type="MSArtboardGroup" transform="translate(-199.000000, -29.000000)" fill="#F0F0F0">
            <g id="social" sketch:type="MSLayerGroup" transform="translate(18.000000, 30.000000)">
                <path d="M269.343137,0 L191.460784,0 C186.106373,0 181.72549,4.365 181.72549,9.7 L181.72549,87.3 C181.72549,92.635 186.106373,97 191.460784,97 L269.343137,97 C274.697549,97 279.078431,92.635 279.078431,87.3 L279.078431,9.7 C279.078431,4.365 274.697549,0 269.343137,0 L269.343137,0 Z M258.147549,35.405 C257.660784,57.715 243.544608,73.235 222.126961,74.205 C213.365196,74.69 207.037255,71.78 201.196078,68.385 C207.52402,69.355 215.79902,66.93 220.179902,63.05 C213.851961,62.565 209.957843,59.17 208.010784,53.835 C209.957843,54.32 211.904902,53.835 213.365196,53.835 C207.52402,51.895 203.629902,48.5 203.143137,40.74 C204.603431,41.71 206.55049,42.195 208.497549,42.195 C204.116667,39.77 201.196078,30.555 204.603431,24.735 C210.931373,31.525 218.719608,37.345 231.37549,38.315 C227.968137,24.735 246.465196,17.46 253.766667,26.675 C257.17402,26.19 259.607843,24.735 262.041667,23.765 C261.068137,27.16 259.121078,29.1 256.687255,31.04 C259.121078,30.555 261.554902,30.07 263.501961,29.1 C263.015196,31.525 260.581373,33.465 258.147549,35.405 L258.147549,35.405 Z" id="Shape" sketch:type="MSShapeGroup"></path>
            </g>
        </g>
    </g>
</svg>