<?xml version="1.0" encoding="utf-8"?>
<!-- Generator: Adobe Illustrator 16.0.4, SVG Export Plug-In . SVG Version: 6.00 Build 0)  -->
<!DOCTYPE svg PUBLIC "-//W3C//DTD SVG 1.1//EN" "http://www.w3.org/Graphics/SVG/1.1/DTD/svg11.dtd">
<svg version="1.1" xmlns="http://www.w3.org/2000/svg" xmlns:xlink="http://www.w3.org/1999/xlink" x="0px" y="0px" width="360px"
	 height="360px" viewBox="0 0 360 360" enable-background="new 0 0 360 360" xml:space="preserve">
<g id="original">
</g>
<g id="design">
	<g>
		<path fill="#00AC89" d="M354.625,179.996c0,96.437-78.181,174.63-174.626,174.63c-96.438,0-174.625-78.193-174.625-174.63
			S83.561,5.375,179.999,5.375C276.445,5.375,354.625,83.56,354.625,179.996z"/>
		<polygon fill="#414042" points="180.365,311.364 138.911,266.889 159.874,201.735 98.785,136.741 141.886,96.282 180.723,48.633 
			261.216,134.063 261.216,174.494 220.579,174.494 220.579,311.364 		"/>
		<polygon fill="#F8FBF6" points="220.845,94.935 180.723,94.935 180.723,48.633 138.911,48.633 138.911,94.935 98.785,94.935 
			98.785,136.741 138.911,136.741 138.911,266.889 180.723,266.889 180.723,136.741 220.845,136.741 		"/>
	</g>
</g>
<g id="guides">
</g>
</svg>
