<?xml version="1.0" encoding="utf-8"?>
<!-- Generator: Adobe Illustrator 16.0.4, SVG Export Plug-In . SVG Version: 6.00 Build 0)  -->
<!DOCTYPE svg PUBLIC "-//W3C//DTD SVG 1.1//EN" "http://www.w3.org/Graphics/SVG/1.1/DTD/svg11.dtd">
<svg version="1.1" xmlns="http://www.w3.org/2000/svg" xmlns:xlink="http://www.w3.org/1999/xlink" x="0px" y="0px" width="360px"
	 height="107.648px" viewBox="0 0 360 107.648" enable-background="new 0 0 360 107.648" xml:space="preserve">
<g id="original">
</g>
<g id="design">
	<g>
		<path fill="#FFFFFF" d="M133.412,18.446v3.736c0,1.005-0.431,1.389-1.437,1.389h-10.967v6.227h10.201
			c1.005,0,1.437,0.335,1.437,1.341v3.736c0,1.006-0.432,1.389-1.437,1.389h-10.201v11.973c0,1.006-0.337,1.438-1.342,1.438h-5.173
			c-1.006,0-1.389-0.432-1.389-1.438V18.543c0-1.006,0.383-1.438,1.389-1.438h17.481C132.981,17.105,133.412,17.441,133.412,18.446z
			"/>
		<path fill="#FFFFFF" d="M134.803,32.576c0-4.55,3.113-7.233,10.154-7.233c7.232,0,10.106,2.684,10.106,7.233v15.66
			c0,1.006-0.385,1.438-1.39,1.438h-4.406c-1.055,0-1.245-0.432-1.39-1.438l-0.096-0.718c-1.389,1.149-3.591,2.538-6.704,2.538
			c-4.837,0-7.041-2.969-7.041-6.131v-2.059c0-3.257,2.682-6.178,7.663-6.178h5.843v-2.635c0-1.485-0.718-2.203-2.729-2.203
			c-2.011,0-2.873,0.479-2.873,1.963v0.336c0,1.006-0.385,1.389-1.39,1.389h-4.359c-1.005,0-1.389-0.383-1.389-1.389V32.576z
			 M147.543,42.346v-1.58h-4.405c-1.39,0-1.629,0.766-1.629,1.484v0.623c0,1.102,0.909,1.246,1.629,1.246
			C144.765,44.119,146.441,43.111,147.543,42.346z"/>
		<path fill="#FFFFFF" d="M165.84,21.607c0,1.007-0.336,1.39-1.341,1.39h-4.935c-1.005,0-1.388-0.383-1.388-1.39v-3.975
			c0-1.006,0.383-1.438,1.388-1.438h4.935c1.005,0,1.341,0.432,1.341,1.438V21.607z M165.84,48.236c0,1.006-0.336,1.438-1.341,1.438
			h-4.935c-1.005,0-1.388-0.432-1.388-1.438V27.164c0-1.007,0.383-1.438,1.388-1.438h4.935c1.005,0,1.341,0.431,1.341,1.438V48.236z
			"/>
		<path fill="#FFFFFF" d="M182.316,25.822c1.006,0,1.436,0.335,1.436,1.342v3.256c0,1.006-0.43,1.39-1.436,1.39h-3.88v9.53
			c0,1.581,1.102,2.107,3.065,2.107h1.149c1.006,0,1.438,0.432,1.438,1.438v3.4c0,1.006-0.432,1.389-1.438,1.389h-2.395
			c-7.232,0-9.483-2.443-9.483-7.473V31.81h-2.106c-1.007,0-1.39-0.384-1.39-1.39v-2.921c0-1.005,0.383-1.245,1.39-1.39l2.059-0.287
			h0.048v-4.357c0-1.007,0.383-1.438,1.39-1.438h4.933c1.006,0,1.341,0.431,1.341,1.438v4.357H182.316z"/>
		<path fill="#FFFFFF" d="M193.188,27.738c1.341-1.054,3.641-2.396,7.231-2.396c4.359,0,7.041,2.778,7.041,6.657v16.236
			c0,1.006-0.383,1.438-1.389,1.438h-4.838c-1.006,0-1.437-0.432-1.437-1.438V33.965c0-1.484-0.287-2.061-1.819-2.061
			c-1.868,0-3.832,1.197-4.79,1.916v14.416c0,1.006-0.335,1.438-1.341,1.438h-4.933c-1.007,0-1.39-0.432-1.39-1.438V17.633
			c0-1.006,0.383-1.438,1.39-1.438h4.933c1.006,0,1.341,0.432,1.341,1.438V27.738z"/>
		<path fill="#FFFFFF" d="M239.888,31.953c1.006,0,1.437,0.334,1.437,1.341v8.573c0,4.119-2.778,8.189-11.782,8.189
			s-11.782-4.07-11.782-8.189V24.913c0-4.12,2.778-8.19,11.782-8.19s11.782,4.07,11.782,8.19v1.724c0,1.006-0.335,1.437-1.342,1.437
			h-4.933c-1.005,0-1.389-0.431-1.389-1.437v-0.336c0-2.202-1.677-3.113-4.023-3.113c-2.346,0-3.975,0.911-3.975,3.113v14.178
			c0,2.202,1.629,3.113,3.975,3.113c2.347,0,4.023-0.911,4.023-3.113v-2.061h-3.928c-1.005,0-1.437-0.383-1.437-1.389v-3.735
			c0-1.007,0.432-1.341,1.437-1.341H239.888z"/>
		<path fill="#FFFFFF" d="M243.961,32.814c0-4.549,3.735-7.472,10.967-7.472c7.232,0,10.968,2.923,10.968,7.472v9.771
			c0,4.55-3.735,7.471-10.968,7.471c-7.231,0-10.967-2.921-10.967-7.471V32.814z M258.232,33.438c0-1.58-1.341-2.107-3.305-2.107
			s-3.304,0.527-3.304,2.107v8.477c0,1.629,1.34,2.156,3.304,2.156s3.305-0.527,3.305-2.156V33.438z"/>
		<path fill="#FFFFFF" d="M280.648,32.145c0-1.293-1.293-1.532-2.635-1.532c-1.341,0-2.586,0.239-2.586,1.532v0.239
			c0,0.718,0.527,1.102,1.006,1.294l6.705,2.394c3.21,1.15,4.789,2.874,4.789,5.173v2.299c0,3.162-2.777,6.514-10.104,6.514
			c-7.328,0-10.01-3.352-10.01-6.514v-1.006c0-0.91,0.335-1.293,1.292-1.293h4.407c0.957,0,1.292,0.383,1.292,1.293v0.671
			c0,1.292,1.582,1.532,3.019,1.532s3.065-0.24,3.065-1.532v-0.431c0-0.623-0.385-0.91-1.868-1.484l-6.754-2.586
			c-1.771-0.672-3.783-2.875-3.783-5.222v-1.341c0-3.161,2.299-6.802,9.579-6.802c7.279,0,9.578,3.641,9.578,6.802v0.67
			c0,0.958-0.335,1.342-1.342,1.342h-4.357c-0.957,0-1.293-0.384-1.293-1.342V32.145z"/>
		<path fill="#FFFFFF" d="M296.071,25.727c1.007,0,1.294,0.431,1.39,1.438l0.096,0.814c1.341-1.007,3.593-2.636,7.375-2.636
			c4.838,0,7.089,2.826,7.089,7.376v9.962c0,4.55-2.251,7.376-7.089,7.376c-3.592,0-5.842-1.437-7.184-2.443v10.154
			c0,1.006-0.335,1.437-1.341,1.437h-4.934c-1.006,0-1.389-0.431-1.389-1.437V27.164c0-1.007,0.383-1.438,1.389-1.438H296.071z
			 M304.357,33.916c0-0.957-0.048-2.012-1.867-2.012c-1.868,0-3.784,1.246-4.742,1.964v7.663c0.958,0.719,2.874,1.964,4.742,1.964
			c1.819,0,1.867-1.054,1.867-2.012V33.916z"/>
		<path fill="#FFFFFF" d="M334.819,38.131c0,0.91-0.383,1.294-1.293,1.294h-11.638v2.873c0,1.437,0.861,2.108,2.873,2.108
			s2.922-0.672,2.922-2.108V42.25c0-1.006,0.383-1.389,1.389-1.389h4.119c1.005,0,1.389,0.383,1.389,1.389v0.336
			c0,4.55-2.587,7.471-9.818,7.471s-10.345-2.921-10.345-7.471v-9.771c0-4.549,3.113-7.472,10.345-7.472s10.058,2.923,10.058,7.472
			V38.131z M321.889,34.539h5.795V33.15c0-1.438-0.91-2.155-2.922-2.155s-2.873,0.718-2.873,2.155V34.539z"/>
		<path fill="#FFFFFF" d="M345.214,48.236c0,1.006-0.335,1.438-1.341,1.438h-4.934c-1.006,0-1.389-0.432-1.389-1.438V17.633
			c0-1.006,0.383-1.438,1.389-1.438h4.934c1.006,0,1.341,0.432,1.341,1.438V48.236z"/>
	</g>
	<g>
		<path fill="#FFFFFF" d="M124.373,65.021c0.261,0,0.39,0.104,0.39,0.391v0.805c0,0.285-0.129,0.389-0.39,0.389h-4.467v15.688
			c0,0.26-0.104,0.39-0.363,0.39h-1.117c-0.286,0-0.39-0.13-0.39-0.39V66.605h-4.467c-0.286,0-0.389-0.104-0.389-0.389v-0.805
			c0-0.286,0.103-0.391,0.389-0.391H124.373z"/>
		<path fill="#FFFFFF" d="M125.62,72.943c0-1.947,1.168-3.299,4.674-3.299c3.559,0,4.676,1.352,4.676,3.299v9.35
			c0,0.26-0.105,0.39-0.364,0.39h-0.936c-0.285,0-0.362-0.13-0.39-0.39l-0.051-0.936c-0.753,0.598-2.208,1.533-4.285,1.533
			c-2.416,0-3.585-1.377-3.585-3.065v-1.298c0-1.688,1.117-3.065,3.377-3.065h4.466v-2.337c0-1.168-0.623-2-2.935-2
			c-2.311,0-2.96,0.779-2.96,1.949v0.311c0,0.285-0.104,0.415-0.39,0.415h-0.936c-0.26,0-0.362-0.13-0.362-0.415V72.943z
			 M133.202,79.93v-3.039h-4.128c-1.403,0-1.975,0.727-1.975,1.87v0.831c0,1.143,0.701,1.793,2.26,1.793
			C131.229,81.385,132.605,80.396,133.202,79.93z"/>
		<path fill="#FFFFFF" d="M139.565,82.683c-0.285,0-0.389-0.13-0.389-0.39V64.918c0-0.26,0.104-0.39,0.389-0.39h1.038
			c0.261,0,0.364,0.13,0.364,0.39v6.259c0.753-0.571,2.208-1.532,4.415-1.532c2.468,0,3.585,1.352,3.585,3.324v6.598
			c0,1.973-1.117,3.324-3.585,3.324c-2.233,0-3.713-0.961-4.44-1.559l-0.053,0.961c-0.025,0.26-0.104,0.39-0.389,0.39H139.565z
			 M147.176,73.229c0-1.064-0.598-1.947-2.285-1.947c-1.948,0-3.325,1.013-3.923,1.479v7.038c0.598,0.441,1.975,1.455,3.923,1.455
			c1.688,0,2.285-0.883,2.285-1.947V73.229z"/>
		<path fill="#FFFFFF" d="M162.238,76.19c0,0.233-0.104,0.362-0.364,0.362h-7.35v2.884c0,1.194,0.624,1.999,3.012,1.999
			c2.391,0,3.014-0.805,3.014-1.999v-0.442c0-0.26,0.104-0.363,0.363-0.363h0.935c0.26,0,0.391,0.104,0.391,0.363v0.546
			c0,1.999-1.17,3.351-4.753,3.351c-3.559,0-4.728-1.352-4.728-3.351v-6.544c0-2,1.195-3.352,4.778-3.352
			c3.56,0,4.702,1.352,4.702,3.352V76.19z M154.524,75.178h6.025V73.1c0-1.17-0.728-2.001-3.014-2.001
			c-2.337,0-3.012,0.831-3.012,2.001V75.178z"/>
		<path fill="#FFFFFF" d="M172.521,70.034v0.856c0,0.261-0.155,0.391-0.415,0.391c-1.947,0.078-3.609,1.221-4.233,1.74v9.271
			c0,0.26-0.104,0.39-0.363,0.39h-1.039c-0.286,0-0.39-0.13-0.39-0.39V70.242c0-0.26,0.104-0.391,0.39-0.391h0.935
			c0.286,0,0.363,0.131,0.39,0.391l0.078,1.271c0.727-0.674,2.312-1.869,4.233-1.869C172.366,69.645,172.521,69.775,172.521,70.034z
			"/>
		<path fill="#FFFFFF" d="M177.015,70.242l0.051,0.987c0.728-0.624,2.234-1.585,4.441-1.585c2.415,0,3.585,1.352,3.585,3.194v9.454
			c0,0.26-0.105,0.39-0.364,0.39h-1.039c-0.259,0-0.39-0.13-0.39-0.39v-9.064c0-1.168-0.623-1.974-2.285-1.974
			c-1.922,0-3.324,0.987-3.922,1.454v9.584c0,0.26-0.104,0.39-0.363,0.39h-1.039c-0.286,0-0.39-0.13-0.39-0.39V70.242
			c0-0.26,0.104-0.391,0.39-0.391h0.936C176.91,69.852,176.988,69.982,177.015,70.242z"/>
		<path fill="#FFFFFF" d="M189.115,72.943c0-1.947,1.17-3.299,4.676-3.299c3.559,0,4.674,1.352,4.674,3.299v9.35
			c0,0.26-0.103,0.39-0.362,0.39h-0.936c-0.286,0-0.364-0.13-0.39-0.39l-0.052-0.936c-0.754,0.598-2.208,1.533-4.286,1.533
			c-2.415,0-3.583-1.377-3.583-3.065v-1.298c0-1.688,1.117-3.065,3.376-3.065h4.468v-2.337c0-1.168-0.623-2-2.936-2
			c-2.312,0-2.96,0.779-2.96,1.949v0.311c0,0.285-0.104,0.415-0.39,0.415h-0.936c-0.259,0-0.364-0.13-0.364-0.415V72.943z
			 M196.7,79.93v-3.039h-4.13c-1.402,0-1.974,0.727-1.974,1.87v0.831c0,1.143,0.701,1.793,2.259,1.793
			C194.726,81.385,196.103,80.396,196.7,79.93z"/>
		<path fill="#FFFFFF" d="M211.841,72.996v0.493c0,0.259-0.104,0.389-0.39,0.389h-0.962c-0.285,0-0.389-0.13-0.389-0.389V73.1
			c0-1.195-0.65-1.975-2.962-1.975c-2.311,0-2.96,0.779-2.96,1.975v6.311c0,1.221,0.649,2,2.96,2c2.312,0,2.962-0.779,2.962-2
			v-0.571c0-0.286,0.104-0.39,0.389-0.39h0.962c0.285,0,0.39,0.104,0.39,0.39v0.701c0,1.999-1.195,3.351-4.753,3.351
			s-4.702-1.352-4.702-3.351v-6.544c0-2,1.17-3.352,4.728-3.352S211.841,70.996,211.841,72.996z"/>
		<path fill="#FFFFFF" d="M217.164,82.293c0,0.26-0.104,0.39-0.363,0.39h-1.039c-0.286,0-0.39-0.13-0.39-0.39V64.918
			c0-0.26,0.104-0.39,0.39-0.39h1.039c0.259,0,0.363,0.13,0.363,0.39V82.293z"/>
		<path fill="#FFFFFF" d="M230.747,76.19c0,0.233-0.104,0.362-0.364,0.362h-7.35v2.884c0,1.194,0.624,1.999,3.012,1.999
			c2.391,0,3.014-0.805,3.014-1.999v-0.442c0-0.26,0.104-0.363,0.363-0.363h0.936c0.259,0,0.39,0.104,0.39,0.363v0.546
			c0,1.999-1.17,3.351-4.753,3.351c-3.558,0-4.728-1.352-4.728-3.351v-6.544c0-2,1.195-3.352,4.778-3.352
			c3.56,0,4.702,1.352,4.702,3.352V76.19z M223.033,75.178h6.025V73.1c0-1.17-0.728-2.001-3.014-2.001
			c-2.337,0-3.012,0.831-3.012,2.001V75.178z"/>
		<path fill="#FFFFFF" d="M255.134,82.293c0,0.26-0.105,0.39-0.391,0.39h-1.038c-0.286,0-0.391-0.13-0.391-0.39V68.892
			c-0.104,0.442-0.337,1.194-0.52,1.61l-3.766,9.09c-0.104,0.26-0.26,0.39-0.519,0.39h-0.962c-0.26,0-0.389-0.13-0.493-0.39
			l-3.922-9.324c-0.104-0.233-0.286-0.779-0.441-1.35v13.375c0,0.26-0.104,0.39-0.364,0.39h-0.986c-0.285,0-0.39-0.13-0.39-0.39
			V65.412c0-0.261,0.104-0.391,0.39-0.391h0.986c0.183,0,0.286,0.078,0.339,0.208l4.908,11.479c0.26,0.623,0.441,1.221,0.467,1.324
			c0.027-0.078,0.286-0.805,0.494-1.298l4.805-11.506c0.052-0.156,0.182-0.208,0.364-0.208h1.038c0.285,0,0.391,0.13,0.391,0.391
			V82.293z"/>
		<path fill="#FFFFFF" d="M261.572,67.333c0,0.261-0.103,0.39-0.363,0.39h-1.039c-0.285,0-0.39-0.129-0.39-0.39v-2.415
			c0-0.26,0.104-0.39,0.39-0.39h1.039c0.261,0,0.363,0.13,0.363,0.39V67.333z M261.572,82.293c0,0.26-0.103,0.39-0.363,0.39h-1.039
			c-0.285,0-0.39-0.13-0.39-0.39V70.242c0-0.26,0.104-0.391,0.39-0.391h1.039c0.261,0,0.363,0.131,0.363,0.391V82.293z"/>
		<path fill="#FFFFFF" d="M267.676,70.242l0.053,0.987c0.727-0.624,2.232-1.585,4.439-1.585c2.417,0,3.585,1.352,3.585,3.194v9.454
			c0,0.26-0.104,0.39-0.362,0.39h-1.039c-0.261,0-0.391-0.13-0.391-0.39v-9.064c0-1.168-0.623-1.974-2.285-1.974
			c-1.922,0-3.324,0.987-3.922,1.454v9.584c0,0.26-0.104,0.39-0.364,0.39h-1.039c-0.284,0-0.389-0.13-0.389-0.39V70.242
			c0-0.26,0.104-0.391,0.389-0.391h0.937C267.572,69.852,267.65,69.982,267.676,70.242z"/>
		<path fill="#FFFFFF" d="M281.752,67.333c0,0.261-0.104,0.39-0.363,0.39h-1.039c-0.286,0-0.39-0.129-0.39-0.39v-2.415
			c0-0.26,0.104-0.39,0.39-0.39h1.039c0.259,0,0.363,0.13,0.363,0.39V67.333z M281.752,82.293c0,0.26-0.104,0.39-0.363,0.39h-1.039
			c-0.286,0-0.39-0.13-0.39-0.39V70.242c0-0.26,0.104-0.391,0.39-0.391h1.039c0.259,0,0.363,0.131,0.363,0.391V82.293z"/>
		<path fill="#FFFFFF" d="M293.101,72.605c0-1.014-0.935-1.609-2.883-1.609c-1.921,0-2.831,0.596-2.831,1.609v0.676
			c0,0.805,0.754,1.246,1.325,1.428l3.999,1.299c1.298,0.416,2.234,1.247,2.234,2.468v1.479c0,1.559-1.403,2.936-4.728,2.936
			c-3.35,0-4.7-1.377-4.7-2.936v-0.701c0-0.232,0.104-0.363,0.363-0.363h0.961c0.26,0,0.338,0.131,0.338,0.363v0.623
			c0,1.039,1.039,1.637,3.038,1.637c1.974,0,3.065-0.598,3.065-1.637v-0.96c0-0.78-0.65-1.169-1.533-1.454l-4-1.325
			c-0.908-0.312-1.999-1.221-1.999-2.519v-1.014c0-1.559,1.168-2.961,4.492-2.961c3.299,0,4.521,1.402,4.521,2.961v0.753
			c0,0.233-0.104,0.339-0.364,0.339h-0.961c-0.233,0-0.338-0.105-0.338-0.339V72.605z"/>
		<path fill="#FFFFFF" d="M303.749,69.904c0.26,0,0.39,0.104,0.39,0.363v0.729c0,0.259-0.13,0.389-0.39,0.389h-2.909v7.766
			c0,1.221,0.701,2,3.013,2h0.441c0.261,0,0.39,0.104,0.39,0.389v0.754c0,0.285-0.129,0.39-0.39,0.39h-0.675
			c-3.558,0-4.597-1.247-4.597-3.351v-7.947h-1.56c-0.259,0-0.363-0.13-0.363-0.389v-0.623c0-0.261,0.104-0.365,0.363-0.391
			l1.352-0.078h0.208V67.15c0-0.259,0.13-0.389,0.389-0.389h1.065c0.26,0,0.363,0.13,0.363,0.389v2.754H303.749z"/>
		<path fill="#FFFFFF" d="M314.188,70.034v0.856c0,0.261-0.156,0.391-0.415,0.391c-1.948,0.078-3.61,1.221-4.234,1.74v9.271
			c0,0.26-0.104,0.39-0.362,0.39h-1.039c-0.286,0-0.39-0.13-0.39-0.39V70.242c0-0.26,0.104-0.391,0.39-0.391h0.934
			c0.286,0,0.364,0.131,0.39,0.391l0.078,1.271c0.728-0.674,2.312-1.869,4.234-1.869C314.032,69.645,314.188,69.775,314.188,70.034z
			"/>
		<path fill="#FFFFFF" d="M318.759,67.333c0,0.261-0.104,0.39-0.364,0.39h-1.039c-0.285,0-0.389-0.129-0.389-0.39v-2.415
			c0-0.26,0.104-0.39,0.389-0.39h1.039c0.26,0,0.364,0.13,0.364,0.39V67.333z M318.759,82.293c0,0.26-0.104,0.39-0.364,0.39h-1.039
			c-0.285,0-0.389-0.13-0.389-0.39V70.242c0-0.26,0.104-0.391,0.389-0.391h1.039c0.26,0,0.364,0.131,0.364,0.391V82.293z"/>
		<path fill="#FFFFFF" d="M332.342,76.19c0,0.233-0.104,0.362-0.364,0.362h-7.35v2.884c0,1.194,0.623,1.999,3.014,1.999
			c2.388,0,3.012-0.805,3.012-1.999v-0.442c0-0.26,0.104-0.363,0.364-0.363h0.935c0.261,0,0.39,0.104,0.39,0.363v0.546
			c0,1.999-1.168,3.351-4.753,3.351c-3.558,0-4.727-1.352-4.727-3.351v-6.544c0-2,1.194-3.352,4.779-3.352
			c3.558,0,4.7,1.352,4.7,3.352V76.19z M324.628,75.178h6.025V73.1c0-1.17-0.727-2.001-3.012-2.001
			c-2.338,0-3.014,0.831-3.014,2.001V75.178z"/>
		<path fill="#FFFFFF" d="M343.145,72.605c0-1.014-0.935-1.609-2.883-1.609c-1.921,0-2.83,0.596-2.83,1.609v0.676
			c0,0.805,0.753,1.246,1.324,1.428l3.999,1.299c1.298,0.416,2.234,1.247,2.234,2.468v1.479c0,1.559-1.403,2.936-4.728,2.936
			c-3.35,0-4.7-1.377-4.7-2.936v-0.701c0-0.232,0.104-0.363,0.363-0.363h0.962c0.259,0,0.337,0.131,0.337,0.363v0.623
			c0,1.039,1.039,1.637,3.038,1.637c1.974,0,3.065-0.598,3.065-1.637v-0.96c0-0.78-0.65-1.169-1.532-1.454l-4.001-1.325
			c-0.907-0.312-1.999-1.221-1.999-2.519v-1.014c0-1.559,1.168-2.961,4.492-2.961c3.299,0,4.521,1.402,4.521,2.961v0.753
			c0,0.233-0.104,0.339-0.364,0.339h-0.961c-0.233,0-0.338-0.105-0.338-0.339V72.605z"/>
	</g>
	<g>
		<circle fill="#00AC89" cx="54.528" cy="50.46" r="43.257"/>
		<g>
			<polygon fill="#414042" points="54.617,83.004 44.351,71.986 49.543,55.846 34.41,39.746 45.087,29.723 54.709,17.919 
				74.646,39.083 74.646,49.098 64.579,49.098 64.579,83.004 			"/>
			<polygon fill="#FFFFFF" points="64.646,29.389 54.709,29.389 54.709,17.919 44.351,17.919 44.351,29.389 34.41,29.389 
				34.41,39.746 44.351,39.746 44.351,71.986 54.709,71.986 54.709,39.746 64.646,39.746 			"/>
		</g>
	</g>
</g>
<g id="guides">
</g>
</svg>
